<?xml version="1.0" encoding="UTF-8"?>
<svg xmlns="http://www.w3.org/2000/svg" viewBox="0 0 1500 2000">
  <defs>
    <style>
      .at, .au, .av, .aw, .ax, .ay, .az, .ba {
        stroke: #000;
      }

      .at, .au, .av, .ax {
        stroke-width: .5px;
      }

      .at, .av, .aw, .ay, .az, .ba {
        stroke-miterlimit: 10;
      }

      .at, .bb, .aw, .ay, .az, .ba {
        fill: none;
      }

      .au {
        font-family: SUITVariable-Regular, 'SUIT Variable';
        font-size: 11.26px;
        font-variation-settings: 'wght' 400;
      }

      .au, .av, .ax {
        fill: #040000;
      }

      .av {
        fill-rule: evenodd;
      }

      .aw {
        stroke-width: .4px;
      }

      .ax {
        font-family: SUITVariable-Medium, 'SUIT Variable';
        font-size: 16.01px;
        font-variation-settings: 'wght' 500;
        font-weight: 500;
      }

      .ay {
        stroke-width: .25px;
      }

      .az {
        stroke-width: .3px;
      }

      .ba {
        stroke-width: .1px;
      }
    </style>
  </defs>
  <g id="c" data-name="f4">
    <g>
      <g id="d" data-name="HATCH">
        <rect class="ay" x="332.86" y="751.59" width="221.11" height="123.45"/>
        <path class="ay" d="M343.19,875.04v-123.45M379.19,875.04v-123.45M415.19,875.04v-123.45M451.19,875.04v-123.45M487.19,875.04v-123.45M523.19,875.04v-123.45M553.97,849.53h-221.11M553.97,813.53h-221.11M553.97,777.53h-221.11"/>
      </g>
      <g id="e" data-name="HATCH">
        <path class="ay" d="M566.02,929.79v-97.41M588.06,929.79v-97.41M610.11,929.79v-97.41M632.16,929.79v-97.41M654.21,962.39v-130.01M676.26,962.39v-130.01M698.31,962.39v-130.01M720.36,962.39v-130.01M742.4,962.39v-130.01"/>
      </g>
      <g id="f" data-name="HATCH">
        <path class="ba" d="M654.21,1096v-95.34M676.26,1096v-95.34M698.31,1096v-95.34M720.36,1096v-93.27M742.4,1096v-77.65M764.45,1096v-73.32M786.5,1096v-104.45M808.55,1096v-123.25M830.6,1096v-107.64M852.65,1096v-92.02M874.69,1096v-76.4"/>
      </g>
      <g id="g" data-name="LWPOLYLINE">
        <polyline class="az" points="1001.84 1044.98 1065.62 1044.98 1065.62 1274.58 646.39 1274.58"/>
      </g>
      <g id="h" data-name="LWPOLYLINE">
        <polyline class="az" points="646.39 1096 894.54 1096 894.54 1033.66"/>
      </g>
      <g id="i" data-name="LWPOLYLINE">
        <polyline class="aw" points="561.05 882.12 561.05 929.79 641.58 929.79 641.58 962.39 757.49 962.39 757.49 832.38 561.05 832.38"/>
      </g>
      <g id="j" data-name="LWPOLYLINE">
        <polyline class="aw" points="757.49 832.38 777.12 832.38 1001.84 991.55 1001.84 1061.98 934.53 1061.98 802.74 968.63 759.13 1030.2 717.42 1000.66 646.39 1000.66 646.39 1274.58 325.75 1274.58 325.75 882.12"/>
      </g>
      <g id="k" data-name="LWPOLYLINE">
        <polyline class="aw" points="757.49 840.88 774.41 840.88 993.34 995.95 993.34 1053.48 937.24 1053.48 800.71 956.77 757.1 1018.34 720.13 992.15 637.88 992.15 637.88 1266.08 334.26 1266.08 334.26 882.12"/>
      </g>
      <g id="l" data-name="LWPOLYLINE">
        <rect class="aw" x="325.77" y="744.5" width="235.28" height="137.62"/>
      </g>
      <g id="m" data-name="LWPOLYLINE">
        <rect class="aw" x="332.86" y="751.59" width="221.11" height="123.45"/>
      </g>
      <g id="n" data-name="frame">
        <rect class="bb" x="198.24" y="579.06" width="1190.55" height="841.89"/>
      </g>
    </g>
  </g>
  <g id="o" data-name="f3">
    <g>
      <g id="p" data-name="CIRCLE">
        <circle class="at" cx="112.87" cy="1869.8" r="14.88"/>
      </g>
      <g id="q" data-name="TEXT">
        <text class="au" transform="translate(116.4 1851.78) rotate(22.03) scale(.9 1)"><tspan x="0" y="0">N</tspan></text>
      </g>
      <g id="r" data-name="HATCH">
        <path class="av" d="M118.45,1856c-.23-.09-.46-.18-.7-.26l-5.57,13.78.69.28,5.58-13.8Z"/>
      </g>
      <g id="s" data-name="HATCH">
        <path class="av" d="M119.14,1856.3c-.23-.1-.45-.2-.69-.3l-5.58,13.8.69.28,5.57-13.78Z"/>
      </g>
      <g id="t" data-name="LINE">
        <line class="at" x1="117.75" y1="1855.74" x2="112.18" y2="1869.52"/>
      </g>
      <g id="u" data-name="LINE">
        <line class="at" x1="119.14" y1="1856.3" x2="113.56" y2="1870.08"/>
      </g>
      <g id="v" data-name="LINE">
        <line class="at" x1="112.87" y1="1869.8" x2="118.45" y2="1856"/>
      </g>
      <g id="w" data-name="MTEXT">
        <text class="ax" transform="translate(176.46 1886.03)"><tspan x="0" y="0">0</tspan></text>
      </g>
      <g id="x" data-name="MTEXT">
        <text class="ax" transform="translate(261.48 1886.03)"><tspan x="0" y="0">3</tspan></text>
      </g>
      <g id="y" data-name="MTEXT">
        <text class="ax" transform="translate(346.55 1886.03)"><tspan x="0" y="0">6</tspan></text>
      </g>
      <g id="z" data-name="MTEXT">
        <text class="ax" transform="translate(205.35 1886.03)"><tspan x="0" y="0">1</tspan></text>
      </g>
      <g id="aa" data-name="MTEXT">
        <text class="ax" transform="translate(425.11 1886.03)"><tspan x="0" y="0">9m</tspan></text>
      </g>
      <g id="ab" data-name="LWPOLYLINE">
        <polyline class="at" points="435.93 1853.39 435.93 1870.4 350.89 1870.4 350.89 1853.39 265.85 1853.39 265.85 1870.4 209.16 1870.4 209.16 1853.39 180.81 1853.39 180.81 1870.4"/>
      </g>
    </g>
  </g>
  <g id="af" data-name="SCALE">
    <g>
      <g id="ag" data-name="CIRCLE">
        <circle class="at" cx="112.87" cy="1869.8" r="14.88"/>
      </g>
      <g id="ah" data-name="TEXT">
        <text class="au" transform="translate(116.4 1851.78) rotate(22.03) scale(.9 1)"><tspan x="0" y="0">N</tspan></text>
      </g>
      <g id="ai" data-name="HATCH">
        <path class="av" d="M118.45,1856c-.23-.09-.46-.18-.7-.26l-5.57,13.78.69.28,5.58-13.8Z"/>
      </g>
      <g id="aj" data-name="HATCH">
        <path class="av" d="M119.14,1856.3c-.23-.1-.45-.2-.69-.3l-5.58,13.8.69.28,5.57-13.78Z"/>
      </g>
      <g id="ak" data-name="LINE">
        <line class="at" x1="117.75" y1="1855.74" x2="112.18" y2="1869.52"/>
      </g>
      <g id="al" data-name="LINE">
        <line class="at" x1="119.14" y1="1856.3" x2="113.56" y2="1870.08"/>
      </g>
      <g id="am" data-name="LINE">
        <line class="at" x1="112.87" y1="1869.8" x2="118.45" y2="1856"/>
      </g>
      <g id="an" data-name="MTEXT">
        <text class="ax" transform="translate(176.46 1886.03)"><tspan x="0" y="0">0</tspan></text>
      </g>
      <g id="ao" data-name="MTEXT">
        <text class="ax" transform="translate(261.48 1886.03)"><tspan x="0" y="0">3</tspan></text>
      </g>
      <g id="ap" data-name="MTEXT">
        <text class="ax" transform="translate(346.55 1886.03)"><tspan x="0" y="0">6</tspan></text>
      </g>
      <g id="aq" data-name="MTEXT">
        <text class="ax" transform="translate(205.35 1886.03)"><tspan x="0" y="0">1</tspan></text>
      </g>
      <g id="ar" data-name="MTEXT">
        <text class="ax" transform="translate(425.11 1886.03)"><tspan x="0" y="0">9m</tspan></text>
      </g>
      <g id="as" data-name="LWPOLYLINE">
        <polyline class="at" points="435.93 1853.39 435.93 1870.4 350.89 1870.4 350.89 1853.39 265.85 1853.39 265.85 1870.4 209.16 1870.4 209.16 1853.39 180.81 1853.39 180.81 1870.4"/>
      </g>
    </g>
  </g>
</svg>