<?xml version="1.0" encoding="UTF-8"?>
<svg xmlns="http://www.w3.org/2000/svg" viewBox="0 0 2400 1500">
  <defs>
    <style>
      .cls-1, .cls-2, .cls-3, .cls-4, .cls-5, .cls-6, .cls-7 {
        stroke: #000;
      }

      .cls-1, .cls-2, .cls-3, .cls-5 {
        stroke-width: .5px;
      }

      .cls-1, .cls-3, .cls-4, .cls-6, .cls-7 {
        stroke-miterlimit: 10;
      }

      .cls-1, .cls-8, .cls-4, .cls-6, .cls-7 {
        fill: none;
      }

      .cls-2 {
        font-family: SUITVariable-Regular, 'SUIT Variable';
        font-size: 11.26px;
        font-variation-settings: 'wght' 400;
      }

      .cls-2, .cls-3, .cls-5 {
        fill: #040000;
      }

      .cls-3 {
        fill-rule: evenodd;
      }

      .cls-4 {
        stroke-width: .4px;
      }

      .cls-5 {
        font-family: SUITVariable-Medium, 'SUIT Variable';
        font-size: 16.01px;
        font-variation-settings: 'wght' 500;
        font-weight: 500;
      }

      .cls-6 {
        stroke-width: .25px;
      }

      .cls-7 {
        stroke-width: .3px;
      }
    </style>
  </defs>
  <g id="f4">
    <g>
      <g id="HATCH">
        <rect class="cls-6" x="739.35" y="501.59" width="221.11" height="123.45"/>
        <path class="cls-6" d="M749.68,625.04v-123.45M785.68,625.04v-123.45M821.68,625.04v-123.45M857.68,625.04v-123.45M893.68,625.04v-123.45M929.68,625.04v-123.45M960.46,599.53h-221.11M960.46,563.53h-221.11M960.46,527.53h-221.11"/>
      </g>
      <g id="HATCH-2" data-name="HATCH">
        <path class="cls-6" d="M972.51,679.79v-97.41M994.55,679.79v-97.41M1016.6,679.79v-97.41M1038.65,679.79v-97.41M1060.7,712.39v-130.01M1082.75,712.39v-130.01M1104.8,712.39v-130.01M1126.84,712.39v-130.01M1148.89,712.39v-130.01"/>
      </g>
      <g id="HATCH-3" data-name="HATCH">
        <path class="cls-6" d="M1060.7,846v-95.34M1082.75,846v-95.34M1104.8,846v-95.34M1126.84,846v-93.27M1148.89,846v-77.65M1170.94,846v-73.32M1192.99,846v-104.45M1215.04,846v-123.25M1237.09,846v-107.64M1259.13,846v-92.02M1281.18,846v-76.4"/>
      </g>
      <g id="LWPOLYLINE">
        <polyline class="cls-7" points="1408.33 794.98 1472.11 794.98 1472.11 1024.58 1052.88 1024.58"/>
      </g>
      <g id="LWPOLYLINE-2" data-name="LWPOLYLINE">
        <polyline class="cls-7" points="1052.88 846 1301.03 846 1301.03 783.66"/>
      </g>
      <g id="LWPOLYLINE-3" data-name="LWPOLYLINE">
        <polyline class="cls-4" points="967.54 632.12 967.54 679.79 1048.07 679.79 1048.07 712.39 1163.98 712.39 1163.98 582.38 967.54 582.38"/>
      </g>
      <g id="LWPOLYLINE-4" data-name="LWPOLYLINE">
        <polyline class="cls-4" points="1163.98 582.38 1183.61 582.38 1408.33 741.55 1408.33 811.98 1341.02 811.98 1209.23 718.63 1165.62 780.2 1123.91 750.66 1052.88 750.66 1052.88 1024.58 732.24 1024.58 732.24 632.12"/>
      </g>
      <g id="LWPOLYLINE-5" data-name="LWPOLYLINE">
        <polyline class="cls-4" points="1163.98 590.88 1180.9 590.88 1399.83 745.95 1399.83 803.48 1343.73 803.48 1207.2 706.77 1163.59 768.34 1126.62 742.15 1044.37 742.15 1044.37 1016.08 740.75 1016.08 740.75 632.12"/>
      </g>
      <g id="LWPOLYLINE-6" data-name="LWPOLYLINE">
        <rect class="cls-4" x="732.26" y="494.5" width="235.28" height="137.62"/>
      </g>
      <g id="LWPOLYLINE-7" data-name="LWPOLYLINE">
        <rect class="cls-4" x="739.35" y="501.59" width="221.11" height="123.45"/>
      </g>
      <g id="frame">
        <rect class="cls-8" x="604.72" y="329.06" width="1190.55" height="841.89"/>
      </g>
    </g>
  </g>
  <g id="SCALE">
    <g>
      <g id="CIRCLE">
        <circle class="cls-1" cx="209.01" cy="1387.21" r="14.88"/>
      </g>
      <g id="TEXT">
        <text class="cls-2" transform="translate(212.54 1369.19) rotate(22.03) scale(.9 1)"><tspan x="0" y="0">N</tspan></text>
      </g>
      <g id="HATCH-4" data-name="HATCH">
        <path class="cls-3" d="M214.59,1373.41c-.23-.09-.46-.18-.7-.26l-5.57,13.78.69.28,5.58-13.8Z"/>
      </g>
      <g id="HATCH-5" data-name="HATCH">
        <path class="cls-3" d="M215.27,1373.71c-.23-.1-.45-.2-.69-.3l-5.58,13.8.69.28,5.57-13.78Z"/>
      </g>
      <g id="LINE">
        <line class="cls-1" x1="213.89" y1="1373.15" x2="208.31" y2="1386.93"/>
      </g>
      <g id="LINE-2" data-name="LINE">
        <line class="cls-1" x1="215.27" y1="1373.71" x2="209.7" y2="1387.49"/>
      </g>
      <g id="LINE-3" data-name="LINE">
        <line class="cls-1" x1="209.01" y1="1387.21" x2="214.59" y2="1373.41"/>
      </g>
      <g id="MTEXT">
        <text class="cls-5" transform="translate(272.6 1403.44)"><tspan x="0" y="0">0</tspan></text>
      </g>
      <g id="MTEXT-2" data-name="MTEXT">
        <text class="cls-5" transform="translate(357.61 1403.44)"><tspan x="0" y="0">3</tspan></text>
      </g>
      <g id="MTEXT-3" data-name="MTEXT">
        <text class="cls-5" transform="translate(442.69 1403.44)"><tspan x="0" y="0">6</tspan></text>
      </g>
      <g id="MTEXT-4" data-name="MTEXT">
        <text class="cls-5" transform="translate(301.49 1403.44)"><tspan x="0" y="0">1</tspan></text>
      </g>
      <g id="MTEXT-5" data-name="MTEXT">
        <text class="cls-5" transform="translate(521.25 1403.44)"><tspan x="0" y="0">9m</tspan></text>
      </g>
      <g id="LWPOLYLINE-8" data-name="LWPOLYLINE">
        <polyline class="cls-1" points="532.07 1370.8 532.07 1387.81 447.03 1387.81 447.03 1370.8 361.99 1370.8 361.99 1387.81 305.3 1387.81 305.3 1370.8 276.95 1370.8 276.95 1387.81"/>
      </g>
    </g>
  </g>
</svg>