<?xml version="1.0" encoding="UTF-8"?>
<svg xmlns="http://www.w3.org/2000/svg" viewBox="0 0 1200 1600">
  <defs>
    <style>
      .mn, .mo, .mp, .mq, .mr, .ms, .mt, .mu, .mv, .mw, .mx, .my, .mz, .na, .nb, .nc, .nd, .ne, .nf, .ng, .nh, .ni, .nj, .nk {
        stroke: #000;
      }

      .mn, .mo, .mp, .mq, .ms, .mt, .mu, .mv, .nl, .mx, .my, .mz, .na, .nb, .nc, .nd, .ne, .nf, .nm, .ng, .ni, .nj, .nk {
        fill: none;
      }

      .mn, .mo, .mp, .mq, .ms, .mt, .mu, .mv, .mx, .my, .mz, .na, .nb, .nc, .nd, .ne, .nf, .ng, .nh, .ni, .nj, .nk {
        stroke-miterlimit: 10;
      }

      .mn, .mw, .nh {
        stroke-width: .5px;
      }

      .mo {
        stroke-dasharray: 2.1 1.05;
      }

      .mo, .mp, .mz, .nb, .ni, .nk {
        stroke-width: .2px;
      }

      .nn {
        fill: #d6d6d6;
      }

      .nn, .nh {
        fill-rule: evenodd;
      }

      .mq {
        stroke-width: .22px;
      }

      .mr {
        fill: #040000;
        stroke-width: .34px;
      }

      .ms {
        stroke-width: .7px;
      }

      .mt {
        stroke-dasharray: 1.93 .96;
      }

      .mt, .mu, .my, .nc, .nd, .ne, .nm {
        stroke-width: .26px;
      }

      .mu {
        stroke-dasharray: 2 1;
      }

      .mv {
        stroke-width: .8px;
      }

      .mx {
        stroke-width: .4px;
      }

      .my {
        stroke-dasharray: 2.07 1.04;
      }

      .mz {
        stroke-dasharray: 2.06 1.03;
      }

      .na {
        stroke-width: 2px;
      }

      .nb {
        stroke-dasharray: 1.95 .97;
      }

      .nc {
        stroke-dasharray: 2.01 1;
      }

      .nd {
        stroke-dasharray: 2.04 1.02;
      }

      .nf {
        stroke-width: .3px;
      }

      .nm {
        stroke: #040000;
        stroke-linecap: round;
        stroke-linejoin: round;
      }

      .ng {
        stroke-width: .1px;
      }

      .nh {
        fill: #060001;
      }

      .ni {
        stroke-dasharray: 2.1 1.05;
      }

      .nj {
        stroke-width: 1.2px;
      }

      .nk {
        stroke-dasharray: 2.1 1.05;
      }
    </style>
  </defs>
  <g id="b" data-name="s1">
    <g>
      <g id="c" data-name="HATCH">
        <path class="nn" d="M1122.57,992.26h-251.31v-1.98h-7.65v1.98H145v-1.98h-9.92v1.98h-2.83v11.34h990.33s0-11.34,0-11.34M255.57,873.21h97.8v12.76h11.34v-12.76h99.21v12.76h11.34v-12.76h99.21v12.76h11.34v-12.76h99.21v12.76h11.34v-12.76h99.21v12.76h11.34v-12.76h59.53v-8.22h-2.83v3.97H135.08v17.01h11.34v-12.76h97.82v12.76h11.34v-12.76M255.57,773.99h97.8v12.76h11.34v-12.76h99.21v12.76h11.34v-12.76h99.21v12.76h11.34v-12.76h99.21v12.76h11.34v-12.76h99.21v12.76h11.34v-12.76h62.36v-46.77h-4.25v42.52h-447.17s0-3.97,0-3.97h-7.09v3.97H135.08v17.01h11.34v-12.76h97.82v12.76h11.34v-12.76M441.91,627.75h-4.25v42.77H139.35v-42.77h-4.25v47.03h306.81v-47.03Z"/>
      </g>
      <g id="d" data-name="HATCH">
        <path class="nm" d="M137.91,787.72l.97-.97M137.91,790.27l3.52-3.52M137.91,792.81l5.67-5.67M137.91,795.36l5.67-5.67M137.91,797.9l5.67-5.67M137.91,800.45l5.67-5.67M138.85,802.06l4.73-4.73M141.4,802.06l2.18-2.18M137.91,828.45l.88-.88M137.91,831l3.43-3.43M137.91,833.54l5.67-5.67M137.91,836.09l5.67-5.67M137.91,838.63l5.67-5.67M137.91,841.18l5.67-5.67M137.91,843.72l5.67-5.67M137.91,846.27l5.67-5.67M137.91,848.82l5.67-5.67M137.91,851.36l5.67-5.67M137.91,853.91l5.67-5.67M137.91,856.45l5.67-5.67M137.91,859l5.67-5.67M137.91,861.54l5.67-5.67M137.91,864.09l5.67-5.67M137.91,866.64l5.67-5.67M138.14,868.95l5.44-5.44M140.69,868.95l2.9-2.9M143.23,868.95l.35-.35M137.91,887l1.04-1.04M137.91,889.55l3.58-3.58M137.91,892.09l5.67-5.67M137.91,894.64l5.67-5.67M137.91,897.18l5.67-5.67M137.91,899.73l5.67-5.67M137.91,902.27l5.67-5.67M137.91,904.82l5.67-5.67M137.91,907.36l5.67-5.67M137.91,909.91l5.67-5.67M137.91,912.46l5.67-5.67M137.91,915l5.67-5.67M138.32,917.14l5.27-5.27M140.86,917.14l2.72-2.72M143.41,917.14l.17-.17M137.91,943l.35-.35M137.91,945.55l2.89-2.89M137.91,948.09l5.44-5.44M137.91,950.64l5.67-5.67M137.91,953.18l5.67-5.67M137.91,955.73l5.67-5.67M137.91,958.28l5.67-5.67M137.91,960.82l5.67-5.67M137.91,963.37l5.67-5.67M137.91,965.91l5.67-5.67M137.91,968.46l5.67-5.67M137.91,971l5.67-5.67M137.91,973.55l5.67-5.67M137.91,976.1l5.67-5.67M137.91,978.64l5.67-5.67M137.91,981.19l5.67-5.67M137.91,983.73l5.67-5.67M137.91,986.28l5.67-5.67M137.91,988.82l5.67-5.67M139.01,990.28l4.58-4.58M141.55,990.28l2.03-2.03M718.47,874.11l.9-.9M718.47,876.65l3.45-3.45M718.47,879.2l5.67-5.67M718.47,881.74l5.67-5.67M718.47,884.29l5.67-5.67M718.47,886.83l5.67-5.67M718.47,889.38l5.67-5.67M718.47,891.93l5.67-5.67M718.47,894.47l5.67-5.67M718.47,897.02l5.67-5.67M718.47,899.56l5.67-5.67M718.47,902.11l5.67-5.67M718.47,904.65l5.67-5.67M718.47,907.2l5.67-5.67M718.47,909.75l5.67-5.67M718.47,912.29l5.67-5.67M718.47,914.84l5.67-5.67M718.47,917.38l5.67-5.67M718.47,919.93l5.67-5.67M718.47,922.47l5.67-5.67M718.47,925.02l5.67-5.67M718.47,927.56l5.67-5.67M718.47,930.11l5.67-5.67M718.47,932.66l5.67-5.67M718.47,935.2l5.67-5.67M718.47,937.75l5.67-5.67M718.47,940.29l5.67-5.67M718.47,942.84l5.67-5.67M718.47,945.38l5.67-5.67M718.47,947.93l5.67-5.67M718.47,950.47l5.67-5.67M718.47,953.02l5.67-5.67M718.47,955.57l5.67-5.67M718.47,958.11l5.67-5.67M718.47,960.66l5.67-5.67M718.47,963.2l5.67-5.67M718.47,965.75l5.67-5.67M718.47,968.29l5.67-5.67M718.47,970.84l5.67-5.67M718.47,973.38l5.67-5.67M718.47,975.93l5.67-5.67M718.47,978.48l5.67-5.67M718.47,981.02l5.67-5.67M718.47,983.57l5.67-5.67M718.47,986.11l5.67-5.67M718.47,988.66l5.67-5.67M718.47,991.2l5.67-5.67M719.96,992.26l4.18-4.18M722.51,992.26l1.64-1.64"/>
      </g>
      <g id="e" data-name="LINE">
        <line class="mp" x1="448.07" y1="626.59" x2="448.07" y2="560.93"/>
      </g>
      <g id="f" data-name="LWPOLYLINE">
        <polyline class="mp" points="367.54 551.66 563.98 551.66 563.98 626.59"/>
      </g>
      <g id="g" data-name="LINE">
        <line class="mp" x1="563.98" y1="558.1" x2="367.54" y2="558.1"/>
      </g>
      <g id="h" data-name="LINE">
        <line class="mp" x1="367.54" y1="560.93" x2="563.98" y2="560.93"/>
      </g>
      <g id="i" data-name="LWPOLYLINE">
        <polyline class="mp" points="929.85 924.23 1122.57 924.23 1122.57 992.26"/>
      </g>
      <g id="j" data-name="LINE">
        <line class="mp" x1="912.85" y1="992.26" x2="912.85" y2="881.71"/>
      </g>
      <g id="k" data-name="LINE">
        <line class="mp" x1="890.01" y1="881.71" x2="890.01" y2="991.13"/>
      </g>
      <g id="l" data-name="LINE">
        <line class="mp" x1="667.22" y1="795.25" x2="667.22" y2="864.7"/>
      </g>
      <g id="m" data-name="LINE">
        <line class="mp" x1="688.44" y1="977.1" x2="688.44" y2="897.3"/>
      </g>
      <g id="n" data-name="LINE">
        <line class="mp" x1="660.15" y1="977.1" x2="660.15" y2="897.3"/>
      </g>
      <g id="o" data-name="LINE">
        <line class="mp" x1="631.86" y1="977.1" x2="631.86" y2="897.3"/>
      </g>
      <g id="p" data-name="LINE">
        <line class="mp" x1="603.57" y1="977.1" x2="603.57" y2="902.97"/>
      </g>
      <g id="q" data-name="LINE">
        <line class="mp" x1="546.99" y1="977.1" x2="546.99" y2="897.29"/>
      </g>
      <g id="r" data-name="LINE">
        <line class="mp" x1="394.19" y1="977.1" x2="394.19" y2="897.22"/>
      </g>
      <g id="s" data-name="LINE">
        <line class="mp" x1="368.59" y1="977.1" x2="368.59" y2="897.2"/>
      </g>
      <g id="t" data-name="LINE">
        <line class="mp" x1="341.69" y1="977.1" x2="341.69" y2="897.19"/>
      </g>
      <g id="u" data-name="LINE">
        <line class="mp" x1="315.4" y1="977.1" x2="315.4" y2="897.18"/>
      </g>
      <g id="v" data-name="LINE">
        <line class="mp" x1="290.47" y1="977.1" x2="290.47" y2="897.17"/>
      </g>
      <g id="w" data-name="LINE">
        <line class="mp" x1="267.45" y1="977.1" x2="267.45" y2="897.16"/>
      </g>
      <g id="x" data-name="LINE">
        <line class="mp" x1="246.93" y1="977.1" x2="246.93" y2="897.15"/>
      </g>
      <g id="y" data-name="LINE">
        <line class="mp" x1="229.4" y1="977.1" x2="229.4" y2="897.14"/>
      </g>
      <g id="z" data-name="LWPOLYLINE">
        <polyline class="mp" points="367.54 666.28 367.54 541.84 132.24 541.84 132.24 626.59"/>
      </g>
      <g id="aa" data-name="LINE">
        <line class="mp" x1="716.31" y1="864.7" x2="716.31" y2="795.25"/>
      </g>
      <g id="ab" data-name="LINE">
        <line class="mp" x1="765.41" y1="864.7" x2="765.41" y2="795.25"/>
      </g>
      <g id="ac" data-name="LINE">
        <line class="mp" x1="814.51" y1="864.7" x2="814.51" y2="795.25"/>
      </g>
      <g id="ad" data-name="LINE">
        <line class="mp" x1="367.54" y1="543.54" x2="132.24" y2="543.54"/>
      </g>
      <g id="ae" data-name="LINE">
        <line class="mp" x1="601.83" y1="897.3" x2="585.81" y2="897.3"/>
      </g>
      <g id="af" data-name="LINE">
        <line class="mp" x1="574.47" y1="897.3" x2="364.71" y2="897.2"/>
      </g>
      <g id="ag" data-name="LINE">
        <line class="mp" x1="353.37" y1="897.2" x2="148" y2="897.1"/>
      </g>
      <g id="ah" data-name="LINE">
        <line class="mp" x1="806.91" y1="674.78" x2="806.91" y2="765.77"/>
      </g>
      <g id="ai" data-name="LINE">
        <line class="mp" x1="741.02" y1="674.78" x2="741.02" y2="765.77"/>
      </g>
      <g id="aj" data-name="LINE">
        <line class="mp" x1="811.16" y1="674.78" x2="444.75" y2="674.78"/>
      </g>
      <g id="ak" data-name="LINE">
        <line class="mp" x1="445.31" y1="626.59" x2="811.16" y2="626.59"/>
      </g>
      <g id="al" data-name="LINE">
        <line class="mp" x1="811.16" y1="626.59" x2="811.16" y2="674.78"/>
      </g>
      <g id="am" data-name="LINE">
        <line class="mp" x1="739.6" y1="674.78" x2="739.6" y2="626.59"/>
      </g>
      <g id="an" data-name="LINE">
        <line class="mp" x1="533.72" y1="674.78" x2="533.72" y2="688.13"/>
      </g>
      <g id="ao" data-name="LINE">
        <line class="mp" x1="533.72" y1="694.06" x2="533.72" y2="695.19"/>
      </g>
      <g id="ap" data-name="LINE">
        <line class="mp" x1="568.89" y1="674.78" x2="568.89" y2="690.19"/>
      </g>
      <g id="aq" data-name="LINE">
        <line class="mp" x1="568.89" y1="694.06" x2="568.89" y2="695.19"/>
      </g>
      <g id="ar" data-name="LINE">
        <line class="mp" x1="609.23" y1="674.78" x2="609.23" y2="684.48"/>
      </g>
      <g id="as" data-name="LINE">
        <line class="mp" x1="609.23" y1="694.06" x2="609.23" y2="695.19"/>
      </g>
      <g id="at" data-name="LINE">
        <line class="mp" x1="606.39" y1="674.78" x2="606.4" y2="626.57"/>
      </g>
      <g id="au" data-name="LINE">
        <line class="mp" x1="567.48" y1="674.78" x2="567.48" y2="626.57"/>
      </g>
      <g id="av" data-name="LINE">
        <line class="mp" x1="535.14" y1="674.78" x2="535.14" y2="626.57"/>
      </g>
      <g id="aw" data-name="LINE">
        <line class="mp" x1="337.76" y1="696.04" x2="141.48" y2="696.04"/>
      </g>
      <g id="ax" data-name="LWPOLYLINE">
        <polyline class="mp" points="605.97 765.77 605.97 714.44 578.97 714.44 579.02 765.77"/>
      </g>
      <g id="ay" data-name="LWPOLYLINE">
        <polyline class="mp" points="605.12 765.77 605.12 715.29 579.82 715.29 579.87 765.77"/>
      </g>
      <g id="az" data-name="LWPOLYLINE">
        <polyline class="mp" points="612.37 765.77 612.37 714.44 649.71 714.44 649.71 765.77"/>
      </g>
      <g id="ba" data-name="LWPOLYLINE">
        <polyline class="mp" points="613.22 765.77 613.22 715.29 648.86 715.29 648.86 765.77"/>
      </g>
      <g id="bb" data-name="LWPOLYLINE">
        <polyline class="mp" points="631.5 864.7 631.5 805.17 603.44 805.17 603.44 864.7"/>
      </g>
      <g id="bc" data-name="LINE">
        <line class="mp" x1="518.64" y1="977.1" x2="518.68" y2="897.27"/>
      </g>
      <g id="bd" data-name="LINE">
        <line class="mp" x1="420.55" y1="977.1" x2="420.55" y2="897.23"/>
      </g>
      <g id="be" data-name="LINE">
        <line class="mp" x1="420.55" y1="902.26" x2="518.68" y2="902.26"/>
      </g>
      <g id="bf" data-name="LINE">
        <line class="mp" x1="518.65" y1="959.24" x2="420.55" y2="959.24"/>
      </g>
      <g id="bg" data-name="LWPOLYLINE">
        <polyline class="mp" points="587.23 805.17 602.87 805.17 602.87 864.7"/>
      </g>
      <g id="bh" data-name="LWPOLYLINE">
        <polyline class="mp" points="664.38 805.17 632.07 805.17 632.07 864.7"/>
      </g>
      <g id="bi" data-name="LWPOLYLINE">
        <line class="mp" x1="592.47" y1="765.77" x2="592.47" y2="715.29"/>
      </g>
      <g id="bj" data-name="LWPOLYLINE">
        <rect class="mp" x="581.57" y="716.99" width="9.2" height="47.08"/>
      </g>
      <g id="bk" data-name="LWPOLYLINE">
        <rect class="mp" x="594.17" y="716.99" width="9.2" height="47.08"/>
      </g>
      <g id="bl" data-name="LWPOLYLINE">
        <line class="mp" x1="631.04" y1="765.77" x2="631.04" y2="715.29"/>
      </g>
      <g id="bm" data-name="LWPOLYLINE">
        <rect class="mp" x="614.92" y="716.99" width="14.42" height="47.08"/>
      </g>
      <g id="bn" data-name="LWPOLYLINE">
        <rect class="mp" x="632.74" y="716.99" width="14.42" height="47.08"/>
      </g>
      <g id="bo" data-name="LINE">
        <line class="mp" x1="445.31" y1="628.32" x2="811.16" y2="628.32"/>
      </g>
      <g id="bp" data-name="LINE">
        <line class="mp" x1="568.89" y1="696.61" x2="568.89" y2="765.77"/>
      </g>
      <g id="bq" data-name="LINE">
        <line class="mp" x1="533.72" y1="696.61" x2="533.72" y2="765.77"/>
      </g>
      <g id="br" data-name="LINE">
        <line class="mp" x1="609.23" y1="696.61" x2="609.23" y2="764.36"/>
      </g>
      <g id="bs" data-name="LINE">
        <line class="mp" x1="861.62" y1="726.11" x2="806.91" y2="726.11"/>
      </g>
      <g id="bt" data-name="LINE">
        <line class="mp" x1="861.62" y1="727.79" x2="806.91" y2="727.79"/>
      </g>
      <g id="bu" data-name="LWPOLYLINE">
        <g>
          <line class="mp" x1="592.47" y1="715.29" x2="592.02" y2="716.18"/>
          <line class="mo" x1="591.56" y1="717.12" x2="580.53" y2="739.17"/>
          <polyline class="mp" points="580.29 739.64 579.85 740.53 580.29 741.43"/>
          <line class="ni" x1="580.76" y1="742.36" x2="591.79" y2="764.41"/>
          <line class="mp" x1="592.02" y1="764.88" x2="592.47" y2="765.77"/>
        </g>
      </g>
      <g id="bv" data-name="LWPOLYLINE">
        <g>
          <line class="mp" x1="592.47" y1="715.29" x2="592.92" y2="716.18"/>
          <line class="nk" x1="593.39" y1="717.12" x2="604.44" y2="739.17"/>
          <polyline class="mp" points="604.67 739.64 605.12 740.53 604.67 741.42"/>
          <line class="nk" x1="604.2" y1="742.36" x2="593.16" y2="764.41"/>
          <line class="mp" x1="592.92" y1="764.88" x2="592.47" y2="765.77"/>
        </g>
      </g>
      <g id="bw" data-name="LWPOLYLINE">
        <g>
          <line class="mp" x1="631.04" y1="715.29" x2="630.46" y2="716.11"/>
          <line class="mz" x1="629.87" y1="716.95" x2="614.09" y2="739.29"/>
          <polyline class="mp" points="613.8 739.71 613.22 740.53 613.8 741.35"/>
          <line class="mz" x1="614.39" y1="742.19" x2="630.17" y2="764.53"/>
          <line class="mp" x1="630.46" y1="764.96" x2="631.04" y2="765.77"/>
        </g>
      </g>
      <g id="bx" data-name="LWPOLYLINE">
        <g>
          <line class="mp" x1="631.04" y1="765.77" x2="631.62" y2="764.96"/>
          <line class="mz" x1="632.21" y1="764.11" x2="647.99" y2="741.77"/>
          <polyline class="mp" points="648.29 741.35 648.86 740.53 648.29 739.71"/>
          <line class="mz" x1="647.69" y1="738.87" x2="631.92" y2="716.53"/>
          <line class="mp" x1="631.62" y1="716.11" x2="631.04" y2="715.29"/>
        </g>
      </g>
      <g id="by" data-name="LWPOLYLINE">
        <g>
          <line class="mp" x1="631.5" y1="805.17" x2="630.81" y2="805.9"/>
          <line class="nb" x1="630.15" y1="806.61" x2="604.46" y2="833.86"/>
          <polyline class="mp" points="604.12 834.21 603.44 834.94 604.12 835.67"/>
          <line class="nb" x1="604.79" y1="836.37" x2="630.48" y2="863.62"/>
          <line class="mp" x1="630.81" y1="863.97" x2="631.5" y2="864.7"/>
        </g>
      </g>
      <g id="bz" data-name="LINE">
        <line class="ne" x1="743.34" y1="988.01" x2="743.34" y2="897.3"/>
      </g>
      <g id="ca" data-name="LINE">
        <line class="ne" x1="250.73" y1="864.7" x2="250.73" y2="795.25"/>
      </g>
      <g id="cb" data-name="LINE">
        <line class="ne" x1="1100.65" y1="992.26" x2="1100.65" y2="924.23"/>
      </g>
      <g id="cc" data-name="LINE">
        <line class="ne" x1="1108.16" y1="924.23" x2="1108.16" y2="992.26"/>
      </g>
      <g id="cd" data-name="LWPOLYLINE">
        <polyline class="ne" points="929.85 992.26 929.85 881.71 908.53 881.71"/>
      </g>
      <g id="ce" data-name="LINE">
        <line class="ne" x1="166.14" y1="977.1" x2="209.79" y2="977.1"/>
      </g>
      <g id="cf" data-name="LINE">
        <line class="ne" x1="215.29" y1="977.1" x2="353.37" y2="977.1"/>
      </g>
      <g id="cg" data-name="LINE">
        <line class="ne" x1="364.71" y1="977.1" x2="574.47" y2="977.1"/>
      </g>
      <g id="ch" data-name="LINE">
        <line class="ne" x1="585.81" y1="977.1" x2="716.49" y2="977.1"/>
      </g>
      <g id="ci" data-name="LINE">
        <line class="ne" x1="215.29" y1="982.56" x2="215.29" y2="897.13"/>
      </g>
      <g id="cj" data-name="LINE">
        <line class="ne" x1="209.79" y1="982.55" x2="209.83" y2="897.13"/>
      </g>
      <g id="ck" data-name="LWPOLYLINE">
        <polyline class="ne" points="166.14 982.53 285.34 982.59 285.34 988.01"/>
      </g>
      <g id="cl" data-name="LINE">
        <line class="ne" x1="664.38" y1="795.25" x2="664.38" y2="864.7"/>
      </g>
      <g id="cm" data-name="LINE">
        <line class="ne" x1="574.47" y1="795.25" x2="574.47" y2="864.7"/>
      </g>
      <g id="cn" data-name="LINE">
        <line class="ne" x1="132.24" y1="992.26" x2="132.24" y2="887.38"/>
      </g>
      <g id="co" data-name="LINE">
        <line class="ne" x1="132.24" y1="868.95" x2="132.24" y2="788.17"/>
      </g>
      <g id="cp" data-name="LINE">
        <line class="ne" x1="469.09" y1="694.06" x2="469.09" y2="765.77"/>
      </g>
      <g id="cq" data-name="LINE">
        <line class="ne" x1="467.68" y1="765.77" x2="467.68" y2="694.06"/>
      </g>
      <g id="cr" data-name="LINE">
        <line class="ne" x1="577.66" y1="694.06" x2="577.66" y2="765.77"/>
      </g>
      <g id="cs" data-name="LINE">
        <line class="ne" x1="576.24" y1="765.77" x2="576.24" y2="694.06"/>
      </g>
      <g id="ct" data-name="LINE">
        <line class="ne" x1="686.23" y1="694.06" x2="686.23" y2="765.77"/>
      </g>
      <g id="cu" data-name="LINE">
        <line class="ne" x1="684.81" y1="765.77" x2="684.81" y2="694.06"/>
      </g>
      <g id="cv" data-name="LWPOLYLINE">
        <polyline class="ne" points="476.96 864.7 476.96 805.17 451.45 805.17 451.45 864.7"/>
      </g>
      <g id="cw" data-name="LWPOLYLINE">
        <polyline class="ne" points="476.11 864.7 476.11 806.03 452.3 806.03 452.3 864.7"/>
      </g>
      <g id="cx" data-name="LWPOLYLINE">
        <polyline class="ne" points="437.27 864.7 437.27 805.17 411.76 805.17 411.76 864.7"/>
      </g>
      <g id="cy" data-name="LWPOLYLINE">
        <polyline class="ne" points="436.42 864.7 436.42 806.03 412.61 806.03 412.61 864.7"/>
      </g>
      <g id="cz" data-name="LWPOLYLINE">
        <polyline class="ne" points="295.5 864.7 295.5 805.17 277.46 805.17 277.46 864.7"/>
      </g>
      <g id="da" data-name="LWPOLYLINE">
        <polyline class="ne" points="294.65 864.7 294.65 806.03 278.31 806.03 278.31 864.7"/>
      </g>
      <g id="db" data-name="LWPOLYLINE">
        <polyline class="ne" points="349.83 765.49 349.83 705.96 305.89 705.96 305.89 765.49"/>
      </g>
      <g id="dc" data-name="LWPOLYLINE">
        <polyline class="ne" points="348.98 765.49 348.98 706.81 306.74 706.81 306.74 765.49"/>
      </g>
      <g id="dd" data-name="LWPOLYLINE">
        <line class="ne" x1="327.86" y1="765.49" x2="327.86" y2="706.81"/>
      </g>
      <g id="de" data-name="LWPOLYLINE">
        <rect class="ne" x="308.44" y="708.51" width="17.72" height="55.28"/>
      </g>
      <g id="df" data-name="LWPOLYLINE">
        <rect class="ne" x="329.56" y="708.51" width="17.72" height="55.28"/>
      </g>
      <g id="dg" data-name="LINE">
        <line class="ne" x1="863.6" y1="882.99" x2="863.6" y2="989"/>
      </g>
      <g id="dh" data-name="LWPOLYLINE">
        <polyline class="ne" points="468.1 694.06 453.16 694.06 453.16 688.13 468.1 688.13 468.1 694.06"/>
      </g>
      <g id="di" data-name="LWPOLYLINE">
        <rect class="ne" x="468.67" y="688.13" width="14.94" height="5.92"/>
      </g>
      <g id="dj" data-name="LWPOLYLINE">
        <rect class="ne" x="484.18" y="688.13" width="14.94" height="5.92"/>
      </g>
      <g id="dk" data-name="LWPOLYLINE">
        <rect class="ne" x="499.69" y="688.13" width="14.94" height="5.92"/>
      </g>
      <g id="dl" data-name="LWPOLYLINE">
        <polyline class="ne" points="530.14 688.13 530.14 694.06 515.2 694.06 515.2 688.13 530.14 688.13"/>
      </g>
      <g id="dm" data-name="LWPOLYLINE">
        <polyline class="ne" points="561.16 694.06 546.22 694.06 546.22 688.86 561.16 689.74 561.16 694.06"/>
      </g>
      <g id="dn" data-name="LWPOLYLINE">
        <polyline class="ne" points="530.71 688.13 533.72 688.13 545.65 688.83 545.65 694.06 530.71 694.06 530.71 688.13"/>
      </g>
      <g id="do" data-name="LWPOLYLINE">
        <polyline class="ne" points="576.67 694.06 561.73 694.06 561.73 689.77 568.89 690.19 576.67 689.09 576.67 694.06"/>
      </g>
      <g id="dp" data-name="LWPOLYLINE">
        <polyline class="ne" points="577.24 694.06 577.24 689.01 592.18 686.89 592.18 694.06 577.24 694.06"/>
      </g>
      <g id="dq" data-name="LWPOLYLINE">
        <polyline class="ne" points="592.75 694.06 592.75 686.81 607.69 684.7 607.69 694.06 592.75 694.06"/>
      </g>
      <g id="dr" data-name="LWPOLYLINE">
        <polyline class="ne" points="608.25 694.06 608.25 684.62 609.22 684.48 623.2 685.34 623.2 694.06 608.25 694.06"/>
      </g>
      <g id="ds" data-name="LWPOLYLINE">
        <polyline class="ne" points="638.71 694.06 623.76 694.06 623.76 685.37 638.71 686.29 638.71 694.06"/>
      </g>
      <g id="dt" data-name="LWPOLYLINE">
        <polyline class="ne" points="639.27 694.06 639.27 686.32 654.22 687.24 654.22 694.06 639.27 694.06"/>
      </g>
      <g id="du" data-name="LWPOLYLINE">
        <polyline class="ne" points="670.29 694.06 670.29 688.22 685.24 689.14 685.24 694.06"/>
      </g>
      <g id="dv" data-name="LWPOLYLINE">
        <polyline class="ne" points="669.73 694.06 654.78 694.06 654.78 687.27 669.73 688.19 669.73 694.06"/>
      </g>
      <g id="dw" data-name="LWPOLYLINE">
        <polyline class="ne" points="685.8 694.06 685.8 689.17 700.74 690.09 700.75 694.06 685.8 694.06"/>
      </g>
      <g id="dx" data-name="LWPOLYLINE">
        <line class="ne" x1="685.24" y1="694.06" x2="670.29" y2="694.06"/>
      </g>
      <g id="dy" data-name="LWPOLYLINE">
        <line class="ne" x1="410.77" y1="765.49" x2="410.77" y2="696.04"/>
      </g>
      <g id="dz" data-name="LINE">
        <line class="ne" x1="417.86" y1="696.04" x2="417.86" y2="766.06"/>
      </g>
      <g id="ea" data-name="LWPOLYLINE">
        <rect class="mq" x="468.1" y="694.06" width=".57" height="1.13"/>
      </g>
      <g id="eb" data-name="LWPOLYLINE">
        <rect class="mq" x="452.59" y="694.06" width=".57" height="1.13"/>
      </g>
      <g id="ec" data-name="LWPOLYLINE">
        <rect class="mq" x="483.61" y="694.06" width=".57" height="1.13"/>
      </g>
      <g id="ed" data-name="LWPOLYLINE">
        <rect class="mq" x="499.12" y="694.06" width=".57" height="1.13"/>
      </g>
      <g id="ee" data-name="LWPOLYLINE">
        <rect class="mq" x="514.63" y="694.06" width=".57" height="1.13"/>
      </g>
      <g id="ef" data-name="LWPOLYLINE">
        <rect class="mq" x="530.14" y="694.06" width=".57" height="1.13"/>
      </g>
      <g id="eg" data-name="LWPOLYLINE">
        <rect class="mq" x="545.65" y="694.06" width=".57" height="1.13"/>
      </g>
      <g id="eh" data-name="LWPOLYLINE">
        <rect class="mq" x="561.16" y="694.06" width=".57" height="1.13"/>
      </g>
      <g id="ei" data-name="LWPOLYLINE">
        <rect class="mq" x="576.67" y="694.06" width=".57" height="1.13"/>
      </g>
      <g id="ej" data-name="LWPOLYLINE">
        <rect class="mq" x="592.18" y="694.06" width=".57" height="1.13"/>
      </g>
      <g id="ek" data-name="LWPOLYLINE">
        <rect class="mq" x="607.69" y="694.06" width=".57" height="1.13"/>
      </g>
      <g id="el" data-name="LWPOLYLINE">
        <rect class="mq" x="623.2" y="694.06" width=".57" height="1.13"/>
      </g>
      <g id="em" data-name="LWPOLYLINE">
        <rect class="mq" x="638.71" y="694.06" width=".57" height="1.13"/>
      </g>
      <g id="en" data-name="LWPOLYLINE">
        <rect class="mq" x="654.22" y="694.06" width=".57" height="1.13"/>
      </g>
      <g id="eo" data-name="LWPOLYLINE">
        <rect class="mq" x="669.73" y="694.06" width=".57" height="1.13"/>
      </g>
      <g id="ep" data-name="LWPOLYLINE">
        <rect class="mq" x="685.24" y="694.06" width=".57" height="1.13"/>
      </g>
      <g id="eq" data-name="LWPOLYLINE">
        <rect class="mq" x="700.75" y="694.06" width=".57" height="1.13"/>
      </g>
      <g id="er" data-name="LWPOLYLINE">
        <line class="mq" x1="469.09" y1="695.19" x2="576.24" y2="695.19"/>
      </g>
      <g id="es" data-name="LINE">
        <line class="mq" x1="467.68" y1="696.61" x2="452.88" y2="696.61"/>
      </g>
      <g id="et" data-name="LINE">
        <line class="mq" x1="452.88" y1="695.19" x2="467.68" y2="695.19"/>
      </g>
      <g id="eu" data-name="LWPOLYLINE">
        <line class="mq" x1="576.24" y1="696.61" x2="469.09" y2="696.61"/>
      </g>
      <g id="ev" data-name="LWPOLYLINE">
        <line class="mq" x1="577.66" y1="695.19" x2="684.81" y2="695.19"/>
      </g>
      <g id="ew" data-name="LWPOLYLINE">
        <polyline class="mq" points="686.23 695.19 701.03 695.19 701.03 696.61 686.23 696.61"/>
      </g>
      <g id="ex" data-name="LWPOLYLINE">
        <line class="mq" x1="684.81" y1="696.61" x2="577.66" y2="696.61"/>
      </g>
      <g id="ey" data-name="LWPOLYLINE">
        <g>
          <line class="ne" x1="476.11" y1="806.03" x2="475.49" y2="806.81"/>
          <line class="mt" x1="474.9" y1="807.57" x2="453.78" y2="834.48"/>
          <polyline class="ne" points="453.48 834.86 452.87 835.65 453.49 836.43"/>
          <line class="my" x1="454.14" y1="837.24" x2="475.16" y2="863.52"/>
          <line class="ne" x1="475.48" y1="863.92" x2="476.11" y2="864.7"/>
        </g>
      </g>
      <g id="ez" data-name="LWPOLYLINE">
        <g>
          <line class="ne" x1="412.61" y1="806.03" x2="413.23" y2="806.81"/>
          <line class="mt" x1="413.83" y1="807.57" x2="434.94" y2="834.48"/>
          <polyline class="ne" points="435.24 834.86 435.86 835.65 435.23 836.43"/>
          <line class="my" x1="434.59" y1="837.24" x2="413.56" y2="863.52"/>
          <line class="ne" x1="413.24" y1="863.92" x2="412.61" y2="864.7"/>
        </g>
      </g>
      <g id="fa" data-name="LWPOLYLINE">
        <g>
          <line class="ne" x1="294.65" y1="806.03" x2="294.18" y2="806.91"/>
          <line class="nd" x1="293.7" y1="807.81" x2="279.59" y2="834.32"/>
          <polyline class="ne" points="279.35 834.76 278.88 835.65 279.36 836.53"/>
          <line class="mu" x1="279.83" y1="837.41" x2="293.94" y2="863.38"/>
          <line class="ne" x1="294.17" y1="863.82" x2="294.65" y2="864.7"/>
        </g>
      </g>
      <g id="fb" data-name="LWPOLYLINE">
        <g>
          <line class="ne" x1="327.86" y1="706.81" x2="327.27" y2="707.62"/>
          <line class="nc" x1="326.69" y1="708.44" x2="307.62" y2="734.93"/>
          <polyline class="ne" points="307.32 735.34 306.74 736.15 307.32 736.96"/>
          <line class="nc" x1="307.91" y1="737.78" x2="326.98" y2="764.27"/>
          <line class="ne" x1="327.27" y1="764.68" x2="327.86" y2="765.49"/>
        </g>
      </g>
      <g id="fc" data-name="LWPOLYLINE">
        <g>
          <line class="ne" x1="327.86" y1="765.49" x2="328.44" y2="764.68"/>
          <line class="nc" x1="329.03" y1="763.86" x2="348.1" y2="737.37"/>
          <polyline class="ne" points="348.39 736.96 348.98 736.15 348.39 735.34"/>
          <line class="nc" x1="347.8" y1="734.52" x2="328.74" y2="708.03"/>
          <line class="ne" x1="328.44" y1="707.62" x2="327.86" y2="706.81"/>
        </g>
      </g>
      <g id="fd" data-name="LINE">
        <line class="mx" x1="364.71" y1="786.75" x2="364.71" y2="864.7"/>
      </g>
      <g id="fe" data-name="LINE">
        <line class="mx" x1="364.71" y1="885.96" x2="364.71" y2="988.01"/>
      </g>
      <g id="ff" data-name="LINE">
        <line class="mx" x1="353.37" y1="786.75" x2="353.37" y2="864.7"/>
      </g>
      <g id="fg" data-name="LINE">
        <line class="mx" x1="353.37" y1="885.96" x2="353.37" y2="988.01"/>
      </g>
      <g id="fh" data-name="LINE">
        <line class="mx" x1="574.47" y1="885.96" x2="574.47" y2="988.01"/>
      </g>
      <g id="fi" data-name="LINE">
        <line class="mx" x1="585.81" y1="885.96" x2="585.81" y2="988.01"/>
      </g>
      <g id="fj" data-name="LINE">
        <line class="mx" x1="784.94" y1="885.96" x2="784.94" y2="988.01"/>
      </g>
      <g id="fk" data-name="LINE">
        <line class="mx" x1="808.76" y1="880.29" x2="808.76" y2="960.8"/>
      </g>
      <g id="fl" data-name="LINE">
        <line class="mx" x1="364.71" y1="885.96" x2="463.92" y2="885.96"/>
      </g>
      <g id="fm" data-name="LINE">
        <line class="mx" x1="475.26" y1="885.96" x2="574.47" y2="885.96"/>
      </g>
      <g id="fn" data-name="LINE">
        <line class="mx" x1="148" y1="885.96" x2="244.24" y2="885.96"/>
      </g>
      <g id="fo" data-name="LINE">
        <line class="mx" x1="255.57" y1="885.96" x2="353.37" y2="885.96"/>
      </g>
      <g id="fp" data-name="LINE">
        <line class="mx" x1="585.81" y1="885.96" x2="685.02" y2="885.96"/>
      </g>
      <g id="fq" data-name="LINE">
        <line class="mx" x1="364.71" y1="786.75" x2="444.5" y2="786.75"/>
      </g>
      <g id="fr" data-name="LINE">
        <line class="mx" x1="447.34" y1="786.75" x2="463.92" y2="786.75"/>
      </g>
      <g id="fs" data-name="LINE">
        <line class="mx" x1="475.26" y1="786.75" x2="574.47" y2="786.75"/>
      </g>
      <g id="ft" data-name="LINE">
        <line class="mx" x1="148" y1="786.75" x2="244.24" y2="786.75"/>
      </g>
      <g id="fu" data-name="LINE">
        <line class="mx" x1="255.57" y1="786.75" x2="299.51" y2="786.75"/>
      </g>
      <g id="fv" data-name="LINE">
        <line class="mx" x1="302.35" y1="786.75" x2="353.37" y2="786.75"/>
      </g>
      <g id="fw" data-name="LINE">
        <line class="mx" x1="587.23" y1="786.75" x2="685.02" y2="786.75"/>
      </g>
      <g id="fx" data-name="LINE">
        <line class="mx" x1="696.36" y1="885.96" x2="718.47" y2="885.96"/>
      </g>
      <g id="fy" data-name="LINE">
        <line class="mx" x1="724.14" y1="885.96" x2="795.57" y2="885.96"/>
      </g>
      <g id="fz" data-name="LINE">
        <line class="mx" x1="696.36" y1="786.75" x2="795.57" y2="786.75"/>
      </g>
      <g id="ga" data-name="LINE">
        <line class="mx" x1="364" y1="684.7" x2="364" y2="765.49"/>
      </g>
      <g id="gb" data-name="LINE">
        <line class="mx" x1="358.33" y1="684.7" x2="358.33" y2="765.49"/>
      </g>
      <g id="gc" data-name="LINE">
        <line class="mx" x1="141.48" y1="684.36" x2="141.48" y2="765.49"/>
      </g>
      <g id="gd" data-name="LINE">
        <line class="mx" x1="141.48" y1="684.36" x2="247.07" y2="684.36"/>
      </g>
      <g id="ge" data-name="LINE">
        <line class="mx" x1="252.74" y1="684.36" x2="358.33" y2="684.36"/>
      </g>
      <g id="gf" data-name="LINE">
        <line class="mx" x1="364" y1="684.36" x2="410.77" y2="684.36"/>
      </g>
      <g id="gg" data-name="LINE">
        <line class="mx" x1="814.42" y1="780.74" x2="862.9" y2="780.74"/>
      </g>
      <g id="gh" data-name="LINE">
        <line class="mx" x1="417.86" y1="684.36" x2="444.75" y2="684.36"/>
      </g>
      <g id="gi" data-name="LINE">
        <line class="mx" x1="814.42" y1="879.95" x2="862.9" y2="879.95"/>
      </g>
      <g id="gj" data-name="LINE">
        <line class="mx" x1="574.47" y1="786.75" x2="574.47" y2="795.25"/>
      </g>
      <g id="gk" data-name="LINE">
        <line class="mx" x1="252.74" y1="684.7" x2="252.74" y2="690.37"/>
      </g>
      <g id="gl" data-name="LINE">
        <line class="mx" x1="247.07" y1="684.7" x2="247.07" y2="690.37"/>
      </g>
      <g id="gm" data-name="LINE">
        <line class="mx" x1="417.86" y1="678.69" x2="444.75" y2="678.69"/>
      </g>
      <g id="gn" data-name="LWPOLYLINE">
        <polyline class="mx" points="810.17 988.01 810.17 961.08 809.89 960.8 791.18 960.8 790.9 961.08 790.9 988.01"/>
      </g>
      <g id="go" data-name="LWPOLYLINE">
        <polyline class="mx" points="144.5 941.11 145 940.61 144.5 940.11 145 939.61 144.5 939.11 145 938.6 144.5 938.1 145 937.6 144.5 937.1 145 936.6 144.5 936.1 145 935.6 144.5 935.1 145 934.6 144.5 934.09 145 933.59 144.5 933.09 145 932.59 144.5 932.09 145 931.59 144.5 931.09 145 930.59 144.5 930.09 145 929.58 144.5 929.08 145 928.58 144.5 928.08 145 927.58 144.5 927.08 145 926.58 144.5 926.08 145 925.58 144.5 925.07 145 924.57 144.5 924.07 145 923.57 144.5 923.07 145 922.57 144.5 922.07 145 921.57 144.5 921.07 145 920.57 144.5 920.06 145 919.56 144.5 919.06 145 918.56"/>
      </g>
      <g id="gp" data-name="CIRCLE">
        <circle class="mx" cx="418.62" cy="887.08" r=".49"/>
      </g>
      <g id="gq" data-name="LWPOLYLINE">
        <rect class="mx" x="393.31" y="888.09" width="25.14" height="1.13"/>
      </g>
      <g id="gr" data-name="CIRCLE">
        <circle class="mx" cx="469.59" cy="887.08" r=".49"/>
      </g>
      <g id="gs" data-name="CIRCLE">
        <circle class="mx" cx="520.56" cy="887.08" r=".49"/>
      </g>
      <g id="gt" data-name="LWPOLYLINE">
        <polyline class="mx" points="144.5 826.02 145 825.52 144.5 825.02 145 824.52 144.5 824.02 145 823.52 144.5 823.02 145 822.52 144.5 822.01 145 821.51 144.5 821.01 145 820.51 144.5 820.01 145 819.51 144.5 819.01 145 818.51 144.5 818.01 145 817.5 144.5 817 145 816.5 144.5 816 145 815.5 144.5 815 145 814.5 144.5 814 145 813.5 144.5 812.99 145 812.49 144.5 811.99 145 811.49 144.5 810.99 145 810.49 144.5 809.99 145 809.49 144.5 808.99 145 808.48 144.5 807.98 145 807.48 144.5 806.98 145 806.48 144.5 805.98 145 805.48 144.5 804.98 145 804.48 144.5 803.98 145 803.47"/>
      </g>
      <g id="gu" data-name="LWPOLYLINE">
        <polyline class="mx" points="166.14 988.01 166.14 977.1 148 977.1"/>
      </g>
      <g id="gv" data-name="LWPOLYLINE">
        <rect class="mx" x="418.79" y="888.09" width="25.14" height="1.13"/>
      </g>
      <g id="gw" data-name="LWPOLYLINE">
        <rect class="mx" x="444.28" y="888.09" width="25.14" height="1.13"/>
      </g>
      <g id="gx" data-name="LWPOLYLINE">
        <rect class="mx" x="469.76" y="888.09" width="25.14" height="1.13"/>
      </g>
      <g id="gy" data-name="LWPOLYLINE">
        <rect class="mx" x="495.24" y="888.09" width="25.14" height="1.13"/>
      </g>
      <g id="gz" data-name="LWPOLYLINE">
        <rect class="mx" x="520.73" y="888.09" width="25.14" height="1.13"/>
      </g>
      <g id="ha" data-name="CIRCLE">
        <circle class="mx" cx="198.94" cy="887.08" r=".49"/>
      </g>
      <g id="hb" data-name="LWPOLYLINE">
        <rect class="mx" x="173.62" y="888.09" width="25.14" height="1.13"/>
      </g>
      <g id="hc" data-name="CIRCLE">
        <circle class="mx" cx="249.9" cy="887.08" r=".49"/>
      </g>
      <g id="hd" data-name="CIRCLE">
        <circle class="mx" cx="300.87" cy="887.08" r=".49"/>
      </g>
      <g id="he" data-name="LWPOLYLINE">
        <rect class="mx" x="199.11" y="888.09" width="25.14" height="1.13"/>
      </g>
      <g id="hf" data-name="LWPOLYLINE">
        <rect class="mx" x="224.59" y="888.09" width="25.14" height="1.13"/>
      </g>
      <g id="hg" data-name="LWPOLYLINE">
        <rect class="mx" x="250.07" y="888.09" width="25.14" height="1.13"/>
      </g>
      <g id="hh" data-name="LWPOLYLINE">
        <rect class="mx" x="275.56" y="888.09" width="25.14" height="1.13"/>
      </g>
      <g id="hi" data-name="LWPOLYLINE">
        <rect class="mx" x="301.04" y="888.09" width="25.14" height="1.13"/>
      </g>
      <g id="hj" data-name="LINE">
        <line class="ng" x1="139.33" y1="824.73" x2="139.33" y2="804.89"/>
      </g>
      <g id="hk" data-name="LINE">
        <line class="ng" x1="413.61" y1="764.36" x2="413.61" y2="697.46"/>
      </g>
      <g id="hl" data-name="LINE">
        <line class="ng" x1="139.33" y1="939.82" x2="139.33" y2="919.98"/>
      </g>
      <g id="hm" data-name="LINE">
        <line class="nf" x1="140.75" y1="804.89" x2="140.75" y2="824.73"/>
      </g>
      <g id="hn" data-name="LINE">
        <line class="nf" x1="137.91" y1="804.89" x2="137.91" y2="824.73"/>
      </g>
      <g id="ho" data-name="LINE">
        <line class="nf" x1="412.19" y1="697.46" x2="412.19" y2="764.36"/>
      </g>
      <g id="hp" data-name="LINE">
        <line class="nf" x1="415.02" y1="697.46" x2="415.02" y2="764.36"/>
      </g>
      <g id="hq" data-name="LINE">
        <line class="nf" x1="140.75" y1="919.98" x2="140.75" y2="939.82"/>
      </g>
      <g id="hr" data-name="LINE">
        <line class="nf" x1="137.91" y1="919.98" x2="137.91" y2="939.82"/>
      </g>
      <g id="hs" data-name="LWPOLYLINE">
        <polyline class="mn" points="904.14 992.26 904.14 991.13 871.26 991.13"/>
      </g>
      <g id="ht" data-name="LINE">
        <line class="mn" x1="417.86" y1="765.77" x2="862.19" y2="765.77"/>
      </g>
      <g id="hu" data-name="LWPOLYLINE">
        <polyline class="mn" points="872.11 864.99 872.11 727.22 869.27 727.22"/>
      </g>
      <g id="hv" data-name="LWPOLYLINE">
        <polyline class="mn" points="417.86 696.61 452.88 696.61 452.88 695.19 444.75 695.19 444.75 674.78"/>
      </g>
      <g id="hw" data-name="LWPOLYLINE">
        <polyline class="mn" points="131.7 628.32 131.7 626.59 142.76 626.65 142.76 628.32"/>
      </g>
      <g id="hx" data-name="LWPOLYLINE">
        <polyline class="mn" points="445.31 628.32 445.31 626.59 434.26 626.65 434.26 628.32"/>
      </g>
      <g id="hy" data-name="LWPOLYLINE">
        <rect class="mn" x="716.49" y="958.06" width=".57" height="29.67"/>
      </g>
      <g id="hz" data-name="LWPOLYLINE">
        <rect class="mn" x="716.49" y="927.82" width=".57" height="29.67"/>
      </g>
      <g id="ia" data-name="LWPOLYLINE">
        <rect class="mn" x="716.49" y="897.58" width=".57" height="29.67"/>
      </g>
      <g id="ib" data-name="LWPOLYLINE">
        <rect class="mn" x="725.56" y="958.06" width=".57" height="29.67"/>
      </g>
      <g id="ic" data-name="LWPOLYLINE">
        <rect class="mn" x="725.56" y="927.82" width=".57" height="29.67"/>
      </g>
      <g id="id" data-name="LWPOLYLINE">
        <rect class="mn" x="725.56" y="897.58" width=".57" height="29.67"/>
      </g>
      <g id="ie" data-name="LWPOLYLINE">
        <polyline class="mn" points="872.68 727.79 872.68 726.06 861.62 726.11 861.62 727.79"/>
      </g>
      <g id="if" data-name="LINE">
        <line class="mx" x1="434.82" y1="666.28" x2="142.19" y2="666.28"/>
      </g>
      <g id="ig" data-name="LINE">
        <line class="mx" x1="434.82" y1="666.56" x2="142.19" y2="666.56"/>
      </g>
      <g id="ih" data-name="LWPOLYLINE">
        <polyline class="mx" points="135.08 990.28 135.08 941.24 137.91 941.24"/>
      </g>
      <g id="ii" data-name="LINE">
        <line class="mx" x1="148" y1="988.01" x2="718.47" y2="988.01"/>
      </g>
      <g id="ij" data-name="LINE">
        <line class="mx" x1="148" y1="988.29" x2="718.47" y2="988.29"/>
      </g>
      <g id="ik" data-name="LINE">
        <line class="mx" x1="724.14" y1="988.29" x2="810.17" y2="988.29"/>
      </g>
      <g id="il" data-name="LINE">
        <line class="mx" x1="299.51" y1="773.99" x2="299.51" y2="868.95"/>
      </g>
      <g id="im" data-name="LINE">
        <line class="mx" x1="302.35" y1="868.95" x2="302.35" y2="773.99"/>
      </g>
      <g id="in" data-name="LINE">
        <line class="mx" x1="863.61" y1="773.99" x2="863.61" y2="864.99"/>
      </g>
      <g id="io" data-name="LINE">
        <line class="mx" x1="444.5" y1="773.99" x2="444.5" y2="868.95"/>
      </g>
      <g id="ip" data-name="LINE">
        <line class="mx" x1="447.34" y1="868.95" x2="447.34" y2="773.99"/>
      </g>
      <g id="iq" data-name="LINE">
        <line class="mx" x1="584.39" y1="786.75" x2="584.39" y2="868.95"/>
      </g>
      <g id="ir" data-name="LINE">
        <line class="mx" x1="587.23" y1="868.95" x2="587.23" y2="773.99"/>
      </g>
      <g id="is" data-name="LINE">
        <line class="mx" x1="863.6" y1="989.99" x2="810.17" y2="989.99"/>
      </g>
      <g id="it" data-name="LWPOLYLINE">
        <polyline class="mx" points="140.75 803.47 145 803.47 145 786.75"/>
      </g>
      <g id="iu" data-name="LWPOLYLINE">
        <polyline class="mx" points="137.91 826.15 135.08 826.15 135.08 867.54 132.24 867.54 132.24 887.38 135.08 887.38 135.08 918.56 137.91 918.56"/>
      </g>
      <g id="iv" data-name="LWPOLYLINE">
        <polyline class="mx" points="140.75 918.56 145 918.56 145 885.96"/>
      </g>
      <g id="iw" data-name="LWPOLYLINE">
        <polyline class="mx" points="137.91 803.47 135.08 803.47 135.08 788.17 132.24 788.17 132.24 627.75 135.1 627.75"/>
      </g>
      <g id="ix" data-name="LINE">
        <line class="mx" x1="147.96" y1="795.25" x2="299.51" y2="795.25"/>
      </g>
      <g id="iy" data-name="LINE">
        <line class="mx" x1="302.35" y1="795.25" x2="444.5" y2="795.25"/>
      </g>
      <g id="iz" data-name="LINE">
        <line class="mx" x1="447.34" y1="795.25" x2="584.39" y2="795.25"/>
      </g>
      <g id="ja" data-name="LINE">
        <line class="mx" x1="587.23" y1="795.25" x2="863.61" y2="795.25"/>
      </g>
      <g id="jb" data-name="LWPOLYLINE">
        <line class="mx" x1="417.86" y1="766.91" x2="862.19" y2="766.91"/>
      </g>
      <g id="jc" data-name="LWPOLYLINE">
        <line class="mx" x1="417.86" y1="767.19" x2="862.19" y2="767.19"/>
      </g>
      <g id="jd" data-name="LWPOLYLINE">
        <polyline class="mx" points="410.77 696.04 337.76 696.04 337.76 690.37 139.33 690.37"/>
      </g>
      <g id="je" data-name="LINE">
        <line class="mx" x1="139.33" y1="684.7" x2="139.33" y2="769.74"/>
      </g>
      <g id="jf" data-name="LINE">
        <line class="mx" x1="139.33" y1="765.77" x2="410.77" y2="765.77"/>
      </g>
      <g id="jg" data-name="LWPOLYLINE">
        <polyline class="mx" points="145 918.56 148 918.56 148 873.21"/>
      </g>
      <g id="jh" data-name="LWPOLYLINE">
        <polyline class="mx" points="145 941.24 148 941.24 148 992.26"/>
      </g>
      <g id="ji" data-name="LWPOLYLINE">
        <polyline class="mx" points="145 803.47 148 803.47 148 773.99"/>
      </g>
      <g id="jj" data-name="LWPOLYLINE">
        <polyline class="mx" points="145 826.15 148 826.15 148 868.95"/>
      </g>
      <g id="jk" data-name="LINE">
        <line class="mx" x1="148" y1="864.7" x2="299.51" y2="864.7"/>
      </g>
      <g id="jl" data-name="LINE">
        <line class="mx" x1="148" y1="864.99" x2="299.51" y2="864.99"/>
      </g>
      <g id="jm" data-name="LINE">
        <line class="mx" x1="302.35" y1="864.7" x2="444.5" y2="864.7"/>
      </g>
      <g id="jn" data-name="LINE">
        <line class="mx" x1="302.35" y1="864.99" x2="444.5" y2="864.99"/>
      </g>
      <g id="jo" data-name="LINE">
        <line class="mx" x1="447.34" y1="864.7" x2="584.39" y2="864.7"/>
      </g>
      <g id="jp" data-name="LINE">
        <line class="mx" x1="447.34" y1="864.99" x2="584.39" y2="864.99"/>
      </g>
      <g id="jq" data-name="LINE">
        <line class="mx" x1="587.23" y1="864.7" x2="863.61" y2="864.7"/>
      </g>
      <g id="jr" data-name="LINE">
        <line class="mx" x1="587.23" y1="864.99" x2="863.61" y2="864.99"/>
      </g>
      <g id="js" data-name="LWPOLYLINE">
        <polyline class="mx" points="415.02 696.04 417.86 696.04 417.86 674.78"/>
      </g>
      <g id="jt" data-name="LWPOLYLINE">
        <polyline class="mx" points="601.83 873.21 601.83 902.97 630.17 902.97 630.17 897.3 718.47 897.3"/>
      </g>
      <g id="ju" data-name="LWPOLYLINE">
        <polyline class="mx" points="724.14 988.01 810.17 988.01 810.17 992.26"/>
      </g>
      <g id="jv" data-name="LWPOLYLINE">
        <polyline class="mx" points="140.75 826.15 145 826.15 145 868.95"/>
      </g>
      <g id="jw" data-name="LWPOLYLINE">
        <polyline class="mx" points="140.75 941.24 145 941.24 145 990.28"/>
      </g>
      <g id="jx" data-name="LWPOLYLINE">
        <polyline class="mx" points="139.33 765.49 410.77 765.49 410.77 765.77"/>
      </g>
      <g id="jy" data-name="LWPOLYLINE">
        <polyline class="mx" points="441.91 627.75 444.75 627.75 444.75 674.78 441.91 674.78"/>
      </g>
      <g id="jz" data-name="LWPOLYLINE">
        <polyline class="mx" points="412.19 696.04 410.77 696.04 410.77 674.78"/>
      </g>
      <g id="ka" data-name="LWPOLYLINE">
        <polyline class="mx" points="724.14 897.3 860.21 897.3 860.21 881.71 863.6 881.71"/>
      </g>
      <g id="kb" data-name="LWPOLYLINE">
        <polyline class="mx" points="139.35 627.75 142.19 627.75 142.19 670.53"/>
      </g>
      <g id="kc" data-name="LWPOLYLINE">
        <polyline class="mx" points="437.66 627.75 434.83 627.75 434.82 670.53"/>
      </g>
      <g id="kd" data-name="LWPOLYLINE">
        <polyline class="mx" points="865.02 727.22 862.19 727.22 862.19 769.74"/>
      </g>
      <g id="ke" data-name="LWPOLYLINE">
        <polyline class="mx" points="724.14 896.73 859.65 896.73 859.65 881.14 863.6 881.14"/>
      </g>
      <g id="kf" data-name="LWPOLYLINE">
        <polyline class="mx" points="602.39 873.21 602.39 902.4 629.61 902.4 629.61 896.73 718.47 896.73"/>
      </g>
      <g id="kg" data-name="LINE">
        <line class="mx" x1="587.23" y1="794.69" x2="863.61" y2="794.69"/>
      </g>
      <g id="kh" data-name="LINE">
        <line class="mx" x1="447.34" y1="794.69" x2="584.39" y2="794.69"/>
      </g>
      <g id="ki" data-name="LINE">
        <line class="mx" x1="302.35" y1="794.69" x2="444.5" y2="794.69"/>
      </g>
      <g id="kj" data-name="LINE">
        <line class="mx" x1="147.96" y1="794.69" x2="299.51" y2="794.69"/>
      </g>
      <g id="kk" data-name="LWPOLYLINE">
        <polyline class="mx" points="410.77 695.47 338.32 695.47 338.32 689.8 139.33 689.8"/>
      </g>
      <g id="kl" data-name="LINE">
        <line class="mv" x1="866.44" y1="774.33" x2="866.44" y2="864.99"/>
      </g>
      <g id="km" data-name="LINE">
        <line class="mv" x1="869.27" y1="864.99" x2="869.27" y2="773.99"/>
      </g>
      <g id="kn" data-name="LINE">
        <line class="mv" x1="137.94" y1="769.74" x2="137.94" y2="675.12"/>
      </g>
      <g id="ko" data-name="LINE">
        <line class="mv" x1="135.08" y1="674.78" x2="135.08" y2="769.74"/>
      </g>
      <g id="kp" data-name="LINE">
        <line class="mv" x1="135.1" y1="679.88" x2="410.77" y2="679.88"/>
      </g>
      <g id="kq" data-name="LWPOLYLINE">
        <polyline class="mv" points="137.91 990.28 137.91 942.66 143.58 942.66 143.58 990.28"/>
      </g>
      <g id="kr" data-name="LWPOLYLINE">
        <polyline class="mv" points="137.91 885.96 137.91 917.14 143.58 917.14 143.58 885.96"/>
      </g>
      <g id="ks" data-name="LWPOLYLINE">
        <polyline class="mv" points="137.91 868.95 137.91 827.57 143.58 827.57 143.58 868.95"/>
      </g>
      <g id="kt" data-name="LWPOLYLINE">
        <polyline class="mv" points="137.91 786.75 137.91 802.06 143.58 802.06 143.58 786.75"/>
      </g>
      <g id="ku" data-name="LINE">
        <line class="mv" x1="724.14" y1="992.26" x2="724.14" y2="873.21"/>
      </g>
      <g id="kv" data-name="LINE">
        <line class="mv" x1="718.47" y1="873.21" x2="718.47" y2="992.26"/>
      </g>
      <g id="kw" data-name="LWPOLYLINE">
        <rect class="mq" x="412.19" y="696.04" width="2.83" height="1.42"/>
      </g>
      <g id="kx" data-name="LWPOLYLINE">
        <rect class="mq" x="412.19" y="764.36" width="2.83" height="1.42"/>
      </g>
      <g id="ky" data-name="LWPOLYLINE">
        <rect class="mq" x="137.91" y="824.73" width="2.83" height="1.42"/>
      </g>
      <g id="kz" data-name="LWPOLYLINE">
        <rect class="mq" x="137.91" y="803.47" width="2.83" height="1.42"/>
      </g>
      <g id="la" data-name="LWPOLYLINE">
        <rect class="mq" x="137.91" y="939.82" width="2.83" height="1.42"/>
      </g>
      <g id="lb" data-name="LWPOLYLINE">
        <rect class="mq" x="137.91" y="918.56" width="2.83" height="1.42"/>
      </g>
      <g id="lc" data-name="LWPOLYLINE">
        <polygon class="mq" points="871.26 882.42 871.26 881.71 863.6 881.71 863.6 882.99 870.12 882.99 870.12 882.42 871.26 882.42"/>
      </g>
      <g id="ld" data-name="LWPOLYLINE">
        <rect class="mq" x="870.41" y="882.7" width=".85" height="106.58"/>
      </g>
      <g id="le" data-name="LWPOLYLINE">
        <polygon class="mq" points="871.26 989.57 871.26 990.28 863.6 990.28 863.6 989 870.12 989 870.12 989.57 871.26 989.57"/>
      </g>
      <g id="lf" data-name="LWPOLYLINE">
        <path class="ms" d="M811.11,873.55h-2.35v-.34h5.67v.34h-2.35c-.2,0-.37.16-.37.37v5.67c0,.2.16.37.37.37h2.35v.34h-5.67v-.34h2.35c.2,0,.37-.16.37-.37v-5.67c0-.2-.16-.37-.37-.37Z"/>
      </g>
      <g id="lg" data-name="LWPOLYLINE">
        <path class="ms" d="M865.25,873.55h-2.35v-.34h5.67v.34h-2.35c-.2,0-.37.16-.37.37v5.67c0,.2.16.37.37.37h2.35v.34h-5.67v-.34h2.35c.2,0,.37-.16.37-.37v-5.67c0-.2-.16-.37-.37-.37Z"/>
      </g>
      <g id="lh" data-name="LWPOLYLINE">
        <path class="ms" d="M811.11,774.33h-2.35v-.34h5.67v.34h-2.35c-.2,0-.37.16-.37.37v5.67c0,.2.16.37.37.37h2.35v.34h-5.67v-.34h2.35c.2,0,.37-.16.37-.37v-5.67c0-.2-.16-.37-.37-.37Z"/>
      </g>
      <g id="li" data-name="LWPOLYLINE">
        <path class="ms" d="M865.25,774.33h-2.35v-.34h5.67v.34h-2.35c-.2,0-.37.16-.37.37v5.67c0,.2.16.37.37.37h2.35v.34h-5.67v-.34h2.35c.2,0,.37-.16.37-.37v-5.67c0-.2-.16-.37-.37-.37Z"/>
      </g>
      <g id="lj" data-name="LWPOLYLINE">
        <polyline class="ms" points="866.44 864.99 872.11 864.99 872.11 871.79 874.94 871.79 874.94 868.95 908.53 868.62 908.53 881.71 863.6 881.71"/>
      </g>
      <g id="lk" data-name="LWPOLYLINE">
        <path class="ms" d="M135.81,675.12v-.34h5.67v.34h-2.35c-.2,0-.37.16-.37.37v8.5c0,.2.16.37.37.37h2.35v.34h-5.67v-.34h2.35c.2,0,.37-.16.37-.37v-8.5c0-.2-.16-.37-.37-.37h-2.35Z"/>
      </g>
      <g id="ll" data-name="LWPOLYLINE">
        <path class="ms" d="M247.07,675.12v-.34h5.67v.34h-2.35c-.2,0-.37.16-.37.37v8.5c0,.2.16.37.37.37h2.35v.34h-5.67v-.34h2.35c.2,0,.37-.16.37-.37v-8.5c0-.2-.16-.37-.37-.37h-2.35Z"/>
      </g>
      <g id="lm" data-name="LWPOLYLINE">
        <path class="ms" d="M358.33,675.12v-.34h5.67v.34h-2.35c-.2,0-.37.16-.37.37v8.5c0,.2.16.37.37.37h2.35v.34h-5.67v-.34h2.35c.2,0,.37-.16.37-.37v-8.5c0-.2-.16-.37-.37-.37h-2.35Z"/>
      </g>
      <g id="ln" data-name="LWPOLYLINE">
        <path class="ms" d="M411.48,675.12v-.34h5.67v.34h-2.35c-.2,0-.37.16-.37.37v8.5c0,.2.16.37.37.37h2.35v.34h-5.67v-.34h2.35c.2,0,.37-.16.37-.37v-8.5c0-.2-.16-.37-.37-.37h-2.35Z"/>
      </g>
      <g id="lo" data-name="LWPOLYLINE">
        <rect class="ms" x="441.68" y="675.12" width="2.55" height="2.55"/>
      </g>
      <g id="lp" data-name="LWPOLYLINE">
        <polygon class="nj" points="863.61 868.95 863.61 864.99 866.44 864.99 866.44 873.21 806.91 873.21 806.91 885.96 795.57 885.96 795.57 873.21 696.36 873.21 696.36 885.96 685.02 885.96 685.02 873.21 585.81 873.21 585.81 885.96 574.47 885.96 574.47 873.21 475.26 873.21 475.26 885.96 463.92 885.96 463.92 873.21 364.71 873.21 364.71 885.96 353.37 885.96 353.37 873.21 255.57 873.21 255.57 885.96 244.24 885.96 244.24 873.21 146.42 873.21 146.42 885.96 135.08 885.96 135.08 868.95 863.61 868.95"/>
      </g>
      <g id="lq" data-name="LWPOLYLINE">
        <polygon class="nj" points="410.77 769.74 410.77 765.77 417.86 765.77 417.86 769.74 865.02 769.74 865.02 727.22 869.27 727.22 869.27 773.99 806.91 773.99 806.91 786.75 795.57 786.75 795.57 773.99 696.36 773.99 696.36 786.75 685.02 786.75 685.02 773.99 585.81 773.99 585.81 786.75 574.47 786.75 574.47 773.99 475.26 773.99 475.26 786.75 463.92 786.75 463.92 773.99 364.71 773.99 364.71 786.75 353.37 786.75 353.37 773.99 255.57 773.99 255.57 786.75 244.24 786.75 244.24 773.99 146.42 773.99 146.42 786.75 135.08 786.75 135.08 769.74 410.77 769.74"/>
      </g>
      <g id="lr" data-name="LWPOLYLINE">
        <polygon class="nj" points="135.1 627.75 139.35 627.75 139.35 670.53 437.66 670.53 437.66 627.75 441.91 627.75 441.91 674.78 135.1 674.78 135.1 627.75"/>
      </g>
      <g id="ls" data-name="LWPOLYLINE">
        <polygon class="nj" points="135.08 992.26 132.24 992.26 132.24 1003.6 1122.57 1003.6 1122.57 992.26 871.26 992.26 871.26 990.28 863.6 990.28 863.6 992.26 145 992.26 145 990.28 135.08 990.28 135.08 992.26"/>
      </g>
      <g id="lt" data-name="frame">
        <rect class="nl" x="4.72" y="379.19" width="1190.55" height="841.89"/>
      </g>
      <path class="na" d="M132.24,994.44H0"/>
      <line class="na" x1="1200" y1="994.44" x2="1122.57" y2="994.44"/>
      <g>
        <line class="mp" x1="302.35" y1="696.04" x2="302.35" y2="765.63"/>
        <line class="mp" x1="282.35" y1="696.04" x2="282.35" y2="765.63"/>
        <line class="mp" x1="262.35" y1="696.04" x2="262.35" y2="765.63"/>
        <line class="mp" x1="242.35" y1="696.04" x2="242.35" y2="765.63"/>
        <line class="mp" x1="222.35" y1="696.04" x2="222.35" y2="765.63"/>
        <line class="mp" x1="202.35" y1="696.04" x2="202.35" y2="765.63"/>
        <line class="mp" x1="182.35" y1="696.04" x2="182.35" y2="765.63"/>
        <line class="mp" x1="162.35" y1="696.04" x2="162.35" y2="765.63"/>
      </g>
    </g>
  </g>
  <g id="ly" data-name="">
    <path class="mr" d="M232.14,825.42c.28.38.43.79.43,1.22,0,.49-.12.93-.35,1.31-.23.39-.55.69-.97.91-.41.22-.88.32-1.41.32s-1-.11-1.41-.32c-.41-.21-.73-.52-.97-.91-.23-.39-.35-.82-.35-1.31h.58c0,.39.09.74.28,1.05.18.31.44.55.77.72s.7.26,1.1.26.79-.08,1.12-.25.58-.39.76-.68c.18-.29.27-.62.27-1s-.09-.68-.27-.97c-.18-.28-.43-.51-.76-.67-.32-.16-.69-.24-1.1-.24h-.35v-.53h.34c.38,0,.73-.07,1.04-.22.31-.15.55-.36.72-.62s.26-.56.26-.9c0-.51-.18-.93-.55-1.26s-.84-.49-1.42-.49c-.38,0-.72.08-1.02.23-.3.16-.54.38-.7.66s-.25.61-.25.97h-.58c0-.46.11-.87.32-1.22s.52-.64.9-.85c.38-.21.82-.31,1.32-.31s.94.1,1.32.31c.38.2.68.49.9.85.22.36.32.77.32,1.22,0,.37-.13.73-.38,1.09-.26.36-.59.62-1,.81.43.16.79.43,1.07.8Z"/>
    <path class="mr" d="M381.83,825.42c.28.38.43.79.43,1.22,0,.49-.12.93-.35,1.31-.23.39-.55.69-.97.91-.41.22-.88.32-1.41.32s-1-.11-1.41-.32c-.41-.21-.73-.52-.97-.91-.23-.39-.35-.82-.35-1.31h.58c0,.39.09.74.28,1.05.18.31.44.55.77.72.33.17.7.26,1.1.26s.79-.08,1.12-.25.58-.39.76-.68.27-.62.27-1-.09-.68-.27-.97c-.18-.28-.43-.51-.76-.67-.32-.16-.69-.24-1.1-.24h-.35v-.53h.34c.38,0,.73-.07,1.04-.22.31-.15.55-.36.72-.62s.26-.56.26-.9c0-.51-.18-.93-.55-1.26-.37-.33-.84-.49-1.42-.49-.38,0-.72.08-1.02.23s-.54.38-.7.66-.25.61-.25.97h-.58c0-.46.11-.87.32-1.22.22-.36.52-.64.9-.85.38-.21.82-.31,1.32-.31s.94.1,1.32.31c.38.2.68.49.9.85.22.36.32.77.32,1.22,0,.37-.13.73-.38,1.09-.26.36-.59.62-1,.81.43.16.79.43,1.07.8Z"/>
    <path class="mr" d="M515.57,825.42c.28.38.43.79.43,1.22,0,.49-.12.93-.35,1.31-.23.39-.55.69-.97.91-.41.22-.88.32-1.41.32s-1-.11-1.41-.32c-.41-.21-.73-.52-.97-.91-.23-.39-.35-.82-.35-1.31h.58c0,.39.09.74.28,1.05.18.31.44.55.77.72.33.17.7.26,1.1.26s.79-.08,1.12-.25.58-.39.76-.68c.18-.29.27-.62.27-1s-.09-.68-.27-.97c-.18-.28-.43-.51-.76-.67-.32-.16-.69-.24-1.1-.24h-.35v-.53h.34c.38,0,.73-.07,1.04-.22.31-.15.55-.36.72-.62.17-.26.26-.56.26-.9,0-.51-.18-.93-.55-1.26-.37-.33-.84-.49-1.42-.49-.38,0-.72.08-1.02.23s-.54.38-.7.66-.25.61-.25.97h-.58c0-.46.11-.87.32-1.22.22-.36.52-.64.9-.85.38-.21.82-.31,1.32-.31s.94.1,1.32.31c.38.2.68.49.9.85s.32.77.32,1.22c0,.37-.13.73-.38,1.09-.26.36-.59.62-1,.81.43.16.79.43,1.07.8Z"/>
    <path class="mr" d="M729.3,826.05h1.4v.52h-1.4v2.54h-.58v-2.54h-3.95l-.08-.53,4.03-5.59h.58v5.61ZM728.72,826.05v-4.61l-3.32,4.61h3.32Z"/>
    <path class="mr" d="M469.61,941.5h-.58v-8.02l-1.08.74-.31-.42,1.39-.97h.58v8.66Z"/>
    <path class="mr" d="M817.69,940.43c.17-.16.37-.35.58-.56.72-.68,1.3-1.25,1.73-1.7.44-.46.81-.93,1.12-1.43.31-.5.47-.96.47-1.38s-.08-.77-.24-1.09-.38-.57-.67-.75c-.28-.18-.61-.27-.97-.27-.4,0-.78.14-1.15.41-.36.28-.64.63-.82,1.06l-.54-.23c.22-.52.57-.94,1.03-1.27s.96-.49,1.48-.49c.47,0,.89.11,1.26.34.37.22.66.54.87.94s.32.85.32,1.36-.16,1.01-.49,1.55c-.33.54-.72,1.05-1.18,1.54s-1.06,1.07-1.79,1.76c-.5.47-.89.85-1.16,1.12l-.41-.34c.2-.21.39-.39.56-.56ZM817.13,940.99h5.16v.5h-5.09l-.07-.5Z"/>
    <path class="mr" d="M252.04,725.22c.39-.18.77-.27,1.13-.27.54,0,1.03.12,1.45.35.42.23.75.55.98.97.23.41.35.89.35,1.42s-.12,1.03-.35,1.45-.56.76-.98,1c-.42.24-.9.36-1.45.36-.42,0-.82-.09-1.2-.27s-.7-.43-.96-.75-.44-.68-.54-1.09l.56-.12c.11.5.37.9.77,1.22s.86.47,1.37.47c.42,0,.81-.1,1.15-.29.34-.19.6-.46.79-.8.18-.34.28-.74.28-1.18s-.09-.8-.28-1.13c-.18-.33-.45-.59-.79-.77-.34-.18-.72-.28-1.15-.28-.29,0-.59.07-.89.22-.31.14-.57.33-.77.56l-.42-.37c.25-.28.57-.51.95-.69ZM250.92,726.18l.25-4.44h4.26v.5h-3.7l-.24,4.04-.58-.11Z"/>
    <g>
      <g>
        <path class="mr" d="M1097.57,1436.83v.73h-9.84v-.73h9.84ZM1095.44,1439.25c.7.47,1.05,1.12,1.05,1.94s-.34,1.45-1.04,1.93c-.69.48-1.63.72-2.81.72s-2.11-.24-2.81-.71c-.7-.47-1.05-1.12-1.05-1.94s.35-1.45,1.04-1.93,1.64-.72,2.82-.72,2.1.24,2.8.71ZM1090.43,1439.78c-.55.36-.83.83-.83,1.42s.28,1.05.83,1.41c.55.35,1.29.53,2.21.53s1.64-.18,2.19-.53c.55-.35.83-.82.83-1.41s-.28-1.06-.83-1.42c-.55-.36-1.29-.54-2.19-.54s-1.66.18-2.21.54ZM1100.5,1445.08v3.25h-9.3v2.28h-.82v-2.99h9.26v-1.81h-9.31v-.73h10.17ZM1101.14,1450.34v.73h-10.75v-.73h10.75ZM1093.07,1434.98v2.26h-.86v-2.26h.86ZM1100.5,1435.13v9.04h-.86v-9.04h.86Z"/>
        <path class="mr" d="M1111.78,1436.27v4.12h-6.35v3.27h-.82v-4h6.33v-2.65h-6.38v-.75h7.22ZM1109.84,1443.12c1.18-.08,2.43-.23,3.73-.44l.11.75c-1.34.21-2.61.36-3.81.44-1.19.08-2.54.12-4.05.12h-1.21v-.75h1.21c1.49,0,2.83-.04,4.01-.12ZM1115.53,1446.34c.95.49,1.42,1.18,1.42,2.06s-.47,1.61-1.42,2.11-2.25.75-3.9.75-2.99-.25-3.93-.75c-.94-.5-1.41-1.2-1.41-2.11s.47-1.57,1.41-2.06c.94-.49,2.25-.74,3.93-.74s2.96.25,3.9.74ZM1109.26,1446.57c-.67.17-1.2.42-1.57.74s-.56.68-.56,1.09c0,.65.41,1.16,1.22,1.55.82.39,1.9.58,3.26.58s2.44-.19,3.25-.58,1.21-.9,1.21-1.55c0-.41-.18-.77-.55-1.09s-.89-.56-1.56-.74c-.67-.17-1.46-.26-2.35-.26s-1.68.09-2.35.26ZM1116.84,1435.22v10h-.88v-10h.88Z"/>
        <path class="mr" d="M1124.51,1436.38v2.58c0,.75-.16,1.51-.48,2.28-.32.77-.76,1.47-1.32,2.11-.57.63-1.2,1.13-1.9,1.47l-.52-.67c.65-.31,1.24-.75,1.78-1.33.54-.57.96-1.2,1.26-1.89.3-.68.45-1.34.45-1.98v-2.58h.73ZM1124.15,1445.79v4.67h-.88v-4.67h.88ZM1134.08,1450.13v.75h-10.81v-.75h10.81ZM1124.6,1436.38v2.58c0,.65.15,1.28.45,1.9.3.62.71,1.19,1.22,1.69s1.1.9,1.76,1.19l-.5.65c-1.07-.48-1.94-1.22-2.61-2.22s-1.01-2.07-1.01-3.21v-2.58h.69ZM1130.07,1439.55v.75h-3.38v-.75h3.38ZM1130.44,1435.56v11.31h-.84v-11.31h.84ZM1133.54,1435.2v12.1h-.82v-12.1h.82Z"/>
        <path class="mr" d="M1144.57,1436.77v.75h-6.57v9.3h-.86v-10.04h7.43ZM1142.55,1446.43c1.05-.07,2.11-.21,3.16-.44l.11.75c-1.13.21-2.24.36-3.33.44-1.09.08-2.48.12-4.17.12h-1.18v-.76h1.18c1.77,0,3.18-.03,4.23-.1ZM1143.77,1441.3v.75h-6.05v-.75h6.05ZM1148.81,1441.59v.73h-3.96v-.73h3.96ZM1149.46,1435.2v16.11h-.86v-16.11h.86Z"/>
        <path class="mr" d="M1102,1467.75v.75h-14.54v-.75h14.54ZM1100.17,1470.42v4.89h-.86v-4.14h-10.23v-.75h11.09ZM1090.31,1459.57v2.11h8.89v-2.11h.86v5.86h-10.6v-5.86h.86ZM1090.31,1464.71h8.89v-2.3h-8.89v2.3ZM1095.16,1465.12v3.02h-.84v-3.02h.84Z"/>
        <path class="mr" d="M1118.38,1472.36v.77h-14.62v-.77h14.62ZM1116.41,1460.6v.75h-9.8v5.96h-.86v-6.7h10.66ZM1116.59,1466.97v.73h-10.85v-.73h10.85ZM1111.46,1467.25v5.53h-.84v-5.53h.84Z"/>
        <path class="mr" d="M1093.3,1495.06c1.76-.07,3.42-.2,5-.4l.05.67c-1.62.25-3.3.41-5.04.5-1.74.08-3.62.12-5.62.12l-.17-.79c2.09,0,4.01-.03,5.77-.1ZM1097.74,1485.31v.75h-9.84v-.75h9.84ZM1094.79,1487.54c.57.24,1.01.59,1.33,1.04.31.45.47.97.47,1.57s-.16,1.1-.47,1.54c-.31.44-.75.78-1.33,1.03s-1.23.36-1.98.36-1.42-.12-1.98-.36c-.56-.24-1-.58-1.31-1.03-.31-.44-.47-.96-.47-1.54s.15-1.12.47-1.57c.31-.45.75-.79,1.31-1.04.56-.24,1.22-.36,1.98-.36s1.41.12,1.98.36ZM1090.68,1488.52c-.55.42-.82.96-.82,1.62s.27,1.18.82,1.59c.55.41,1.26.62,2.13.62s1.6-.21,2.14-.62c.54-.41.81-.94.81-1.59s-.27-1.22-.81-1.63c-.54-.42-1.25-.62-2.14-.62s-1.58.21-2.13.63ZM1093.26,1483.16v2.5h-.86v-2.5h.86ZM1093.28,1492.78v2.67h-.88v-2.67h.88ZM1100.33,1483.2v16.11h-.88v-16.11h.88Z"/>
        <path class="mr" d="M1113.4,1485.03v.75h-9.54v-.75h9.54ZM1110.6,1487.07c.57.23,1.01.56,1.33.98.31.42.47.92.47,1.49s-.16,1.07-.47,1.49c-.31.42-.75.75-1.33.97-.57.22-1.24.34-2,.34s-1.41-.11-1.98-.34c-.57-.22-1.01-.55-1.33-.97-.31-.42-.47-.92-.47-1.49s.16-1.07.47-1.49c.31-.42.75-.75,1.32-.98.57-.23,1.23-.34,1.99-.34s1.43.12,2,.34ZM1106.48,1488.03c-.55.39-.82.9-.82,1.52s.27,1.13.82,1.52c.55.39,1.26.59,2.15.59s1.58-.2,2.13-.59c.55-.39.82-.9.82-1.52s-.27-1.13-.82-1.52c-.55-.39-1.26-.59-2.15-.59s-1.58.2-2.13.59ZM1107.13,1493.28v2.05h8.16v-2.05h.86v5.79h-9.87v-5.79h.86ZM1107.13,1498.32h8.16v-2.28h-8.16v2.28ZM1109.05,1483.01v2.39h-.86v-2.39h.86ZM1116.14,1483.2v9.31h-.86v-9.31h.86ZM1118.7,1487.48v.76h-2.99v-.76h2.99Z"/>
        <path class="mr" d="M1125.31,1483.74v1.23c0,.96-.21,1.86-.62,2.71s-.96,1.59-1.64,2.22-1.44,1.13-2.26,1.47l-.47-.71c.76-.29,1.46-.71,2.11-1.29.65-.57,1.17-1.24,1.56-2.01.39-.77.59-1.56.59-2.4v-1.23h.73ZM1133.13,1492.57v3.51h-9.28v2.63h-.82v-3.32h9.26v-2.07h-9.31v-.75h10.16ZM1133.79,1498.34v.73h-10.75v-.73h10.75ZM1125.42,1483.74v1.23c0,.78.2,1.54.6,2.27.4.73.93,1.36,1.59,1.89.66.54,1.36.95,2.11,1.23l-.45.69c-.83-.32-1.6-.79-2.29-1.38-.69-.6-1.24-1.3-1.65-2.11-.41-.81-.62-1.67-.62-2.59v-1.23h.71ZM1133.13,1483.2v8.47h-.86v-8.47h.86Z"/>
        <path class="mr" d="M1102,1515.41v.73h-14.52v-.73h14.52ZM1098.74,1518.31c.96.5,1.45,1.2,1.45,2.11s-.48,1.61-1.45,2.11c-.96.5-2.3.75-4,.75s-3.05-.25-4.01-.75c-.96-.5-1.44-1.2-1.44-2.11s.48-1.61,1.44-2.11c.96-.5,2.3-.75,4.01-.75s3.04.25,4,.75ZM1100.13,1507.99v.73h-9.93v4.13h-.84v-4.85h10.77ZM1100.26,1512.45v.75h-10.9v-.75h10.9ZM1091.39,1518.86c-.83.38-1.25.9-1.25,1.56s.42,1.18,1.25,1.56c.83.38,1.95.57,3.34.57s2.51-.19,3.34-.57c.83-.38,1.25-.9,1.25-1.56s-.42-1.18-1.25-1.56c-.83-.38-1.95-.57-3.34-.57s-2.51.19-3.34.57ZM1095.15,1512.73v3.04h-.86v-3.04h.86Z"/>
        <path class="mr" d="M1110.09,1509.21c.59.45,1.05,1.1,1.37,1.93s.49,1.8.49,2.89-.16,2.08-.49,2.91-.78,1.48-1.37,1.93c-.59.46-1.27.68-2.03.68s-1.47-.23-2.06-.68c-.59-.45-1.05-1.1-1.37-1.93s-.49-1.8-.49-2.89.16-2.08.49-2.91.78-1.48,1.37-1.93c.59-.45,1.28-.68,2.06-.68s1.43.23,2.03.68ZM1106.44,1509.9c-.47.4-.84.97-1.1,1.69-.26.72-.39,1.54-.39,2.46s.13,1.73.39,2.45c.26.73.63,1.3,1.1,1.71.47.41,1.01.62,1.62.62s1.13-.21,1.6-.62.83-.98,1.08-1.71.38-1.55.38-2.45-.13-1.74-.38-2.46c-.25-.72-.62-1.29-1.08-1.69s-1-.61-1.61-.61-1.13.2-1.61.61ZM1116,1507.2v16.11h-.86v-16.11h.86ZM1118.85,1513.9v.75h-3.08v-.75h3.08Z"/>
        <path class="mr" d="M1128.33,1508.81v5.39h-6.42v4.67h-.84v-5.41h6.42v-3.9h-6.48v-.75h7.32ZM1126.38,1518.44c1.28-.09,2.63-.24,4.08-.47l.11.73c-1.47.24-2.84.4-4.12.49-1.28.09-2.65.13-4.11.13h-1.27v-.75h1.27c1.42,0,2.77-.04,4.04-.13ZM1133.13,1507.2v16.11h-.86v-16.11h.86Z"/>
        <path class="mr" d="M1141.62,1507.74v1.23c0,.96-.21,1.86-.62,2.71s-.96,1.59-1.64,2.22-1.44,1.13-2.26,1.47l-.47-.71c.76-.29,1.46-.71,2.11-1.29.65-.57,1.17-1.24,1.56-2.01.39-.77.59-1.56.59-2.4v-1.23h.73ZM1149.45,1516.57v3.51h-9.28v2.63h-.82v-3.32h9.26v-2.07h-9.31v-.75h10.16ZM1150.1,1522.34v.73h-10.75v-.73h10.75ZM1141.74,1507.74v1.23c0,.78.2,1.54.6,2.27.4.73.93,1.36,1.59,1.89.66.54,1.36.95,2.11,1.23l-.45.69c-.83-.32-1.6-.79-2.29-1.38-.69-.6-1.24-1.3-1.65-2.11-.41-.81-.62-1.67-.62-2.59v-1.23h.71ZM1149.45,1507.2v8.47h-.86v-8.47h.86Z"/>
        <path class="mr" d="M1102.07,1544.3v.77h-14.62v-.77h14.62ZM1095.03,1532.38v1.33c0,1.07-.34,2.05-1.03,2.95-.68.9-1.52,1.64-2.51,2.24-.99.6-1.96,1.01-2.9,1.25l-.37-.73c.81-.16,1.69-.52,2.63-1.06.95-.55,1.75-1.23,2.42-2.04.67-.81,1-1.68,1-2.6v-1.33h.77ZM1095.13,1540.18v4.46h-.84v-4.46h.84ZM1095.15,1532.38v1.33c0,.92.33,1.79,1,2.6.67.82,1.47,1.5,2.43,2.04.95.55,1.83.9,2.64,1.06l-.41.73c-.92-.22-1.88-.64-2.87-1.24-1-.6-1.84-1.36-2.52-2.26-.68-.9-1.03-1.88-1.03-2.94v-1.33h.77Z"/>
        <path class="mr" d="M1109.18,1533.38c.51.44.91,1.07,1.18,1.89.28.81.42,1.77.42,2.87s-.14,2.05-.42,2.88c-.28.82-.67,1.45-1.18,1.89s-1.11.66-1.79.66-1.26-.22-1.77-.66-.91-1.07-1.19-1.89c-.28-.82-.42-1.78-.42-2.88s.14-2.05.42-2.87c.28-.82.68-1.44,1.19-1.89.51-.44,1.1-.66,1.77-.66s1.28.22,1.79.66ZM1106.05,1534.09c-.39.39-.69.94-.9,1.64s-.32,1.5-.32,2.4.11,1.7.32,2.41c.21.71.51,1.26.9,1.65.38.39.83.59,1.34.59s.96-.2,1.35-.59c.39-.39.7-.94.91-1.65.22-.71.33-1.51.33-2.41s-.11-1.7-.33-2.4-.52-1.25-.91-1.64-.84-.59-1.35-.59-.96.2-1.34.59ZM1113.68,1535.35v.75h-3.49v-.75h3.49ZM1113.68,1540.18v.75h-3.49v-.75h3.49ZM1114.22,1531.63v14.8h-.84v-14.8h.84ZM1117.34,1531.2v16.11h-.84v-16.11h.84Z"/>
        <path class="mr" d="M1121.61,1532.81v4.14h4.33v-4.14h.8v10.32h-5.97v-10.32h.84ZM1121.61,1542.38h4.33v-4.69h-4.33v4.69ZM1130.05,1531.63v14.8h-.84v-14.8h.84ZM1133.21,1537.75v.75h-3.4v-.75h3.4ZM1133.65,1531.2v16.11h-.84v-16.11h.84Z"/>
        <path class="mr" d="M1141.62,1531.74v1.23c0,.96-.21,1.86-.62,2.71s-.96,1.59-1.64,2.22-1.44,1.13-2.26,1.47l-.47-.71c.76-.29,1.46-.71,2.11-1.29.65-.57,1.17-1.24,1.56-2.01.39-.77.59-1.56.59-2.4v-1.23h.73ZM1149.45,1540.57v3.51h-9.28v2.63h-.82v-3.32h9.26v-2.07h-9.31v-.75h10.16ZM1150.1,1546.34v.73h-10.75v-.73h10.75ZM1141.74,1531.74v1.23c0,.78.2,1.54.6,2.27.4.73.93,1.36,1.59,1.89.66.54,1.36.95,2.11,1.23l-.45.69c-.83-.32-1.6-.79-2.29-1.38-.69-.6-1.24-1.3-1.65-2.11-.41-.81-.62-1.67-.62-2.59v-1.23h.71ZM1149.45,1531.2v8.47h-.86v-8.47h.86Z"/>
      </g>
      <g>
        <path class="mr" d="M1072.92,1450.06h-.9v-12.47l-1.68,1.16-.48-.65,2.16-1.51h.9v13.48Z"/>
        <path class="mr" d="M1068.79,1472.41c.27-.25.57-.54.91-.87,1.12-1.06,2.02-1.94,2.7-2.65.68-.71,1.26-1.45,1.74-2.22.49-.77.73-1.49.73-2.15s-.12-1.2-.37-1.7c-.25-.5-.59-.89-1.04-1.17-.44-.28-.94-.42-1.5-.42-.62,0-1.22.21-1.78.64s-.99.98-1.28,1.65l-.84-.36c.35-.81.88-1.47,1.61-1.98.72-.51,1.49-.76,2.3-.76.73,0,1.39.17,1.96.52.57.35,1.02.83,1.35,1.46.33.62.5,1.33.5,2.11s-.26,1.58-.77,2.42c-.51.84-1.12,1.64-1.84,2.39s-1.65,1.67-2.79,2.73c-.79.74-1.39,1.31-1.81,1.74l-.63-.52c.31-.32.6-.61.87-.87ZM1067.92,1473.28h8.03v.78h-7.91l-.11-.78Z"/>
        <path class="mr" d="M1075.49,1492.33c.44.59.66,1.22.66,1.9,0,.76-.18,1.44-.54,2.04-.36.6-.86,1.07-1.5,1.41s-1.37.5-2.19.5-1.55-.17-2.19-.5-1.14-.8-1.5-1.41c-.36-.6-.54-1.28-.54-2.04h.9c0,.61.14,1.15.43,1.63.29.48.68.85,1.2,1.12.51.27,1.08.4,1.72.4s1.23-.13,1.74-.38c.51-.25.91-.61,1.19-1.05.28-.45.42-.96.42-1.55s-.14-1.06-.42-1.5c-.28-.44-.67-.79-1.18-1.04-.5-.25-1.07-.37-1.71-.37h-.54v-.82h.52c.6,0,1.13-.11,1.61-.34.48-.23.85-.55,1.12-.96s.4-.88.4-1.4c0-.8-.29-1.45-.86-1.96-.57-.51-1.31-.77-2.2-.77-.59,0-1.11.12-1.59.37-.47.24-.84.58-1.09,1.03-.25.44-.38.94-.38,1.5h-.9c0-.71.17-1.34.5-1.9.34-.56.8-1,1.4-1.32.6-.32,1.28-.48,2.05-.48s1.46.16,2.05.48c.6.32,1.06.76,1.4,1.32.34.56.5,1.19.5,1.9,0,.57-.2,1.13-.6,1.69-.4.55-.91.97-1.55,1.26.67.25,1.23.67,1.67,1.25Z"/>
        <path class="mr" d="M1074.39,1517.3h2.18v.8h-2.18v3.96h-.9v-3.96h-6.14l-.13-.82,6.27-8.7h.9v8.72ZM1073.5,1517.3v-7.17l-5.17,7.17h5.17Z"/>
        <path class="mr" d="M1070.07,1538.01c.6-.28,1.19-.42,1.76-.42.85,0,1.6.18,2.26.54.66.36,1.17.86,1.53,1.5s.54,1.38.54,2.21-.18,1.6-.55,2.26c-.37.66-.88,1.18-1.53,1.55s-1.4.56-2.25.56c-.66,0-1.28-.14-1.87-.42-.58-.28-1.08-.67-1.49-1.17-.41-.5-.69-1.06-.84-1.7l.88-.19c.17.77.57,1.4,1.19,1.89.62.49,1.33.74,2.13.74.66,0,1.25-.15,1.78-.45s.94-.71,1.22-1.25.43-1.14.43-1.83-.14-1.25-.43-1.76c-.29-.52-.69-.92-1.22-1.2-.53-.29-1.12-.43-1.78-.43-.45,0-.91.11-1.39.34-.48.22-.88.52-1.21.88l-.65-.58c.38-.44.88-.79,1.48-1.07ZM1068.35,1539.49l.39-6.91h6.63v.78h-5.75l-.37,6.29-.9-.17Z"/>
      </g>
    </g>
  </g>
  <g id="lz" data-name="SCALE">
    <g>
      <g id="ma" data-name="CIRCLE">
        <circle class="mn" cx="75.65" cy="1448.67" r="19.84"/>
      </g>
      <g id="mb" data-name="TEXT">
        <path class="mw" d="M88.47,1427.97l-1.15-.46-1.69-10.73-3.49,8.63-1.12-.45,4.37-10.8,1.16.47,1.69,10.69,3.48-8.6,1.12.45-4.37,10.8Z"/>
      </g>
      <g id="mc" data-name="HATCH">
        <path class="nh" d="M83.09,1430.27c-.31-.12-.62-.24-.93-.35l-7.43,18.37.92.37,7.44-18.39Z"/>
      </g>
      <g id="md" data-name="HATCH">
        <path class="nh" d="M84,1430.67c-.3-.14-.61-.27-.91-.4l-7.44,18.39.92.37,7.43-18.37Z"/>
      </g>
      <g id="me" data-name="LINE">
        <line class="mn" x1="82.16" y1="1429.92" x2="74.72" y2="1448.29"/>
      </g>
      <g id="mf" data-name="LINE">
        <line class="mn" x1="84" y1="1430.67" x2="76.57" y2="1449.04"/>
      </g>
      <g id="mg" data-name="LINE">
        <line class="mn" x1="75.65" y1="1448.67" x2="83.09" y2="1430.27"/>
      </g>
      <g id="mh" data-name="MTEXT">
        <path class="mw" d="M84.76,1545.39h-1.79v-13.44l-2.47,1.6-.9-1.43,3.39-2.15h1.77v15.42Z"/>
      </g>
      <g id="mi" data-name="MTEXT">
        <g>
          <path class="mw" d="M326.19,1545.39h-1.79v-13.44l-2.47,1.6-.9-1.43,3.39-2.15h1.77v15.42Z"/>
          <path class="mw" d="M332.13,1544.54c-.85-.67-1.51-1.6-1.98-2.79-.48-1.19-.71-2.55-.71-4.07s.24-2.86.71-4.05c.48-1.19,1.14-2.13,1.98-2.79.85-.67,1.81-1,2.89-1s2.04.33,2.89,1,1.51,1.6,1.98,2.79c.48,1.19.71,2.55.71,4.05s-.24,2.88-.71,4.06-1.14,2.12-1.98,2.79c-.85.68-1.81,1.01-2.89,1.01s-2.04-.33-2.89-1ZM337,1543.15c.58-.54,1.03-1.28,1.35-2.23.32-.95.48-2.03.48-3.25s-.16-2.31-.48-3.26c-.32-.95-.77-1.7-1.35-2.23-.58-.53-1.24-.8-1.98-.8s-1.4.27-1.97.8c-.58.53-1.03,1.28-1.35,2.23-.33.95-.49,2.03-.49,3.24s.16,2.33.49,3.27c.33.95.78,1.69,1.35,2.23.58.54,1.23.81,1.97.81s1.4-.27,1.98-.81Z"/>
          <path class="mw" d="M355.51,1537.74c-.39-.45-.89-.67-1.5-.67-.47,0-.89.1-1.25.29-.36.19-.65.46-.86.8s-.32.73-.32,1.17v6.1h-1.77v-5.93c0-.73-.19-1.31-.58-1.76-.38-.45-.88-.67-1.49-.67-.46,0-.87.12-1.25.35-.38.23-.67.55-.87.96s-.31.84-.31,1.31v5.74h-1.77v-9.94h1.77v1.75l-.19-.06c.3-.5.7-.9,1.19-1.22.5-.31,1-.47,1.51-.47.61,0,1.2.17,1.76.51.56.34.98.78,1.27,1.32.33-.54.79-.98,1.39-1.32s1.2-.51,1.81-.51c.74,0,1.4.17,1.98.5.58.33,1.04.79,1.37,1.37.33.58.49,1.24.49,1.99v6.08h-1.79v-5.93c0-.73-.2-1.31-.59-1.76Z"/>
        </g>
      </g>
      <g id="mj" data-name="MTEXT">
        <path class="mw" d="M194.51,1535.8c.73-.33,1.44-.5,2.12-.5,1.02,0,1.94.22,2.74.65.8.43,1.43,1.03,1.88,1.8.45.77.67,1.65.67,2.65s-.22,1.91-.66,2.69c-.44.78-1.06,1.4-1.87,1.85-.8.45-1.72.67-2.76.67-.8,0-1.55-.17-2.25-.5s-1.3-.8-1.79-1.4-.82-1.27-.99-2.03l1.73-.41c.17.78.57,1.42,1.18,1.91s1.33.74,2.12.74c.67,0,1.27-.15,1.8-.45.53-.3.95-.72,1.26-1.26.31-.54.46-1.14.46-1.81s-.15-1.26-.46-1.78c-.31-.52-.73-.92-1.26-1.22s-1.13-.44-1.8-.44c-.44,0-.9.12-1.39.35-.48.23-.88.54-1.19.91l-1.32-1.15c.46-.51,1.05-.94,1.78-1.27ZM192.28,1537.97l.49-8.04h7.89v1.58h-6.19l-.43,6.72-1.77-.26Z"/>
      </g>
      <g id="mk" data-name="MTEXT">
        <path class="mw" d="M108.54,1542.96c.25-.23.57-.51.95-.85,1.24-1.14,2.23-2.09,2.99-2.87.75-.77,1.39-1.56,1.92-2.37.53-.8.79-1.55.79-2.23,0-.64-.12-1.21-.37-1.7-.25-.49-.59-.87-1.03-1.15s-.95-.42-1.54-.42c-.63,0-1.23.21-1.82.64-.59.43-1.03.97-1.33,1.64l-1.6-.68c.4-.94,1.05-1.71,1.94-2.3s1.83-.9,2.82-.9c.92,0,1.75.21,2.46.62.72.41,1.28.98,1.67,1.72.4.73.6,1.58.6,2.53s-.3,1.87-.9,2.85c-.6.97-1.31,1.88-2.13,2.72-.83.84-1.9,1.85-3.22,3.03-.65.6-1.27,1.17-1.86,1.73l-1.26-1.13c.37-.35.68-.65.93-.87ZM107.61,1543.83h9.62v1.58h-9.39l-.23-1.58Z"/>
      </g>
      <g id="ml" data-name="MTEXT">
        <path class="mw" d="M53.81,1544.54c-.85-.67-1.51-1.6-1.98-2.79-.48-1.19-.71-2.55-.71-4.07s.24-2.86.71-4.05c.48-1.19,1.14-2.13,1.98-2.79.85-.67,1.81-1,2.89-1s2.04.33,2.89,1,1.51,1.6,1.98,2.79c.48,1.19.71,2.55.71,4.05s-.24,2.88-.71,4.06-1.14,2.12-1.98,2.79c-.85.68-1.81,1.01-2.89,1.01s-2.04-.33-2.89-1ZM58.68,1543.15c.58-.54,1.03-1.28,1.35-2.23.32-.95.48-2.03.48-3.25s-.16-2.31-.48-3.26c-.32-.95-.77-1.7-1.35-2.23-.58-.53-1.24-.8-1.98-.8s-1.4.27-1.97.8c-.58.53-1.03,1.28-1.35,2.23-.33.95-.49,2.03-.49,3.24s.16,2.33.49,3.27c.33.95.78,1.69,1.35,2.23.58.54,1.23.81,1.97.81s1.4-.27,1.98-.81Z"/>
      </g>
      <g id="mm" data-name="LWPOLYLINE">
        <polyline class="mn" points="55.81 1524.52 55.81 1501.84 84.15 1501.84 84.15 1524.52 112.5 1524.52 112.5 1501.84 197.54 1501.84 197.54 1524.52 339.27 1524.52 339.27 1501.84"/>
      </g>
    </g>
  </g>
</svg>