<?xml version="1.0" encoding="UTF-8"?>
<svg xmlns="http://www.w3.org/2000/svg" viewBox="0 0 1200 1600">
  <defs>
    <style>
      .ag, .ah, .ai, .aj, .ak, .al, .am {
        stroke: #000;
      }

      .ag, .ah, .am {
        stroke-width: .5px;
      }

      .ag, .an, .ai, .aj, .ak, .al {
        fill: none;
      }

      .ag, .ai, .aj, .ak, .al, .am {
        stroke-miterlimit: 10;
      }

      .ai {
        stroke-width: .4px;
      }

      .aj {
        stroke-width: .25px;
      }

      .ak {
        stroke-width: .3px;
      }

      .al {
        stroke-width: .1px;
      }

      .am {
        fill: #060001;
        fill-rule: evenodd;
      }
    </style>
  </defs>
  <g id="c" data-name="f4">
    <g>
      <g id="d" data-name="HATCH">
        <rect class="aj" x="139.35" y="551.59" width="221.11" height="123.45"/>
        <path class="aj" d="M149.68,675.04v-123.45M185.68,675.04v-123.45M221.68,675.04v-123.45M257.68,675.04v-123.45M293.68,675.04v-123.45M329.68,675.04v-123.45M360.46,649.53h-221.11M360.46,613.53h-221.11M360.46,577.53h-221.11"/>
      </g>
      <g id="e" data-name="HATCH">
        <path class="aj" d="M372.51,729.79v-97.41M394.55,729.79v-97.41M416.6,729.79v-97.41M438.65,729.79v-97.41M460.7,762.39v-130.01M482.75,762.39v-130.01M504.8,762.39v-130.01M526.84,762.39v-130.01M548.89,762.39v-130.01"/>
      </g>
      <g id="f" data-name="HATCH">
        <path class="al" d="M460.7,896v-95.34M482.75,896v-95.34M504.8,896v-95.34M526.84,896v-93.27M548.89,896v-77.65M570.94,896v-73.32M592.99,896v-104.45M615.04,896v-123.25M637.09,896v-107.64M659.13,896v-92.02M681.18,896v-76.4"/>
      </g>
      <g id="g" data-name="LWPOLYLINE">
        <polyline class="ak" points="808.33 844.98 872.11 844.98 872.11 1074.58 452.88 1074.58"/>
      </g>
      <g id="h" data-name="LWPOLYLINE">
        <polyline class="ak" points="452.88 896 701.03 896 701.03 833.66"/>
      </g>
      <g id="i" data-name="LWPOLYLINE">
        <polyline class="ai" points="367.54 682.12 367.54 729.79 448.07 729.79 448.07 762.39 563.98 762.39 563.98 632.38 367.54 632.38"/>
      </g>
      <g id="j" data-name="LWPOLYLINE">
        <polyline class="ai" points="563.98 632.38 583.61 632.38 808.33 791.55 808.33 861.98 741.02 861.98 609.23 768.63 565.62 830.2 523.91 800.66 452.88 800.66 452.88 1074.58 132.24 1074.58 132.24 682.12"/>
      </g>
      <g id="k" data-name="LWPOLYLINE">
        <polyline class="ai" points="563.98 640.88 580.9 640.88 799.83 795.95 799.83 853.48 743.73 853.48 607.2 756.77 563.59 818.34 526.62 792.15 444.37 792.15 444.37 1066.08 140.75 1066.08 140.75 682.12"/>
      </g>
      <g id="l" data-name="LWPOLYLINE">
        <rect class="ai" x="132.26" y="544.5" width="235.28" height="137.62"/>
      </g>
      <g id="m" data-name="LWPOLYLINE">
        <rect class="ai" x="139.35" y="551.59" width="221.11" height="123.45"/>
      </g>
      <g id="n" data-name="frame">
        <rect class="an" x="4.72" y="379.06" width="1190.55" height="841.89"/>
      </g>
    </g>
  </g>
  <g id="s" data-name="SCALE">
    <g>
      <g id="t" data-name="CIRCLE">
        <circle class="ag" cx="75.65" cy="1448.67" r="19.84"/>
      </g>
      <g id="u" data-name="TEXT">
        <path class="ah" d="M88.47,1427.97l-1.15-.46-1.69-10.73-3.49,8.63-1.12-.45,4.37-10.8,1.16.47,1.69,10.69,3.48-8.6,1.12.45-4.37,10.8Z"/>
      </g>
      <g id="v" data-name="HATCH">
        <path class="am" d="M83.09,1430.27c-.31-.12-.62-.24-.93-.35l-7.43,18.37.92.37,7.44-18.39Z"/>
      </g>
      <g id="w" data-name="HATCH">
        <path class="am" d="M84,1430.67c-.3-.14-.61-.27-.91-.4l-7.44,18.39.92.37,7.43-18.37Z"/>
      </g>
      <g id="x" data-name="LINE">
        <line class="ag" x1="82.16" y1="1429.92" x2="74.72" y2="1448.29"/>
      </g>
      <g id="y" data-name="LINE">
        <line class="ag" x1="84" y1="1430.67" x2="76.57" y2="1449.04"/>
      </g>
      <g id="z" data-name="LINE">
        <line class="ag" x1="75.65" y1="1448.67" x2="83.09" y2="1430.27"/>
      </g>
      <g id="aa" data-name="MTEXT">
        <path class="ah" d="M84.76,1545.39h-1.79v-13.44l-2.47,1.6-.9-1.43,3.39-2.15h1.77v15.42Z"/>
      </g>
      <g id="ab" data-name="MTEXT">
        <g>
          <path class="ah" d="M326.19,1545.39h-1.79v-13.44l-2.47,1.6-.9-1.43,3.39-2.15h1.77v15.42Z"/>
          <path class="ah" d="M332.13,1544.54c-.85-.67-1.51-1.6-1.98-2.79-.48-1.19-.71-2.55-.71-4.07s.24-2.86.71-4.05c.48-1.19,1.14-2.13,1.98-2.79.85-.67,1.81-1,2.89-1s2.04.33,2.89,1,1.51,1.6,1.98,2.79c.48,1.19.71,2.55.71,4.05s-.24,2.88-.71,4.06-1.14,2.12-1.98,2.79c-.85.68-1.81,1.01-2.89,1.01s-2.04-.33-2.89-1ZM337,1543.15c.58-.54,1.03-1.28,1.35-2.23.32-.95.48-2.03.48-3.25s-.16-2.31-.48-3.26c-.32-.95-.77-1.7-1.35-2.23-.58-.53-1.24-.8-1.98-.8s-1.4.27-1.97.8c-.58.53-1.03,1.28-1.35,2.23-.33.95-.49,2.03-.49,3.24s.16,2.33.49,3.27c.33.95.78,1.69,1.35,2.23.58.54,1.23.81,1.97.81s1.4-.27,1.98-.81Z"/>
          <path class="ah" d="M355.51,1537.74c-.39-.45-.89-.67-1.5-.67-.47,0-.89.1-1.25.29-.36.19-.65.46-.86.8s-.32.73-.32,1.17v6.1h-1.77v-5.93c0-.73-.19-1.31-.58-1.76-.38-.45-.88-.67-1.49-.67-.46,0-.87.12-1.25.35-.38.23-.67.55-.87.96s-.31.84-.31,1.31v5.74h-1.77v-9.94h1.77v1.75l-.19-.06c.3-.5.7-.9,1.19-1.22.5-.31,1-.47,1.51-.47.61,0,1.2.17,1.76.51.56.34.98.78,1.27,1.32.33-.54.79-.98,1.39-1.32s1.2-.51,1.81-.51c.74,0,1.4.17,1.98.5.58.33,1.04.79,1.37,1.37.33.58.49,1.24.49,1.99v6.08h-1.79v-5.93c0-.73-.2-1.31-.59-1.76Z"/>
        </g>
      </g>
      <g id="ac" data-name="MTEXT">
        <path class="ah" d="M194.51,1535.8c.73-.33,1.44-.5,2.12-.5,1.02,0,1.94.22,2.74.65.8.43,1.43,1.03,1.88,1.8.45.77.67,1.65.67,2.65s-.22,1.91-.66,2.69c-.44.78-1.06,1.4-1.87,1.85-.8.45-1.72.67-2.76.67-.8,0-1.55-.17-2.25-.5s-1.3-.8-1.79-1.4-.82-1.27-.99-2.03l1.73-.41c.17.78.57,1.42,1.18,1.91s1.33.74,2.12.74c.67,0,1.27-.15,1.8-.45.53-.3.95-.72,1.26-1.26.31-.54.46-1.14.46-1.81s-.15-1.26-.46-1.78c-.31-.52-.73-.92-1.26-1.22s-1.13-.44-1.8-.44c-.44,0-.9.12-1.39.35-.48.23-.88.54-1.19.91l-1.32-1.15c.46-.51,1.05-.94,1.78-1.27ZM192.28,1537.97l.49-8.04h7.89v1.58h-6.19l-.43,6.72-1.77-.26Z"/>
      </g>
      <g id="ad" data-name="MTEXT">
        <path class="ah" d="M108.54,1542.96c.25-.23.57-.51.95-.85,1.24-1.14,2.23-2.09,2.99-2.87.75-.77,1.39-1.56,1.92-2.37.53-.8.79-1.55.79-2.23,0-.64-.12-1.21-.37-1.7-.25-.49-.59-.87-1.03-1.15s-.95-.42-1.54-.42c-.63,0-1.23.21-1.82.64-.59.43-1.03.97-1.33,1.64l-1.6-.68c.4-.94,1.05-1.71,1.94-2.3s1.83-.9,2.82-.9c.92,0,1.75.21,2.46.62.72.41,1.28.98,1.67,1.72.4.73.6,1.58.6,2.53s-.3,1.87-.9,2.85c-.6.97-1.31,1.88-2.13,2.72-.83.84-1.9,1.85-3.22,3.03-.65.6-1.27,1.17-1.86,1.73l-1.26-1.13c.37-.35.68-.65.93-.87ZM107.61,1543.83h9.62v1.58h-9.39l-.23-1.58Z"/>
      </g>
      <g id="ae" data-name="MTEXT">
        <path class="ah" d="M53.81,1544.54c-.85-.67-1.51-1.6-1.98-2.79-.48-1.19-.71-2.55-.71-4.07s.24-2.86.71-4.05c.48-1.19,1.14-2.13,1.98-2.79.85-.67,1.81-1,2.89-1s2.04.33,2.89,1,1.51,1.6,1.98,2.79c.48,1.19.71,2.55.71,4.05s-.24,2.88-.71,4.06-1.14,2.12-1.98,2.79c-.85.68-1.81,1.01-2.89,1.01s-2.04-.33-2.89-1ZM58.68,1543.15c.58-.54,1.03-1.28,1.35-2.23.32-.95.48-2.03.48-3.25s-.16-2.31-.48-3.26c-.32-.95-.77-1.7-1.35-2.23-.58-.53-1.24-.8-1.98-.8s-1.4.27-1.97.8c-.58.53-1.03,1.28-1.35,2.23-.33.95-.49,2.03-.49,3.24s.16,2.33.49,3.27c.33.95.78,1.69,1.35,2.23.58.54,1.23.81,1.97.81s1.4-.27,1.98-.81Z"/>
      </g>
      <g id="af" data-name="LWPOLYLINE">
        <polyline class="ag" points="55.81 1524.52 55.81 1501.84 84.15 1501.84 84.15 1524.52 112.5 1524.52 112.5 1501.84 197.54 1501.84 197.54 1524.52 339.27 1524.52 339.27 1501.84"/>
      </g>
    </g>
  </g>
</svg>