<?xml version="1.0" encoding="UTF-8"?>
<svg xmlns="http://www.w3.org/2000/svg" viewBox="0 0 2000 1500">
  <defs>
    <style>
      .mu, .mv, .mw, .mx, .my, .mz, .na, .nb, .nc, .nd, .ne, .nf, .ng, .nh, .ni, .nj, .nk, .nl, .nm {
        stroke: #000;
      }

      .mu, .mv, .mw, .mx, .mz, .na, .nb, .nn, .nc, .nd, .ne, .nf, .ng, .nh, .no, .ni, .nj, .nk, .nl {
        fill: none;
      }

      .mu, .mv, .mw, .mx, .mz, .na, .nb, .nc, .nd, .ne, .nf, .ng, .nh, .ni, .nj, .nk, .nl {
        stroke-miterlimit: 10;
      }

      .mu, .nm {
        stroke-width: .5px;
      }

      .mv {
        stroke-dasharray: 2.06 1.03;
      }

      .mv, .na, .nd, .nf, .ng, .no, .ni, .nk {
        stroke-width: .26px;
      }

      .mw {
        stroke-width: .2px;
      }

      .np {
        fill: #d6d6d6;
        fill-rule: evenodd;
      }

      .mx {
        stroke-width: .22px;
      }

      .my {
        stroke-width: .34px;
      }

      .my, .nm {
        fill: #040000;
      }

      .mz {
        stroke-width: .7px;
      }

      .na {
        stroke-dasharray: 2.02 1.01;
      }

      .nb {
        stroke-width: .8px;
      }

      .nc {
        stroke-width: .4px;
      }

      .nd {
        stroke-dasharray: 1.99 1;
      }

      .ne {
        stroke-width: 2px;
      }

      .nf {
        stroke-dasharray: 2.03 1.01;
      }

      .nh {
        stroke-width: .3px;
      }

      .no {
        stroke: #040000;
        stroke-linecap: round;
        stroke-linejoin: round;
      }

      .ni {
        stroke-dasharray: 1.99 1;
      }

      .nj {
        stroke-width: .1px;
      }

      .nk {
        stroke-dasharray: 2.02 1.01;
      }

      .nl {
        stroke-width: 1.2px;
      }
    </style>
  </defs>
  <g id="a" data-name="s2">
    <g>
      <g id="b" data-name="HATCH">
        <path class="np" d="M1254.6,577.59h-4.25s0,42.8,0,42.8h-386.79v-3.97h-7.09v3.97h-83.06v4.25h481.18s0-47.06,0-47.06M860.72,492.83h-2.83v12.76h-124.87v-12.76h-2.83v17.01h130.54v-17.01M1254.6,719.6h-436.54s0,17.01,0,17.01h11.34v-12.76h201.26v12.76h11.34v-12.76h201.26v12.76h11.34v-17.01M829.4,823.07h201.26v12.76h11.34v-12.76h201.26v12.76h1.42s9.92,0,9.92,0v-17.01h-436.54s0,17.01,0,17.01h11.34v-12.76M1274.3,942.12h-19.7v-1.98h-9.92v1.98h-510.24v-59.53h-7.09v70.87h546.94v-11.34M1274.3,886.85h-5.67v55.28h5.67v-55.28Z"/>
      </g>
      <g id="c" data-name="HATCH">
        <path class="no" d="M818.06,625.24l.6-.6M818.06,627.78l3.14-3.14M818.06,630.33l5.67-5.67M818.06,632.87l5.67-5.67M818.06,635.42l5.67-5.67M818.06,637.97l5.67-5.67M818.06,640.51l5.67-5.67M818.06,643.06l5.67-5.67M818.06,645.6l5.67-5.67M818.06,648.15l5.67-5.67M818.06,650.69l5.67-5.67M818.06,653.24l5.67-5.67M818.06,655.78l5.67-5.67M818.06,658.33l5.67-5.67M818.06,660.88l5.67-5.67M818.06,663.42l5.67-5.67M818.06,665.97l5.67-5.67M818.06,668.51l5.67-5.67M818.06,671.06l5.67-5.67M818.06,673.6l5.67-5.67M818.06,676.15l5.67-5.67M818.06,678.69l5.67-5.67M818.06,681.24l5.67-5.67M818.06,683.79l5.67-5.67M818.06,686.33l5.67-5.67M818.06,688.88l5.67-5.67M818.06,691.42l5.67-5.67M818.06,693.97l5.67-5.67M818.06,696.51l5.67-5.67M818.06,699.06l5.67-5.67M818.06,701.61l5.67-5.67M818.06,704.15l5.67-5.67M818.06,706.7l5.67-5.67M818.06,709.24l5.67-5.67M818.06,711.79l5.67-5.67M818.06,714.33l5.67-5.67M818.06,716.88l5.67-5.67M818.06,719.42l5.67-5.67M820.43,719.6l3.3-3.3M822.97,719.6l.76-.76M820.9,736.95l.34-.34M820.9,739.5l2.89-2.89M820.9,742.05l5.43-5.43M820.9,744.59l5.67-5.67M820.9,747.14l5.67-5.67M820.9,749.68l5.67-5.67M820.9,752.23l5.67-5.67M820.9,754.77l5.67-5.67M820.9,757.32l5.67-5.67M820.9,759.86l5.67-5.67M820.9,762.41l5.67-5.67M820.9,764.96l5.67-5.67M820.9,767.5l5.67-5.67M820.9,770.05l5.67-5.67M820.9,772.59l5.67-5.67M820.9,775.14l5.67-5.67M820.9,777.68l5.67-5.67M820.9,780.23l5.67-5.67M820.9,782.77l5.67-5.67M820.9,785.32l5.67-5.67M820.9,787.87l5.67-5.67M820.9,790.41l5.67-5.67M820.9,792.96l5.67-5.67M820.9,795.5l5.67-5.67M820.9,798.05l5.67-5.67M820.9,800.59l5.67-5.67M820.9,803.14l5.67-5.67M820.9,805.68l5.67-5.67M820.9,808.23l5.67-5.67M820.9,810.78l5.67-5.67M820.9,813.32l5.67-5.67M820.9,815.87l5.67-5.67M820.9,818.41l5.67-5.67M823.04,818.82l3.53-3.53M825.58,818.82l.98-.98M820.9,836.23l.41-.41M820.9,838.78l2.95-2.95M820.9,841.32l5.5-5.5M820.9,843.87l5.67-5.67M820.9,846.41l5.67-5.67M820.9,848.96l5.67-5.67M820.9,851.51l5.67-5.67M820.9,854.05l5.67-5.67M820.9,856.6l5.67-5.67M820.9,859.14l5.67-5.67M820.9,861.69l5.67-5.67M820.9,864.23l5.67-5.67M820.9,866.78l5.67-5.67M820.9,869.32l5.67-5.67M820.9,871.87l5.67-5.67M820.9,874.42l5.67-5.67M820.9,876.96l5.67-5.67M820.9,879.51l5.67-5.67M820.9,882.05l5.67-5.67M820.9,884.6l5.67-5.67M820.9,887.14l5.67-5.67M820.9,889.69l5.67-5.67M820.9,892.23l5.67-5.67M820.9,894.78l5.67-5.67M820.9,897.33l5.67-5.67M820.9,899.87l5.67-5.67M820.9,902.42l5.67-5.67M820.9,904.96l5.67-5.67M820.9,907.51l5.67-5.67M820.9,910.05l5.67-5.67M820.9,912.6l5.67-5.67M820.9,915.15l5.67-5.67M820.9,917.69l5.67-5.67M820.9,920.24l5.67-5.67M820.9,922.78l5.67-5.67M820.9,925.33l5.67-5.67M820.9,927.87l5.67-5.67M820.9,930.42l5.67-5.67M820.9,932.96l5.67-5.67M820.9,935.51l5.67-5.67M820.9,938.06l5.67-5.67M820.9,940.6l5.67-5.67M821.92,942.12l4.65-4.65M824.47,942.12l2.1-2.1M1246.09,736.87l.26-.26M1246.09,739.42l2.81-2.81M1246.09,741.96l5.35-5.35M1246.09,744.51l5.67-5.67M1246.09,747.05l5.67-5.67M1246.09,749.6l5.67-5.67M1246.32,751.92l5.44-5.44M1248.86,751.92l2.9-2.9M1251.41,751.92l.35-.35M1245.99,777.7l.27-.27M1246,780.24l2.81-2.81M1246.01,782.78l5.35-5.35M1246.01,785.32l5.66-5.66M1246.02,787.86l5.66-5.66M1246.02,790.4l5.66-5.66M1246.03,792.94l5.66-5.66M1246.04,795.47l5.66-5.66M1246.04,798.01l5.66-5.66M1246.05,800.55l5.66-5.66M1246.05,803.09l5.66-5.66M1246.06,805.63l5.66-5.66M1246.07,808.17l5.66-5.66M1246.07,810.71l5.66-5.66M1246.08,813.25l5.66-5.66M1246.09,815.79l5.66-5.66M1246.09,818.33l5.66-5.66M1248.15,818.82l3.6-3.6M1250.7,818.82l1.06-1.06M1246.09,836.15l.32-.32M1246.09,838.69l2.87-2.87M1246.09,841.24l5.42-5.42M1246.09,843.78l5.67-5.67M1246.09,846.33l5.67-5.67M1246.09,848.88l5.67-5.67M1246.09,851.42l5.67-5.67M1246.09,853.97l5.67-5.67M1246.09,856.51l5.67-5.67M1246.09,859.06l5.67-5.67M1246.09,861.6l5.67-5.67M1246.09,864.15l5.67-5.67M1246.09,866.69l5.67-5.67M1248.33,867l3.43-3.43M1250.87,867l.89-.89M1246.09,894.7l2.18-2.18M1246.09,897.24l4.73-4.73M1246.09,899.79l5.67-5.67M1246.09,902.33l5.67-5.67M1246.09,904.88l5.67-5.67M1246.09,907.42l5.67-5.67M1246.09,909.97l5.67-5.67M1246.09,912.52l5.67-5.67M1246.09,915.06l5.67-5.67M1246.09,917.61l5.67-5.67M1246.09,920.15l5.67-5.67M1246.09,922.7l5.67-5.67M1246.09,925.24l5.67-5.67M1246.09,927.79l5.67-5.67M1246.09,930.33l5.67-5.67M1246.09,932.88l5.67-5.67M1246.09,935.43l5.67-5.67M1246.09,937.97l5.67-5.67M1246.47,940.14l5.29-5.29M1249.02,940.14l2.75-2.75M1251.56,940.14l.2-.2"/>
      </g>
      <g id="d" data-name="LINE">
        <line class="mw" x1="912.64" y1="616.14" x2="912.64" y2="508.79"/>
      </g>
      <g id="e" data-name="LINE">
        <line class="mw" x1="916" y1="508.94" x2="863.56" y2="506.58"/>
      </g>
      <g id="f" data-name="LINE">
        <line class="mw" x1="948.6" y1="510.41" x2="957.09" y2="510.79"/>
      </g>
      <g id="g" data-name="LINE">
        <line class="mw" x1="957.09" y1="510.79" x2="957.22" y2="507.96"/>
      </g>
      <g id="h" data-name="LINE">
        <line class="mw" x1="922.33" y1="506.39" x2="957.22" y2="507.96"/>
      </g>
      <g id="i" data-name="LINE">
        <line class="mw" x1="922.2" y1="509.22" x2="922.33" y2="506.39"/>
      </g>
      <g id="j" data-name="LINE">
        <line class="mw" x1="922.33" y1="506.39" x2="863.56" y2="503.51"/>
      </g>
      <g id="k" data-name="LINE">
        <line class="mw" x1="945.24" y1="616.14" x2="945.24" y2="510.25"/>
      </g>
      <g id="l" data-name="LINE">
        <line class="mw" x1="922.2" y1="509.22" x2="916" y2="508.94"/>
      </g>
      <g id="m" data-name="LINE">
        <line class="mw" x1="922.2" y1="509.22" x2="948.6" y2="510.41"/>
      </g>
      <g id="n" data-name="LINE">
        <line class="mw" x1="801.05" y1="753.56" x2="801.05" y2="818.82"/>
      </g>
      <g id="o" data-name="LINE">
        <line class="mw" x1="799.57" y1="818.82" x2="799.62" y2="753.56"/>
      </g>
      <g id="p" data-name="LINE">
        <line class="mw" x1="801.05" y1="624.64" x2="801.05" y2="715.38"/>
      </g>
      <g id="q" data-name="LINE">
        <line class="mw" x1="799.64" y1="715.38" x2="799.64" y2="624.64"/>
      </g>
      <g id="r" data-name="LINE">
        <line class="mw" x1="769.31" y1="715.94" x2="769.31" y2="781.2"/>
      </g>
      <g id="s" data-name="LINE">
        <line class="mw" x1="767.89" y1="781.2" x2="767.89" y2="715.94"/>
      </g>
      <g id="t" data-name="LINE">
        <line class="mw" x1="767.89" y1="677.76" x2="767.89" y2="624.64"/>
      </g>
      <g id="u" data-name="LINE">
        <line class="mw" x1="769.31" y1="677.76" x2="769.31" y2="624.64"/>
      </g>
      <g id="v" data-name="LINE">
        <line class="mw" x1="914.04" y1="926.96" x2="914.04" y2="839.02"/>
      </g>
      <g id="w" data-name="LINE">
        <line class="mw" x1="909.41" y1="926.96" x2="909.41" y2="839.02"/>
      </g>
      <g id="x" data-name="LINE">
        <line class="mw" x1="1186.85" y1="937.87" x2="1186.85" y2="852.83"/>
      </g>
      <g id="y" data-name="LWPOLYLINE">
        <line class="mw" x1="769.3" y1="652.73" x2="773.98" y2="652.73"/>
      </g>
      <g id="z" data-name="LWPOLYLINE">
        <line class="mw" x1="774.97" y1="652.73" x2="799.63" y2="652.73"/>
      </g>
      <g id="aa" data-name="LWPOLYLINE">
        <line class="mw" x1="799.63" y1="675.41" x2="775.54" y2="675.41"/>
      </g>
      <g id="ab" data-name="LWPOLYLINE">
        <line class="mw" x1="773.98" y1="675.41" x2="769.3" y2="675.41"/>
      </g>
      <g id="ac" data-name="LWPOLYLINE">
        <polyline class="mw" points="774.97 653.58 798.78 653.58 798.78 674.56 774.97 674.56"/>
      </g>
      <g id="ad" data-name="LWPOLYLINE">
        <polyline class="mw" points="773.98 674.56 770.15 674.56 770.15 653.58 773.98 653.58"/>
      </g>
      <g id="ae" data-name="LWPOLYLINE">
        <line class="mw" x1="769.3" y1="756.17" x2="773.98" y2="756.17"/>
      </g>
      <g id="af" data-name="LWPOLYLINE">
        <line class="mw" x1="774.97" y1="756.17" x2="778.38" y2="756.17"/>
      </g>
      <g id="ag" data-name="LWPOLYLINE">
        <line class="mw" x1="778.94" y1="756.17" x2="799.62" y2="756.17"/>
      </g>
      <g id="ah" data-name="LWPOLYLINE">
        <line class="mw" x1="799.63" y1="778.85" x2="775.54" y2="778.85"/>
      </g>
      <g id="ai" data-name="LWPOLYLINE">
        <line class="mw" x1="773.98" y1="778.85" x2="769.3" y2="778.85"/>
      </g>
      <g id="aj" data-name="LWPOLYLINE">
        <polyline class="mw" points="778.94 757.02 798.78 757.02 798.78 778 774.97 778"/>
      </g>
      <g id="ak" data-name="LWPOLYLINE">
        <polyline class="mw" points="773.98 778 770.15 778 770.15 757.02 773.98 757.02"/>
      </g>
      <g id="al" data-name="LWPOLYLINE">
        <line class="mw" x1="774.97" y1="757.02" x2="778.37" y2="757.02"/>
      </g>
      <g id="am" data-name="LINE">
        <line class="mw" x1="975" y1="616.14" x2="975" y2="576.45"/>
      </g>
      <g id="an" data-name="LINE">
        <line class="mw" x1="945.24" y1="576.45" x2="1246.94" y2="576.45"/>
      </g>
      <g id="ao" data-name="LINE">
        <line class="mw" x1="1014.23" y1="926.96" x2="1014.23" y2="852.83"/>
      </g>
      <g id="ap" data-name="LINE">
        <line class="mw" x1="1043.42" y1="852.83" x2="1241.68" y2="852.83"/>
      </g>
      <g id="aq" data-name="LWPOLYLINE">
        <polyline class="mw" points="928.61 838.6 928.61 852.83 1029.24 852.83"/>
      </g>
      <g id="ar" data-name="LINE">
        <line class="mw" x1="920.11" y1="926.96" x2="1029.24" y2="926.96"/>
      </g>
      <g id="as" data-name="LINE">
        <line class="mw" x1="994.19" y1="926.96" x2="994.19" y2="852.83"/>
      </g>
      <g id="at" data-name="LINE">
        <line class="mw" x1="974.15" y1="926.96" x2="974.15" y2="852.83"/>
      </g>
      <g id="au" data-name="LINE">
        <line class="mw" x1="954.11" y1="926.96" x2="954.11" y2="852.83"/>
      </g>
      <g id="av" data-name="LINE">
        <line class="mw" x1="934.07" y1="926.96" x2="934.07" y2="852.83"/>
      </g>
      <g id="aw" data-name="LWPOLYLINE">
        <line class="mw" x1="1216.05" y1="937.87" x2="1216.05" y2="852.83"/>
      </g>
      <g id="ax" data-name="LWPOLYLINE">
        <line class="mw" x1="1239.57" y1="852.83" x2="1239.57" y2="937.87"/>
      </g>
      <g id="ay" data-name="LINE">
        <line class="mw" x1="1204.71" y1="937.87" x2="1204.71" y2="852.83"/>
      </g>
      <g id="az" data-name="LINE">
        <line class="mw" x1="1193.37" y1="937.87" x2="1193.37" y2="852.83"/>
      </g>
      <g id="ba" data-name="LINE">
        <line class="mw" x1="1216.05" y1="894.81" x2="1186.85" y2="894.81"/>
      </g>
      <g id="bb" data-name="LINE">
        <line class="mw" x1="945.24" y1="578.15" x2="1246.94" y2="578.15"/>
      </g>
      <g id="bc" data-name="LINE">
        <line class="mw" x1="857.32" y1="491.7" x2="733.59" y2="491.7"/>
      </g>
      <g id="bd" data-name="LINE">
        <line class="mw" x1="733.59" y1="493.4" x2="857.32" y2="493.4"/>
      </g>
      <g id="be" data-name="LINE">
        <line class="ng" x1="1030.66" y1="745.11" x2="1030.66" y2="814.56"/>
      </g>
      <g id="bf" data-name="LINE">
        <line class="ng" x1="974.82" y1="745.11" x2="974.82" y2="790.72"/>
      </g>
      <g id="bg" data-name="LINE">
        <line class="ng" x1="933.45" y1="814.56" x2="933.45" y2="745.11"/>
      </g>
      <g id="bh" data-name="LINE">
        <line class="ng" x1="773.42" y1="616.14" x2="737.98" y2="616.14"/>
      </g>
      <g id="bi" data-name="LINE">
        <line class="ng" x1="773.42" y1="624.64" x2="737.98" y2="624.64"/>
      </g>
      <g id="bj" data-name="LINE">
        <line class="ng" x1="1149.45" y1="937.87" x2="1149.45" y2="923.7"/>
      </g>
      <g id="bk" data-name="LINE">
        <line class="ng" x1="1149.45" y1="923.13" x2="1149.45" y2="909.52"/>
      </g>
      <g id="bl" data-name="LINE">
        <line class="ng" x1="1149.45" y1="908.96" x2="1149.45" y2="895.35"/>
      </g>
      <g id="bm" data-name="LINE">
        <line class="ng" x1="1149.45" y1="894.78" x2="1149.45" y2="881.18"/>
      </g>
      <g id="bn" data-name="LINE">
        <line class="ng" x1="1149.45" y1="880.61" x2="1149.45" y2="867"/>
      </g>
      <g id="bo" data-name="LINE">
        <line class="ng" x1="1149.45" y1="866.44" x2="1149.45" y2="852.83"/>
      </g>
      <g id="bp" data-name="LINE">
        <line class="ng" x1="1112.06" y1="937.87" x2="1112.06" y2="923.7"/>
      </g>
      <g id="bq" data-name="LINE">
        <line class="ng" x1="1112.06" y1="923.13" x2="1112.06" y2="909.52"/>
      </g>
      <g id="br" data-name="LINE">
        <line class="ng" x1="1112.06" y1="908.96" x2="1112.06" y2="895.35"/>
      </g>
      <g id="bs" data-name="LINE">
        <line class="ng" x1="1112.06" y1="894.78" x2="1112.06" y2="881.18"/>
      </g>
      <g id="bt" data-name="LINE">
        <line class="ng" x1="1112.06" y1="880.61" x2="1112.06" y2="867"/>
      </g>
      <g id="bu" data-name="LINE">
        <line class="ng" x1="1112.06" y1="866.44" x2="1112.06" y2="852.83"/>
      </g>
      <g id="bv" data-name="LINE">
        <line class="ng" x1="1186.85" y1="867" x2="1074.66" y2="867"/>
      </g>
      <g id="bw" data-name="LINE">
        <line class="ng" x1="1186.85" y1="866.44" x2="1074.66" y2="866.44"/>
      </g>
      <g id="bx" data-name="LINE">
        <line class="ng" x1="1186.85" y1="881.18" x2="1074.66" y2="881.18"/>
      </g>
      <g id="by" data-name="LINE">
        <line class="ng" x1="1186.85" y1="880.61" x2="1074.66" y2="880.61"/>
      </g>
      <g id="bz" data-name="LINE">
        <line class="ng" x1="1186.85" y1="895.35" x2="1074.66" y2="895.35"/>
      </g>
      <g id="ca" data-name="LINE">
        <line class="ng" x1="1186.85" y1="894.78" x2="1074.66" y2="894.78"/>
      </g>
      <g id="cb" data-name="LINE">
        <line class="ng" x1="1186.85" y1="909.52" x2="1074.66" y2="909.52"/>
      </g>
      <g id="cc" data-name="LINE">
        <line class="ng" x1="1186.85" y1="908.96" x2="1074.66" y2="908.96"/>
      </g>
      <g id="cd" data-name="LINE">
        <line class="ng" x1="1186.85" y1="923.7" x2="1074.66" y2="923.7"/>
      </g>
      <g id="ce" data-name="LINE">
        <line class="ng" x1="1186.85" y1="923.13" x2="1074.66" y2="923.13"/>
      </g>
      <g id="cf" data-name="LWPOLYLINE">
        <polyline class="ng" points="1043.42 878.34 1074.66 878.34 1074.66 937.87"/>
      </g>
      <g id="cg" data-name="LINE">
        <line class="ng" x1="1074.66" y1="878.34" x2="1074.66" y2="852.83"/>
      </g>
      <g id="ch" data-name="LWPOLYLINE">
        <g>
          <line class="ng" x1="1074.66" y1="878.34" x2="1073.94" y2="879.03"/>
          <line class="mv" x1="1073.19" y1="879.74" x2="1044.51" y2="907.06"/>
          <polyline class="ng" points="1044.14 907.42 1043.42 908.11 1044.14 908.8"/>
          <line class="mv" x1="1044.88" y1="909.51" x2="1073.57" y2="936.83"/>
          <line class="ng" x1="1073.94" y1="937.18" x2="1074.66" y2="937.87"/>
        </g>
      </g>
      <g id="ci" data-name="LWPOLYLINE">
        <g>
          <line class="ng" x1="1216.05" y1="852.83" x2="1216.53" y2="853.71"/>
          <line class="nf" x1="1217.02" y1="854.59" x2="1238.84" y2="894.03"/>
          <polyline class="ng" points="1239.09 894.48 1239.57 895.35 1239.09 896.23"/>
          <line class="nf" x1="1238.6" y1="897.11" x2="1216.77" y2="936.55"/>
          <line class="ng" x1="1216.53" y1="937" x2="1216.05" y2="937.87"/>
        </g>
      </g>
      <g id="cj" data-name="LINE">
        <line class="ng" x1="1257.43" y1="738.03" x2="1257.43" y2="817.4"/>
      </g>
      <g id="ck" data-name="LINE">
        <line class="ng" x1="1257.43" y1="837.24" x2="1257.43" y2="942.12"/>
      </g>
      <g id="cl" data-name="LWPOLYLINE">
        <line class="ng" x1="1203.01" y1="715.35" x2="1203.01" y2="640.23"/>
      </g>
      <g id="cm" data-name="LWPOLYLINE">
        <line class="ng" x1="1221.43" y1="640.23" x2="1221.43" y2="715.35"/>
      </g>
      <g id="cn" data-name="LWPOLYLINE">
        <rect class="ng" x="1204.42" y="641.65" width="15.59" height="72.28"/>
      </g>
      <g id="co" data-name="LWPOLYLINE">
        <line class="ng" x1="1109.46" y1="715.35" x2="1109.46" y2="640.23"/>
      </g>
      <g id="cp" data-name="LWPOLYLINE">
        <line class="ng" x1="1127.89" y1="640.23" x2="1127.89" y2="715.35"/>
      </g>
      <g id="cq" data-name="LWPOLYLINE">
        <rect class="ng" x="1110.88" y="641.65" width="15.59" height="72.28"/>
      </g>
      <g id="cr" data-name="LWPOLYLINE">
        <line class="ng" x1="1015.07" y1="715.35" x2="1015.07" y2="640.23"/>
      </g>
      <g id="cs" data-name="LWPOLYLINE">
        <rect class="ng" x="1016.49" y="641.65" width="15.59" height="72.28"/>
      </g>
      <g id="ct" data-name="LWPOLYLINE">
        <polyline class="ng" points="971.88 715.35 971.88 647.32 929.36 647.32 929.36 715.35"/>
      </g>
      <g id="cu" data-name="LWPOLYLINE">
        <polyline class="ng" points="950.62 715.35 950.62 648.17 930.21 648.17 930.21 715.35"/>
      </g>
      <g id="cv" data-name="LWPOLYLINE">
        <rect class="ng" x="931.91" y="649.87" width="17.01" height="63.78"/>
      </g>
      <g id="cw" data-name="LWPOLYLINE">
        <polyline class="ng" points="971.03 715.35 971.03 648.17 950.62 648.17 950.62 715.35"/>
      </g>
      <g id="cx" data-name="LWPOLYLINE">
        <rect class="ng" x="952.32" y="649.87" width="17.01" height="63.78"/>
      </g>
      <g id="cy" data-name="LINE">
        <line class="ng" x1="961.51" y1="790.72" x2="961.51" y2="814.56"/>
      </g>
      <g id="cz" data-name="LINE">
        <line class="ng" x1="933.45" y1="790.72" x2="974.82" y2="790.72"/>
      </g>
      <g id="da" data-name="LINE">
        <line class="ng" x1="974.82" y1="790.72" x2="974.82" y2="814.56"/>
      </g>
      <g id="db" data-name="LINE">
        <line class="ng" x1="1047.52" y1="756.31" x2="1047.52" y2="814.56"/>
      </g>
      <g id="dc" data-name="LWPOLYLINE">
        <path class="ng" d="M955.38,790.72v-5.39c0-.7.56-1.26,1.26-1.26h3.12c.7,0,1.26.56,1.26,1.26v.76h-.55v-.62c0-.47-.38-.85-.85-.85h-2.83c-.47,0-.85.38-.85.85v5.24"/>
      </g>
      <g id="dd" data-name="LWPOLYLINE">
        <polyline class="ng" points="779.94 856.43 779.94 784.8 775.54 784.8"/>
      </g>
      <g id="de" data-name="LWPOLYLINE">
        <polyline class="ng" points="775.54 785.79 778.94 785.79 778.94 856.43"/>
      </g>
      <g id="df" data-name="LWPOLYLINE">
        <polyline class="ng" points="775.54 899.71 774.97 899.71 774.97 895.01"/>
      </g>
      <g id="dg" data-name="LWPOLYLINE">
        <line class="ng" x1="774.97" y1="894.61" x2="737.98" y2="894.61"/>
      </g>
      <g id="dh" data-name="LWPOLYLINE">
        <polyline class="ng" points="775.54 904.42 774.97 904.42 774.97 899.71"/>
      </g>
      <g id="di" data-name="LWPOLYLINE">
        <line class="ng" x1="774.97" y1="899.31" x2="737.98" y2="899.31"/>
      </g>
      <g id="dj" data-name="LWPOLYLINE">
        <polyline class="ng" points="775.54 909.12 774.97 909.12 774.97 904.42"/>
      </g>
      <g id="dk" data-name="LWPOLYLINE">
        <line class="ng" x1="774.97" y1="904.01" x2="737.98" y2="904.01"/>
      </g>
      <g id="dl" data-name="LWPOLYLINE">
        <polyline class="ng" points="775.54 913.82 774.97 913.82 774.97 909.12"/>
      </g>
      <g id="dm" data-name="LWPOLYLINE">
        <line class="ng" x1="774.97" y1="908.72" x2="737.98" y2="908.72"/>
      </g>
      <g id="dn" data-name="LWPOLYLINE">
        <polyline class="ng" points="775.54 918.52 774.97 918.52 774.97 913.82"/>
      </g>
      <g id="do" data-name="LWPOLYLINE">
        <line class="ng" x1="774.97" y1="913.42" x2="737.98" y2="913.42"/>
      </g>
      <g id="dp" data-name="LWPOLYLINE">
        <polyline class="ng" points="775.54 923.22 774.97 923.22 774.97 918.52"/>
      </g>
      <g id="dq" data-name="LWPOLYLINE">
        <line class="ng" x1="774.97" y1="918.12" x2="737.98" y2="918.12"/>
      </g>
      <g id="dr" data-name="LWPOLYLINE">
        <line class="ng" x1="774.97" y1="926.96" x2="774.97" y2="923.22"/>
      </g>
      <g id="ds" data-name="LWPOLYLINE">
        <line class="ng" x1="774.97" y1="922.82" x2="737.98" y2="922.82"/>
      </g>
      <g id="dt" data-name="LINE">
        <line class="ng" x1="779.94" y1="851.73" x2="816.64" y2="851.73"/>
      </g>
      <g id="du" data-name="LINE">
        <line class="ng" x1="779.94" y1="847.03" x2="816.64" y2="847.03"/>
      </g>
      <g id="dv" data-name="LINE">
        <line class="ng" x1="779.94" y1="842.32" x2="816.64" y2="842.32"/>
      </g>
      <g id="dw" data-name="LINE">
        <line class="ng" x1="779.94" y1="837.62" x2="816.64" y2="837.62"/>
      </g>
      <g id="dx" data-name="LINE">
        <line class="ng" x1="779.94" y1="832.92" x2="816.64" y2="832.92"/>
      </g>
      <g id="dy" data-name="LINE">
        <line class="ng" x1="779.94" y1="828.22" x2="816.64" y2="828.22"/>
      </g>
      <g id="dz" data-name="LINE">
        <line class="ng" x1="779.94" y1="823.52" x2="816.64" y2="823.52"/>
      </g>
      <g id="ea" data-name="LINE">
        <line class="ng" x1="779.94" y1="818.82" x2="816.64" y2="818.82"/>
      </g>
      <g id="eb" data-name="LINE">
        <line class="ng" x1="778.38" y1="815.98" x2="775.54" y2="815.98"/>
      </g>
      <g id="ec" data-name="LWPOLYLINE">
        <polyline class="ng" points="775.54 786.87 775.54 791.57 774.97 791.57 774.97 786.87"/>
      </g>
      <g id="ed" data-name="LWPOLYLINE">
        <line class="ng" x1="774.97" y1="786.47" x2="737.98" y2="786.47"/>
      </g>
      <g id="ee" data-name="LWPOLYLINE">
        <line class="ng" x1="774.97" y1="791.17" x2="737.98" y2="791.17"/>
      </g>
      <g id="ef" data-name="LWPOLYLINE">
        <line class="ng" x1="774.97" y1="795.87" x2="737.98" y2="795.87"/>
      </g>
      <g id="eg" data-name="LWPOLYLINE">
        <line class="ng" x1="774.97" y1="800.57" x2="737.98" y2="800.57"/>
      </g>
      <g id="eh" data-name="LWPOLYLINE">
        <line class="ng" x1="774.97" y1="805.28" x2="737.98" y2="805.28"/>
      </g>
      <g id="ei" data-name="LWPOLYLINE">
        <line class="ng" x1="774.97" y1="809.98" x2="737.98" y2="809.98"/>
      </g>
      <g id="ej" data-name="LWPOLYLINE">
        <line class="ng" x1="774.97" y1="814.68" x2="737.98" y2="814.68"/>
      </g>
      <g id="ek" data-name="LWPOLYLINE">
        <polyline class="ng" points="775.54 791.57 775.54 796.27 774.97 796.27 774.97 791.57"/>
      </g>
      <g id="el" data-name="LWPOLYLINE">
        <polyline class="ng" points="775.54 796.27 775.54 800.98 774.97 800.98 774.97 796.27"/>
      </g>
      <g id="em" data-name="LWPOLYLINE">
        <polyline class="ng" points="775.54 800.98 775.54 805.68 774.97 805.68 774.97 800.98"/>
      </g>
      <g id="en" data-name="LWPOLYLINE">
        <polyline class="ng" points="775.54 805.68 775.54 810.38 774.97 810.38 774.97 805.68"/>
      </g>
      <g id="eo" data-name="LWPOLYLINE">
        <polyline class="ng" points="775.54 810.38 775.54 815.08 774.97 815.08 774.97 810.38"/>
      </g>
      <g id="ep" data-name="LWPOLYLINE">
        <polyline class="ng" points="775.54 815.08 775.54 819.78 774.97 819.78 774.97 815.08"/>
      </g>
      <g id="eq" data-name="LWPOLYLINE">
        <line class="ng" x1="774.97" y1="819.38" x2="737.98" y2="819.38"/>
      </g>
      <g id="er" data-name="LWPOLYLINE">
        <polyline class="ng" points="775.54 819.78 775.54 824.48 774.97 824.48 774.97 819.78"/>
      </g>
      <g id="es" data-name="LINE">
        <line class="ng" x1="775.54" y1="824.48" x2="778.38" y2="824.48"/>
      </g>
      <g id="et" data-name="LWPOLYLINE">
        <polyline class="ng" points="779.94 752.99 779.94 681.36 775.54 681.36"/>
      </g>
      <g id="eu" data-name="LWPOLYLINE">
        <polyline class="ng" points="775.54 682.35 778.94 682.35 778.94 752.99"/>
      </g>
      <g id="ev" data-name="LINE">
        <line class="ng" x1="779.94" y1="748.29" x2="816.64" y2="748.29"/>
      </g>
      <g id="ew" data-name="LINE">
        <line class="ng" x1="779.94" y1="743.59" x2="816.64" y2="743.59"/>
      </g>
      <g id="ex" data-name="LINE">
        <line class="ng" x1="779.94" y1="738.88" x2="816.64" y2="738.88"/>
      </g>
      <g id="ey" data-name="LINE">
        <line class="ng" x1="779.94" y1="734.18" x2="816.64" y2="734.18"/>
      </g>
      <g id="ez" data-name="LINE">
        <line class="ng" x1="779.94" y1="729.48" x2="816.64" y2="729.48"/>
      </g>
      <g id="fa" data-name="LINE">
        <line class="ng" x1="779.94" y1="724.78" x2="816.64" y2="724.78"/>
      </g>
      <g id="fb" data-name="LINE">
        <line class="ng" x1="779.94" y1="720.08" x2="816.64" y2="720.08"/>
      </g>
      <g id="fc" data-name="LINE">
        <line class="ng" x1="779.94" y1="715.38" x2="816.64" y2="715.38"/>
      </g>
      <g id="fd" data-name="LINE">
        <line class="ng" x1="778.38" y1="712.54" x2="775.54" y2="712.54"/>
      </g>
      <g id="fe" data-name="LWPOLYLINE">
        <polyline class="ng" points="775.54 683.43 775.54 688.13 774.97 688.13 774.97 683.43"/>
      </g>
      <g id="ff" data-name="LWPOLYLINE">
        <line class="ng" x1="774.97" y1="683.03" x2="737.98" y2="683.03"/>
      </g>
      <g id="fg" data-name="LWPOLYLINE">
        <line class="ng" x1="774.97" y1="687.73" x2="737.98" y2="687.73"/>
      </g>
      <g id="fh" data-name="LWPOLYLINE">
        <line class="ng" x1="774.97" y1="692.43" x2="737.98" y2="692.43"/>
      </g>
      <g id="fi" data-name="LWPOLYLINE">
        <line class="ng" x1="774.97" y1="697.14" x2="737.98" y2="697.14"/>
      </g>
      <g id="fj" data-name="LWPOLYLINE">
        <line class="ng" x1="774.97" y1="701.84" x2="737.98" y2="701.84"/>
      </g>
      <g id="fk" data-name="LWPOLYLINE">
        <line class="ng" x1="774.97" y1="706.54" x2="737.98" y2="706.54"/>
      </g>
      <g id="fl" data-name="LWPOLYLINE">
        <line class="ng" x1="774.97" y1="711.24" x2="737.98" y2="711.24"/>
      </g>
      <g id="fm" data-name="LWPOLYLINE">
        <polyline class="ng" points="775.54 688.13 775.54 692.83 774.97 692.83 774.97 688.13"/>
      </g>
      <g id="fn" data-name="LWPOLYLINE">
        <polyline class="ng" points="775.54 692.83 775.54 697.54 774.97 697.54 774.97 692.83"/>
      </g>
      <g id="fo" data-name="LWPOLYLINE">
        <polyline class="ng" points="775.54 697.54 775.54 702.24 774.97 702.24 774.97 697.54"/>
      </g>
      <g id="fp" data-name="LWPOLYLINE">
        <polyline class="ng" points="775.54 702.24 775.54 706.94 774.97 706.94 774.97 702.24"/>
      </g>
      <g id="fq" data-name="LWPOLYLINE">
        <polyline class="ng" points="775.54 706.94 775.54 711.64 774.97 711.64 774.97 706.94"/>
      </g>
      <g id="fr" data-name="LWPOLYLINE">
        <polyline class="ng" points="775.54 711.64 775.54 716.34 774.97 716.34 774.97 711.64"/>
      </g>
      <g id="fs" data-name="LWPOLYLINE">
        <line class="ng" x1="774.97" y1="715.94" x2="737.98" y2="715.94"/>
      </g>
      <g id="ft" data-name="LWPOLYLINE">
        <polyline class="ng" points="775.54 716.34 775.54 721.04 774.97 721.04 774.97 716.34"/>
      </g>
      <g id="fu" data-name="LINE">
        <line class="ng" x1="775.54" y1="721.04" x2="778.38" y2="721.04"/>
      </g>
      <g id="fv" data-name="LWPOLYLINE">
        <polyline class="ng" points="778.94 712.54 778.38 712.54 778.38 750.16"/>
      </g>
      <g id="fw" data-name="LWPOLYLINE">
        <polyline class="ng" points="778.94 815.98 778.38 815.98 778.38 853.6"/>
      </g>
      <g id="fx" data-name="LWPOLYLINE">
        <g>
          <line class="ng" x1="950.64" y1="648.7" x2="950.12" y2="649.55"/>
          <line class="nd" x1="949.6" y1="650.4" x2="931" y2="680.49"/>
          <polyline class="ng" points="930.74 680.91 930.21 681.76 930.73 682.62"/>
          <line class="nk" x1="931.26" y1="683.48" x2="949.85" y2="714.17"/>
          <line class="ng" x1="950.12" y1="714.6" x2="950.63" y2="715.46"/>
        </g>
      </g>
      <g id="fy" data-name="LWPOLYLINE">
        <g>
          <line class="ng" x1="950.62" y1="648.7" x2="951.15" y2="649.55"/>
          <line class="ni" x1="951.67" y1="650.4" x2="970.25" y2="680.49"/>
          <polyline class="ng" points="970.51 680.91 971.03 681.76 970.51 682.62"/>
          <line class="na" x1="969.99" y1="683.48" x2="951.41" y2="714.17"/>
          <line class="ng" x1="951.15" y1="714.6" x2="950.63" y2="715.46"/>
        </g>
      </g>
      <g id="fz" data-name="LINE">
        <line class="nc" x1="1029.24" y1="823.07" x2="1029.24" y2="937.87"/>
      </g>
      <g id="ga" data-name="LINE">
        <line class="nc" x1="1043.42" y1="823.07" x2="1043.42" y2="937.87"/>
      </g>
      <g id="gb" data-name="LINE">
        <line class="nc" x1="1039.16" y1="624.64" x2="1039.16" y2="715.35"/>
      </g>
      <g id="gc" data-name="LINE">
        <line class="nc" x1="1033.49" y1="624.64" x2="1033.49" y2="715.35"/>
      </g>
      <g id="gd" data-name="LINE">
        <line class="nc" x1="829.4" y1="835.82" x2="1030.66" y2="835.82"/>
      </g>
      <g id="ge" data-name="LINE">
        <line class="nc" x1="1042" y1="835.82" x2="1243.26" y2="835.82"/>
      </g>
      <g id="gf" data-name="LINE">
        <line class="nc" x1="1042" y1="736.61" x2="1047.52" y2="736.61"/>
      </g>
      <g id="gg" data-name="LINE">
        <line class="nc" x1="1051.53" y1="736.61" x2="1241.68" y2="736.61"/>
      </g>
      <g id="gh" data-name="LINE">
        <line class="nc" x1="829.4" y1="736.61" x2="1030.66" y2="736.61"/>
      </g>
      <g id="gi" data-name="LINE">
        <line class="nc" x1="1039.16" y1="634.22" x2="1248.22" y2="634.22"/>
      </g>
      <g id="gj" data-name="LINE">
        <line class="nc" x1="829.4" y1="634.22" x2="1033.49" y2="634.22"/>
      </g>
      <g id="gk" data-name="LINE">
        <line class="nc" x1="1042" y1="736.61" x2="1042" y2="745.11"/>
      </g>
      <g id="gl" data-name="LINE">
        <line class="nc" x1="1030.66" y1="736.61" x2="1030.66" y2="745.11"/>
      </g>
      <g id="gm" data-name="LINE">
        <line class="nc" x1="827.98" y1="852.83" x2="827.99" y2="852.83"/>
      </g>
      <g id="gn" data-name="LINE">
        <line class="nc" x1="736.57" y1="519.42" x2="773.42" y2="519.42"/>
      </g>
      <g id="go" data-name="LINE">
        <line class="nc" x1="776.25" y1="519.42" x2="823.73" y2="519.42"/>
      </g>
      <g id="gp" data-name="LINE">
        <line class="nc" x1="829.4" y1="519.42" x2="854.34" y2="519.42"/>
      </g>
      <g id="gq" data-name="LINE">
        <line class="nc" x1="1248.22" y1="634.56" x2="1248.22" y2="715.35"/>
      </g>
      <g id="gr" data-name="LINE">
        <line class="nc" x1="852.93" y1="509.84" x2="852.93" y2="616.14"/>
      </g>
      <g id="gs" data-name="LINE">
        <line class="nc" x1="829.4" y1="634.56" x2="829.4" y2="715.35"/>
      </g>
      <g id="gt" data-name="LWPOLYLINE">
        <polyline class="nc" points="1245.18 890.97 1244.68 890.47 1245.18 889.97 1244.68 889.47 1245.18 888.97 1244.68 888.47 1245.18 887.96 1244.68 887.46 1245.18 886.96 1244.68 886.46 1245.18 885.96 1244.68 885.46 1245.18 884.96 1244.68 884.46 1245.18 883.96 1244.68 883.45 1245.18 882.95 1244.68 882.45 1245.18 881.95 1244.68 881.45 1245.18 880.95 1244.68 880.45 1245.18 879.95 1244.68 879.45 1245.18 878.94 1244.68 878.44 1245.18 877.94 1244.68 877.44 1245.18 876.94 1244.68 876.44 1245.18 875.94 1244.68 875.44 1245.18 874.94 1244.68 874.43 1245.18 873.93 1244.68 873.43 1245.18 872.93 1244.68 872.43 1245.18 871.93 1244.68 871.43 1245.18 870.93 1244.68 870.43 1245.18 869.92 1244.68 869.42 1245.18 868.92 1244.68 868.42"/>
      </g>
      <g id="gu" data-name="LWPOLYLINE">
        <polyline class="nc" points="1245.18 775.88 1244.68 775.38 1245.18 774.88 1244.68 774.38 1245.18 773.88 1244.68 773.38 1245.18 772.88 1244.68 772.38 1245.18 771.88 1244.68 771.37 1245.18 770.87 1244.68 770.37 1245.18 769.87 1244.68 769.37 1245.18 768.87 1244.68 768.37 1245.18 767.87 1244.68 767.37 1245.18 766.86 1244.68 766.36 1245.18 765.86 1244.68 765.36 1245.18 764.86 1244.68 764.36 1245.18 763.86 1244.68 763.36 1245.18 762.86 1244.68 762.35 1245.18 761.85 1244.68 761.35 1245.18 760.85 1244.68 760.35 1245.18 759.85 1244.68 759.35 1245.18 758.85 1244.68 758.35 1245.18 757.84 1244.68 757.34 1245.18 756.84 1244.68 756.34 1245.18 755.84 1244.68 755.34 1245.18 754.84 1244.68 754.34 1245.18 753.84 1244.68 753.33"/>
      </g>
      <g id="gv" data-name="LINE">
        <line class="nc" x1="840.36" y1="838.56" x2="840.32" y2="926.96"/>
      </g>
      <g id="gw" data-name="LINE">
        <line class="nc" x1="839.34" y1="838.56" x2="839.3" y2="926.96"/>
      </g>
      <g id="gx" data-name="LWPOLYLINE">
        <polyline class="nc" points="774.97 886.51 774.97 855.33 773.98 855.33 773.98 889.34"/>
      </g>
      <g id="gy" data-name="LWPOLYLINE">
        <polyline class="nc" points="1238.3 640.23 1238.3 708.26 1248.22 708.26"/>
      </g>
      <g id="gz" data-name="CIRCLE">
        <circle class="nc" cx="1095.91" cy="836.95" r=".49"/>
      </g>
      <g id="ha" data-name="LWPOLYLINE">
        <rect class="nc" x="1070.6" y="837.95" width="25.14" height="1.13"/>
      </g>
      <g id="hb" data-name="CIRCLE">
        <circle class="nc" cx="1146.88" cy="836.95" r=".49"/>
      </g>
      <g id="hc" data-name="CIRCLE">
        <circle class="nc" cx="1197.85" cy="836.95" r=".49"/>
      </g>
      <g id="hd" data-name="LWPOLYLINE">
        <rect class="nc" x="1096.08" y="837.95" width="25.14" height="1.13"/>
      </g>
      <g id="he" data-name="LWPOLYLINE">
        <rect class="nc" x="1121.57" y="837.95" width="25.14" height="1.13"/>
      </g>
      <g id="hf" data-name="LWPOLYLINE">
        <rect class="nc" x="1147.05" y="837.95" width="25.14" height="1.13"/>
      </g>
      <g id="hg" data-name="LWPOLYLINE">
        <rect class="nc" x="1172.53" y="837.95" width="25.14" height="1.13"/>
      </g>
      <g id="hh" data-name="LWPOLYLINE">
        <rect class="nc" x="1198.02" y="837.95" width="25.14" height="1.13"/>
      </g>
      <g id="hi" data-name="LWPOLYLINE">
        <polyline class="nc" points="774.97 778.37 774.97 747.18 773.98 747.18 773.98 781.2"/>
      </g>
      <g id="hj" data-name="LWPOLYLINE">
        <polyline class="nc" points="774.97 674.93 774.97 643.75 773.98 643.75 773.98 677.76"/>
      </g>
      <g id="hk" data-name="LINE">
        <line class="nj" x1="1250.34" y1="889.68" x2="1250.34" y2="869.84"/>
      </g>
      <g id="hl" data-name="LINE">
        <line class="nj" x1="1250.34" y1="774.59" x2="1250.34" y2="754.75"/>
      </g>
      <g id="hm" data-name="LINE">
        <line class="nh" x1="1248.93" y1="869.84" x2="1248.93" y2="889.68"/>
      </g>
      <g id="hn" data-name="LINE">
        <line class="nh" x1="1251.76" y1="869.84" x2="1251.76" y2="889.68"/>
      </g>
      <g id="ho" data-name="LINE">
        <line class="nh" x1="1248.93" y1="754.75" x2="1248.93" y2="774.59"/>
      </g>
      <g id="hp" data-name="LINE">
        <line class="nh" x1="1251.76" y1="754.75" x2="1251.76" y2="774.59"/>
      </g>
      <g id="hq" data-name="LWPOLYLINE">
        <polyline class="mu" points="726.79 493.4 726.79 491.67 733.59 491.7 733.59 493.4"/>
      </g>
      <g id="hr" data-name="LWPOLYLINE">
        <polyline class="mu" points="864.12 493.4 864.12 491.67 857.32 491.7 857.32 493.4"/>
      </g>
      <g id="hs" data-name="LWPOLYLINE">
        <polyline class="mu" points="1258 578.15 1258 576.42 1246.94 576.45 1246.94 578.15"/>
      </g>
      <g id="ht" data-name="LWPOLYLINE">
        <line class="nc" x1="1241.68" y1="937.87" x2="827.98" y2="937.87"/>
      </g>
      <g id="hu" data-name="LWPOLYLINE">
        <line class="nc" x1="1241.68" y1="938.15" x2="827.98" y2="938.15"/>
      </g>
      <g id="hv" data-name="LWPOLYLINE">
        <line class="nc" x1="816.64" y1="937.87" x2="737.98" y2="937.87"/>
      </g>
      <g id="hw" data-name="LWPOLYLINE">
        <line class="nc" x1="816.64" y1="938.15" x2="737.98" y2="938.15"/>
      </g>
      <g id="hx" data-name="LWPOLYLINE">
        <line class="nc" x1="1241.68" y1="814.56" x2="1051.53" y2="814.56"/>
      </g>
      <g id="hy" data-name="LWPOLYLINE">
        <line class="nc" x1="1241.68" y1="814.85" x2="1051.53" y2="814.85"/>
      </g>
      <g id="hz" data-name="LWPOLYLINE">
        <line class="nc" x1="1047.52" y1="814.56" x2="827.98" y2="814.56"/>
      </g>
      <g id="ia" data-name="LWPOLYLINE">
        <line class="nc" x1="1047.52" y1="814.85" x2="827.98" y2="814.85"/>
      </g>
      <g id="ib" data-name="LWPOLYLINE">
        <line class="nc" x1="1250.34" y1="715.35" x2="825.14" y2="715.35"/>
      </g>
      <g id="ic" data-name="LWPOLYLINE">
        <line class="nc" x1="1250.34" y1="715.63" x2="825.14" y2="715.63"/>
      </g>
      <g id="id" data-name="LWPOLYLINE">
        <line class="nc" x1="1247.51" y1="617.56" x2="863.56" y2="617.56"/>
      </g>
      <g id="ie" data-name="LWPOLYLINE">
        <line class="nc" x1="1247.51" y1="617.84" x2="863.56" y2="617.84"/>
      </g>
      <g id="if" data-name="LWPOLYLINE">
        <line class="nc" x1="856.47" y1="616.14" x2="776.25" y2="616.14"/>
      </g>
      <g id="ig" data-name="LWPOLYLINE">
        <line class="nc" x1="856.47" y1="616.42" x2="776.25" y2="616.42"/>
      </g>
      <g id="ih" data-name="LWPOLYLINE">
        <polyline class="nc" points="827.98 926.96 920.11 926.96 920.11 937.87"/>
      </g>
      <g id="ii" data-name="LWPOLYLINE">
        <polyline class="nc" points="1244.68 868.42 1241.68 868.42 1241.68 835.82 1244.68 835.82"/>
      </g>
      <g id="ij" data-name="LWPOLYLINE">
        <polyline class="nc" points="1244.68 891.1 1241.68 891.1 1241.68 942.12"/>
      </g>
      <g id="ik" data-name="LWPOLYLINE">
        <polyline class="nc" points="1254.6 940.14 1254.6 891.1 1251.76 891.1"/>
      </g>
      <g id="il" data-name="LWPOLYLINE">
        <polyline class="nc" points="1248.93 891.1 1244.68 891.1 1244.68 940.14"/>
      </g>
      <g id="im" data-name="LWPOLYLINE">
        <polyline class="nc" points="1254.6 776.01 1254.6 817.4 1257.43 817.4 1257.43 837.24 1254.6 837.24 1254.6 868.42 1251.76 868.42"/>
      </g>
      <g id="in" data-name="LWPOLYLINE">
        <polyline class="nc" points="1248.93 868.42 1244.68 868.42 1244.68 835.82"/>
      </g>
      <g id="io" data-name="LINE">
        <line class="nc" x1="1254.6" y1="776.01" x2="1251.76" y2="776.01"/>
      </g>
      <g id="ip" data-name="LWPOLYLINE">
        <polyline class="nc" points="1248.93 753.33 1244.68 753.33 1244.68 736.61"/>
      </g>
      <g id="iq" data-name="LINE">
        <line class="nc" x1="1241.68" y1="745.11" x2="1051.53" y2="745.11"/>
      </g>
      <g id="ir" data-name="LINE">
        <line class="nc" x1="1051.53" y1="723.85" x2="1051.53" y2="755.04"/>
      </g>
      <g id="is" data-name="LINE">
        <line class="nc" x1="1051.53" y1="755.04" x2="1047.52" y2="755.04"/>
      </g>
      <g id="it" data-name="LWPOLYLINE">
        <polyline class="nc" points="1244.68 776.01 1241.68 776.01 1241.68 818.82"/>
      </g>
      <g id="iu" data-name="LWPOLYLINE">
        <polyline class="nc" points="1248.93 776.01 1244.68 776.01 1244.68 818.82"/>
      </g>
      <g id="iv" data-name="LINE">
        <line class="nc" x1="827.99" y1="835.82" x2="827.98" y2="942.12"/>
      </g>
      <g id="iw" data-name="LINE">
        <line class="nc" x1="1250.34" y1="719.6" x2="1250.34" y2="634.56"/>
      </g>
      <g id="ix" data-name="LINE">
        <line class="nc" x1="827.98" y1="818.82" x2="827.98" y2="736.61"/>
      </g>
      <g id="iy" data-name="LINE">
        <line class="nc" x1="1047.52" y1="755.04" x2="1047.52" y2="723.85"/>
      </g>
      <g id="iz" data-name="LINE">
        <line class="nc" x1="1047.52" y1="745.11" x2="827.98" y2="745.11"/>
      </g>
      <g id="ja" data-name="LWPOLYLINE">
        <polyline class="nc" points="825.14 645.9 971.88 645.9 971.88 640.23 1250.34 640.23"/>
      </g>
      <g id="jb" data-name="LINE">
        <line class="nc" x1="737.98" y1="509.84" x2="737.98" y2="677.76"/>
      </g>
      <g id="jc" data-name="LINE">
        <line class="nc" x1="737.98" y1="678.33" x2="737.98" y2="781.2"/>
      </g>
      <g id="jd" data-name="LINE">
        <line class="nc" x1="737.98" y1="781.77" x2="737.98" y2="889.34"/>
      </g>
      <g id="je" data-name="LINE">
        <line class="nc" x1="737.98" y1="889.91" x2="737.98" y2="942.12"/>
      </g>
      <g id="jf" data-name="LWPOLYLINE">
        <polyline class="nc" points="730.19 492.83 727.35 492.83 727.35 882.59"/>
      </g>
      <g id="jg" data-name="LINE">
        <line class="nc" x1="816.64" y1="926.96" x2="737.98" y2="926.96"/>
      </g>
      <g id="jh" data-name="LWPOLYLINE">
        <polyline class="nc" points="860.72 492.83 863.56 492.83 863.56 616.42"/>
      </g>
      <g id="ji" data-name="LINE">
        <line class="nc" x1="856.47" y1="520.47" x2="856.47" y2="616.42"/>
      </g>
      <g id="jj" data-name="LWPOLYLINE">
        <line class="nc" x1="825.14" y1="719.6" x2="825.14" y2="634.56"/>
      </g>
      <g id="jk" data-name="LINE">
        <line class="nc" x1="816.64" y1="624.64" x2="816.64" y2="752.99"/>
      </g>
      <g id="jl" data-name="LINE">
        <line class="nc" x1="737.98" y1="525.43" x2="773.42" y2="525.43"/>
      </g>
      <g id="jm" data-name="LINE">
        <line class="nc" x1="776.25" y1="525.43" x2="856.47" y2="525.43"/>
      </g>
      <g id="jn" data-name="LINE">
        <line class="nc" x1="773.42" y1="620.39" x2="773.42" y2="509.84"/>
      </g>
      <g id="jo" data-name="LINE">
        <line class="nc" x1="776.25" y1="620.39" x2="776.25" y2="509.84"/>
      </g>
      <g id="jp" data-name="LWPOLYLINE">
        <polyline class="nc" points="1254.6 577.59 1257.43 577.59 1257.43 738.03 1254.6 738.03 1254.6 753.33 1251.76 753.33"/>
      </g>
      <g id="jq" data-name="LWPOLYLINE">
        <polyline class="nc" points="1244.68 753.33 1241.68 753.33 1241.68 723.85"/>
      </g>
      <g id="jr" data-name="LWPOLYLINE">
        <polyline class="nc" points="1047.52 818.82 1047.52 814.56 1051.53 814.56 1051.53 818.82"/>
      </g>
      <g id="js" data-name="LINE">
        <line class="nc" x1="735.86" y1="889.34" x2="774.97" y2="889.34"/>
      </g>
      <g id="jt" data-name="LINE">
        <line class="nc" x1="778.94" y1="856.43" x2="819.48" y2="856.43"/>
      </g>
      <g id="ju" data-name="LWPOLYLINE">
        <polyline class="nc" points="778.38 926.96 778.38 856.43 775.54 856.43 775.54 926.96"/>
      </g>
      <g id="jv" data-name="LINE">
        <line class="nc" x1="735.86" y1="781.2" x2="774.97" y2="781.2"/>
      </g>
      <g id="jw" data-name="LINE">
        <line class="nc" x1="778.94" y1="752.99" x2="819.48" y2="752.99"/>
      </g>
      <g id="jx" data-name="LINE">
        <line class="nc" x1="735.86" y1="677.76" x2="774.97" y2="677.76"/>
      </g>
      <g id="jy" data-name="LWPOLYLINE">
        <polyline class="nc" points="1004.73 823.07 1004.73 845.73 1011.81 845.73 1011.81 847.15 943.78 847.15 943.78 845.73 949.45 845.73 949.45 838.61 827.99 838.55"/>
      </g>
      <g id="jz" data-name="LINE">
        <line class="nc" x1="816.64" y1="857" x2="816.64" y2="942.12"/>
      </g>
      <g id="ka" data-name="LINE">
        <line class="nc" x1="816.64" y1="753.56" x2="816.64" y2="856.43"/>
      </g>
      <g id="kb" data-name="LWPOLYLINE">
        <polyline class="nc" points="1250.34 577.59 1247.51 577.59 1247.51 620.39"/>
      </g>
      <g id="kc" data-name="LINE">
        <line class="nc" x1="776.25" y1="524.86" x2="856.47" y2="524.86"/>
      </g>
      <g id="kd" data-name="LINE">
        <line class="nc" x1="737.98" y1="524.86" x2="773.42" y2="524.86"/>
      </g>
      <g id="ke" data-name="LWPOLYLINE">
        <polyline class="nc" points="825.14 645.33 971.32 645.34 971.32 639.67 1250.34 639.67"/>
      </g>
      <g id="kf" data-name="LWPOLYLINE">
        <polyline class="nc" points="1004.16 823.07 1004.16 846.3 1011.25 846.3 1011.25 846.58 944.35 846.58 944.35 846.3 950.02 846.3 950.02 838.04 827.99 837.98"/>
      </g>
      <g id="kg" data-name="LINE">
        <line class="nc" x1="1047.52" y1="744.55" x2="827.98" y2="744.55"/>
      </g>
      <g id="kh" data-name="LINE">
        <line class="nc" x1="1241.68" y1="744.55" x2="1051.53" y2="744.55"/>
      </g>
      <g id="ki" data-name="LINE">
        <line class="nb" x1="1251.76" y1="624.64" x2="1251.76" y2="719.6"/>
      </g>
      <g id="kj" data-name="LINE">
        <line class="nb" x1="1254.6" y1="624.64" x2="1254.6" y2="719.6"/>
      </g>
      <g id="kk" data-name="LINE">
        <line class="nb" x1="1250.94" y1="629.74" x2="1036.44" y2="629.74"/>
      </g>
      <g id="kl" data-name="LINE">
        <line class="nb" x1="860.72" y1="509.84" x2="860.72" y2="616.42"/>
      </g>
      <g id="km" data-name="LINE">
        <line class="nb" x1="857.89" y1="519.76" x2="857.89" y2="616.42"/>
      </g>
      <g id="kn" data-name="LINE">
        <line class="nb" x1="737.98" y1="514.94" x2="773.42" y2="514.94"/>
      </g>
      <g id="ko" data-name="LINE">
        <line class="nb" x1="776.25" y1="514.94" x2="826.45" y2="514.94"/>
      </g>
      <g id="kp" data-name="LINE">
        <line class="nb" x1="733.02" y1="519.76" x2="733.02" y2="882.59"/>
      </g>
      <g id="kq" data-name="LINE">
        <line class="nb" x1="730.19" y1="509.84" x2="730.19" y2="882.59"/>
      </g>
      <g id="kr" data-name="LINE">
        <line class="nb" x1="1036.22" y1="629.74" x2="826.68" y2="629.74"/>
      </g>
      <g id="ks" data-name="LINE">
        <line class="nb" x1="826.68" y1="514.94" x2="857.07" y2="514.94"/>
      </g>
      <g id="kt" data-name="LINE">
        <line class="nb" x1="820.9" y1="835.82" x2="820.9" y2="942.12"/>
      </g>
      <g id="ku" data-name="LINE">
        <line class="nb" x1="826.57" y1="942.12" x2="826.57" y2="835.82"/>
      </g>
      <g id="kv" data-name="LWPOLYLINE">
        <polyline class="nb" points="1251.76 940.14 1251.76 892.52 1246.09 892.52 1246.09 940.14"/>
      </g>
      <g id="kw" data-name="LWPOLYLINE">
        <polyline class="nb" points="1251.76 835.82 1251.76 867 1246.09 867 1246.09 835.82"/>
      </g>
      <g id="kx" data-name="LWPOLYLINE">
        <polyline class="nb" points="1251.76 818.82 1251.66 777.43 1245.99 777.43 1246.09 818.82"/>
      </g>
      <g id="ky" data-name="LWPOLYLINE">
        <polyline class="nb" points="1251.76 736.61 1251.76 751.92 1246.09 751.92 1246.09 736.61"/>
      </g>
      <g id="kz" data-name="LINE">
        <line class="nb" x1="820.9" y1="736.61" x2="820.9" y2="818.82"/>
      </g>
      <g id="la" data-name="LINE">
        <line class="nb" x1="826.57" y1="818.82" x2="826.57" y2="736.61"/>
      </g>
      <g id="lb" data-name="LINE">
        <line class="nb" x1="823.73" y1="624.64" x2="823.73" y2="719.6"/>
      </g>
      <g id="lc" data-name="LINE">
        <line class="nb" x1="818.06" y1="719.6" x2="818.06" y2="624.64"/>
      </g>
      <g id="ld" data-name="LWPOLYLINE">
        <rect class="mx" x="1248.93" y="889.68" width="2.83" height="1.42"/>
      </g>
      <g id="le" data-name="LWPOLYLINE">
        <rect class="mx" x="1248.93" y="868.42" width="2.83" height="1.42"/>
      </g>
      <g id="lf" data-name="LWPOLYLINE">
        <rect class="mx" x="1248.93" y="774.59" width="2.83" height="1.42"/>
      </g>
      <g id="lg" data-name="LWPOLYLINE">
        <rect class="mx" x="1248.93" y="753.33" width="2.83" height="1.42"/>
      </g>
      <g id="lh" data-name="LWPOLYLINE">
        <line class="mx" x1="774.97" y1="675.41" x2="774.97" y2="675.41"/>
      </g>
      <g id="li" data-name="LWPOLYLINE">
        <line class="mx" x1="774.97" y1="778.85" x2="774.97" y2="778.85"/>
      </g>
      <g id="lj" data-name="LWPOLYLINE">
        <polygon class="mx" points="1051.53 755.74 1051.53 755.04 1047.52 755.04 1047.52 756.31 1050.4 756.31 1050.4 755.74 1051.53 755.74"/>
      </g>
      <g id="lk" data-name="LWPOLYLINE">
        <rect class="mx" x="1050.68" y="756.03" width=".85" height="57.54"/>
      </g>
      <g id="ll" data-name="LWPOLYLINE">
        <polygon class="mx" points="1051.53 813.85 1051.53 814.56 1047.47 814.59 1047.47 813.31 1050.4 813.29 1050.4 813.85 1051.53 813.85"/>
      </g>
      <g id="lm" data-name="LWPOLYLINE">
        <path class="mz" d="M823.73,624.98v-.34h5.67v.34h-2.35c-.2,0-.37.16-.37.37v8.5c0,.2.16.37.37.37h2.35v.34h-5.67v-.34h2.35c.2,0,.37-.16.37-.37v-8.5c0-.2-.16-.37-.37-.37h-2.35Z"/>
      </g>
      <g id="ln" data-name="LWPOLYLINE">
        <path class="mz" d="M1033.49,624.98v-.34h5.67v.34h-2.35c-.2,0-.37.16-.37.37v8.5c0,.2.16.37.37.37h2.35v.34h-5.67v-.34h2.35c.2,0,.37-.16.37-.37v-8.5c0-.2-.16-.37-.37-.37h-2.35Z"/>
      </g>
      <g id="lo" data-name="LWPOLYLINE">
        <path class="mz" d="M1248.22,624.98v-.34h5.67v.34h-2.35c-.2,0-.37.16-.37.37v8.5c0,.2.16.37.37.37h2.35v.34h-5.67v-.34h2.35c.2,0,.37-.16.37-.37v-8.5c0-.2-.16-.37-.37-.37h-2.35Z"/>
      </g>
      <g id="lp" data-name="LWPOLYLINE">
        <path class="mz" d="M730.9,624.98v-.34h5.67v.34h-2.35c-.2,0-.37.16-.37.37v8.5c0,.2.16.37.37.37h2.35v.34h-5.67v-.34h2.35c.2,0,.37-.16.37-.37v-8.5c0-.2-.16-.37-.37-.37h-2.35Z"/>
      </g>
      <g id="lq" data-name="LWPOLYLINE">
        <path class="mz" d="M823.73,510.18v-.34h5.67v.34h-2.35c-.2,0-.37.16-.37.37v8.5c0,.2.16.37.37.37h2.35v.34h-5.67v-.34h2.35c.2,0,.37-.16.37-.37v-8.5c0-.2-.16-.37-.37-.37h-2.35Z"/>
      </g>
      <g id="lr" data-name="LWPOLYLINE">
        <path class="mz" d="M730.9,510.18v-.34h5.67v.34h-2.35c-.2,0-.37.16-.37.37v8.5c0,.2.16.37.37.37h2.35v.34h-5.67v-.34h2.35c.2,0,.37-.16.37-.37v-8.5c0-.2-.16-.37-.37-.37h-2.35Z"/>
      </g>
      <g id="ls" data-name="LWPOLYLINE">
        <path class="mz" d="M854.34,510.18v-.34h5.67v.34h-2.35c-.2,0-.37.16-.37.37v8.5c0,.2.16.37.37.37h2.35v.34h-5.67v-.34h2.35c.2,0,.37-.16.37-.37v-8.5c0-.2-.16-.37-.37-.37h-2.35Z"/>
      </g>
      <g id="lt" data-name="LWPOLYLINE">
        <path class="mz" d="M730.9,719.94v-.34h5.67v.34h-2.35c-.2,0-.37.16-.37.37v8.5c0,.2.16.37.37.37h2.35v.34h-5.67v-.34h2.35c.2,0,.37-.16.37-.37v-8.5c0-.2-.16-.37-.37-.37h-2.35Z"/>
      </g>
      <g id="lu" data-name="LWPOLYLINE">
        <path class="mz" d="M730.9,819.16v-.34h5.67v.34h-2.35c-.2,0-.37.16-.37.37v8.5c0,.2.16.37.37.37h2.35v.34h-5.67v-.34h2.35c.2,0,.37-.16.37-.37v-8.5c0-.2-.16-.37-.37-.37h-2.35Z"/>
      </g>
      <g id="lv" data-name="LWPOLYLINE">
        <polygon class="mz" points="735.29 895.01 735.29 886.51 735.86 886.51 735.86 889.63 774.97 889.63 774.97 886.51 775.54 886.51 775.54 895.01 774.97 895.01 774.97 889.91 735.86 889.91 735.86 895.01 735.29 895.01"/>
      </g>
      <g id="lw" data-name="LWPOLYLINE">
        <polygon class="mz" points="778.38 862.1 778.38 853.6 778.94 853.6 778.94 856.71 819.48 856.71 819.48 853.6 820.05 853.6 820.05 862.1 819.48 862.1 819.48 857 778.94 857 778.94 862.1 778.38 862.1"/>
      </g>
      <g id="lx" data-name="LWPOLYLINE">
        <polygon class="mz" points="735.29 786.87 735.29 778.37 735.86 778.37 735.86 781.48 774.97 781.48 774.97 778.37 775.54 778.37 775.54 786.87 774.97 786.87 774.97 781.77 735.86 781.77 735.86 786.87 735.29 786.87"/>
      </g>
      <g id="ly" data-name="LWPOLYLINE">
        <polygon class="mz" points="778.38 758.66 778.38 750.16 778.94 750.16 778.94 753.27 819.48 753.27 819.48 750.16 820.05 750.16 820.05 758.66 819.48 758.66 819.48 753.56 778.94 753.56 778.94 758.66 778.38 758.66"/>
      </g>
      <g id="lz" data-name="LWPOLYLINE">
        <polygon class="mz" points="735.29 683.43 735.29 674.93 735.86 674.93 735.86 678.04 774.97 678.04 774.97 674.93 775.54 674.93 775.54 683.43 774.97 683.43 774.97 678.33 735.86 678.33 735.86 683.43 735.29 683.43"/>
      </g>
      <g id="ma" data-name="LWPOLYLINE">
        <polyline class="nl" points="1268.63 942.12 1268.63 886.85 1274.3 886.85 1274.3 942.12"/>
      </g>
      <g id="mb" data-name="LWPOLYLINE">
        <polygon class="nl" points="1042 823.07 1042 835.82 1030.66 835.82 1030.66 823.07 829.4 823.07 829.4 835.82 818.06 835.82 818.06 818.82 1254.6 818.82 1254.6 835.82 1243.26 835.82 1243.26 823.07 1042 823.07"/>
      </g>
      <g id="mc" data-name="LWPOLYLINE">
        <polygon class="nl" points="1042 723.85 1042 736.61 1030.66 736.61 1030.66 723.85 829.4 723.85 829.4 736.61 818.06 736.61 818.06 719.6 1254.6 719.6 1254.6 736.61 1243.26 736.61 1243.26 723.85 1042 723.85"/>
      </g>
      <g id="md" data-name="LWPOLYLINE">
        <polygon class="nl" points="733.02 492.83 733.02 505.59 857.89 505.59 857.89 492.83 860.72 492.83 860.72 509.84 730.19 509.84 730.19 492.83 733.02 492.83"/>
      </g>
      <g id="me" data-name="LWPOLYLINE">
        <polygon class="nl" points="1250.34 620.39 1250.34 577.59 1254.6 577.59 1254.6 624.64 773.42 624.64 773.42 620.39 856.47 620.39 856.47 616.42 863.56 616.42 863.56 620.39 1250.34 620.39"/>
      </g>
      <g id="mf" data-name="LWPOLYLINE">
        <polygon class="nl" points="1254.6 942.12 1274.3 942.12 1274.3 953.46 727.35 953.46 727.35 882.59 734.44 882.59 734.44 942.12 1244.68 942.12 1244.68 940.14 1254.6 940.14 1254.6 942.12"/>
      </g>
      <path class="ne" d="M1274.3,953.46h-546.94v-68.03h-112.89c-39.96-3.38-44.43-7.09-53.08-9.05-33.84-7.64-62.5-11.91-110.85-11.91-78.2,0-278.6-9.35-348.31-9.35-52.96,0-74.11-.71-102.22-1.2"/>
      <path class="ne" d="M2000,984.93c-21.8-1.43-42.14-2.63-62.29-4.04-53.86-3.79-97.72-24.58-255.86-27.44l-407.56-8.68"/>
      <g id="mg" data-name="frame">
        <rect class="nn" x="404.72" y="329.06" width="1190.55" height="841.89"/>
      </g>
    </g>
  </g>
  <g id="mm" data-name="">
    <path class="my" d="M1155.12,775.42c.28.38.43.78.43,1.22,0,.49-.12.93-.35,1.31-.23.39-.55.69-.97.91-.41.22-.88.32-1.41.32s-1-.11-1.41-.32-.73-.52-.97-.91c-.23-.39-.35-.83-.35-1.31h.58c0,.39.09.74.28,1.05.18.31.44.55.77.72.33.17.7.26,1.1.26s.79-.08,1.12-.25.58-.39.76-.68c.18-.29.27-.62.27-1s-.09-.68-.27-.97c-.18-.28-.43-.51-.76-.67-.32-.16-.69-.24-1.1-.24h-.35v-.53h.34c.38,0,.73-.07,1.04-.22.31-.15.55-.35.72-.62.17-.26.26-.56.26-.9,0-.51-.18-.93-.55-1.26s-.84-.49-1.42-.49c-.38,0-.72.08-1.02.23-.3.16-.54.38-.7.66-.16.28-.25.61-.25.97h-.58c0-.46.11-.86.32-1.22.22-.36.52-.64.9-.85.38-.2.82-.31,1.32-.31s.94.1,1.32.31.68.49.9.85c.22.36.32.77.32,1.22,0,.37-.13.73-.38,1.09-.26.36-.59.63-1,.81.43.16.79.43,1.07.8Z"/>
    <path class="my" d="M992.96,778.04c.17-.16.37-.35.58-.56.72-.68,1.3-1.25,1.73-1.7.44-.46.81-.93,1.12-1.43.31-.5.47-.96.47-1.38s-.08-.77-.24-1.09c-.16-.32-.38-.57-.67-.75-.28-.18-.61-.27-.97-.27-.4,0-.78.14-1.15.41-.36.28-.64.63-.82,1.06l-.54-.23c.22-.52.57-.94,1.03-1.27.46-.33.96-.49,1.48-.49.47,0,.89.11,1.26.34s.66.54.87.94c.21.4.32.85.32,1.36s-.16,1.01-.49,1.55-.72,1.05-1.18,1.54c-.46.48-1.06,1.07-1.79,1.76-.5.47-.89.84-1.16,1.12l-.41-.34c.2-.21.39-.39.56-.56ZM992.4,778.6h5.16v.5h-5.09l-.07-.5Z"/>
    <path class="my" d="M984.64,891.5h-.58v-8.02l-1.08.74-.31-.42,1.39-.97h.58v8.66Z"/>
    <path class="my" d="M1079.92,677.34h1.4v.52h-1.4v2.54h-.58v-2.54h-3.95l-.08-.53,4.03-5.59h.58v5.6ZM1079.34,677.34v-4.61l-3.32,4.61h3.32Z"/>
    <g>
      <g>
        <path class="my" d="M1773.18,1233.12v.55h-7.38v-.55h7.38ZM1771.58,1234.94c.52.36.78.84.78,1.46s-.26,1.09-.78,1.45c-.52.36-1.22.54-2.11.54s-1.58-.18-2.11-.53c-.53-.35-.79-.84-.79-1.46s.26-1.09.78-1.45c.52-.36,1.23-.54,2.11-.54s1.58.18,2.1.53ZM1767.82,1235.33c-.42.27-.62.62-.62,1.06s.21.79.62,1.06c.42.27.97.4,1.66.4s1.23-.13,1.65-.4c.41-.27.62-.62.62-1.06s-.21-.79-.62-1.06c-.42-.27-.96-.41-1.65-.41s-1.24.14-1.66.41ZM1775.38,1239.31v2.44h-6.97v1.71h-.62v-2.24h6.94v-1.36h-6.99v-.55h7.63ZM1775.85,1243.26v.55h-8.06v-.55h8.06ZM1769.81,1231.73v1.69h-.64v-1.69h.64ZM1775.38,1231.85v6.78h-.64v-6.78h.64Z"/>
        <path class="my" d="M1783.83,1232.7v3.09h-4.76v2.45h-.62v-3h4.75v-1.99h-4.79v-.56h5.42ZM1782.38,1237.84c.89-.06,1.82-.17,2.8-.33l.08.56c-1.01.16-1.96.27-2.86.33s-1.91.09-3.04.09h-.91v-.56h.91c1.12,0,2.12-.03,3.01-.09ZM1786.65,1240.25c.71.37,1.06.88,1.06,1.55s-.35,1.21-1.06,1.58c-.71.37-1.68.56-2.93.56s-2.24-.19-2.95-.56c-.71-.37-1.06-.9-1.06-1.58s.35-1.18,1.06-1.55c.7-.37,1.69-.55,2.95-.55s2.22.18,2.93.55ZM1781.94,1240.43c-.5.13-.9.32-1.18.55-.28.24-.42.51-.42.82,0,.49.3.87.92,1.16s1.43.43,2.44.43,1.83-.14,2.44-.43c.61-.29.91-.68.91-1.16,0-.31-.14-.58-.41-.82-.28-.24-.67-.42-1.17-.55s-1.09-.2-1.76-.2-1.26.07-1.76.2ZM1787.63,1231.92v7.5h-.66v-7.5h.66Z"/>
        <path class="my" d="M1793.38,1232.78v1.93c0,.56-.12,1.13-.36,1.71-.24.58-.57,1.11-.99,1.58s-.9.84-1.42,1.11l-.39-.5c.49-.23.93-.56,1.34-.99.41-.43.72-.9.94-1.41.22-.51.34-1.01.34-1.48v-1.93h.55ZM1793.12,1239.84v3.5h-.66v-3.5h.66ZM1800.56,1243.1v.56h-8.11v-.56h8.11ZM1793.45,1232.78v1.93c0,.49.11.96.34,1.43.22.47.53.89.92,1.27s.83.67,1.32.89l-.38.49c-.8-.36-1.46-.92-1.96-1.67s-.76-1.55-.76-2.41v-1.93h.52ZM1797.55,1235.16v.56h-2.53v-.56h2.53ZM1797.83,1232.17v8.48h-.63v-8.48h.63ZM1800.16,1231.9v9.07h-.62v-9.07h.62Z"/>
        <path class="my" d="M1808.43,1233.08v.56h-4.93v6.97h-.64v-7.53h5.57ZM1806.91,1240.32c.79-.05,1.58-.16,2.37-.33l.08.56c-.85.16-1.68.27-2.5.33-.82.06-1.86.09-3.13.09h-.88v-.57h.88c1.33,0,2.38-.03,3.17-.08ZM1807.83,1236.48v.56h-4.54v-.56h4.54ZM1811.61,1236.69v.55h-2.97v-.55h2.97ZM1812.1,1231.9v12.08h-.64v-12.08h.64Z"/>
        <path class="my" d="M1776.5,1256.31v.56h-10.91v-.56h10.91ZM1775.12,1258.32v3.67h-.64v-3.11h-7.67v-.56h8.32ZM1767.73,1250.18v1.58h6.66v-1.58h.64v4.4h-7.95v-4.4h.64ZM1767.73,1254.03h6.66v-1.72h-6.66v1.72ZM1771.37,1254.34v2.27h-.63v-2.27h.63Z"/>
        <path class="my" d="M1788.79,1259.77v.57h-10.96v-.57h10.96ZM1787.3,1250.95v.56h-7.35v4.47h-.64v-5.03h7.99ZM1787.45,1255.73v.55h-8.13v-.55h8.13ZM1783.6,1255.94v4.14h-.63v-4.14h.63Z"/>
        <path class="my" d="M1769.97,1276.8c1.32-.05,2.57-.15,3.75-.3l.04.5c-1.21.19-2.47.31-3.78.37s-2.71.09-4.21.09l-.13-.59c1.57,0,3.01-.03,4.33-.08ZM1773.31,1269.48v.56h-7.38v-.56h7.38ZM1771.09,1271.16c.43.18.76.44.99.78.23.34.35.73.35,1.18s-.12.82-.35,1.15c-.23.33-.57.59-.99.77-.43.18-.92.27-1.48.27s-1.06-.09-1.48-.27c-.42-.18-.75-.44-.98-.77-.23-.33-.35-.72-.35-1.15s.12-.84.35-1.18.56-.59.98-.78c.42-.18.92-.27,1.48-.27s1.05.09,1.48.27ZM1768.01,1271.89c-.41.32-.62.72-.62,1.22s.21.88.62,1.19c.41.31.94.46,1.6.46s1.2-.15,1.6-.46.61-.7.61-1.19-.2-.91-.61-1.23-.94-.47-1.6-.47-1.19.16-1.6.48ZM1769.95,1267.87v1.88h-.64v-1.88h.64ZM1769.96,1275.08v2h-.66v-2h.66ZM1775.25,1267.9v12.08h-.66v-12.08h.66Z"/>
        <path class="my" d="M1785.05,1269.27v.56h-7.15v-.56h7.15ZM1782.95,1270.81c.43.17.76.42.99.74.23.32.35.69.35,1.12s-.12.8-.35,1.12c-.23.32-.56.56-.99.73s-.93.25-1.5.25-1.05-.08-1.48-.25c-.43-.17-.76-.41-.99-.73-.23-.32-.35-.69-.35-1.12s.12-.8.35-1.12c.23-.32.56-.56.99-.74.42-.17.92-.26,1.49-.26s1.07.09,1.5.26ZM1779.86,1271.52c-.41.29-.62.67-.62,1.14s.21.85.62,1.14c.41.29.95.44,1.61.44s1.19-.15,1.6-.44c.41-.29.62-.67.62-1.14s-.21-.85-.62-1.14c-.41-.29-.95-.44-1.61-.44s-1.19.15-1.6.44ZM1780.35,1275.46v1.54h6.12v-1.54h.64v4.34h-7.41v-4.34h.64ZM1780.35,1279.24h6.12v-1.71h-6.12v1.71ZM1781.79,1267.76v1.79h-.64v-1.79h.64ZM1787.11,1267.9v6.99h-.64v-6.99h.64ZM1789.03,1271.11v.57h-2.24v-.57h2.24Z"/>
        <path class="my" d="M1793.98,1268.31v.92c0,.72-.15,1.4-.46,2.03-.31.63-.72,1.19-1.23,1.67-.51.48-1.08.84-1.69,1.11l-.35-.53c.57-.21,1.1-.54,1.58-.97.49-.43.88-.93,1.17-1.5.29-.57.44-1.17.44-1.8v-.92h.54ZM1799.85,1274.93v2.63h-6.96v1.97h-.62v-2.49h6.94v-1.55h-6.99v-.56h7.62ZM1800.34,1279.26v.55h-8.06v-.55h8.06ZM1794.07,1268.31v.92c0,.59.15,1.16.45,1.7.3.55.7,1.02,1.19,1.42.49.4,1.02.71,1.58.92l-.34.52c-.62-.24-1.2-.59-1.71-1.04s-.93-.97-1.24-1.58c-.31-.61-.46-1.25-.46-1.95v-.92h.53ZM1799.85,1267.9v6.36h-.64v-6.36h.64Z"/>
        <path class="my" d="M1776.55,1295.73v.57h-10.96v-.57h10.96ZM1771.28,1286.78v.99c0,.8-.26,1.54-.77,2.21-.51.67-1.14,1.23-1.88,1.68-.74.45-1.47.76-2.18.94l-.28-.55c.61-.12,1.26-.39,1.97-.8.71-.41,1.31-.92,1.81-1.53.5-.61.75-1.26.75-1.95v-.99h.57ZM1771.35,1292.64v3.35h-.63v-3.35h.63ZM1771.36,1286.78v.99c0,.69.25,1.34.75,1.95.5.61,1.11,1.12,1.82,1.53.71.41,1.38.68,1.98.8l-.31.55c-.69-.17-1.41-.48-2.16-.93-.75-.45-1.38-1.02-1.89-1.69-.51-.68-.77-1.41-.77-2.2v-.99h.57Z"/>
        <path class="my" d="M1781.89,1287.53c.38.33.68.8.89,1.41s.32,1.33.32,2.15-.11,1.54-.32,2.16-.51,1.09-.89,1.42-.83.5-1.34.5-.95-.17-1.33-.5-.68-.8-.89-1.42-.31-1.33-.31-2.16.1-1.54.31-2.15.51-1.08.89-1.41.83-.5,1.33-.5.96.17,1.34.5ZM1779.54,1288.06c-.29.29-.51.71-.67,1.23s-.24,1.13-.24,1.8.08,1.27.24,1.81c.16.53.38.94.67,1.24s.62.44,1.01.44.72-.15,1.02-.44c.29-.29.52-.71.69-1.24.16-.53.25-1.13.25-1.81s-.08-1.27-.25-1.8-.39-.94-.69-1.23c-.29-.29-.63-.44-1.02-.44s-.72.15-1.01.44ZM1785.26,1289.01v.56h-2.62v-.56h2.62ZM1785.26,1292.64v.56h-2.62v-.56h2.62ZM1785.67,1286.22v11.1h-.63v-11.1h.63ZM1788.01,1285.9v12.08h-.63v-12.08h.63Z"/>
        <path class="my" d="M1791.21,1287.11v3.11h3.25v-3.11h.6v7.74h-4.48v-7.74h.63ZM1791.21,1294.29h3.25v-3.51h-3.25v3.51ZM1797.54,1286.22v11.1h-.63v-11.1h.63ZM1799.91,1290.82v.56h-2.55v-.56h2.55ZM1800.24,1285.9v12.08h-.63v-12.08h.63Z"/>
        <path class="my" d="M1806.22,1286.31v.92c0,.72-.15,1.4-.46,2.03s-.72,1.19-1.23,1.67c-.51.48-1.08.84-1.69,1.11l-.35-.53c.57-.21,1.1-.54,1.58-.97.49-.43.88-.93,1.17-1.5.29-.57.44-1.17.44-1.8v-.92h.55ZM1812.08,1292.93v2.63h-6.96v1.97h-.62v-2.49h6.94v-1.55h-6.99v-.56h7.62ZM1812.57,1297.26v.55h-8.06v-.55h8.06ZM1806.3,1286.31v.92c0,.59.15,1.16.45,1.7.3.55.7,1.02,1.19,1.42.49.4,1.02.71,1.58.92l-.34.52c-.63-.24-1.2-.59-1.71-1.04-.52-.45-.93-.97-1.24-1.58-.31-.61-.46-1.25-.46-1.95v-.92h.53ZM1812.08,1285.9v6.36h-.64v-6.36h.64Z"/>
      </g>
      <g>
        <path class="my" d="M1754.69,1243.05h-.67v-9.35l-1.26.87-.36-.49,1.62-1.13h.67v10.11Z"/>
        <path class="my" d="M1751.59,1259.81c.2-.19.43-.41.68-.65.84-.79,1.51-1.46,2.02-1.99.51-.53.94-1.09,1.31-1.67s.55-1.12.55-1.61-.09-.9-.28-1.27-.45-.67-.78-.88c-.33-.21-.71-.32-1.13-.32-.47,0-.91.16-1.34.48-.42.32-.75.73-.96,1.24l-.63-.27c.26-.61.66-1.1,1.2-1.48.54-.38,1.12-.57,1.72-.57.55,0,1.04.13,1.47.39.43.26.77.63,1.01,1.09.25.47.37.99.37,1.58s-.19,1.18-.57,1.81-.84,1.23-1.38,1.79c-.54.56-1.23,1.25-2.09,2.05-.59.55-1.04.98-1.36,1.3l-.48-.39c.23-.24.45-.46.65-.65ZM1750.94,1260.46h6.02v.59h-5.94l-.08-.59Z"/>
        <path class="my" d="M1756.62,1274.75c.33.44.5.92.5,1.43,0,.57-.14,1.08-.41,1.53s-.65.8-1.13,1.06-1.03.38-1.64.38-1.17-.13-1.65-.38-.86-.6-1.13-1.06-.41-.96-.41-1.53h.67c0,.46.11.87.32,1.23s.51.64.9.84c.38.2.81.3,1.29.3s.92-.1,1.3-.29.68-.46.89-.79.32-.72.32-1.16-.11-.8-.32-1.13-.5-.59-.88-.78c-.38-.19-.8-.28-1.28-.28h-.41v-.62h.39c.45,0,.85-.09,1.21-.26s.64-.41.84-.72c.2-.31.3-.66.3-1.05,0-.6-.21-1.09-.64-1.47-.43-.38-.98-.57-1.65-.57-.44,0-.83.09-1.19.27-.36.18-.63.44-.82.77-.19.33-.29.71-.29,1.13h-.67c0-.53.13-1.01.38-1.43s.6-.75,1.05-.99c.45-.24.96-.36,1.54-.36s1.09.12,1.54.36c.45.24.8.57,1.05.99.25.42.38.9.38,1.43,0,.43-.15.85-.45,1.27s-.69.73-1.16.94c.5.19.92.5,1.25.94Z"/>
        <path class="my" d="M1755.8,1293.48h1.64v.6h-1.64v2.97h-.67v-2.97h-4.61l-.1-.62,4.7-6.52h.67v6.54ZM1755.12,1293.48v-5.38l-3.88,5.38h3.88Z"/>
      </g>
    </g>
  </g>
  <g id="mn" data-name="SCALE">
    <g>
      <g id="mo" data-name="MTEXT">
        <path class="nm" d="M281.36,1295.9c-.64-.5-1.13-1.2-1.49-2.1-.36-.9-.54-1.92-.54-3.06s.18-2.15.54-3.04c.36-.9.85-1.6,1.49-2.1.63-.5,1.36-.75,2.17-.75s1.53.25,2.17.75c.63.5,1.13,1.2,1.49,2.1.36.9.54,1.91.54,3.04s-.18,2.16-.54,3.05c-.36.89-.85,1.59-1.49,2.1-.64.51-1.36.76-2.17.76s-1.54-.25-2.17-.75ZM285.02,1294.86c.44-.41.78-.96,1.02-1.67s.36-1.52.36-2.44-.12-1.74-.36-2.45c-.24-.72-.58-1.27-1.02-1.67-.44-.4-.93-.6-1.49-.6s-1.05.2-1.48.6c-.43.4-.77.96-1.02,1.67-.25.71-.37,1.53-.37,2.43s.12,1.75.37,2.46c.25.71.58,1.27,1.02,1.67.43.41.93.61,1.48.61s1.05-.2,1.49-.61Z"/>
      </g>
      <g id="mp" data-name="MTEXT">
        <path class="nm" d="M336.68,1294.71c.19-.17.42-.38.71-.64.93-.85,1.68-1.57,2.24-2.15.57-.58,1.05-1.17,1.44-1.78.39-.6.59-1.16.59-1.67,0-.48-.09-.9-.28-1.27-.19-.37-.45-.66-.78-.86s-.71-.31-1.15-.31c-.47,0-.93.16-1.37.48s-.78.73-1,1.23l-1.2-.51c.3-.71.79-1.28,1.46-1.73.67-.45,1.38-.67,2.11-.67.69,0,1.31.16,1.85.46s.96.74,1.26,1.29.45,1.18.45,1.9-.22,1.41-.67,2.14c-.45.73-.98,1.41-1.6,2.04-.62.63-1.42,1.39-2.42,2.27-.49.45-.96.88-1.39,1.3l-.94-.85c.28-.27.51-.49.7-.66ZM335.99,1295.37h7.22v1.19h-7.05l-.18-1.19Z"/>
      </g>
      <g id="mq" data-name="MTEXT">
        <path class="nm" d="M423.16,1289.34c.55-.25,1.08-.38,1.59-.38.77,0,1.45.16,2.06.49.6.33,1.07.78,1.41,1.35.34.58.5,1.24.5,1.99s-.17,1.43-.5,2.02c-.33.59-.8,1.05-1.4,1.39-.6.34-1.29.5-2.07.5-.6,0-1.16-.12-1.69-.38-.53-.25-.98-.6-1.35-1.05-.37-.45-.62-.96-.74-1.52l1.3-.3c.13.59.42,1.07.89,1.43s1,.55,1.59.55c.5,0,.95-.11,1.35-.34.4-.22.72-.54.94-.94.23-.41.34-.86.34-1.36s-.11-.95-.34-1.34-.54-.69-.94-.91-.85-.33-1.35-.33c-.33,0-.68.09-1.04.26-.36.18-.66.4-.9.68l-.99-.86c.34-.38.79-.7,1.34-.95ZM421.48,1290.97l.37-6.04h5.93v1.18h-4.64l-.32,5.04-1.33-.19Z"/>
      </g>
      <g id="mr" data-name="MTEXT">
        <path class="nm" d="M312,1296.54h-1.35v-10.09l-1.86,1.2-.67-1.07,2.55-1.62h1.33v11.58Z"/>
      </g>
      <g id="ms" data-name="MTEXT">
        <g>
          <path class="nm" d="M561.37,1296.54h-1.35v-10.09l-1.86,1.2-.67-1.07,2.55-1.62h1.33v11.58Z"/>
          <path class="nm" d="M565.83,1295.9c-.64-.5-1.13-1.2-1.49-2.1s-.54-1.92-.54-3.06.18-2.15.54-3.04.85-1.6,1.49-2.1c.63-.5,1.36-.75,2.17-.75s1.53.25,2.17.75,1.13,1.2,1.49,2.1.54,1.91.54,3.04-.18,2.16-.54,3.05-.85,1.59-1.49,2.1c-.64.51-1.36.76-2.17.76s-1.54-.25-2.17-.75ZM569.49,1294.86c.44-.41.78-.96,1.02-1.67s.36-1.52.36-2.44-.12-1.74-.36-2.45c-.24-.72-.58-1.27-1.02-1.67-.44-.4-.93-.6-1.49-.6s-1.05.2-1.48.6c-.43.4-.77.96-1.02,1.67-.25.71-.37,1.53-.37,2.43s.12,1.75.37,2.46.58,1.27,1.02,1.67c.43.41.93.61,1.48.61s1.05-.2,1.49-.61Z"/>
          <path class="nm" d="M583.38,1290.8c-.29-.34-.67-.5-1.13-.5-.35,0-.66.07-.94.22-.27.14-.49.34-.65.6s-.24.55-.24.88v4.58h-1.33v-4.45c0-.54-.14-.98-.43-1.32-.29-.34-.66-.5-1.12-.5-.34,0-.65.09-.94.26-.28.18-.5.42-.66.72-.15.3-.23.63-.23.99v4.31h-1.33v-7.46h1.33v1.31l-.14-.05c.22-.37.52-.68.9-.91.37-.23.75-.35,1.14-.35.46,0,.9.13,1.32.38.42.26.74.59.95.99.25-.41.59-.74,1.04-.99.45-.26.9-.38,1.36-.38.56,0,1.05.13,1.49.38s.78.59,1.02,1.02.37.93.37,1.5v4.56h-1.35v-4.45c0-.54-.15-.98-.44-1.32Z"/>
        </g>
      </g>
      <g id="mt" data-name="LWPOLYLINE">
        <polyline class="mu" points="566.32 1263.88 566.32 1280.89 424.59 1280.89 424.59 1263.88 339.55 1263.88 339.55 1280.89 311.2 1280.89 311.2 1263.88 282.85 1263.88 282.85 1280.89"/>
      </g>
    </g>
  </g>
</svg>