<?xml version="1.0" encoding="UTF-8"?>
<svg xmlns="http://www.w3.org/2000/svg" viewBox="0 0 2000 1250">
  <defs>
    <style>
      .mg, .mh, .mi, .mj, .mk, .ml, .mm, .mn, .mo, .mp, .mq, .mr, .ms, .mt, .mu, .mv, .mw, .mx, .my, .mz, .na {
        stroke: #000;
      }

      .mg, .mh, .mi, .mj, .mk, .ml, .mm, .mn, .nb, .mp, .mq, .mr, .ms, .mt, .mu, .mv, .mw, .nc, .mx, .my, .mz {
        fill: none;
      }

      .mg, .mh, .mi, .mj, .mk, .ml, .mm, .mn, .mp, .mq, .mr, .ms, .mt, .mu, .mv, .mw, .mx, .my, .mz {
        stroke-miterlimit: 10;
      }

      .mg, .na {
        stroke-width: .5px;
      }

      .mh {
        stroke-dasharray: 2.1 1.05;
      }

      .mh, .mi, .mq, .ms, .mx, .mz {
        stroke-width: .2px;
      }

      .nd {
        fill: #d6d6d6;
        fill-rule: evenodd;
      }

      .mj {
        stroke-width: .22px;
      }

      .mk {
        stroke-width: .85px;
      }

      .ml {
        stroke-width: .7px;
      }

      .mm {
        stroke-dasharray: 1.93 .96;
      }

      .mm, .mn, .mp, .mt, .mu, .mv, .nc {
        stroke-width: .26px;
      }

      .mn {
        stroke-dasharray: 2 1;
      }

      .mo {
        stroke-width: .34px;
      }

      .mo, .na {
        fill: #040000;
      }

      .mp {
        stroke-dasharray: 2.07 1.04;
      }

      .mq {
        stroke-dasharray: 2.06 1.03;
      }

      .mr {
        stroke-width: 2px;
      }

      .ms {
        stroke-dasharray: 1.95 .97;
      }

      .mt {
        stroke-dasharray: 2.01 1;
      }

      .mu {
        stroke-dasharray: 2.04 1.02;
      }

      .mw {
        stroke-width: .3px;
      }

      .nc {
        stroke: #040000;
        stroke-linecap: round;
        stroke-linejoin: round;
      }

      .mx {
        stroke-dasharray: 2.1 1.05;
      }

      .my {
        stroke-width: 1.2px;
      }

      .mz {
        stroke-dasharray: 2.1 1.05;
      }
    </style>
  </defs>
  <g id="b" data-name="s1">
    <g>
      <g id="c" data-name="HATCH">
        <path class="nd" d="M1582.57,754.62h-251.31v-1.98h-7.65v1.98h-718.6v-1.98h-9.92v1.98h-2.83v11.34h990.33s0-11.34,0-11.34M715.57,635.57h97.8v12.76h11.34v-12.76h99.21v12.76h11.34v-12.76h99.21v12.76h11.34v-12.76h99.21v12.76h11.34v-12.76h99.21v12.76h11.34v-12.76h59.53v-8.22h-2.83v3.97h-728.53v17.01h11.34v-12.76h97.82v12.76h11.34v-12.76M715.57,536.35h97.8v12.76h11.34v-12.76h99.21v12.76h11.34v-12.76h99.21v12.76h11.34v-12.76h99.21v12.76h11.34v-12.76h99.21v12.76h11.34v-12.76h62.36v-46.77h-4.25v42.52h-447.17s0-3.97,0-3.97h-7.09v3.97h-275.69v17.01h11.34v-12.76h97.82v12.76h11.34v-12.76M901.91,390.12h-4.25v42.77h-298.3v-42.77h-4.25v47.03h306.81v-47.03Z"/>
      </g>
      <g id="d" data-name="HATCH">
        <path class="nc" d="M597.91,550.08l.97-.97M597.91,552.63l3.52-3.52M597.91,555.17l5.67-5.67M597.91,557.72l5.67-5.67M597.91,560.27l5.67-5.67M597.91,562.81l5.67-5.67M598.85,564.42l4.73-4.73M601.4,564.42l2.18-2.18M597.91,590.81l.88-.88M597.91,593.36l3.43-3.43M597.91,595.9l5.67-5.67M597.91,598.45l5.67-5.67M597.91,600.99l5.67-5.67M597.91,603.54l5.67-5.67M597.91,606.09l5.67-5.67M597.91,608.63l5.67-5.67M597.91,611.18l5.67-5.67M597.91,613.72l5.67-5.67M597.91,616.27l5.67-5.67M597.91,618.81l5.67-5.67M597.91,621.36l5.67-5.67M597.91,623.9l5.67-5.67M597.91,626.45l5.67-5.67M597.91,629l5.67-5.67M598.14,631.32l5.44-5.44M600.69,631.32l2.9-2.9M603.23,631.32l.35-.35M597.91,649.36l1.04-1.04M597.91,651.91l3.58-3.58M597.91,654.45l5.67-5.67M597.91,657l5.67-5.67M597.91,659.54l5.67-5.67M597.91,662.09l5.67-5.67M597.91,664.63l5.67-5.67M597.91,667.18l5.67-5.67M597.91,669.73l5.67-5.67M597.91,672.27l5.67-5.67M597.91,674.82l5.67-5.67M597.91,677.36l5.67-5.67M598.32,679.5l5.27-5.27M600.86,679.5l2.72-2.72M603.41,679.5l.17-.17M597.91,705.36l.35-.35M597.91,707.91l2.89-2.89M597.91,710.45l5.44-5.44M597.91,713l5.67-5.67M597.91,715.55l5.67-5.67M597.91,718.09l5.67-5.67M597.91,720.64l5.67-5.67M597.91,723.18l5.67-5.67M597.91,725.73l5.67-5.67M597.91,728.27l5.67-5.67M597.91,730.82l5.67-5.67M597.91,733.36l5.67-5.67M597.91,735.91l5.67-5.67M597.91,738.46l5.67-5.67M597.91,741l5.67-5.67M597.91,743.55l5.67-5.67M597.91,746.09l5.67-5.67M597.91,748.64l5.67-5.67M597.91,751.18l5.67-5.67M599.01,752.64l4.58-4.58M601.55,752.64l2.03-2.03M1178.47,636.47l.9-.9M1178.47,639.01l3.45-3.45M1178.47,641.56l5.67-5.67M1178.47,644.1l5.67-5.67M1178.47,646.65l5.67-5.67M1178.47,649.2l5.67-5.67M1178.47,651.74l5.67-5.67M1178.47,654.29l5.67-5.67M1178.47,656.83l5.67-5.67M1178.47,659.38l5.67-5.67M1178.47,661.92l5.67-5.67M1178.47,664.47l5.67-5.67M1178.47,667.01l5.67-5.67M1178.47,669.56l5.67-5.67M1178.47,672.11l5.67-5.67M1178.47,674.65l5.67-5.67M1178.47,677.2l5.67-5.67M1178.47,679.74l5.67-5.67M1178.47,682.29l5.67-5.67M1178.47,684.83l5.67-5.67M1178.47,687.38l5.67-5.67M1178.47,689.93l5.67-5.67M1178.47,692.47l5.67-5.67M1178.47,695.02l5.67-5.67M1178.47,697.56l5.67-5.67M1178.47,700.11l5.67-5.67M1178.47,702.65l5.67-5.67M1178.47,705.2l5.67-5.67M1178.47,707.74l5.67-5.67M1178.47,710.29l5.67-5.67M1178.47,712.84l5.67-5.67M1178.47,715.38l5.67-5.67M1178.47,717.93l5.67-5.67M1178.47,720.47l5.67-5.67M1178.47,723.02l5.67-5.67M1178.47,725.56l5.67-5.67M1178.47,728.11l5.67-5.67M1178.47,730.65l5.67-5.67M1178.47,733.2l5.67-5.67M1178.47,735.75l5.67-5.67M1178.47,738.29l5.67-5.67M1178.47,740.84l5.67-5.67M1178.47,743.38l5.67-5.67M1178.47,745.93l5.67-5.67M1178.47,748.47l5.67-5.67M1178.47,751.02l5.67-5.67M1178.47,753.56l5.67-5.67M1179.96,754.62l4.18-4.18M1182.51,754.62l1.64-1.64"/>
      </g>
      <g id="e" data-name="LINE">
        <line class="mi" x1="908.07" y1="388.95" x2="908.07" y2="323.29"/>
      </g>
      <g id="f" data-name="LWPOLYLINE">
        <polyline class="mi" points="827.54 314.02 1023.98 314.02 1023.98 388.95"/>
      </g>
      <g id="g" data-name="LINE">
        <line class="mi" x1="1023.98" y1="320.46" x2="827.54" y2="320.46"/>
      </g>
      <g id="h" data-name="LINE">
        <line class="mi" x1="827.54" y1="323.29" x2="1023.98" y2="323.29"/>
      </g>
      <g id="i" data-name="LWPOLYLINE">
        <polyline class="mi" points="1389.85 686.59 1582.57 686.59 1582.57 754.62"/>
      </g>
      <g id="j" data-name="LINE">
        <line class="mi" x1="1372.85" y1="754.62" x2="1372.85" y2="644.07"/>
      </g>
      <g id="k" data-name="LINE">
        <line class="mi" x1="1350.01" y1="644.07" x2="1350.01" y2="753.49"/>
      </g>
      <g id="l" data-name="LINE">
        <line class="mi" x1="1127.22" y1="557.61" x2="1127.22" y2="627.06"/>
      </g>
      <g id="m" data-name="LINE">
        <line class="mi" x1="1148.44" y1="739.46" x2="1148.44" y2="659.66"/>
      </g>
      <g id="n" data-name="LINE">
        <line class="mi" x1="1120.15" y1="739.46" x2="1120.15" y2="659.66"/>
      </g>
      <g id="o" data-name="LINE">
        <line class="mi" x1="1091.86" y1="739.46" x2="1091.86" y2="659.66"/>
      </g>
      <g id="p" data-name="LINE">
        <line class="mi" x1="1063.57" y1="739.46" x2="1063.57" y2="665.33"/>
      </g>
      <g id="q" data-name="LINE">
        <line class="mi" x1="1006.99" y1="739.46" x2="1006.99" y2="659.65"/>
      </g>
      <g id="r" data-name="LINE">
        <line class="mi" x1="854.19" y1="739.46" x2="854.19" y2="659.58"/>
      </g>
      <g id="s" data-name="LINE">
        <line class="mi" x1="828.59" y1="739.46" x2="828.59" y2="659.56"/>
      </g>
      <g id="t" data-name="LINE">
        <line class="mi" x1="801.69" y1="739.46" x2="801.69" y2="659.55"/>
      </g>
      <g id="u" data-name="LINE">
        <line class="mi" x1="775.4" y1="739.46" x2="775.4" y2="659.54"/>
      </g>
      <g id="v" data-name="LINE">
        <line class="mi" x1="750.47" y1="739.46" x2="750.47" y2="659.53"/>
      </g>
      <g id="w" data-name="LINE">
        <line class="mi" x1="727.45" y1="739.46" x2="727.45" y2="659.52"/>
      </g>
      <g id="x" data-name="LINE">
        <line class="mi" x1="706.93" y1="739.46" x2="706.93" y2="659.51"/>
      </g>
      <g id="y" data-name="LINE">
        <line class="mi" x1="689.4" y1="739.46" x2="689.4" y2="659.5"/>
      </g>
      <g id="z" data-name="LWPOLYLINE">
        <polyline class="mi" points="827.54 428.64 827.54 304.2 592.24 304.2 592.24 388.96"/>
      </g>
      <g id="aa" data-name="LINE">
        <line class="mi" x1="1176.31" y1="627.06" x2="1176.31" y2="557.61"/>
      </g>
      <g id="ab" data-name="LINE">
        <line class="mi" x1="1225.41" y1="627.06" x2="1225.41" y2="557.61"/>
      </g>
      <g id="ac" data-name="LINE">
        <line class="mi" x1="1274.51" y1="627.06" x2="1274.51" y2="557.61"/>
      </g>
      <g id="ad" data-name="LINE">
        <line class="mi" x1="827.54" y1="305.9" x2="592.24" y2="305.9"/>
      </g>
      <g id="ae" data-name="LINE">
        <line class="mi" x1="1061.83" y1="659.66" x2="1045.81" y2="659.66"/>
      </g>
      <g id="af" data-name="LINE">
        <line class="mi" x1="1034.47" y1="659.66" x2="824.71" y2="659.56"/>
      </g>
      <g id="ag" data-name="LINE">
        <line class="mi" x1="813.37" y1="659.56" x2="608" y2="659.46"/>
      </g>
      <g id="ah" data-name="LINE">
        <line class="mi" x1="1266.91" y1="437.14" x2="1266.91" y2="528.13"/>
      </g>
      <g id="ai" data-name="LINE">
        <line class="mi" x1="1201.02" y1="437.14" x2="1201.02" y2="528.13"/>
      </g>
      <g id="aj" data-name="LINE">
        <line class="mi" x1="1271.16" y1="437.14" x2="904.75" y2="437.14"/>
      </g>
      <g id="ak" data-name="LINE">
        <line class="mi" x1="905.31" y1="388.95" x2="1271.16" y2="388.95"/>
      </g>
      <g id="al" data-name="LINE">
        <line class="mi" x1="1271.16" y1="388.95" x2="1271.16" y2="437.14"/>
      </g>
      <g id="am" data-name="LINE">
        <line class="mi" x1="1199.6" y1="437.14" x2="1199.6" y2="388.95"/>
      </g>
      <g id="an" data-name="LINE">
        <line class="mi" x1="993.72" y1="437.14" x2="993.72" y2="450.49"/>
      </g>
      <g id="ao" data-name="LINE">
        <line class="mi" x1="993.72" y1="456.42" x2="993.72" y2="457.55"/>
      </g>
      <g id="ap" data-name="LINE">
        <line class="mi" x1="1028.89" y1="437.14" x2="1028.89" y2="452.55"/>
      </g>
      <g id="aq" data-name="LINE">
        <line class="mi" x1="1028.89" y1="456.42" x2="1028.89" y2="457.55"/>
      </g>
      <g id="ar" data-name="LINE">
        <line class="mi" x1="1069.23" y1="437.14" x2="1069.23" y2="446.84"/>
      </g>
      <g id="as" data-name="LINE">
        <line class="mi" x1="1069.23" y1="456.42" x2="1069.23" y2="457.55"/>
      </g>
      <g id="at" data-name="LINE">
        <line class="mi" x1="1066.39" y1="437.14" x2="1066.4" y2="388.94"/>
      </g>
      <g id="au" data-name="LINE">
        <line class="mi" x1="1027.48" y1="437.14" x2="1027.48" y2="388.94"/>
      </g>
      <g id="av" data-name="LINE">
        <line class="mi" x1="995.14" y1="437.14" x2="995.14" y2="388.94"/>
      </g>
      <g id="aw" data-name="LINE">
        <line class="mi" x1="797.76" y1="458.4" x2="601.48" y2="458.4"/>
      </g>
      <g id="ax" data-name="LWPOLYLINE">
        <polyline class="mi" points="1065.97 528.13 1065.97 476.8 1038.97 476.8 1039.02 528.14"/>
      </g>
      <g id="ay" data-name="LWPOLYLINE">
        <polyline class="mi" points="1065.12 528.13 1065.12 477.65 1039.82 477.65 1039.87 528.13"/>
      </g>
      <g id="az" data-name="LWPOLYLINE">
        <polyline class="mi" points="1072.37 528.13 1072.37 476.8 1109.71 476.8 1109.71 528.13"/>
      </g>
      <g id="ba" data-name="LWPOLYLINE">
        <polyline class="mi" points="1073.22 528.13 1073.22 477.65 1108.86 477.65 1108.86 528.13"/>
      </g>
      <g id="bb" data-name="LWPOLYLINE">
        <polyline class="mi" points="1091.5 627.06 1091.5 567.54 1063.44 567.54 1063.44 627.06"/>
      </g>
      <g id="bc" data-name="LINE">
        <line class="mi" x1="978.64" y1="739.46" x2="978.68" y2="659.64"/>
      </g>
      <g id="bd" data-name="LINE">
        <line class="mi" x1="880.55" y1="739.46" x2="880.55" y2="659.59"/>
      </g>
      <g id="be" data-name="LINE">
        <line class="mi" x1="880.55" y1="664.62" x2="978.68" y2="664.62"/>
      </g>
      <g id="bf" data-name="LINE">
        <line class="mi" x1="978.65" y1="721.6" x2="880.55" y2="721.6"/>
      </g>
      <g id="bg" data-name="LWPOLYLINE">
        <polyline class="mi" points="1047.23 567.54 1062.87 567.54 1062.87 627.06"/>
      </g>
      <g id="bh" data-name="LWPOLYLINE">
        <polyline class="mi" points="1124.38 567.54 1092.07 567.54 1092.07 627.06"/>
      </g>
      <g id="bi" data-name="LWPOLYLINE">
        <line class="mi" x1="1052.47" y1="528.13" x2="1052.47" y2="477.65"/>
      </g>
      <g id="bj" data-name="LWPOLYLINE">
        <rect class="mi" x="1041.57" y="479.35" width="9.2" height="47.08"/>
      </g>
      <g id="bk" data-name="LWPOLYLINE">
        <rect class="mi" x="1054.17" y="479.35" width="9.2" height="47.08"/>
      </g>
      <g id="bl" data-name="LWPOLYLINE">
        <line class="mi" x1="1091.04" y1="528.13" x2="1091.04" y2="477.65"/>
      </g>
      <g id="bm" data-name="LWPOLYLINE">
        <rect class="mi" x="1074.92" y="479.35" width="14.42" height="47.08"/>
      </g>
      <g id="bn" data-name="LWPOLYLINE">
        <rect class="mi" x="1092.74" y="479.35" width="14.42" height="47.08"/>
      </g>
      <g id="bo" data-name="LINE">
        <line class="mi" x1="905.31" y1="390.69" x2="1271.16" y2="390.69"/>
      </g>
      <g id="bp" data-name="LINE">
        <line class="mi" x1="1028.89" y1="458.97" x2="1028.89" y2="528.13"/>
      </g>
      <g id="bq" data-name="LINE">
        <line class="mi" x1="993.72" y1="458.97" x2="993.72" y2="528.13"/>
      </g>
      <g id="br" data-name="LINE">
        <line class="mi" x1="1069.23" y1="458.97" x2="1069.23" y2="526.72"/>
      </g>
      <g id="bs" data-name="LINE">
        <line class="mi" x1="1321.62" y1="488.47" x2="1266.91" y2="488.47"/>
      </g>
      <g id="bt" data-name="LINE">
        <line class="mi" x1="1321.62" y1="490.15" x2="1266.91" y2="490.15"/>
      </g>
      <g id="bu" data-name="LWPOLYLINE">
        <g>
          <line class="mi" x1="1052.47" y1="477.65" x2="1052.02" y2="478.54"/>
          <line class="mh" x1="1051.56" y1="479.48" x2="1040.53" y2="501.53"/>
          <polyline class="mi" points="1040.29 502 1039.85 502.89 1040.29 503.79"/>
          <line class="mx" x1="1040.76" y1="504.72" x2="1051.79" y2="526.77"/>
          <line class="mi" x1="1052.02" y1="527.24" x2="1052.47" y2="528.13"/>
        </g>
      </g>
      <g id="bv" data-name="LWPOLYLINE">
        <g>
          <line class="mi" x1="1052.47" y1="477.65" x2="1052.92" y2="478.54"/>
          <line class="mz" x1="1053.39" y1="479.48" x2="1064.44" y2="501.53"/>
          <polyline class="mi" points="1064.67 502 1065.12 502.89 1064.67 503.79"/>
          <line class="mz" x1="1064.2" y1="504.72" x2="1053.16" y2="526.77"/>
          <line class="mi" x1="1052.92" y1="527.24" x2="1052.47" y2="528.13"/>
        </g>
      </g>
      <g id="bw" data-name="LWPOLYLINE">
        <g>
          <line class="mi" x1="1091.04" y1="477.65" x2="1090.46" y2="478.47"/>
          <line class="mq" x1="1089.87" y1="479.31" x2="1074.09" y2="501.65"/>
          <polyline class="mi" points="1073.8 502.07 1073.22 502.89 1073.8 503.71"/>
          <line class="mq" x1="1074.39" y1="504.55" x2="1090.17" y2="526.9"/>
          <line class="mi" x1="1090.46" y1="527.32" x2="1091.04" y2="528.13"/>
        </g>
      </g>
      <g id="bx" data-name="LWPOLYLINE">
        <g>
          <line class="mi" x1="1091.04" y1="528.13" x2="1091.62" y2="527.32"/>
          <line class="mq" x1="1092.21" y1="526.47" x2="1107.99" y2="504.13"/>
          <polyline class="mi" points="1108.29 503.71 1108.86 502.89 1108.29 502.07"/>
          <line class="mq" x1="1107.69" y1="501.23" x2="1091.92" y2="478.89"/>
          <line class="mi" x1="1091.62" y1="478.47" x2="1091.04" y2="477.65"/>
        </g>
      </g>
      <g id="by" data-name="LWPOLYLINE">
        <g>
          <line class="mi" x1="1091.5" y1="567.54" x2="1090.81" y2="568.26"/>
          <line class="ms" x1="1090.15" y1="568.97" x2="1064.46" y2="596.22"/>
          <polyline class="mi" points="1064.12 596.57 1063.44 597.3 1064.12 598.03"/>
          <line class="ms" x1="1064.79" y1="598.73" x2="1090.48" y2="625.98"/>
          <line class="mi" x1="1090.81" y1="626.34" x2="1091.5" y2="627.06"/>
        </g>
      </g>
      <g id="bz" data-name="LINE">
        <line class="mv" x1="1203.34" y1="750.37" x2="1203.34" y2="659.66"/>
      </g>
      <g id="ca" data-name="LINE">
        <line class="mv" x1="710.73" y1="627.06" x2="710.73" y2="557.61"/>
      </g>
      <g id="cb" data-name="LINE">
        <line class="mv" x1="1560.65" y1="754.62" x2="1560.65" y2="686.59"/>
      </g>
      <g id="cc" data-name="LINE">
        <line class="mv" x1="1568.16" y1="686.59" x2="1568.16" y2="754.62"/>
      </g>
      <g id="cd" data-name="LWPOLYLINE">
        <polyline class="mv" points="1389.85 754.62 1389.85 644.07 1368.53 644.07"/>
      </g>
      <g id="ce" data-name="LINE">
        <line class="mv" x1="626.14" y1="739.46" x2="669.79" y2="739.46"/>
      </g>
      <g id="cf" data-name="LINE">
        <line class="mv" x1="675.29" y1="739.46" x2="813.37" y2="739.46"/>
      </g>
      <g id="cg" data-name="LINE">
        <line class="mv" x1="824.71" y1="739.46" x2="1034.47" y2="739.46"/>
      </g>
      <g id="ch" data-name="LINE">
        <line class="mv" x1="1045.81" y1="739.46" x2="1176.49" y2="739.46"/>
      </g>
      <g id="ci" data-name="LINE">
        <line class="mv" x1="675.29" y1="744.92" x2="675.29" y2="659.49"/>
      </g>
      <g id="cj" data-name="LINE">
        <line class="mv" x1="669.79" y1="744.91" x2="669.83" y2="659.49"/>
      </g>
      <g id="ck" data-name="LWPOLYLINE">
        <polyline class="mv" points="626.14 744.89 745.34 744.95 745.34 750.37"/>
      </g>
      <g id="cl" data-name="LINE">
        <line class="mv" x1="1124.38" y1="557.61" x2="1124.38" y2="627.06"/>
      </g>
      <g id="cm" data-name="LINE">
        <line class="mv" x1="1034.47" y1="557.61" x2="1034.47" y2="627.06"/>
      </g>
      <g id="cn" data-name="LINE">
        <line class="mv" x1="592.24" y1="754.62" x2="592.24" y2="649.74"/>
      </g>
      <g id="co" data-name="LINE">
        <line class="mv" x1="592.24" y1="631.32" x2="592.24" y2="550.53"/>
      </g>
      <g id="cp" data-name="LINE">
        <line class="mv" x1="929.09" y1="456.42" x2="929.09" y2="528.13"/>
      </g>
      <g id="cq" data-name="LINE">
        <line class="mv" x1="927.68" y1="528.13" x2="927.68" y2="456.42"/>
      </g>
      <g id="cr" data-name="LINE">
        <line class="mv" x1="1037.66" y1="456.42" x2="1037.66" y2="528.13"/>
      </g>
      <g id="cs" data-name="LINE">
        <line class="mv" x1="1036.24" y1="528.13" x2="1036.24" y2="456.42"/>
      </g>
      <g id="ct" data-name="LINE">
        <line class="mv" x1="1146.23" y1="456.42" x2="1146.23" y2="528.13"/>
      </g>
      <g id="cu" data-name="LINE">
        <line class="mv" x1="1144.81" y1="528.13" x2="1144.81" y2="456.42"/>
      </g>
      <g id="cv" data-name="LWPOLYLINE">
        <polyline class="mv" points="936.96 627.06 936.96 567.54 911.45 567.54 911.45 627.06"/>
      </g>
      <g id="cw" data-name="LWPOLYLINE">
        <polyline class="mv" points="936.11 627.06 936.11 568.39 912.3 568.39 912.3 627.06"/>
      </g>
      <g id="cx" data-name="LWPOLYLINE">
        <polyline class="mv" points="897.27 627.06 897.27 567.54 871.76 567.54 871.76 627.06"/>
      </g>
      <g id="cy" data-name="LWPOLYLINE">
        <polyline class="mv" points="896.42 627.06 896.42 568.39 872.61 568.39 872.61 627.06"/>
      </g>
      <g id="cz" data-name="LWPOLYLINE">
        <polyline class="mv" points="755.5 627.06 755.5 567.54 737.46 567.54 737.46 627.06"/>
      </g>
      <g id="da" data-name="LWPOLYLINE">
        <polyline class="mv" points="754.65 627.06 754.65 568.39 738.31 568.39 738.31 627.06"/>
      </g>
      <g id="db" data-name="LWPOLYLINE">
        <polyline class="mv" points="809.83 527.85 809.83 468.32 765.89 468.32 765.89 527.85"/>
      </g>
      <g id="dc" data-name="LWPOLYLINE">
        <polyline class="mv" points="808.98 527.85 808.98 469.17 766.74 469.17 766.74 527.85"/>
      </g>
      <g id="dd" data-name="LWPOLYLINE">
        <line class="mv" x1="787.86" y1="527.85" x2="787.86" y2="469.17"/>
      </g>
      <g id="de" data-name="LWPOLYLINE">
        <rect class="mv" x="768.44" y="470.87" width="17.72" height="55.28"/>
      </g>
      <g id="df" data-name="LWPOLYLINE">
        <rect class="mv" x="789.56" y="470.87" width="17.72" height="55.28"/>
      </g>
      <g id="dg" data-name="LINE">
        <line class="mv" x1="1323.6" y1="645.35" x2="1323.6" y2="751.36"/>
      </g>
      <g id="dh" data-name="LWPOLYLINE">
        <polyline class="mv" points="928.1 456.42 913.16 456.42 913.16 450.49 928.1 450.49 928.1 456.42"/>
      </g>
      <g id="di" data-name="LWPOLYLINE">
        <rect class="mv" x="928.67" y="450.49" width="14.94" height="5.92"/>
      </g>
      <g id="dj" data-name="LWPOLYLINE">
        <rect class="mv" x="944.18" y="450.49" width="14.94" height="5.92"/>
      </g>
      <g id="dk" data-name="LWPOLYLINE">
        <rect class="mv" x="959.69" y="450.49" width="14.94" height="5.92"/>
      </g>
      <g id="dl" data-name="LWPOLYLINE">
        <polyline class="mv" points="990.14 450.49 990.14 456.42 975.2 456.42 975.2 450.49 990.14 450.49"/>
      </g>
      <g id="dm" data-name="LWPOLYLINE">
        <polyline class="mv" points="1021.16 456.42 1006.22 456.42 1006.22 451.22 1021.16 452.1 1021.16 456.42"/>
      </g>
      <g id="dn" data-name="LWPOLYLINE">
        <polyline class="mv" points="990.71 450.49 993.72 450.49 1005.65 451.19 1005.65 456.42 990.71 456.42 990.71 450.49"/>
      </g>
      <g id="do" data-name="LWPOLYLINE">
        <polyline class="mv" points="1036.67 456.42 1021.73 456.42 1021.73 452.13 1028.89 452.55 1036.67 451.45 1036.67 456.42"/>
      </g>
      <g id="dp" data-name="LWPOLYLINE">
        <polyline class="mv" points="1037.24 456.42 1037.24 451.37 1052.18 449.25 1052.18 456.42 1037.24 456.42"/>
      </g>
      <g id="dq" data-name="LWPOLYLINE">
        <polyline class="mv" points="1052.75 456.42 1052.75 449.17 1067.69 447.06 1067.69 456.42 1052.75 456.42"/>
      </g>
      <g id="dr" data-name="LWPOLYLINE">
        <polyline class="mv" points="1068.25 456.42 1068.25 446.98 1069.22 446.84 1083.2 447.7 1083.2 456.42 1068.25 456.42"/>
      </g>
      <g id="ds" data-name="LWPOLYLINE">
        <polyline class="mv" points="1098.71 456.42 1083.76 456.42 1083.76 447.73 1098.71 448.65 1098.71 456.42"/>
      </g>
      <g id="dt" data-name="LWPOLYLINE">
        <polyline class="mv" points="1099.27 456.42 1099.27 448.68 1114.22 449.6 1114.22 456.42 1099.27 456.42"/>
      </g>
      <g id="du" data-name="LWPOLYLINE">
        <polyline class="mv" points="1130.29 456.42 1130.29 450.58 1145.24 451.5 1145.24 456.42"/>
      </g>
      <g id="dv" data-name="LWPOLYLINE">
        <polyline class="mv" points="1129.73 456.42 1114.78 456.42 1114.78 449.63 1129.73 450.55 1129.73 456.42"/>
      </g>
      <g id="dw" data-name="LWPOLYLINE">
        <polyline class="mv" points="1145.8 456.42 1145.8 451.53 1160.74 452.45 1160.75 456.42 1145.8 456.42"/>
      </g>
      <g id="dx" data-name="LWPOLYLINE">
        <line class="mv" x1="1145.24" y1="456.42" x2="1130.29" y2="456.42"/>
      </g>
      <g id="dy" data-name="LWPOLYLINE">
        <line class="mv" x1="870.77" y1="527.85" x2="870.77" y2="458.4"/>
      </g>
      <g id="dz" data-name="LINE">
        <line class="mv" x1="877.86" y1="458.4" x2="877.86" y2="528.42"/>
      </g>
      <g id="ea" data-name="LWPOLYLINE">
        <rect class="mj" x="928.1" y="456.42" width=".57" height="1.13"/>
      </g>
      <g id="eb" data-name="LWPOLYLINE">
        <rect class="mj" x="912.59" y="456.42" width=".57" height="1.13"/>
      </g>
      <g id="ec" data-name="LWPOLYLINE">
        <rect class="mj" x="943.61" y="456.42" width=".57" height="1.13"/>
      </g>
      <g id="ed" data-name="LWPOLYLINE">
        <rect class="mj" x="959.12" y="456.42" width=".57" height="1.13"/>
      </g>
      <g id="ee" data-name="LWPOLYLINE">
        <rect class="mj" x="974.63" y="456.42" width=".57" height="1.13"/>
      </g>
      <g id="ef" data-name="LWPOLYLINE">
        <rect class="mj" x="990.14" y="456.42" width=".57" height="1.13"/>
      </g>
      <g id="eg" data-name="LWPOLYLINE">
        <rect class="mj" x="1005.65" y="456.42" width=".57" height="1.13"/>
      </g>
      <g id="eh" data-name="LWPOLYLINE">
        <rect class="mj" x="1021.16" y="456.42" width=".57" height="1.13"/>
      </g>
      <g id="ei" data-name="LWPOLYLINE">
        <rect class="mj" x="1036.67" y="456.42" width=".57" height="1.13"/>
      </g>
      <g id="ej" data-name="LWPOLYLINE">
        <rect class="mj" x="1052.18" y="456.42" width=".57" height="1.13"/>
      </g>
      <g id="ek" data-name="LWPOLYLINE">
        <rect class="mj" x="1067.69" y="456.42" width=".57" height="1.13"/>
      </g>
      <g id="el" data-name="LWPOLYLINE">
        <rect class="mj" x="1083.2" y="456.42" width=".57" height="1.13"/>
      </g>
      <g id="em" data-name="LWPOLYLINE">
        <rect class="mj" x="1098.71" y="456.42" width=".57" height="1.13"/>
      </g>
      <g id="en" data-name="LWPOLYLINE">
        <rect class="mj" x="1114.22" y="456.42" width=".57" height="1.13"/>
      </g>
      <g id="eo" data-name="LWPOLYLINE">
        <rect class="mj" x="1129.73" y="456.42" width=".57" height="1.13"/>
      </g>
      <g id="ep" data-name="LWPOLYLINE">
        <rect class="mj" x="1145.24" y="456.42" width=".57" height="1.13"/>
      </g>
      <g id="eq" data-name="LWPOLYLINE">
        <rect class="mj" x="1160.75" y="456.42" width=".57" height="1.13"/>
      </g>
      <g id="er" data-name="LWPOLYLINE">
        <line class="mj" x1="929.09" y1="457.55" x2="1036.24" y2="457.55"/>
      </g>
      <g id="es" data-name="LINE">
        <line class="mj" x1="927.68" y1="458.97" x2="912.88" y2="458.97"/>
      </g>
      <g id="et" data-name="LINE">
        <line class="mj" x1="912.88" y1="457.55" x2="927.68" y2="457.55"/>
      </g>
      <g id="eu" data-name="LWPOLYLINE">
        <line class="mj" x1="1036.24" y1="458.97" x2="929.09" y2="458.97"/>
      </g>
      <g id="ev" data-name="LWPOLYLINE">
        <line class="mj" x1="1037.66" y1="457.55" x2="1144.81" y2="457.55"/>
      </g>
      <g id="ew" data-name="LWPOLYLINE">
        <polyline class="mj" points="1146.23 457.55 1161.03 457.55 1161.03 458.97 1146.23 458.97"/>
      </g>
      <g id="ex" data-name="LWPOLYLINE">
        <line class="mj" x1="1144.81" y1="458.97" x2="1037.66" y2="458.97"/>
      </g>
      <g id="ey" data-name="LWPOLYLINE">
        <g>
          <line class="mv" x1="936.11" y1="568.39" x2="935.49" y2="569.17"/>
          <line class="mm" x1="934.9" y1="569.93" x2="913.78" y2="596.84"/>
          <polyline class="mv" points="913.48 597.22 912.87 598.01 913.49 598.79"/>
          <line class="mp" x1="914.14" y1="599.6" x2="935.16" y2="625.88"/>
          <line class="mv" x1="935.48" y1="626.28" x2="936.11" y2="627.06"/>
        </g>
      </g>
      <g id="ez" data-name="LWPOLYLINE">
        <g>
          <line class="mv" x1="872.61" y1="568.39" x2="873.23" y2="569.17"/>
          <line class="mm" x1="873.83" y1="569.93" x2="894.94" y2="596.84"/>
          <polyline class="mv" points="895.24 597.22 895.86 598.01 895.23 598.79"/>
          <line class="mp" x1="894.59" y1="599.6" x2="873.56" y2="625.88"/>
          <line class="mv" x1="873.24" y1="626.28" x2="872.61" y2="627.06"/>
        </g>
      </g>
      <g id="fa" data-name="LWPOLYLINE">
        <g>
          <line class="mv" x1="754.65" y1="568.39" x2="754.18" y2="569.27"/>
          <line class="mu" x1="753.7" y1="570.17" x2="739.59" y2="596.68"/>
          <polyline class="mv" points="739.35 597.13 738.88 598.01 739.36 598.89"/>
          <line class="mn" x1="739.83" y1="599.77" x2="753.94" y2="625.74"/>
          <line class="mv" x1="754.17" y1="626.18" x2="754.65" y2="627.06"/>
        </g>
      </g>
      <g id="fb" data-name="LWPOLYLINE">
        <g>
          <line class="mv" x1="787.86" y1="469.17" x2="787.27" y2="469.99"/>
          <line class="mt" x1="786.69" y1="470.8" x2="767.62" y2="497.29"/>
          <polyline class="mv" points="767.32 497.7 766.74 498.51 767.32 499.32"/>
          <line class="mt" x1="767.91" y1="500.14" x2="786.98" y2="526.63"/>
          <line class="mv" x1="787.27" y1="527.04" x2="787.86" y2="527.85"/>
        </g>
      </g>
      <g id="fc" data-name="LWPOLYLINE">
        <g>
          <line class="mv" x1="787.86" y1="527.85" x2="788.44" y2="527.04"/>
          <line class="mt" x1="789.03" y1="526.22" x2="808.1" y2="499.73"/>
          <polyline class="mv" points="808.39 499.32 808.98 498.51 808.39 497.7"/>
          <line class="mt" x1="807.8" y1="496.89" x2="788.74" y2="470.39"/>
          <line class="mv" x1="788.44" y1="469.99" x2="787.86" y2="469.17"/>
        </g>
      </g>
      <g id="fd" data-name="LINE">
        <line class="mg" x1="824.71" y1="549.11" x2="824.71" y2="627.06"/>
      </g>
      <g id="fe" data-name="LINE">
        <line class="mg" x1="824.71" y1="648.32" x2="824.71" y2="750.37"/>
      </g>
      <g id="ff" data-name="LINE">
        <line class="mg" x1="813.37" y1="549.11" x2="813.37" y2="627.06"/>
      </g>
      <g id="fg" data-name="LINE">
        <line class="mg" x1="813.37" y1="648.32" x2="813.37" y2="750.37"/>
      </g>
      <g id="fh" data-name="LINE">
        <line class="mg" x1="1034.47" y1="648.32" x2="1034.47" y2="750.37"/>
      </g>
      <g id="fi" data-name="LINE">
        <line class="mg" x1="1045.81" y1="648.32" x2="1045.81" y2="750.37"/>
      </g>
      <g id="fj" data-name="LINE">
        <line class="mg" x1="1244.94" y1="648.32" x2="1244.94" y2="750.37"/>
      </g>
      <g id="fk" data-name="LINE">
        <line class="mg" x1="1268.76" y1="642.65" x2="1268.76" y2="723.16"/>
      </g>
      <g id="fl" data-name="LINE">
        <line class="mg" x1="824.71" y1="648.32" x2="923.92" y2="648.32"/>
      </g>
      <g id="fm" data-name="LINE">
        <line class="mg" x1="935.26" y1="648.32" x2="1034.47" y2="648.32"/>
      </g>
      <g id="fn" data-name="LINE">
        <line class="mg" x1="608" y1="648.32" x2="704.24" y2="648.32"/>
      </g>
      <g id="fo" data-name="LINE">
        <line class="mg" x1="715.57" y1="648.32" x2="813.37" y2="648.32"/>
      </g>
      <g id="fp" data-name="LINE">
        <line class="mg" x1="1045.81" y1="648.32" x2="1145.02" y2="648.32"/>
      </g>
      <g id="fq" data-name="LINE">
        <line class="mg" x1="824.71" y1="549.11" x2="904.5" y2="549.11"/>
      </g>
      <g id="fr" data-name="LINE">
        <line class="mg" x1="907.34" y1="549.11" x2="923.92" y2="549.11"/>
      </g>
      <g id="fs" data-name="LINE">
        <line class="mg" x1="935.26" y1="549.11" x2="1034.47" y2="549.11"/>
      </g>
      <g id="ft" data-name="LINE">
        <line class="mg" x1="608" y1="549.11" x2="704.24" y2="549.11"/>
      </g>
      <g id="fu" data-name="LINE">
        <line class="mg" x1="715.57" y1="549.11" x2="759.51" y2="549.11"/>
      </g>
      <g id="fv" data-name="LINE">
        <line class="mg" x1="762.35" y1="549.11" x2="813.37" y2="549.11"/>
      </g>
      <g id="fw" data-name="LINE">
        <line class="mg" x1="1047.23" y1="549.11" x2="1145.02" y2="549.11"/>
      </g>
      <g id="fx" data-name="LINE">
        <line class="mg" x1="1156.36" y1="648.32" x2="1178.47" y2="648.32"/>
      </g>
      <g id="fy" data-name="LINE">
        <line class="mg" x1="1184.14" y1="648.32" x2="1255.57" y2="648.32"/>
      </g>
      <g id="fz" data-name="LINE">
        <line class="mg" x1="1156.36" y1="549.11" x2="1255.57" y2="549.11"/>
      </g>
      <g id="ga" data-name="LINE">
        <line class="mg" x1="824" y1="447.06" x2="824" y2="527.85"/>
      </g>
      <g id="gb" data-name="LINE">
        <line class="mg" x1="818.33" y1="447.06" x2="818.33" y2="527.85"/>
      </g>
      <g id="gc" data-name="LINE">
        <line class="mg" x1="601.48" y1="446.72" x2="601.48" y2="527.85"/>
      </g>
      <g id="gd" data-name="LINE">
        <line class="mg" x1="601.48" y1="446.72" x2="707.07" y2="446.72"/>
      </g>
      <g id="ge" data-name="LINE">
        <line class="mg" x1="712.74" y1="446.72" x2="818.33" y2="446.72"/>
      </g>
      <g id="gf" data-name="LINE">
        <line class="mg" x1="824" y1="446.72" x2="870.77" y2="446.72"/>
      </g>
      <g id="gg" data-name="LINE">
        <line class="mg" x1="1274.42" y1="543.1" x2="1322.9" y2="543.1"/>
      </g>
      <g id="gh" data-name="LINE">
        <line class="mg" x1="877.86" y1="446.72" x2="904.75" y2="446.72"/>
      </g>
      <g id="gi" data-name="LINE">
        <line class="mg" x1="1274.42" y1="642.31" x2="1322.9" y2="642.31"/>
      </g>
      <g id="gj" data-name="LINE">
        <line class="mg" x1="1034.47" y1="549.11" x2="1034.47" y2="557.61"/>
      </g>
      <g id="gk" data-name="LINE">
        <line class="mg" x1="712.74" y1="447.06" x2="712.74" y2="452.73"/>
      </g>
      <g id="gl" data-name="LINE">
        <line class="mg" x1="707.07" y1="447.06" x2="707.07" y2="452.73"/>
      </g>
      <g id="gm" data-name="LINE">
        <line class="mg" x1="877.86" y1="441.05" x2="904.75" y2="441.05"/>
      </g>
      <g id="gn" data-name="LWPOLYLINE">
        <polyline class="mg" points="1270.17 750.37 1270.17 723.44 1269.89 723.16 1251.18 723.16 1250.9 723.44 1250.9 750.37"/>
      </g>
      <g id="go" data-name="LWPOLYLINE">
        <polyline class="mg" points="604.5 703.47 605 702.97 604.5 702.47 605 701.97 604.5 701.47 605 700.97 604.5 700.46 605 699.96 604.5 699.46 605 698.96 604.5 698.46 605 697.96 604.5 697.46 605 696.96 604.5 696.46 605 695.95 604.5 695.45 605 694.95 604.5 694.45 605 693.95 604.5 693.45 605 692.95 604.5 692.45 605 691.95 604.5 691.44 605 690.94 604.5 690.44 605 689.94 604.5 689.44 605 688.94 604.5 688.44 605 687.94 604.5 687.44 605 686.93 604.5 686.43 605 685.93 604.5 685.43 605 684.93 604.5 684.43 605 683.93 604.5 683.43 605 682.93 604.5 682.42 605 681.92 604.5 681.42 605 680.92"/>
      </g>
      <g id="gp" data-name="CIRCLE">
        <circle class="mg" cx="878.62" cy="649.45" r=".49"/>
      </g>
      <g id="gq" data-name="LWPOLYLINE">
        <rect class="mg" x="853.31" y="650.45" width="25.14" height="1.13"/>
      </g>
      <g id="gr" data-name="CIRCLE">
        <circle class="mg" cx="929.59" cy="649.45" r=".49"/>
      </g>
      <g id="gs" data-name="CIRCLE">
        <circle class="mg" cx="980.56" cy="649.45" r=".49"/>
      </g>
      <g id="gt" data-name="LWPOLYLINE">
        <polyline class="mg" points="604.5 588.38 605 587.88 604.5 587.38 605 586.88 604.5 586.38 605 585.88 604.5 585.38 605 584.88 604.5 584.38 605 583.87 604.5 583.37 605 582.87 604.5 582.37 605 581.87 604.5 581.37 605 580.87 604.5 580.37 605 579.87 604.5 579.36 605 578.86 604.5 578.36 605 577.86 604.5 577.36 605 576.86 604.5 576.36 605 575.86 604.5 575.36 605 574.85 604.5 574.35 605 573.85 604.5 573.35 605 572.85 604.5 572.35 605 571.85 604.5 571.35 605 570.85 604.5 570.34 605 569.84 604.5 569.34 605 568.84 604.5 568.34 605 567.84 604.5 567.34 605 566.84 604.5 566.34 605 565.83"/>
      </g>
      <g id="gu" data-name="LWPOLYLINE">
        <polyline class="mg" points="626.14 750.37 626.14 739.46 608 739.46"/>
      </g>
      <g id="gv" data-name="LWPOLYLINE">
        <rect class="mg" x="878.79" y="650.45" width="25.14" height="1.13"/>
      </g>
      <g id="gw" data-name="LWPOLYLINE">
        <rect class="mg" x="904.28" y="650.45" width="25.14" height="1.13"/>
      </g>
      <g id="gx" data-name="LWPOLYLINE">
        <rect class="mg" x="929.76" y="650.45" width="25.14" height="1.13"/>
      </g>
      <g id="gy" data-name="LWPOLYLINE">
        <rect class="mg" x="955.24" y="650.45" width="25.14" height="1.13"/>
      </g>
      <g id="gz" data-name="LWPOLYLINE">
        <rect class="mg" x="980.73" y="650.45" width="25.14" height="1.13"/>
      </g>
      <g id="ha" data-name="CIRCLE">
        <circle class="mg" cx="658.94" cy="649.45" r=".49"/>
      </g>
      <g id="hb" data-name="LWPOLYLINE">
        <rect class="mg" x="633.62" y="650.45" width="25.14" height="1.13"/>
      </g>
      <g id="hc" data-name="CIRCLE">
        <circle class="mg" cx="709.9" cy="649.45" r=".49"/>
      </g>
      <g id="hd" data-name="CIRCLE">
        <circle class="mg" cx="760.87" cy="649.45" r=".49"/>
      </g>
      <g id="he" data-name="LWPOLYLINE">
        <rect class="mg" x="659.11" y="650.45" width="25.14" height="1.13"/>
      </g>
      <g id="hf" data-name="LWPOLYLINE">
        <rect class="mg" x="684.59" y="650.45" width="25.14" height="1.13"/>
      </g>
      <g id="hg" data-name="LWPOLYLINE">
        <rect class="mg" x="710.07" y="650.45" width="25.14" height="1.13"/>
      </g>
      <g id="hh" data-name="LWPOLYLINE">
        <rect class="mg" x="735.56" y="650.45" width="25.14" height="1.13"/>
      </g>
      <g id="hi" data-name="LWPOLYLINE">
        <rect class="mg" x="761.04" y="650.45" width="25.14" height="1.13"/>
      </g>
      <g id="hj" data-name="LINE">
        <line class="mi" x1="599.33" y1="587.09" x2="599.33" y2="567.25"/>
      </g>
      <g id="hk" data-name="LINE">
        <line class="mi" x1="873.61" y1="526.72" x2="873.61" y2="459.82"/>
      </g>
      <g id="hl" data-name="LINE">
        <line class="mi" x1="599.33" y1="702.18" x2="599.33" y2="682.34"/>
      </g>
      <g id="hm" data-name="LINE">
        <line class="mw" x1="600.75" y1="567.25" x2="600.75" y2="587.09"/>
      </g>
      <g id="hn" data-name="LINE">
        <line class="mw" x1="597.91" y1="567.25" x2="597.91" y2="587.09"/>
      </g>
      <g id="ho" data-name="LINE">
        <line class="mw" x1="872.19" y1="459.82" x2="872.19" y2="526.72"/>
      </g>
      <g id="hp" data-name="LINE">
        <line class="mw" x1="875.02" y1="459.82" x2="875.02" y2="526.72"/>
      </g>
      <g id="hq" data-name="LINE">
        <line class="mw" x1="600.75" y1="682.34" x2="600.75" y2="702.18"/>
      </g>
      <g id="hr" data-name="LINE">
        <line class="mw" x1="597.91" y1="682.34" x2="597.91" y2="702.18"/>
      </g>
      <g id="hs" data-name="LWPOLYLINE">
        <polyline class="mg" points="1364.14 754.62 1364.14 753.49 1331.26 753.49"/>
      </g>
      <g id="ht" data-name="LINE">
        <line class="mg" x1="877.86" y1="528.13" x2="1322.19" y2="528.13"/>
      </g>
      <g id="hu" data-name="LWPOLYLINE">
        <polyline class="mg" points="1332.11 627.35 1332.11 489.58 1329.27 489.58"/>
      </g>
      <g id="hv" data-name="LWPOLYLINE">
        <polyline class="mg" points="877.86 458.97 912.88 458.97 912.88 457.55 904.75 457.55 904.75 437.14"/>
      </g>
      <g id="hw" data-name="LWPOLYLINE">
        <polyline class="mg" points="591.7 390.69 591.7 388.95 602.76 389.01 602.76 390.69"/>
      </g>
      <g id="hx" data-name="LWPOLYLINE">
        <polyline class="mg" points="905.31 390.69 905.31 388.95 894.26 389.01 894.26 390.69"/>
      </g>
      <g id="hy" data-name="LWPOLYLINE">
        <rect class="mg" x="1176.49" y="720.42" width=".57" height="29.67"/>
      </g>
      <g id="hz" data-name="LWPOLYLINE">
        <rect class="mg" x="1176.49" y="690.18" width=".57" height="29.67"/>
      </g>
      <g id="ia" data-name="LWPOLYLINE">
        <rect class="mg" x="1176.49" y="659.95" width=".57" height="29.67"/>
      </g>
      <g id="ib" data-name="LWPOLYLINE">
        <rect class="mg" x="1185.56" y="720.42" width=".57" height="29.67"/>
      </g>
      <g id="ic" data-name="LWPOLYLINE">
        <rect class="mg" x="1185.56" y="690.18" width=".57" height="29.67"/>
      </g>
      <g id="id" data-name="LWPOLYLINE">
        <rect class="mg" x="1185.56" y="659.95" width=".57" height="29.67"/>
      </g>
      <g id="ie" data-name="LWPOLYLINE">
        <polyline class="mg" points="1332.68 490.15 1332.68 488.42 1321.62 488.47 1321.62 490.15"/>
      </g>
      <g id="if" data-name="LINE">
        <line class="mg" x1="894.82" y1="428.64" x2="602.19" y2="428.64"/>
      </g>
      <g id="ig" data-name="LINE">
        <line class="mg" x1="894.82" y1="428.92" x2="602.19" y2="428.92"/>
      </g>
      <g id="ih" data-name="LWPOLYLINE">
        <polyline class="mg" points="595.08 752.64 595.08 703.6 597.91 703.6"/>
      </g>
      <g id="ii" data-name="LINE">
        <line class="mg" x1="608" y1="750.37" x2="1178.47" y2="750.37"/>
      </g>
      <g id="ij" data-name="LINE">
        <line class="mg" x1="608" y1="750.65" x2="1178.47" y2="750.65"/>
      </g>
      <g id="ik" data-name="LINE">
        <line class="mg" x1="1184.14" y1="750.65" x2="1270.17" y2="750.65"/>
      </g>
      <g id="il" data-name="LINE">
        <line class="mg" x1="759.51" y1="536.35" x2="759.51" y2="631.32"/>
      </g>
      <g id="im" data-name="LINE">
        <line class="mg" x1="762.35" y1="631.32" x2="762.35" y2="536.35"/>
      </g>
      <g id="in" data-name="LINE">
        <line class="mg" x1="1323.61" y1="536.35" x2="1323.61" y2="627.35"/>
      </g>
      <g id="io" data-name="LINE">
        <line class="mg" x1="904.5" y1="536.35" x2="904.5" y2="631.32"/>
      </g>
      <g id="ip" data-name="LINE">
        <line class="mg" x1="907.34" y1="631.32" x2="907.34" y2="536.35"/>
      </g>
      <g id="iq" data-name="LINE">
        <line class="mg" x1="1044.39" y1="549.11" x2="1044.39" y2="631.32"/>
      </g>
      <g id="ir" data-name="LINE">
        <line class="mg" x1="1047.23" y1="631.32" x2="1047.23" y2="536.35"/>
      </g>
      <g id="is" data-name="LINE">
        <line class="mg" x1="1323.6" y1="752.35" x2="1270.17" y2="752.35"/>
      </g>
      <g id="it" data-name="LWPOLYLINE">
        <polyline class="mg" points="600.75 565.83 605 565.83 605 549.11"/>
      </g>
      <g id="iu" data-name="LWPOLYLINE">
        <polyline class="mg" points="597.91 588.51 595.08 588.51 595.08 629.9 592.24 629.9 592.24 649.74 595.08 649.74 595.08 680.92 597.91 680.92"/>
      </g>
      <g id="iv" data-name="LWPOLYLINE">
        <polyline class="mg" points="600.75 680.92 605 680.92 605 648.32"/>
      </g>
      <g id="iw" data-name="LWPOLYLINE">
        <polyline class="mg" points="597.91 565.83 595.08 565.83 595.08 550.53 592.24 550.53 592.24 390.12 595.1 390.12"/>
      </g>
      <g id="ix" data-name="LINE">
        <line class="mg" x1="607.96" y1="557.61" x2="759.51" y2="557.61"/>
      </g>
      <g id="iy" data-name="LINE">
        <line class="mg" x1="762.35" y1="557.61" x2="904.5" y2="557.61"/>
      </g>
      <g id="iz" data-name="LINE">
        <line class="mg" x1="907.34" y1="557.61" x2="1044.39" y2="557.61"/>
      </g>
      <g id="ja" data-name="LINE">
        <line class="mg" x1="1047.23" y1="557.61" x2="1323.61" y2="557.61"/>
      </g>
      <g id="jb" data-name="LWPOLYLINE">
        <line class="mg" x1="877.86" y1="529.27" x2="1322.19" y2="529.27"/>
      </g>
      <g id="jc" data-name="LWPOLYLINE">
        <line class="mg" x1="877.86" y1="529.55" x2="1322.19" y2="529.55"/>
      </g>
      <g id="jd" data-name="LWPOLYLINE">
        <polyline class="mg" points="870.77 458.4 797.76 458.4 797.76 452.73 599.33 452.73"/>
      </g>
      <g id="je" data-name="LINE">
        <line class="mg" x1="599.33" y1="447.06" x2="599.33" y2="532.1"/>
      </g>
      <g id="jf" data-name="LINE">
        <line class="mg" x1="599.33" y1="528.13" x2="870.77" y2="528.13"/>
      </g>
      <g id="jg" data-name="LWPOLYLINE">
        <polyline class="mg" points="605 680.92 608 680.92 608 635.57"/>
      </g>
      <g id="jh" data-name="LWPOLYLINE">
        <polyline class="mg" points="605 703.6 608 703.6 608 754.62"/>
      </g>
      <g id="ji" data-name="LWPOLYLINE">
        <polyline class="mg" points="605 565.83 608 565.83 608 536.35"/>
      </g>
      <g id="jj" data-name="LWPOLYLINE">
        <polyline class="mg" points="605 588.51 608 588.51 608 631.32"/>
      </g>
      <g id="jk" data-name="LINE">
        <line class="mg" x1="608" y1="627.06" x2="759.51" y2="627.06"/>
      </g>
      <g id="jl" data-name="LINE">
        <line class="mg" x1="608" y1="627.35" x2="759.51" y2="627.35"/>
      </g>
      <g id="jm" data-name="LINE">
        <line class="mg" x1="762.35" y1="627.06" x2="904.5" y2="627.06"/>
      </g>
      <g id="jn" data-name="LINE">
        <line class="mg" x1="762.35" y1="627.35" x2="904.5" y2="627.35"/>
      </g>
      <g id="jo" data-name="LINE">
        <line class="mg" x1="907.34" y1="627.06" x2="1044.39" y2="627.06"/>
      </g>
      <g id="jp" data-name="LINE">
        <line class="mg" x1="907.34" y1="627.35" x2="1044.39" y2="627.35"/>
      </g>
      <g id="jq" data-name="LINE">
        <line class="mg" x1="1047.23" y1="627.06" x2="1323.61" y2="627.06"/>
      </g>
      <g id="jr" data-name="LINE">
        <line class="mg" x1="1047.23" y1="627.35" x2="1323.61" y2="627.35"/>
      </g>
      <g id="js" data-name="LWPOLYLINE">
        <polyline class="mg" points="875.02 458.4 877.86 458.4 877.86 437.14"/>
      </g>
      <g id="jt" data-name="LWPOLYLINE">
        <polyline class="mg" points="1061.83 635.57 1061.83 665.33 1090.17 665.33 1090.17 659.66 1178.47 659.66"/>
      </g>
      <g id="ju" data-name="LWPOLYLINE">
        <polyline class="mg" points="1184.14 750.37 1270.17 750.37 1270.17 754.62"/>
      </g>
      <g id="jv" data-name="LWPOLYLINE">
        <polyline class="mg" points="600.75 588.51 605 588.51 605 631.32"/>
      </g>
      <g id="jw" data-name="LWPOLYLINE">
        <polyline class="mg" points="600.75 703.6 605 703.6 605 752.64"/>
      </g>
      <g id="jx" data-name="LWPOLYLINE">
        <polyline class="mg" points="599.33 527.85 870.77 527.85 870.77 528.13"/>
      </g>
      <g id="jy" data-name="LWPOLYLINE">
        <polyline class="mg" points="901.91 390.12 904.75 390.12 904.75 437.14 901.91 437.14"/>
      </g>
      <g id="jz" data-name="LWPOLYLINE">
        <polyline class="mg" points="872.19 458.4 870.77 458.4 870.77 437.14"/>
      </g>
      <g id="ka" data-name="LWPOLYLINE">
        <polyline class="mg" points="1184.14 659.66 1320.21 659.66 1320.21 644.07 1323.6 644.07"/>
      </g>
      <g id="kb" data-name="LWPOLYLINE">
        <polyline class="mg" points="599.35 390.12 602.19 390.12 602.19 432.89"/>
      </g>
      <g id="kc" data-name="LWPOLYLINE">
        <polyline class="mg" points="897.66 390.12 894.83 390.12 894.82 432.89"/>
      </g>
      <g id="kd" data-name="LWPOLYLINE">
        <polyline class="mg" points="1325.02 489.58 1322.19 489.58 1322.19 532.1"/>
      </g>
      <g id="ke" data-name="LWPOLYLINE">
        <polyline class="mg" points="1184.14 659.09 1319.65 659.09 1319.65 643.5 1323.6 643.5"/>
      </g>
      <g id="kf" data-name="LWPOLYLINE">
        <polyline class="mg" points="1062.39 635.57 1062.39 664.76 1089.61 664.76 1089.61 659.09 1178.47 659.09"/>
      </g>
      <g id="kg" data-name="LINE">
        <line class="mg" x1="1047.23" y1="557.05" x2="1323.61" y2="557.05"/>
      </g>
      <g id="kh" data-name="LINE">
        <line class="mg" x1="907.34" y1="557.05" x2="1044.39" y2="557.05"/>
      </g>
      <g id="ki" data-name="LINE">
        <line class="mg" x1="762.35" y1="557.05" x2="904.5" y2="557.05"/>
      </g>
      <g id="kj" data-name="LINE">
        <line class="mg" x1="607.96" y1="557.05" x2="759.51" y2="557.05"/>
      </g>
      <g id="kk" data-name="LWPOLYLINE">
        <polyline class="mg" points="870.77 457.83 798.32 457.83 798.32 452.17 599.33 452.17"/>
      </g>
      <g id="kl" data-name="LINE">
        <line class="mk" x1="1326.44" y1="536.69" x2="1326.44" y2="627.35"/>
      </g>
      <g id="km" data-name="LINE">
        <line class="mk" x1="1329.27" y1="627.35" x2="1329.27" y2="536.35"/>
      </g>
      <g id="kn" data-name="LINE">
        <line class="mk" x1="597.94" y1="532.1" x2="597.94" y2="437.48"/>
      </g>
      <g id="ko" data-name="LINE">
        <line class="mk" x1="595.08" y1="437.14" x2="595.08" y2="532.1"/>
      </g>
      <g id="kp" data-name="LINE">
        <line class="mk" x1="595.1" y1="442.24" x2="870.77" y2="442.24"/>
      </g>
      <g id="kq" data-name="LWPOLYLINE">
        <polyline class="mk" points="597.91 752.64 597.91 705.02 603.58 705.02 603.58 752.64"/>
      </g>
      <g id="kr" data-name="LWPOLYLINE">
        <polyline class="mk" points="597.91 648.32 597.91 679.5 603.58 679.5 603.58 648.32"/>
      </g>
      <g id="ks" data-name="LWPOLYLINE">
        <polyline class="mk" points="597.91 631.32 597.91 589.93 603.58 589.93 603.58 631.32"/>
      </g>
      <g id="kt" data-name="LWPOLYLINE">
        <polyline class="mk" points="597.91 549.11 597.91 564.42 603.58 564.42 603.58 549.11"/>
      </g>
      <g id="ku" data-name="LINE">
        <line class="mk" x1="1184.14" y1="754.62" x2="1184.14" y2="635.57"/>
      </g>
      <g id="kv" data-name="LINE">
        <line class="mk" x1="1178.47" y1="635.57" x2="1178.47" y2="754.62"/>
      </g>
      <g id="kw" data-name="LWPOLYLINE">
        <rect class="mj" x="872.19" y="458.4" width="2.83" height="1.42"/>
      </g>
      <g id="kx" data-name="LWPOLYLINE">
        <rect class="mj" x="872.19" y="526.72" width="2.83" height="1.42"/>
      </g>
      <g id="ky" data-name="LWPOLYLINE">
        <rect class="mj" x="597.91" y="587.09" width="2.83" height="1.42"/>
      </g>
      <g id="kz" data-name="LWPOLYLINE">
        <rect class="mj" x="597.91" y="565.83" width="2.83" height="1.42"/>
      </g>
      <g id="la" data-name="LWPOLYLINE">
        <rect class="mj" x="597.91" y="702.18" width="2.83" height="1.42"/>
      </g>
      <g id="lb" data-name="LWPOLYLINE">
        <rect class="mj" x="597.91" y="680.92" width="2.83" height="1.42"/>
      </g>
      <g id="lc" data-name="LWPOLYLINE">
        <polygon class="mj" points="1331.26 644.78 1331.26 644.07 1323.6 644.07 1323.6 645.35 1330.12 645.35 1330.12 644.78 1331.26 644.78"/>
      </g>
      <g id="ld" data-name="LWPOLYLINE">
        <rect class="mj" x="1330.41" y="645.06" width=".85" height="106.58"/>
      </g>
      <g id="le" data-name="LWPOLYLINE">
        <polygon class="mj" points="1331.26 751.93 1331.26 752.64 1323.6 752.64 1323.6 751.36 1330.12 751.36 1330.12 751.93 1331.26 751.93"/>
      </g>
      <g id="lf" data-name="LWPOLYLINE">
        <path class="ml" d="M1271.11,635.91h-2.35v-.34h5.67v.34h-2.35c-.2,0-.37.16-.37.37v5.67c0,.2.16.37.37.37h2.35v.34h-5.67v-.34h2.35c.2,0,.37-.16.37-.37v-5.67c0-.2-.16-.37-.37-.37Z"/>
      </g>
      <g id="lg" data-name="LWPOLYLINE">
        <path class="ml" d="M1325.25,635.91h-2.35v-.34h5.67v.34h-2.35c-.2,0-.37.16-.37.37v5.67c0,.2.16.37.37.37h2.35v.34h-5.67v-.34h2.35c.2,0,.37-.16.37-.37v-5.67c0-.2-.16-.37-.37-.37Z"/>
      </g>
      <g id="lh" data-name="LWPOLYLINE">
        <path class="ml" d="M1271.11,536.69h-2.35v-.34h5.67v.34h-2.35c-.2,0-.37.16-.37.37v5.67c0,.2.16.37.37.37h2.35v.34h-5.67v-.34h2.35c.2,0,.37-.16.37-.37v-5.67c0-.2-.16-.37-.37-.37Z"/>
      </g>
      <g id="li" data-name="LWPOLYLINE">
        <path class="ml" d="M1325.25,536.69h-2.35v-.34h5.67v.34h-2.35c-.2,0-.37.16-.37.37v5.67c0,.2.16.37.37.37h2.35v.34h-5.67v-.34h2.35c.2,0,.37-.16.37-.37v-5.67c0-.2-.16-.37-.37-.37Z"/>
      </g>
      <g id="lj" data-name="LWPOLYLINE">
        <polyline class="ml" points="1326.44 627.35 1332.11 627.35 1332.11 634.15 1334.94 634.15 1334.94 631.32 1368.53 630.98 1368.53 644.07 1323.6 644.07"/>
      </g>
      <g id="lk" data-name="LWPOLYLINE">
        <path class="ml" d="M595.81,437.48v-.34h5.67v.34h-2.35c-.2,0-.37.16-.37.37v8.5c0,.2.16.37.37.37h2.35v.34h-5.67v-.34h2.35c.2,0,.37-.16.37-.37v-8.5c0-.2-.16-.37-.37-.37h-2.35Z"/>
      </g>
      <g id="ll" data-name="LWPOLYLINE">
        <path class="ml" d="M707.07,437.48v-.34h5.67v.34h-2.35c-.2,0-.37.16-.37.37v8.5c0,.2.16.37.37.37h2.35v.34h-5.67v-.34h2.35c.2,0,.37-.16.37-.37v-8.5c0-.2-.16-.37-.37-.37h-2.35Z"/>
      </g>
      <g id="lm" data-name="LWPOLYLINE">
        <path class="ml" d="M818.33,437.48v-.34h5.67v.34h-2.35c-.2,0-.37.16-.37.37v8.5c0,.2.16.37.37.37h2.35v.34h-5.67v-.34h2.35c.2,0,.37-.16.37-.37v-8.5c0-.2-.16-.37-.37-.37h-2.35Z"/>
      </g>
      <g id="ln" data-name="LWPOLYLINE">
        <path class="ml" d="M871.48,437.48v-.34h5.67v.34h-2.35c-.2,0-.37.16-.37.37v8.5c0,.2.16.37.37.37h2.35v.34h-5.67v-.34h2.35c.2,0,.37-.16.37-.37v-8.5c0-.2-.16-.37-.37-.37h-2.35Z"/>
      </g>
      <g id="lo" data-name="LWPOLYLINE">
        <rect class="ml" x="901.68" y="437.48" width="2.55" height="2.55"/>
      </g>
      <g id="lp" data-name="LWPOLYLINE">
        <polygon class="my" points="1323.61 631.32 1323.61 627.35 1326.44 627.35 1326.44 635.57 1266.91 635.57 1266.91 648.32 1255.57 648.32 1255.57 635.57 1156.36 635.57 1156.36 648.32 1145.02 648.32 1145.02 635.57 1045.81 635.57 1045.81 648.32 1034.47 648.32 1034.47 635.57 935.26 635.57 935.26 648.32 923.92 648.32 923.92 635.57 824.71 635.57 824.71 648.32 813.37 648.32 813.37 635.57 715.57 635.57 715.57 648.32 704.24 648.32 704.24 635.57 606.42 635.57 606.42 648.32 595.08 648.32 595.08 631.32 1323.61 631.32"/>
      </g>
      <g id="lq" data-name="LWPOLYLINE">
        <polygon class="my" points="870.77 532.1 870.77 528.13 877.86 528.13 877.86 532.1 1325.02 532.1 1325.02 489.58 1329.27 489.58 1329.27 536.35 1266.91 536.35 1266.91 549.11 1255.57 549.11 1255.57 536.35 1156.36 536.35 1156.36 549.11 1145.02 549.11 1145.02 536.35 1045.81 536.35 1045.81 549.11 1034.47 549.11 1034.47 536.35 935.26 536.35 935.26 549.11 923.92 549.11 923.92 536.35 824.71 536.35 824.71 549.11 813.37 549.11 813.37 536.35 715.57 536.35 715.57 549.11 704.24 549.11 704.24 536.35 606.42 536.35 606.42 549.11 595.08 549.11 595.08 532.1 870.77 532.1"/>
      </g>
      <g id="lr" data-name="LWPOLYLINE">
        <polygon class="my" points="595.1 390.12 599.35 390.12 599.35 432.89 897.66 432.89 897.66 390.12 901.91 390.12 901.91 437.14 595.1 437.14 595.1 390.12"/>
      </g>
      <g id="ls" data-name="LWPOLYLINE">
        <polygon class="my" points="595.08 754.62 592.24 754.62 592.24 765.96 1582.57 765.96 1582.57 754.62 1331.26 754.62 1331.26 752.64 1323.6 752.64 1323.6 754.62 605 754.62 605 752.64 595.08 752.64 595.08 754.62"/>
      </g>
      <g id="lt" data-name="frame">
        <rect class="nb" x="464.72" y="141.56" width="1190.55" height="841.89"/>
      </g>
      <path class="mr" d="M592.24,756.8h-136.02c-13.22-.1-4.66.66-37.38,0-86.49-1.71-113.93-16.42-176.71-18.34-54.39-1.66-249.7-6.63-382.14-6.63"/>
      <polyline class="mr" points="2260 756.8 1646.78 756.8 1582.57 756.8"/>
      <g>
        <line class="mi" x1="762.35" y1="458.4" x2="762.35" y2="527.99"/>
        <line class="mi" x1="742.35" y1="458.4" x2="742.35" y2="527.99"/>
        <line class="mi" x1="722.35" y1="458.4" x2="722.35" y2="527.99"/>
        <line class="mi" x1="702.35" y1="458.4" x2="702.35" y2="527.99"/>
        <line class="mi" x1="682.35" y1="458.4" x2="682.35" y2="527.99"/>
        <line class="mi" x1="662.35" y1="458.4" x2="662.35" y2="527.99"/>
        <line class="mi" x1="642.35" y1="458.4" x2="642.35" y2="527.99"/>
        <line class="mi" x1="622.35" y1="458.4" x2="622.35" y2="527.99"/>
      </g>
    </g>
  </g>
  <g id="ly" data-name="">
    <path class="mo" d="M692.14,587.92c.28.38.43.78.43,1.22,0,.49-.12.93-.35,1.31-.23.39-.55.69-.97.91-.41.22-.88.32-1.41.32s-1-.11-1.41-.32-.73-.52-.97-.91c-.23-.39-.35-.83-.35-1.31h.58c0,.39.09.74.28,1.05.18.31.44.55.77.72.33.17.7.26,1.1.26s.79-.08,1.12-.25.58-.39.76-.68c.18-.29.27-.62.27-1s-.09-.68-.27-.97c-.18-.28-.43-.51-.76-.67-.32-.16-.69-.24-1.1-.24h-.35v-.53h.34c.38,0,.73-.07,1.04-.22.31-.15.55-.35.72-.62.17-.26.26-.56.26-.9,0-.51-.18-.93-.55-1.26s-.84-.49-1.42-.49c-.38,0-.72.08-1.02.23-.3.16-.54.38-.7.66-.16.28-.25.61-.25.97h-.58c0-.46.11-.86.32-1.22.22-.36.52-.64.9-.85.38-.2.82-.31,1.32-.31s.94.1,1.32.31.68.49.9.85c.22.36.32.77.32,1.22,0,.37-.13.73-.38,1.09-.26.36-.59.63-1,.81.43.16.79.43,1.07.8Z"/>
    <path class="mo" d="M841.83,587.92c.28.38.43.78.43,1.22,0,.49-.12.93-.35,1.31-.23.39-.55.69-.97.91s-.88.32-1.41.32-1-.11-1.41-.32-.73-.52-.97-.91c-.23-.39-.35-.83-.35-1.31h.58c0,.39.09.74.28,1.05.18.31.44.55.77.72.33.17.7.26,1.1.26s.79-.08,1.12-.25.58-.39.76-.68c.18-.29.27-.62.27-1s-.09-.68-.27-.97c-.18-.28-.43-.51-.76-.67-.32-.16-.69-.24-1.1-.24h-.35v-.53h.34c.38,0,.73-.07,1.04-.22.31-.15.55-.35.72-.62.17-.26.26-.56.26-.9,0-.51-.18-.93-.55-1.26-.37-.33-.84-.49-1.42-.49-.38,0-.72.08-1.02.23s-.54.38-.7.66c-.16.28-.25.61-.25.97h-.58c0-.46.11-.86.32-1.22.22-.36.52-.64.9-.85.38-.2.82-.31,1.32-.31s.94.1,1.32.31.68.49.9.85c.22.36.32.77.32,1.22,0,.37-.13.73-.38,1.09-.26.36-.59.63-1,.81.43.16.79.43,1.07.8Z"/>
    <path class="mo" d="M975.57,587.92c.28.38.43.78.43,1.22,0,.49-.12.93-.35,1.31-.23.39-.55.69-.97.91s-.88.32-1.41.32-1-.11-1.41-.32-.73-.52-.97-.91c-.23-.39-.35-.83-.35-1.31h.58c0,.39.09.74.28,1.05.18.31.44.55.77.72.33.17.7.26,1.1.26s.79-.08,1.12-.25.58-.39.76-.68c.18-.29.27-.62.27-1s-.09-.68-.27-.97c-.18-.28-.43-.51-.76-.67-.32-.16-.69-.24-1.1-.24h-.35v-.53h.34c.38,0,.73-.07,1.04-.22.31-.15.55-.35.72-.62.17-.26.26-.56.26-.9,0-.51-.18-.93-.55-1.26-.37-.33-.84-.49-1.42-.49-.38,0-.72.08-1.02.23s-.54.38-.7.66c-.16.28-.25.61-.25.97h-.58c0-.46.11-.86.32-1.22.22-.36.52-.64.9-.85s.82-.31,1.32-.31.94.1,1.32.31c.38.2.68.49.9.85.22.36.32.77.32,1.22,0,.37-.13.73-.38,1.09-.26.36-.59.63-1,.81.43.16.79.43,1.07.8Z"/>
    <path class="mo" d="M1189.3,588.55h1.4v.52h-1.4v2.54h-.58v-2.54h-3.95l-.08-.53,4.03-5.59h.58v5.6ZM1188.72,588.55v-4.61l-3.32,4.61h3.32Z"/>
    <path class="mo" d="M929.61,704h-.58v-8.02l-1.08.74-.31-.42,1.39-.97h.58v8.66Z"/>
    <path class="mo" d="M1277.69,702.93c.17-.16.37-.35.58-.56.72-.68,1.3-1.25,1.73-1.7.44-.46.81-.93,1.12-1.43.31-.5.47-.96.47-1.38s-.08-.77-.24-1.09c-.16-.32-.38-.57-.67-.75-.28-.18-.61-.27-.97-.27-.4,0-.78.14-1.15.41s-.64.63-.82,1.06l-.54-.23c.22-.52.57-.94,1.03-1.27s.96-.49,1.48-.49c.47,0,.89.11,1.26.34s.66.54.87.94c.21.4.32.85.32,1.36s-.16,1.01-.49,1.55c-.33.54-.72,1.05-1.18,1.54s-1.06,1.07-1.79,1.76c-.5.47-.89.84-1.16,1.12l-.41-.34c.2-.21.39-.39.56-.56ZM1277.13,703.49h5.16v.5h-5.09l-.07-.5Z"/>
    <path class="mo" d="M712.04,487.72c.39-.18.77-.27,1.13-.27.54,0,1.03.12,1.45.35.42.23.75.55.98.97.23.41.35.89.35,1.42s-.12,1.03-.35,1.45-.56.76-.98,1c-.42.24-.9.36-1.45.36-.42,0-.82-.09-1.2-.27s-.7-.43-.96-.75-.44-.68-.54-1.09l.56-.12c.11.5.37.9.77,1.22s.86.47,1.37.47c.42,0,.81-.1,1.15-.29.34-.19.6-.46.79-.8.18-.34.28-.74.28-1.18s-.09-.8-.28-1.13c-.18-.33-.45-.59-.79-.77-.34-.18-.72-.28-1.15-.28-.29,0-.59.07-.89.22-.31.14-.57.33-.77.56l-.42-.37c.25-.28.57-.51.95-.69ZM710.92,488.68l.25-4.44h4.26v.5h-3.7l-.24,4.04-.58-.11Z"/>
    <g>
      <g>
        <path class="mo" d="M1773.18,1027.62v.55h-7.38v-.55h7.38ZM1771.58,1029.44c.52.36.78.84.78,1.46s-.26,1.09-.78,1.45c-.52.36-1.22.54-2.11.54s-1.58-.18-2.11-.53c-.53-.35-.79-.84-.79-1.46s.26-1.09.78-1.45c.52-.36,1.23-.54,2.11-.54s1.58.18,2.1.53ZM1767.82,1029.83c-.42.27-.62.62-.62,1.06s.21.79.62,1.06c.42.27.97.4,1.66.4s1.23-.13,1.65-.4c.41-.27.62-.62.62-1.06s-.21-.79-.62-1.06c-.42-.27-.96-.41-1.65-.41s-1.24.14-1.66.41ZM1775.38,1033.81v2.44h-6.97v1.71h-.62v-2.24h6.94v-1.36h-6.99v-.55h7.63ZM1775.85,1037.76v.55h-8.06v-.55h8.06ZM1769.81,1026.23v1.69h-.64v-1.69h.64ZM1775.38,1026.35v6.78h-.64v-6.78h.64Z"/>
        <path class="mo" d="M1783.83,1027.2v3.09h-4.76v2.45h-.62v-3h4.75v-1.99h-4.79v-.56h5.42ZM1782.38,1032.34c.89-.06,1.82-.17,2.8-.33l.08.56c-1.01.16-1.96.27-2.86.33s-1.91.09-3.04.09h-.91v-.56h.91c1.12,0,2.12-.03,3.01-.09ZM1786.65,1034.75c.71.37,1.06.88,1.06,1.55s-.35,1.21-1.06,1.58c-.71.37-1.68.56-2.93.56s-2.24-.19-2.95-.56c-.71-.37-1.06-.9-1.06-1.58s.35-1.18,1.06-1.55c.7-.37,1.69-.55,2.95-.55s2.22.18,2.93.55ZM1781.94,1034.93c-.5.13-.9.32-1.18.55-.28.24-.42.51-.42.82,0,.49.3.87.92,1.16s1.43.43,2.44.43,1.83-.14,2.44-.43c.61-.29.91-.68.91-1.16,0-.31-.14-.58-.41-.82-.28-.24-.67-.42-1.17-.55s-1.09-.2-1.76-.2-1.26.07-1.76.2ZM1787.63,1026.42v7.5h-.66v-7.5h.66Z"/>
        <path class="mo" d="M1793.38,1027.28v1.93c0,.56-.12,1.13-.36,1.71-.24.58-.57,1.11-.99,1.58s-.9.84-1.42,1.11l-.39-.5c.49-.23.93-.56,1.34-.99.41-.43.72-.9.94-1.41.22-.51.34-1.01.34-1.48v-1.93h.55ZM1793.12,1034.34v3.5h-.66v-3.5h.66ZM1800.56,1037.6v.56h-8.11v-.56h8.11ZM1793.45,1027.28v1.93c0,.49.11.96.34,1.43.22.47.53.89.92,1.27s.83.67,1.32.89l-.38.49c-.8-.36-1.46-.92-1.96-1.67s-.76-1.55-.76-2.41v-1.93h.52ZM1797.55,1029.66v.56h-2.53v-.56h2.53ZM1797.83,1026.67v8.48h-.63v-8.48h.63ZM1800.16,1026.4v9.07h-.62v-9.07h.62Z"/>
        <path class="mo" d="M1808.43,1027.58v.56h-4.93v6.97h-.64v-7.53h5.57ZM1806.91,1034.82c.79-.05,1.58-.16,2.37-.33l.08.56c-.85.16-1.68.27-2.5.33-.82.06-1.86.09-3.13.09h-.88v-.57h.88c1.33,0,2.38-.03,3.17-.08ZM1807.83,1030.98v.56h-4.54v-.56h4.54ZM1811.61,1031.19v.55h-2.97v-.55h2.97ZM1812.1,1026.4v12.08h-.64v-12.08h.64Z"/>
        <path class="mo" d="M1776.5,1050.81v.56h-10.91v-.56h10.91ZM1775.12,1052.82v3.67h-.64v-3.11h-7.67v-.56h8.32ZM1767.73,1044.68v1.58h6.66v-1.58h.64v4.4h-7.95v-4.4h.64ZM1767.73,1048.53h6.66v-1.72h-6.66v1.72ZM1771.37,1048.84v2.27h-.63v-2.27h.63Z"/>
        <path class="mo" d="M1788.79,1054.27v.57h-10.96v-.57h10.96ZM1787.3,1045.45v.56h-7.35v4.47h-.64v-5.03h7.99ZM1787.45,1050.23v.55h-8.13v-.55h8.13ZM1783.6,1050.44v4.14h-.63v-4.14h.63Z"/>
        <path class="mo" d="M1769.97,1071.3c1.32-.05,2.57-.15,3.75-.3l.04.5c-1.21.19-2.47.31-3.78.37-1.31.06-2.71.09-4.21.09l-.13-.59c1.57,0,3.01-.03,4.33-.08ZM1773.31,1063.98v.56h-7.38v-.56h7.38ZM1771.09,1065.66c.43.18.76.44.99.78.23.34.35.73.35,1.18s-.12.82-.35,1.15c-.23.33-.57.59-.99.77-.43.18-.92.27-1.48.27s-1.06-.09-1.48-.27c-.42-.18-.75-.44-.98-.77-.23-.33-.35-.72-.35-1.15s.12-.84.35-1.18.56-.59.98-.78c.42-.18.92-.27,1.48-.27s1.05.09,1.48.27ZM1768.01,1066.39c-.41.32-.62.72-.62,1.22s.21.88.62,1.19c.41.31.94.46,1.6.46s1.2-.15,1.6-.46.61-.7.61-1.19-.2-.91-.61-1.23-.94-.47-1.6-.47-1.19.16-1.6.48ZM1769.95,1062.37v1.88h-.64v-1.88h.64ZM1769.96,1069.58v2h-.66v-2h.66ZM1775.25,1062.4v12.08h-.66v-12.08h.66Z"/>
        <path class="mo" d="M1785.05,1063.77v.56h-7.15v-.56h7.15ZM1782.95,1065.31c.43.17.76.42.99.74.23.32.35.69.35,1.12s-.12.8-.35,1.12c-.23.32-.56.56-.99.73s-.93.25-1.5.25-1.05-.08-1.48-.25c-.43-.17-.76-.41-.99-.73-.23-.32-.35-.69-.35-1.12s.12-.8.35-1.12c.23-.32.56-.56.99-.74.42-.17.92-.26,1.49-.26s1.07.09,1.5.26ZM1779.86,1066.02c-.41.29-.62.67-.62,1.14s.21.85.62,1.14c.41.29.95.44,1.61.44s1.19-.15,1.6-.44c.41-.29.62-.67.62-1.14s-.21-.85-.62-1.14c-.41-.29-.95-.44-1.61-.44s-1.19.15-1.6.44ZM1780.35,1069.96v1.54h6.12v-1.54h.64v4.34h-7.41v-4.34h.64ZM1780.35,1073.74h6.12v-1.71h-6.12v1.71ZM1781.79,1062.26v1.79h-.64v-1.79h.64ZM1787.11,1062.4v6.99h-.64v-6.99h.64ZM1789.03,1065.61v.57h-2.24v-.57h2.24Z"/>
        <path class="mo" d="M1793.98,1062.81v.92c0,.72-.15,1.4-.46,2.03-.31.63-.72,1.19-1.23,1.67-.51.48-1.08.84-1.69,1.11l-.35-.53c.57-.21,1.1-.54,1.58-.97.49-.43.88-.93,1.17-1.5.29-.57.44-1.17.44-1.8v-.92h.54ZM1799.85,1069.43v2.63h-6.96v1.97h-.62v-2.49h6.94v-1.55h-6.99v-.56h7.62ZM1800.34,1073.76v.55h-8.06v-.55h8.06ZM1794.07,1062.81v.92c0,.59.15,1.16.45,1.7.3.55.7,1.02,1.19,1.42.49.4,1.02.71,1.58.92l-.34.52c-.62-.24-1.2-.59-1.71-1.04s-.93-.97-1.24-1.58c-.31-.61-.46-1.25-.46-1.95v-.92h.53ZM1799.85,1062.4v6.36h-.64v-6.36h.64Z"/>
        <path class="mo" d="M1776.5,1086.56v.55h-10.89v-.55h10.89ZM1774.05,1088.73c.72.37,1.08.9,1.08,1.58s-.36,1.21-1.08,1.58c-.72.37-1.72.56-3,.56s-2.29-.19-3.01-.56c-.72-.37-1.08-.9-1.08-1.58s.36-1.21,1.08-1.58c.72-.37,1.72-.56,3.01-.56s2.28.19,3,.56ZM1775.1,1080.99v.55h-7.45v3.09h-.63v-3.64h8.08ZM1775.2,1084.34v.56h-8.18v-.56h8.18ZM1768.54,1089.14c-.62.29-.94.67-.94,1.17s.31.88.94,1.17c.62.29,1.46.43,2.51.43s1.88-.14,2.51-.43c.62-.28.94-.67.94-1.17s-.31-.88-.94-1.17c-.63-.28-1.46-.43-2.51-.43s-1.88.14-2.51.43ZM1771.36,1084.55v2.28h-.64v-2.28h.64Z"/>
        <path class="mo" d="M1782.57,1081.91c.44.34.79.82,1.03,1.45.24.63.36,1.35.36,2.17s-.12,1.56-.36,2.18c-.24.62-.59,1.11-1.03,1.45s-.95.51-1.52.51-1.1-.17-1.55-.51-.79-.82-1.03-1.45c-.24-.62-.36-1.35-.36-2.17s.12-1.56.36-2.18c.24-.62.59-1.11,1.03-1.45s.96-.51,1.55-.51,1.08.17,1.52.51ZM1779.83,1082.42c-.35.3-.63.73-.83,1.27-.2.54-.29,1.16-.29,1.85s.1,1.29.29,1.84c.2.55.47.97.83,1.28.35.31.76.46,1.22.46s.85-.15,1.2-.46c.35-.31.62-.74.81-1.28s.29-1.16.29-1.84-.1-1.31-.29-1.85c-.19-.54-.46-.96-.81-1.27-.35-.3-.75-.46-1.21-.46s-.85.15-1.2.46ZM1787,1080.4v12.08h-.64v-12.08h.64ZM1789.14,1085.43v.56h-2.31v-.56h2.31Z"/>
        <path class="mo" d="M1796.25,1081.61v4.05h-4.82v3.5h-.63v-4.06h4.82v-2.93h-4.86v-.56h5.49ZM1794.79,1088.83c.96-.07,1.98-.18,3.06-.35l.08.55c-1.1.18-2.13.3-3.09.36-.96.07-1.99.1-3.08.1h-.95v-.56h.95c1.06,0,2.07-.03,3.03-.1ZM1799.85,1080.4v12.08h-.64v-12.08h.64Z"/>
        <path class="mo" d="M1806.22,1080.81v.92c0,.72-.15,1.4-.46,2.03s-.72,1.19-1.23,1.67c-.51.48-1.08.84-1.69,1.11l-.35-.53c.57-.21,1.1-.54,1.58-.97.49-.43.88-.93,1.17-1.5.29-.57.44-1.17.44-1.8v-.92h.55ZM1812.08,1087.43v2.63h-6.96v1.97h-.62v-2.49h6.94v-1.55h-6.99v-.56h7.62ZM1812.57,1091.76v.55h-8.06v-.55h8.06ZM1806.3,1080.81v.92c0,.59.15,1.16.45,1.7.3.55.7,1.02,1.19,1.42.49.4,1.02.71,1.58.92l-.34.52c-.63-.24-1.2-.59-1.71-1.04-.52-.45-.93-.97-1.24-1.58-.31-.61-.46-1.25-.46-1.95v-.92h.53ZM1812.08,1080.4v6.36h-.64v-6.36h.64Z"/>
        <path class="mo" d="M1776.55,1108.23v.57h-10.96v-.57h10.96ZM1771.28,1099.28v.99c0,.8-.26,1.54-.77,2.21-.51.67-1.14,1.23-1.88,1.68-.74.45-1.47.76-2.18.94l-.28-.55c.61-.12,1.26-.39,1.97-.8.71-.41,1.31-.92,1.81-1.53.5-.61.75-1.26.75-1.95v-.99h.57ZM1771.35,1105.14v3.35h-.63v-3.35h.63ZM1771.36,1099.28v.99c0,.69.25,1.34.75,1.95.5.61,1.11,1.12,1.82,1.53.71.41,1.38.68,1.98.8l-.31.55c-.69-.17-1.41-.48-2.16-.93-.75-.45-1.38-1.02-1.89-1.69-.51-.68-.77-1.41-.77-2.2v-.99h.57Z"/>
        <path class="mo" d="M1781.89,1100.03c.38.33.68.8.89,1.41s.32,1.33.32,2.15-.11,1.54-.32,2.16-.51,1.09-.89,1.42-.83.5-1.34.5-.95-.17-1.33-.5-.68-.8-.89-1.42-.31-1.33-.31-2.16.1-1.54.31-2.15.51-1.08.89-1.41.83-.5,1.33-.5.96.17,1.34.5ZM1779.54,1100.56c-.29.29-.51.71-.67,1.23s-.24,1.13-.24,1.8.08,1.27.24,1.81c.16.53.38.94.67,1.24s.62.44,1.01.44.72-.15,1.02-.44c.29-.29.52-.71.69-1.24.16-.53.25-1.13.25-1.81s-.08-1.27-.25-1.8-.39-.94-.69-1.23c-.29-.29-.63-.44-1.02-.44s-.72.15-1.01.44ZM1785.26,1101.51v.56h-2.62v-.56h2.62ZM1785.26,1105.14v.56h-2.62v-.56h2.62ZM1785.67,1098.72v11.1h-.63v-11.1h.63ZM1788.01,1098.4v12.08h-.63v-12.08h.63Z"/>
        <path class="mo" d="M1791.21,1099.61v3.11h3.25v-3.11h.6v7.74h-4.48v-7.74h.63ZM1791.21,1106.79h3.25v-3.51h-3.25v3.51ZM1797.54,1098.72v11.1h-.63v-11.1h.63ZM1799.91,1103.32v.56h-2.55v-.56h2.55ZM1800.24,1098.4v12.08h-.63v-12.08h.63Z"/>
        <path class="mo" d="M1806.22,1098.81v.92c0,.72-.15,1.4-.46,2.03s-.72,1.19-1.23,1.67c-.51.48-1.08.84-1.69,1.11l-.35-.53c.57-.21,1.1-.54,1.58-.97.49-.43.88-.93,1.17-1.5.29-.57.44-1.17.44-1.8v-.92h.55ZM1812.08,1105.43v2.63h-6.96v1.97h-.62v-2.49h6.94v-1.55h-6.99v-.56h7.62ZM1812.57,1109.76v.55h-8.06v-.55h8.06ZM1806.3,1098.81v.92c0,.59.15,1.16.45,1.7.3.55.7,1.02,1.19,1.42.49.4,1.02.71,1.58.92l-.34.52c-.63-.24-1.2-.59-1.71-1.04-.52-.45-.93-.97-1.24-1.58-.31-.61-.46-1.25-.46-1.95v-.92h.53ZM1812.08,1098.4v6.36h-.64v-6.36h.64Z"/>
      </g>
      <g>
        <path class="mo" d="M1754.69,1037.55h-.67v-9.35l-1.26.87-.36-.49,1.62-1.13h.67v10.11Z"/>
        <path class="mo" d="M1751.59,1054.31c.2-.19.43-.41.68-.65.84-.79,1.51-1.46,2.02-1.99.51-.53.94-1.09,1.31-1.67s.55-1.12.55-1.61-.09-.9-.28-1.27-.45-.67-.78-.88c-.33-.21-.71-.32-1.13-.32-.47,0-.91.16-1.34.48-.42.32-.75.73-.96,1.24l-.63-.27c.26-.61.66-1.1,1.2-1.48.54-.38,1.12-.57,1.72-.57.55,0,1.04.13,1.47.39.43.26.77.63,1.01,1.09.25.47.37.99.37,1.58s-.19,1.18-.57,1.81-.84,1.23-1.38,1.79c-.54.56-1.23,1.25-2.09,2.05-.59.55-1.04.98-1.36,1.3l-.48-.39c.23-.24.45-.46.65-.65ZM1750.94,1054.96h6.02v.59h-5.94l-.08-.59Z"/>
        <path class="mo" d="M1756.62,1069.25c.33.44.5.92.5,1.43,0,.57-.14,1.08-.41,1.53s-.65.8-1.13,1.06-1.03.38-1.64.38-1.17-.13-1.65-.38-.86-.6-1.13-1.06-.41-.96-.41-1.53h.67c0,.46.11.87.32,1.23s.51.64.9.84c.38.2.81.3,1.29.3s.92-.1,1.3-.29.68-.46.89-.79.32-.72.32-1.16-.11-.8-.32-1.13-.5-.59-.88-.78c-.38-.19-.8-.28-1.28-.28h-.41v-.62h.39c.45,0,.85-.09,1.21-.26s.64-.41.84-.72c.2-.31.3-.66.3-1.05,0-.6-.21-1.09-.64-1.47-.43-.38-.98-.57-1.65-.57-.44,0-.83.09-1.19.27-.36.18-.63.44-.82.77-.19.33-.29.71-.29,1.13h-.67c0-.53.13-1.01.38-1.43s.6-.75,1.05-.99c.45-.24.96-.36,1.54-.36s1.09.12,1.54.36c.45.24.8.57,1.05.99.25.42.38.9.38,1.43,0,.43-.15.85-.45,1.27s-.69.73-1.16.94c.5.19.92.5,1.25.94Z"/>
        <path class="mo" d="M1755.8,1087.98h1.64v.6h-1.64v2.97h-.67v-2.97h-4.61l-.1-.62,4.7-6.52h.67v6.54ZM1755.12,1087.98v-5.38l-3.88,5.38h3.88Z"/>
        <path class="mo" d="M1752.56,1103.5c.45-.21.89-.32,1.32-.32.63,0,1.2.14,1.69.41.49.27.88.65,1.15,1.13.27.48.41,1.03.41,1.66s-.14,1.2-.41,1.69c-.28.49-.66.88-1.15,1.16-.49.28-1.05.42-1.69.42-.49,0-.96-.11-1.4-.32-.44-.21-.81-.5-1.12-.88-.31-.37-.52-.8-.63-1.27l.66-.14c.13.58.43,1.05.9,1.42.47.37,1,.55,1.6.55.5,0,.94-.11,1.34-.34.4-.22.7-.54.92-.94s.32-.86.32-1.37-.11-.94-.32-1.32c-.21-.39-.52-.69-.92-.9-.4-.21-.84-.32-1.34-.32-.34,0-.68.08-1.04.25s-.66.39-.9.66l-.49-.43c.29-.33.66-.59,1.11-.8ZM1751.26,1104.62l.29-5.18h4.97v.59h-4.31l-.28,4.72-.67-.13Z"/>
      </g>
    </g>
  </g>
  <g id="lz" data-name="SCALE">
    <g>
      <g id="ma" data-name="MTEXT">
        <path class="na" d="M281.36,1108.4c-.64-.5-1.13-1.2-1.49-2.1-.36-.9-.54-1.92-.54-3.06s.18-2.15.54-3.04c.36-.9.85-1.6,1.49-2.1.63-.5,1.36-.75,2.17-.75s1.53.25,2.17.75c.63.5,1.13,1.2,1.49,2.1.36.9.54,1.91.54,3.04s-.18,2.16-.54,3.05c-.36.89-.85,1.59-1.49,2.1-.64.51-1.36.76-2.17.76s-1.54-.25-2.17-.75ZM285.02,1107.36c.44-.41.78-.96,1.02-1.67s.36-1.52.36-2.44-.12-1.74-.36-2.45c-.24-.72-.58-1.27-1.02-1.67-.44-.4-.93-.6-1.49-.6s-1.05.2-1.48.6c-.43.4-.77.96-1.02,1.67-.25.71-.37,1.53-.37,2.43s.12,1.75.37,2.46c.25.71.58,1.27,1.02,1.67.43.41.93.61,1.48.61s1.05-.2,1.49-.61Z"/>
      </g>
      <g id="mb" data-name="MTEXT">
        <path class="na" d="M336.68,1107.21c.19-.17.42-.38.71-.64.93-.85,1.68-1.57,2.24-2.15.57-.58,1.05-1.17,1.44-1.78.39-.6.59-1.16.59-1.67,0-.48-.09-.9-.28-1.27-.19-.37-.45-.66-.78-.86s-.71-.31-1.15-.31c-.47,0-.93.16-1.37.48s-.78.73-1,1.23l-1.2-.51c.3-.71.79-1.28,1.46-1.73.67-.45,1.38-.67,2.11-.67.69,0,1.31.16,1.85.46s.96.74,1.26,1.29.45,1.18.45,1.9-.22,1.41-.67,2.14c-.45.73-.98,1.41-1.6,2.04-.62.63-1.42,1.39-2.42,2.27-.49.45-.96.88-1.39,1.3l-.94-.85c.28-.27.51-.49.7-.66ZM335.99,1107.87h7.22v1.19h-7.05l-.18-1.19Z"/>
      </g>
      <g id="mc" data-name="MTEXT">
        <path class="na" d="M423.16,1101.84c.55-.25,1.08-.38,1.59-.38.77,0,1.45.16,2.06.49.6.33,1.07.78,1.41,1.35.34.58.5,1.24.5,1.99s-.17,1.43-.5,2.02c-.33.59-.8,1.05-1.4,1.39-.6.34-1.29.5-2.07.5-.6,0-1.16-.12-1.69-.38-.53-.25-.98-.6-1.35-1.05-.37-.45-.62-.96-.74-1.52l1.3-.3c.13.59.42,1.07.89,1.43s1,.55,1.59.55c.5,0,.95-.11,1.35-.34.4-.22.72-.54.94-.94.23-.41.34-.86.34-1.36s-.11-.95-.34-1.34-.54-.69-.94-.91-.85-.33-1.35-.33c-.33,0-.68.09-1.04.26-.36.18-.66.4-.9.68l-.99-.86c.34-.38.79-.7,1.34-.95ZM421.48,1103.47l.37-6.04h5.93v1.18h-4.64l-.32,5.04-1.33-.19Z"/>
      </g>
      <g id="md" data-name="MTEXT">
        <path class="na" d="M312,1109.04h-1.35v-10.09l-1.86,1.2-.67-1.07,2.55-1.62h1.33v11.58Z"/>
      </g>
      <g id="me" data-name="MTEXT">
        <g>
          <path class="na" d="M561.37,1109.04h-1.35v-10.09l-1.86,1.2-.67-1.07,2.55-1.62h1.33v11.58Z"/>
          <path class="na" d="M565.83,1108.4c-.64-.5-1.13-1.2-1.49-2.1s-.54-1.92-.54-3.06.18-2.15.54-3.04.85-1.6,1.49-2.1c.63-.5,1.36-.75,2.17-.75s1.53.25,2.17.75,1.13,1.2,1.49,2.1.54,1.91.54,3.04-.18,2.16-.54,3.05-.85,1.59-1.49,2.1c-.64.51-1.36.76-2.17.76s-1.54-.25-2.17-.75ZM569.49,1107.36c.44-.41.78-.96,1.02-1.67s.36-1.52.36-2.44-.12-1.74-.36-2.45c-.24-.72-.58-1.27-1.02-1.67-.44-.4-.93-.6-1.49-.6s-1.05.2-1.48.6c-.43.4-.77.96-1.02,1.67-.25.71-.37,1.53-.37,2.43s.12,1.75.37,2.46.58,1.27,1.02,1.67c.43.41.93.61,1.48.61s1.05-.2,1.49-.61Z"/>
          <path class="na" d="M583.38,1103.3c-.29-.34-.67-.5-1.13-.5-.35,0-.66.07-.94.22-.27.14-.49.34-.65.6s-.24.55-.24.88v4.58h-1.33v-4.45c0-.54-.14-.98-.43-1.32-.29-.34-.66-.5-1.12-.5-.34,0-.65.09-.94.26-.28.18-.5.42-.66.72-.15.3-.23.63-.23.99v4.31h-1.33v-7.46h1.33v1.31l-.14-.05c.22-.37.52-.68.9-.91.37-.23.75-.35,1.14-.35.46,0,.9.13,1.32.38.42.26.74.59.95.99.25-.41.59-.74,1.04-.99.45-.26.9-.38,1.36-.38.56,0,1.05.13,1.49.38s.78.59,1.02,1.02.37.93.37,1.5v4.56h-1.35v-4.45c0-.54-.15-.98-.44-1.32Z"/>
        </g>
      </g>
      <g id="mf" data-name="LWPOLYLINE">
        <polyline class="mg" points="566.32 1076.38 566.32 1093.39 424.59 1093.39 424.59 1076.38 339.55 1076.38 339.55 1093.39 311.2 1093.39 311.2 1076.38 282.85 1076.38 282.85 1093.39"/>
      </g>
    </g>
  </g>
</svg>