<?xml version="1.0" encoding="UTF-8"?>
<svg xmlns="http://www.w3.org/2000/svg" viewBox="0 0 2000 1500">
  <defs>
    <style>
      .ag, .ah, .ai, .aj, .ak {
        fill: none;
      }

      .ag, .ah, .aj, .ak, .al {
        stroke-miterlimit: 10;
      }

      .ag, .ah, .aj, .ak, .al, .am {
        stroke: #000;
      }

      .ag, .al, .am {
        stroke-width: .5px;
      }

      .ah {
        stroke-width: .2px;
      }

      .aj {
        stroke-width: .25px;
      }

      .ak {
        stroke-width: .3px;
      }

      .al {
        fill: #060001;
        fill-rule: evenodd;
      }

      .am {
        fill: #040000;
      }
    </style>
  </defs>
  <g id="c" data-name="f4">
    <g id="d" data-name="HATCH">
      <rect class="aj" x="539.35" y="501.59" width="221.11" height="123.45"/>
      <path class="aj" d="M549.68,625.04v-123.45M585.68,625.04v-123.45M621.68,625.04v-123.45M657.68,625.04v-123.45M693.68,625.04v-123.45M729.68,625.04v-123.45M760.46,599.53h-221.11M760.46,563.53h-221.11M760.46,527.53h-221.11"/>
    </g>
    <g id="e" data-name="HATCH">
      <path class="aj" d="M772.51,679.79v-97.41M794.55,679.79v-97.41M816.6,679.79v-97.41M838.65,679.79v-97.41M860.7,712.39v-130.01M882.75,712.39v-130.01M904.8,712.39v-130.01M926.84,712.39v-130.01M948.89,712.39v-130.01"/>
    </g>
    <g id="f" data-name="HATCH">
      <path class="ah" d="M860.7,846v-95.34M882.75,846v-95.34M904.8,846v-95.34M926.84,846v-93.27M948.89,846v-77.65M970.94,846v-73.32M992.99,846v-104.45M1015.04,846v-123.25M1037.09,846v-107.64M1059.13,846v-92.02M1081.18,846v-76.4"/>
    </g>
    <g id="g" data-name="LWPOLYLINE">
      <polyline class="ak" points="1208.33 794.98 1272.11 794.98 1272.11 1024.58 852.88 1024.58"/>
    </g>
    <g id="h" data-name="LWPOLYLINE">
      <polyline class="ak" points="852.88 846 1101.03 846 1101.03 783.66"/>
    </g>
    <g id="i" data-name="LWPOLYLINE">
      <polyline class="ag" points="767.54 632.12 767.54 679.79 848.07 679.79 848.07 712.39 963.98 712.39 963.98 582.38 767.54 582.38"/>
    </g>
    <g id="j" data-name="LWPOLYLINE">
      <polyline class="ag" points="963.98 582.38 983.61 582.38 1208.33 741.55 1208.33 811.98 1141.02 811.98 1009.23 718.63 965.62 780.2 923.91 750.66 852.88 750.66 852.88 1024.58 532.24 1024.58 532.24 632.12"/>
    </g>
    <g id="k" data-name="LWPOLYLINE">
      <polyline class="ag" points="963.98 590.88 980.9 590.88 1199.83 745.95 1199.83 803.48 1143.73 803.48 1007.2 706.77 963.59 768.34 926.62 742.15 844.37 742.15 844.37 1016.08 540.75 1016.08 540.75 632.12"/>
    </g>
    <g id="l" data-name="LWPOLYLINE">
      <rect class="ag" x="532.26" y="494.5" width="235.28" height="137.62"/>
    </g>
    <g id="m" data-name="LWPOLYLINE">
      <rect class="ag" x="539.35" y="501.59" width="221.11" height="123.45"/>
    </g>
    <g id="n" data-name="frame">
      <rect class="ai" x="404.72" y="329.06" width="1190.55" height="841.89"/>
    </g>
  </g>
  <g id="s" data-name="SCALE">
    <g>
      <g id="t" data-name="MTEXT">
        <path class="am" d="M281.36,1295.9c-.64-.5-1.13-1.2-1.49-2.1-.36-.9-.54-1.92-.54-3.06s.18-2.15.54-3.04c.36-.9.85-1.6,1.49-2.1.63-.5,1.36-.75,2.17-.75s1.53.25,2.17.75c.63.5,1.13,1.2,1.49,2.1.36.9.54,1.91.54,3.04s-.18,2.16-.54,3.05c-.36.89-.85,1.59-1.49,2.1-.64.51-1.36.76-2.17.76s-1.54-.25-2.17-.75ZM285.02,1294.86c.44-.41.78-.96,1.02-1.67s.36-1.52.36-2.44-.12-1.74-.36-2.45c-.24-.72-.58-1.27-1.02-1.67-.44-.4-.93-.6-1.49-.6s-1.05.2-1.48.6c-.43.4-.77.96-1.02,1.67-.25.71-.37,1.53-.37,2.43s.12,1.75.37,2.46c.25.71.58,1.27,1.02,1.67.43.41.93.61,1.48.61s1.05-.2,1.49-.61Z"/>
      </g>
      <g id="u" data-name="MTEXT">
        <path class="am" d="M336.68,1294.71c.19-.17.42-.38.71-.64.93-.85,1.68-1.57,2.24-2.15.57-.58,1.05-1.17,1.44-1.78.39-.6.59-1.16.59-1.67,0-.48-.09-.9-.28-1.27-.19-.37-.45-.66-.78-.86s-.71-.31-1.15-.31c-.47,0-.93.16-1.37.48s-.78.73-1,1.23l-1.2-.51c.3-.71.79-1.28,1.46-1.73.67-.45,1.38-.67,2.11-.67.69,0,1.31.16,1.85.46s.96.74,1.26,1.29.45,1.18.45,1.9-.22,1.41-.67,2.14c-.45.73-.98,1.41-1.6,2.04-.62.63-1.42,1.39-2.42,2.27-.49.45-.96.88-1.39,1.3l-.94-.85c.28-.27.51-.49.7-.66ZM335.99,1295.37h7.22v1.19h-7.05l-.18-1.19Z"/>
      </g>
      <g id="v" data-name="MTEXT">
        <path class="am" d="M423.16,1289.34c.55-.25,1.08-.38,1.59-.38.77,0,1.45.16,2.06.49.6.33,1.07.78,1.41,1.35.34.58.5,1.24.5,1.99s-.17,1.43-.5,2.02c-.33.59-.8,1.05-1.4,1.39-.6.34-1.29.5-2.07.5-.6,0-1.16-.12-1.69-.38-.53-.25-.98-.6-1.35-1.05-.37-.45-.62-.96-.74-1.52l1.3-.3c.13.59.42,1.07.89,1.43s1,.55,1.59.55c.5,0,.95-.11,1.35-.34.4-.22.72-.54.94-.94.23-.41.34-.86.34-1.36s-.11-.95-.34-1.34-.54-.69-.94-.91-.85-.33-1.35-.33c-.33,0-.68.09-1.04.26-.36.18-.66.4-.9.68l-.99-.86c.34-.38.79-.7,1.34-.95ZM421.48,1290.97l.37-6.04h5.93v1.18h-4.64l-.32,5.04-1.33-.19Z"/>
      </g>
      <g id="w" data-name="MTEXT">
        <path class="am" d="M312,1296.54h-1.35v-10.09l-1.86,1.2-.67-1.07,2.55-1.62h1.33v11.58Z"/>
      </g>
      <g id="x" data-name="MTEXT">
        <g>
          <path class="am" d="M561.37,1296.54h-1.35v-10.09l-1.86,1.2-.67-1.07,2.55-1.62h1.33v11.58Z"/>
          <path class="am" d="M565.83,1295.9c-.64-.5-1.13-1.2-1.49-2.1s-.54-1.92-.54-3.06.18-2.15.54-3.04.85-1.6,1.49-2.1c.63-.5,1.36-.75,2.17-.75s1.53.25,2.17.75,1.13,1.2,1.49,2.1.54,1.91.54,3.04-.18,2.16-.54,3.05-.85,1.59-1.49,2.1c-.64.51-1.36.76-2.17.76s-1.54-.25-2.17-.75ZM569.49,1294.86c.44-.41.78-.96,1.02-1.67s.36-1.52.36-2.44-.12-1.74-.36-2.45c-.24-.72-.58-1.27-1.02-1.67-.44-.4-.93-.6-1.49-.6s-1.05.2-1.48.6c-.43.4-.77.96-1.02,1.67-.25.71-.37,1.53-.37,2.43s.12,1.75.37,2.46.58,1.27,1.02,1.67c.43.41.93.61,1.48.61s1.05-.2,1.49-.61Z"/>
          <path class="am" d="M583.38,1290.8c-.29-.34-.67-.5-1.13-.5-.35,0-.66.07-.94.22-.27.14-.49.34-.65.6s-.24.55-.24.88v4.58h-1.33v-4.45c0-.54-.14-.98-.43-1.32-.29-.34-.66-.5-1.12-.5-.34,0-.65.09-.94.26-.28.18-.5.42-.66.72-.15.3-.23.63-.23.99v4.31h-1.33v-7.46h1.33v1.31l-.14-.05c.22-.37.52-.68.9-.91.37-.23.75-.35,1.14-.35.46,0,.9.13,1.32.38.42.26.74.59.95.99.25-.41.59-.74,1.04-.99.45-.26.9-.38,1.36-.38.56,0,1.05.13,1.49.38s.78.59,1.02,1.02.37.93.37,1.5v4.56h-1.35v-4.45c0-.54-.15-.98-.44-1.32Z"/>
        </g>
      </g>
      <g id="y" data-name="LWPOLYLINE">
        <polyline class="ag" points="566.32 1263.88 566.32 1280.89 424.59 1280.89 424.59 1263.88 339.55 1263.88 339.55 1280.89 311.2 1280.89 311.2 1263.88 282.85 1263.88 282.85 1280.89"/>
      </g>
      <g id="z" data-name="CIRCLE">
        <circle class="ag" cx="214.88" cy="1280.42" r="14.88"/>
      </g>
      <g id="aa" data-name="TEXT">
        <path class="am" d="M224.5,1264.9l-.86-.35-1.26-8.05-2.62,6.47-.84-.34,3.28-8.1.87.35,1.26,8.02,2.61-6.45.84.34-3.28,8.1Z"/>
      </g>
      <g id="ab" data-name="HATCH">
        <path class="al" d="M220.46,1266.63c-.23-.09-.46-.18-.7-.26l-5.57,13.78.69.28,5.58-13.8Z"/>
      </g>
      <g id="ac" data-name="HATCH">
        <path class="al" d="M221.15,1266.92c-.23-.1-.45-.2-.69-.3l-5.58,13.8.69.28,5.57-13.78Z"/>
      </g>
      <g id="ad" data-name="LINE">
        <line class="ag" x1="219.76" y1="1266.36" x2="214.19" y2="1280.14"/>
      </g>
      <g id="ae" data-name="LINE">
        <line class="ag" x1="221.15" y1="1266.92" x2="215.57" y2="1280.7"/>
      </g>
      <g id="af" data-name="LINE">
        <line class="ag" x1="214.88" y1="1280.42" x2="220.46" y2="1266.63"/>
      </g>
    </g>
  </g>
</svg>