<?xml version="1.0" encoding="UTF-8"?>
<svg xmlns="http://www.w3.org/2000/svg" viewBox="0 0 2000 1250">
  <defs>
    <style>
      .mu, .mv, .mw, .mx, .my, .mz, .na, .nb, .nc, .nd, .ne, .nf, .ng, .nh, .ni, .nj, .nk {
        stroke: #000;
      }

      .mu, .mv, .mw, .mx, .my, .mz, .na, .nl, .nc, .nd, .ne, .nf, .ng, .nm, .nh, .ni, .nj {
        fill: none;
      }

      .mu, .mv, .mw, .mx, .my, .mz, .na, .nc, .nd, .ne, .nf, .ng, .nh, .ni, .nj {
        stroke-miterlimit: 10;
      }

      .mu, .nk {
        stroke-width: .5px;
      }

      .mv {
        stroke-dasharray: 2.06 1.03;
      }

      .mv, .na, .nc, .ne, .nf, .nm, .nh, .ni {
        stroke-width: .26px;
      }

      .mw {
        stroke-width: .2px;
      }

      .nn {
        fill: #d6d6d6;
        fill-rule: evenodd;
      }

      .mx {
        stroke-width: .22px;
      }

      .my {
        stroke-width: .85px;
      }

      .mz {
        stroke-width: .7px;
      }

      .na {
        stroke-dasharray: 2.02 1.01;
      }

      .nb {
        stroke-width: .34px;
      }

      .nb, .nk {
        fill: #040000;
      }

      .nc {
        stroke-dasharray: 1.99 1;
      }

      .nd {
        stroke-width: 2px;
      }

      .ne {
        stroke-dasharray: 2.03 1.01;
      }

      .ng {
        stroke-width: .3px;
      }

      .nm {
        stroke: #040000;
        stroke-linecap: round;
        stroke-linejoin: round;
      }

      .nh {
        stroke-dasharray: 1.99 1;
      }

      .ni {
        stroke-dasharray: 2.02 1.01;
      }

      .nj {
        stroke-width: 1.2px;
      }
    </style>
  </defs>
  <g id="a" data-name="s2">
    <g id="b" data-name="HATCH">
      <path class="nn" d="M1314.6,390.09h-4.25s0,42.8,0,42.8h-386.79v-3.97h-7.09v3.97h-83.06v4.25h481.18s0-47.06,0-47.06M920.72,305.33h-2.83v12.76h-124.87v-12.76h-2.83v17.01h130.54v-17.01M1314.6,532.1h-436.54s0,17.01,0,17.01h11.34v-12.76h201.26v12.76h11.34v-12.76h201.26v12.76h11.34v-17.01M889.4,635.57h201.26v12.76h11.34v-12.76h201.26v12.76h1.42s9.92,0,9.92,0v-17.01h-436.54s0,17.01,0,17.01h11.34v-12.76M1334.3,754.62h-19.7v-1.98h-9.92v1.98h-510.24v-59.53h-7.09v70.87h546.94v-11.34M1334.3,699.35h-5.67v55.28h5.67v-55.28Z"/>
    </g>
    <g id="c" data-name="HATCH">
      <path class="nm" d="M878.06,437.74l.6-.6M878.06,440.28l3.14-3.14M878.06,442.83l5.67-5.67M878.06,445.37l5.67-5.67M878.06,447.92l5.67-5.67M878.06,450.47l5.67-5.67M878.06,453.01l5.67-5.67M878.06,455.56l5.67-5.67M878.06,458.1l5.67-5.67M878.06,460.65l5.67-5.67M878.06,463.19l5.67-5.67M878.06,465.74l5.67-5.67M878.06,468.28l5.67-5.67M878.06,470.83l5.67-5.67M878.06,473.38l5.67-5.67M878.06,475.92l5.67-5.67M878.06,478.47l5.67-5.67M878.06,481.01l5.67-5.67M878.06,483.56l5.67-5.67M878.06,486.1l5.67-5.67M878.06,488.65l5.67-5.67M878.06,491.19l5.67-5.67M878.06,493.74l5.67-5.67M878.06,496.29l5.67-5.67M878.06,498.83l5.67-5.67M878.06,501.38l5.67-5.67M878.06,503.92l5.67-5.67M878.06,506.47l5.67-5.67M878.06,509.01l5.67-5.67M878.06,511.56l5.67-5.67M878.06,514.11l5.67-5.67M878.06,516.65l5.67-5.67M878.06,519.2l5.67-5.67M878.06,521.74l5.67-5.67M878.06,524.29l5.67-5.67M878.06,526.83l5.67-5.67M878.06,529.38l5.67-5.67M878.06,531.92l5.67-5.67M880.43,532.1l3.3-3.3M882.97,532.1l.76-.76M880.9,549.45l.34-.34M880.9,552l2.89-2.89M880.9,554.55l5.43-5.43M880.9,557.09l5.67-5.67M880.9,559.64l5.67-5.67M880.9,562.18l5.67-5.67M880.9,564.73l5.67-5.67M880.9,567.27l5.67-5.67M880.9,569.82l5.67-5.67M880.9,572.36l5.67-5.67M880.9,574.91l5.67-5.67M880.9,577.46l5.67-5.67M880.9,580l5.67-5.67M880.9,582.55l5.67-5.67M880.9,585.09l5.67-5.67M880.9,587.64l5.67-5.67M880.9,590.18l5.67-5.67M880.9,592.73l5.67-5.67M880.9,595.27l5.67-5.67M880.9,597.82l5.67-5.67M880.9,600.37l5.67-5.67M880.9,602.91l5.67-5.67M880.9,605.46l5.67-5.67M880.9,608l5.67-5.67M880.9,610.55l5.67-5.67M880.9,613.09l5.67-5.67M880.9,615.64l5.67-5.67M880.9,618.18l5.67-5.67M880.9,620.73l5.67-5.67M880.9,623.28l5.67-5.67M880.9,625.82l5.67-5.67M880.9,628.37l5.67-5.67M880.9,630.91l5.67-5.67M883.04,631.32l3.53-3.53M885.58,631.32l.98-.98M880.9,648.73l.41-.41M880.9,651.28l2.95-2.95M880.9,653.82l5.5-5.5M880.9,656.37l5.67-5.67M880.9,658.91l5.67-5.67M880.9,661.46l5.67-5.67M880.9,664.01l5.67-5.67M880.9,666.55l5.67-5.67M880.9,669.1l5.67-5.67M880.9,671.64l5.67-5.67M880.9,674.19l5.67-5.67M880.9,676.73l5.67-5.67M880.9,679.28l5.67-5.67M880.9,681.82l5.67-5.67M880.9,684.37l5.67-5.67M880.9,686.92l5.67-5.67M880.9,689.46l5.67-5.67M880.9,692.01l5.67-5.67M880.9,694.55l5.67-5.67M880.9,697.1l5.67-5.67M880.9,699.64l5.67-5.67M880.9,702.19l5.67-5.67M880.9,704.73l5.67-5.67M880.9,707.28l5.67-5.67M880.9,709.83l5.67-5.67M880.9,712.37l5.67-5.67M880.9,714.92l5.67-5.67M880.9,717.46l5.67-5.67M880.9,720.01l5.67-5.67M880.9,722.55l5.67-5.67M880.9,725.1l5.67-5.67M880.9,727.65l5.67-5.67M880.9,730.19l5.67-5.67M880.9,732.74l5.67-5.67M880.9,735.28l5.67-5.67M880.9,737.83l5.67-5.67M880.9,740.37l5.67-5.67M880.9,742.92l5.67-5.67M880.9,745.46l5.67-5.67M880.9,748.01l5.67-5.67M880.9,750.56l5.67-5.67M880.9,753.1l5.67-5.67M881.92,754.62l4.65-4.65M884.47,754.62l2.1-2.1M1306.09,549.37l.26-.26M1306.09,551.92l2.81-2.81M1306.09,554.46l5.35-5.35M1306.09,557.01l5.67-5.67M1306.09,559.55l5.67-5.67M1306.09,562.1l5.67-5.67M1306.32,564.42l5.44-5.44M1308.86,564.42l2.9-2.9M1311.41,564.42l.35-.35M1305.99,590.2l.27-.27M1306,592.74l2.81-2.81M1306.01,595.28l5.35-5.35M1306.01,597.82l5.66-5.66M1306.02,600.36l5.66-5.66M1306.02,602.9l5.66-5.66M1306.03,605.44l5.66-5.66M1306.04,607.97l5.66-5.66M1306.04,610.51l5.66-5.66M1306.05,613.05l5.66-5.66M1306.05,615.59l5.66-5.66M1306.06,618.13l5.66-5.66M1306.07,620.67l5.66-5.66M1306.07,623.21l5.66-5.66M1306.08,625.75l5.66-5.66M1306.09,628.29l5.66-5.66M1306.09,630.83l5.66-5.66M1308.15,631.32l3.6-3.6M1310.7,631.32l1.06-1.06M1306.09,648.65l.32-.32M1306.09,651.19l2.87-2.87M1306.09,653.74l5.42-5.42M1306.09,656.28l5.67-5.67M1306.09,658.83l5.67-5.67M1306.09,661.38l5.67-5.67M1306.09,663.92l5.67-5.67M1306.09,666.47l5.67-5.67M1306.09,669.01l5.67-5.67M1306.09,671.56l5.67-5.67M1306.09,674.1l5.67-5.67M1306.09,676.65l5.67-5.67M1306.09,679.19l5.67-5.67M1308.33,679.5l3.43-3.43M1310.87,679.5l.89-.89M1306.09,707.2l2.18-2.18M1306.09,709.74l4.73-4.73M1306.09,712.29l5.67-5.67M1306.09,714.83l5.67-5.67M1306.09,717.38l5.67-5.67M1306.09,719.92l5.67-5.67M1306.09,722.47l5.67-5.67M1306.09,725.02l5.67-5.67M1306.09,727.56l5.67-5.67M1306.09,730.11l5.67-5.67M1306.09,732.65l5.67-5.67M1306.09,735.2l5.67-5.67M1306.09,737.74l5.67-5.67M1306.09,740.29l5.67-5.67M1306.09,742.83l5.67-5.67M1306.09,745.38l5.67-5.67M1306.09,747.93l5.67-5.67M1306.09,750.47l5.67-5.67M1306.47,752.64l5.29-5.29M1309.02,752.64l2.75-2.75M1311.56,752.64l.2-.2"/>
    </g>
    <g id="d" data-name="LINE">
      <line class="mw" x1="972.64" y1="428.64" x2="972.64" y2="321.29"/>
    </g>
    <g id="e" data-name="LINE">
      <line class="mw" x1="976" y1="321.44" x2="923.56" y2="319.08"/>
    </g>
    <g id="f" data-name="LINE">
      <line class="mw" x1="1008.6" y1="322.91" x2="1017.09" y2="323.29"/>
    </g>
    <g id="g" data-name="LINE">
      <line class="mw" x1="1017.09" y1="323.29" x2="1017.22" y2="320.46"/>
    </g>
    <g id="h" data-name="LINE">
      <line class="mw" x1="982.33" y1="318.89" x2="1017.22" y2="320.46"/>
    </g>
    <g id="i" data-name="LINE">
      <line class="mw" x1="982.2" y1="321.72" x2="982.33" y2="318.89"/>
    </g>
    <g id="j" data-name="LINE">
      <line class="mw" x1="982.33" y1="318.89" x2="923.56" y2="316.01"/>
    </g>
    <g id="k" data-name="LINE">
      <line class="mw" x1="1005.24" y1="428.64" x2="1005.24" y2="322.75"/>
    </g>
    <g id="l" data-name="LINE">
      <line class="mw" x1="982.2" y1="321.72" x2="976" y2="321.44"/>
    </g>
    <g id="m" data-name="LINE">
      <line class="mw" x1="982.2" y1="321.72" x2="1008.6" y2="322.91"/>
    </g>
    <g id="n" data-name="LINE">
      <line class="mw" x1="861.05" y1="566.06" x2="861.05" y2="631.32"/>
    </g>
    <g id="o" data-name="LINE">
      <line class="mw" x1="859.57" y1="631.32" x2="859.62" y2="566.06"/>
    </g>
    <g id="p" data-name="LINE">
      <line class="mw" x1="861.05" y1="437.14" x2="861.05" y2="527.88"/>
    </g>
    <g id="q" data-name="LINE">
      <line class="mw" x1="859.64" y1="527.88" x2="859.64" y2="437.14"/>
    </g>
    <g id="r" data-name="LINE">
      <line class="mw" x1="829.31" y1="528.44" x2="829.31" y2="593.7"/>
    </g>
    <g id="s" data-name="LINE">
      <line class="mw" x1="827.89" y1="593.7" x2="827.89" y2="528.44"/>
    </g>
    <g id="t" data-name="LINE">
      <line class="mw" x1="827.89" y1="490.26" x2="827.89" y2="437.14"/>
    </g>
    <g id="u" data-name="LINE">
      <line class="mw" x1="829.31" y1="490.26" x2="829.31" y2="437.14"/>
    </g>
    <g id="v" data-name="LINE">
      <line class="mw" x1="974.04" y1="739.46" x2="974.04" y2="651.52"/>
    </g>
    <g id="w" data-name="LINE">
      <line class="mw" x1="969.41" y1="739.46" x2="969.41" y2="651.52"/>
    </g>
    <g id="x" data-name="LINE">
      <line class="mw" x1="1246.85" y1="750.37" x2="1246.85" y2="665.33"/>
    </g>
    <g id="y" data-name="LWPOLYLINE">
      <line class="mw" x1="829.3" y1="465.23" x2="833.98" y2="465.23"/>
    </g>
    <g id="z" data-name="LWPOLYLINE">
      <line class="mw" x1="834.97" y1="465.23" x2="859.63" y2="465.23"/>
    </g>
    <g id="aa" data-name="LWPOLYLINE">
      <line class="mw" x1="859.63" y1="487.91" x2="835.54" y2="487.91"/>
    </g>
    <g id="ab" data-name="LWPOLYLINE">
      <line class="mw" x1="833.98" y1="487.91" x2="829.3" y2="487.91"/>
    </g>
    <g id="ac" data-name="LWPOLYLINE">
      <polyline class="mw" points="834.97 466.08 858.78 466.08 858.78 487.06 834.97 487.06"/>
    </g>
    <g id="ad" data-name="LWPOLYLINE">
      <polyline class="mw" points="833.98 487.06 830.15 487.06 830.15 466.08 833.98 466.08"/>
    </g>
    <g id="ae" data-name="LWPOLYLINE">
      <line class="mw" x1="829.3" y1="568.67" x2="833.98" y2="568.67"/>
    </g>
    <g id="af" data-name="LWPOLYLINE">
      <line class="mw" x1="834.97" y1="568.67" x2="838.38" y2="568.67"/>
    </g>
    <g id="ag" data-name="LWPOLYLINE">
      <line class="mw" x1="838.94" y1="568.67" x2="859.62" y2="568.67"/>
    </g>
    <g id="ah" data-name="LWPOLYLINE">
      <line class="mw" x1="859.63" y1="591.35" x2="835.54" y2="591.35"/>
    </g>
    <g id="ai" data-name="LWPOLYLINE">
      <line class="mw" x1="833.98" y1="591.35" x2="829.3" y2="591.35"/>
    </g>
    <g id="aj" data-name="LWPOLYLINE">
      <polyline class="mw" points="838.94 569.52 858.78 569.52 858.78 590.5 834.97 590.5"/>
    </g>
    <g id="ak" data-name="LWPOLYLINE">
      <polyline class="mw" points="833.98 590.5 830.15 590.5 830.15 569.52 833.98 569.52"/>
    </g>
    <g id="al" data-name="LWPOLYLINE">
      <line class="mw" x1="834.97" y1="569.52" x2="838.37" y2="569.52"/>
    </g>
    <g id="am" data-name="LINE">
      <line class="mw" x1="1035" y1="428.64" x2="1035" y2="388.95"/>
    </g>
    <g id="an" data-name="LINE">
      <line class="mw" x1="1005.24" y1="388.95" x2="1306.94" y2="388.95"/>
    </g>
    <g id="ao" data-name="LINE">
      <line class="mw" x1="1074.23" y1="739.46" x2="1074.23" y2="665.33"/>
    </g>
    <g id="ap" data-name="LINE">
      <line class="mw" x1="1103.42" y1="665.33" x2="1301.68" y2="665.33"/>
    </g>
    <g id="aq" data-name="LWPOLYLINE">
      <polyline class="mw" points="988.61 651.1 988.61 665.33 1089.24 665.33"/>
    </g>
    <g id="ar" data-name="LINE">
      <line class="mw" x1="980.11" y1="739.46" x2="1089.24" y2="739.46"/>
    </g>
    <g id="as" data-name="LINE">
      <line class="mw" x1="1054.19" y1="739.46" x2="1054.19" y2="665.33"/>
    </g>
    <g id="at" data-name="LINE">
      <line class="mw" x1="1034.15" y1="739.46" x2="1034.15" y2="665.33"/>
    </g>
    <g id="au" data-name="LINE">
      <line class="mw" x1="1014.11" y1="739.46" x2="1014.11" y2="665.33"/>
    </g>
    <g id="av" data-name="LINE">
      <line class="mw" x1="994.07" y1="739.46" x2="994.07" y2="665.33"/>
    </g>
    <g id="aw" data-name="LWPOLYLINE">
      <line class="mw" x1="1276.05" y1="750.37" x2="1276.05" y2="665.33"/>
    </g>
    <g id="ax" data-name="LWPOLYLINE">
      <line class="mw" x1="1299.57" y1="665.33" x2="1299.57" y2="750.37"/>
    </g>
    <g id="ay" data-name="LINE">
      <line class="mw" x1="1264.71" y1="750.37" x2="1264.71" y2="665.33"/>
    </g>
    <g id="az" data-name="LINE">
      <line class="mw" x1="1253.37" y1="750.37" x2="1253.37" y2="665.33"/>
    </g>
    <g id="ba" data-name="LINE">
      <line class="mw" x1="1276.05" y1="707.31" x2="1246.85" y2="707.31"/>
    </g>
    <g id="bb" data-name="LINE">
      <line class="mw" x1="1005.24" y1="390.65" x2="1306.94" y2="390.65"/>
    </g>
    <g id="bc" data-name="LINE">
      <line class="mw" x1="917.32" y1="304.2" x2="793.59" y2="304.2"/>
    </g>
    <g id="bd" data-name="LINE">
      <line class="mw" x1="793.59" y1="305.9" x2="917.32" y2="305.9"/>
    </g>
    <g id="be" data-name="LINE">
      <line class="nf" x1="1090.66" y1="557.61" x2="1090.66" y2="627.06"/>
    </g>
    <g id="bf" data-name="LINE">
      <line class="nf" x1="1034.82" y1="557.61" x2="1034.82" y2="603.22"/>
    </g>
    <g id="bg" data-name="LINE">
      <line class="nf" x1="993.45" y1="627.06" x2="993.45" y2="557.61"/>
    </g>
    <g id="bh" data-name="LINE">
      <line class="nf" x1="833.42" y1="428.64" x2="797.98" y2="428.64"/>
    </g>
    <g id="bi" data-name="LINE">
      <line class="nf" x1="833.42" y1="437.14" x2="797.98" y2="437.14"/>
    </g>
    <g id="bj" data-name="LINE">
      <line class="nf" x1="1209.45" y1="750.37" x2="1209.45" y2="736.2"/>
    </g>
    <g id="bk" data-name="LINE">
      <line class="nf" x1="1209.45" y1="735.63" x2="1209.45" y2="722.02"/>
    </g>
    <g id="bl" data-name="LINE">
      <line class="nf" x1="1209.45" y1="721.46" x2="1209.45" y2="707.85"/>
    </g>
    <g id="bm" data-name="LINE">
      <line class="nf" x1="1209.45" y1="707.28" x2="1209.45" y2="693.68"/>
    </g>
    <g id="bn" data-name="LINE">
      <line class="nf" x1="1209.45" y1="693.11" x2="1209.45" y2="679.5"/>
    </g>
    <g id="bo" data-name="LINE">
      <line class="nf" x1="1209.45" y1="678.94" x2="1209.45" y2="665.33"/>
    </g>
    <g id="bp" data-name="LINE">
      <line class="nf" x1="1172.06" y1="750.37" x2="1172.06" y2="736.2"/>
    </g>
    <g id="bq" data-name="LINE">
      <line class="nf" x1="1172.06" y1="735.63" x2="1172.06" y2="722.02"/>
    </g>
    <g id="br" data-name="LINE">
      <line class="nf" x1="1172.06" y1="721.46" x2="1172.06" y2="707.85"/>
    </g>
    <g id="bs" data-name="LINE">
      <line class="nf" x1="1172.06" y1="707.28" x2="1172.06" y2="693.68"/>
    </g>
    <g id="bt" data-name="LINE">
      <line class="nf" x1="1172.06" y1="693.11" x2="1172.06" y2="679.5"/>
    </g>
    <g id="bu" data-name="LINE">
      <line class="nf" x1="1172.06" y1="678.94" x2="1172.06" y2="665.33"/>
    </g>
    <g id="bv" data-name="LINE">
      <line class="nf" x1="1246.85" y1="679.5" x2="1134.66" y2="679.5"/>
    </g>
    <g id="bw" data-name="LINE">
      <line class="nf" x1="1246.85" y1="678.94" x2="1134.66" y2="678.94"/>
    </g>
    <g id="bx" data-name="LINE">
      <line class="nf" x1="1246.85" y1="693.68" x2="1134.66" y2="693.68"/>
    </g>
    <g id="by" data-name="LINE">
      <line class="nf" x1="1246.85" y1="693.11" x2="1134.66" y2="693.11"/>
    </g>
    <g id="bz" data-name="LINE">
      <line class="nf" x1="1246.85" y1="707.85" x2="1134.66" y2="707.85"/>
    </g>
    <g id="ca" data-name="LINE">
      <line class="nf" x1="1246.85" y1="707.28" x2="1134.66" y2="707.28"/>
    </g>
    <g id="cb" data-name="LINE">
      <line class="nf" x1="1246.85" y1="722.02" x2="1134.66" y2="722.02"/>
    </g>
    <g id="cc" data-name="LINE">
      <line class="nf" x1="1246.85" y1="721.46" x2="1134.66" y2="721.46"/>
    </g>
    <g id="cd" data-name="LINE">
      <line class="nf" x1="1246.85" y1="736.2" x2="1134.66" y2="736.2"/>
    </g>
    <g id="ce" data-name="LINE">
      <line class="nf" x1="1246.85" y1="735.63" x2="1134.66" y2="735.63"/>
    </g>
    <g id="cf" data-name="LWPOLYLINE">
      <polyline class="nf" points="1103.42 690.84 1134.66 690.84 1134.66 750.37"/>
    </g>
    <g id="cg" data-name="LINE">
      <line class="nf" x1="1134.66" y1="690.84" x2="1134.66" y2="665.33"/>
    </g>
    <g id="ch" data-name="LWPOLYLINE">
      <g>
        <line class="nf" x1="1134.66" y1="690.84" x2="1133.94" y2="691.53"/>
        <line class="mv" x1="1133.19" y1="692.24" x2="1104.51" y2="719.56"/>
        <polyline class="nf" points="1104.14 719.92 1103.42 720.61 1104.14 721.3"/>
        <line class="mv" x1="1104.88" y1="722.01" x2="1133.57" y2="749.33"/>
        <line class="nf" x1="1133.94" y1="749.68" x2="1134.66" y2="750.37"/>
      </g>
    </g>
    <g id="ci" data-name="LWPOLYLINE">
      <g>
        <line class="nf" x1="1276.05" y1="665.33" x2="1276.53" y2="666.21"/>
        <line class="ne" x1="1277.02" y1="667.09" x2="1298.84" y2="706.53"/>
        <polyline class="nf" points="1299.09 706.98 1299.57 707.85 1299.09 708.73"/>
        <line class="ne" x1="1298.6" y1="709.61" x2="1276.77" y2="749.05"/>
        <line class="nf" x1="1276.53" y1="749.5" x2="1276.05" y2="750.37"/>
      </g>
    </g>
    <g id="cj" data-name="LINE">
      <line class="nf" x1="1317.43" y1="550.53" x2="1317.43" y2="629.9"/>
    </g>
    <g id="ck" data-name="LINE">
      <line class="nf" x1="1317.43" y1="649.74" x2="1317.43" y2="754.62"/>
    </g>
    <g id="cl" data-name="LWPOLYLINE">
      <line class="nf" x1="1263.01" y1="527.85" x2="1263.01" y2="452.73"/>
    </g>
    <g id="cm" data-name="LWPOLYLINE">
      <line class="nf" x1="1281.43" y1="452.73" x2="1281.43" y2="527.85"/>
    </g>
    <g id="cn" data-name="LWPOLYLINE">
      <rect class="nf" x="1264.42" y="454.15" width="15.59" height="72.28"/>
    </g>
    <g id="co" data-name="LWPOLYLINE">
      <line class="nf" x1="1169.46" y1="527.85" x2="1169.46" y2="452.73"/>
    </g>
    <g id="cp" data-name="LWPOLYLINE">
      <line class="nf" x1="1187.89" y1="452.73" x2="1187.89" y2="527.85"/>
    </g>
    <g id="cq" data-name="LWPOLYLINE">
      <rect class="nf" x="1170.88" y="454.15" width="15.59" height="72.28"/>
    </g>
    <g id="cr" data-name="LWPOLYLINE">
      <line class="nf" x1="1075.07" y1="527.85" x2="1075.07" y2="452.73"/>
    </g>
    <g id="cs" data-name="LWPOLYLINE">
      <rect class="nf" x="1076.49" y="454.15" width="15.59" height="72.28"/>
    </g>
    <g id="ct" data-name="LWPOLYLINE">
      <polyline class="nf" points="1031.88 527.85 1031.88 459.82 989.36 459.82 989.36 527.85"/>
    </g>
    <g id="cu" data-name="LWPOLYLINE">
      <polyline class="nf" points="1010.62 527.85 1010.62 460.67 990.21 460.67 990.21 527.85"/>
    </g>
    <g id="cv" data-name="LWPOLYLINE">
      <rect class="nf" x="991.91" y="462.37" width="17.01" height="63.78"/>
    </g>
    <g id="cw" data-name="LWPOLYLINE">
      <polyline class="nf" points="1031.03 527.85 1031.03 460.67 1010.62 460.67 1010.62 527.85"/>
    </g>
    <g id="cx" data-name="LWPOLYLINE">
      <rect class="nf" x="1012.32" y="462.37" width="17.01" height="63.78"/>
    </g>
    <g id="cy" data-name="LINE">
      <line class="nf" x1="1021.51" y1="603.22" x2="1021.51" y2="627.06"/>
    </g>
    <g id="cz" data-name="LINE">
      <line class="nf" x1="993.45" y1="603.22" x2="1034.82" y2="603.22"/>
    </g>
    <g id="da" data-name="LINE">
      <line class="nf" x1="1034.82" y1="603.22" x2="1034.82" y2="627.06"/>
    </g>
    <g id="db" data-name="LINE">
      <line class="nf" x1="1107.52" y1="568.81" x2="1107.52" y2="627.06"/>
    </g>
    <g id="dc" data-name="LWPOLYLINE">
      <path class="nf" d="M1015.38,603.22v-5.39c0-.7.56-1.26,1.26-1.26h3.12c.7,0,1.26.56,1.26,1.26v.76h-.55v-.62c0-.47-.38-.85-.85-.85h-2.83c-.47,0-.85.38-.85.85v5.24"/>
    </g>
    <g id="dd" data-name="LWPOLYLINE">
      <polyline class="nf" points="839.94 668.93 839.94 597.3 835.54 597.3"/>
    </g>
    <g id="de" data-name="LWPOLYLINE">
      <polyline class="nf" points="835.54 598.29 838.94 598.29 838.94 668.93"/>
    </g>
    <g id="df" data-name="LWPOLYLINE">
      <polyline class="nf" points="835.54 712.21 834.97 712.21 834.97 707.51"/>
    </g>
    <g id="dg" data-name="LWPOLYLINE">
      <line class="nf" x1="834.97" y1="707.11" x2="797.98" y2="707.11"/>
    </g>
    <g id="dh" data-name="LWPOLYLINE">
      <polyline class="nf" points="835.54 716.92 834.97 716.92 834.97 712.21"/>
    </g>
    <g id="di" data-name="LWPOLYLINE">
      <line class="nf" x1="834.97" y1="711.81" x2="797.98" y2="711.81"/>
    </g>
    <g id="dj" data-name="LWPOLYLINE">
      <polyline class="nf" points="835.54 721.62 834.97 721.62 834.97 716.92"/>
    </g>
    <g id="dk" data-name="LWPOLYLINE">
      <line class="nf" x1="834.97" y1="716.51" x2="797.98" y2="716.51"/>
    </g>
    <g id="dl" data-name="LWPOLYLINE">
      <polyline class="nf" points="835.54 726.32 834.97 726.32 834.97 721.62"/>
    </g>
    <g id="dm" data-name="LWPOLYLINE">
      <line class="nf" x1="834.97" y1="721.22" x2="797.98" y2="721.22"/>
    </g>
    <g id="dn" data-name="LWPOLYLINE">
      <polyline class="nf" points="835.54 731.02 834.97 731.02 834.97 726.32"/>
    </g>
    <g id="do" data-name="LWPOLYLINE">
      <line class="nf" x1="834.97" y1="725.92" x2="797.98" y2="725.92"/>
    </g>
    <g id="dp" data-name="LWPOLYLINE">
      <polyline class="nf" points="835.54 735.72 834.97 735.72 834.97 731.02"/>
    </g>
    <g id="dq" data-name="LWPOLYLINE">
      <line class="nf" x1="834.97" y1="730.62" x2="797.98" y2="730.62"/>
    </g>
    <g id="dr" data-name="LWPOLYLINE">
      <line class="nf" x1="834.97" y1="739.46" x2="834.97" y2="735.72"/>
    </g>
    <g id="ds" data-name="LWPOLYLINE">
      <line class="nf" x1="834.97" y1="735.32" x2="797.98" y2="735.32"/>
    </g>
    <g id="dt" data-name="LINE">
      <line class="nf" x1="839.94" y1="664.23" x2="876.64" y2="664.23"/>
    </g>
    <g id="du" data-name="LINE">
      <line class="nf" x1="839.94" y1="659.53" x2="876.64" y2="659.53"/>
    </g>
    <g id="dv" data-name="LINE">
      <line class="nf" x1="839.94" y1="654.82" x2="876.64" y2="654.82"/>
    </g>
    <g id="dw" data-name="LINE">
      <line class="nf" x1="839.94" y1="650.12" x2="876.64" y2="650.12"/>
    </g>
    <g id="dx" data-name="LINE">
      <line class="nf" x1="839.94" y1="645.42" x2="876.64" y2="645.42"/>
    </g>
    <g id="dy" data-name="LINE">
      <line class="nf" x1="839.94" y1="640.72" x2="876.64" y2="640.72"/>
    </g>
    <g id="dz" data-name="LINE">
      <line class="nf" x1="839.94" y1="636.02" x2="876.64" y2="636.02"/>
    </g>
    <g id="ea" data-name="LINE">
      <line class="nf" x1="839.94" y1="631.32" x2="876.64" y2="631.32"/>
    </g>
    <g id="eb" data-name="LINE">
      <line class="nf" x1="838.38" y1="628.48" x2="835.54" y2="628.48"/>
    </g>
    <g id="ec" data-name="LWPOLYLINE">
      <polyline class="nf" points="835.54 599.37 835.54 604.07 834.97 604.07 834.97 599.37"/>
    </g>
    <g id="ed" data-name="LWPOLYLINE">
      <line class="nf" x1="834.97" y1="598.97" x2="797.98" y2="598.97"/>
    </g>
    <g id="ee" data-name="LWPOLYLINE">
      <line class="nf" x1="834.97" y1="603.67" x2="797.98" y2="603.67"/>
    </g>
    <g id="ef" data-name="LWPOLYLINE">
      <line class="nf" x1="834.97" y1="608.37" x2="797.98" y2="608.37"/>
    </g>
    <g id="eg" data-name="LWPOLYLINE">
      <line class="nf" x1="834.97" y1="613.07" x2="797.98" y2="613.07"/>
    </g>
    <g id="eh" data-name="LWPOLYLINE">
      <line class="nf" x1="834.97" y1="617.78" x2="797.98" y2="617.78"/>
    </g>
    <g id="ei" data-name="LWPOLYLINE">
      <line class="nf" x1="834.97" y1="622.48" x2="797.98" y2="622.48"/>
    </g>
    <g id="ej" data-name="LWPOLYLINE">
      <line class="nf" x1="834.97" y1="627.18" x2="797.98" y2="627.18"/>
    </g>
    <g id="ek" data-name="LWPOLYLINE">
      <polyline class="nf" points="835.54 604.07 835.54 608.77 834.97 608.77 834.97 604.07"/>
    </g>
    <g id="el" data-name="LWPOLYLINE">
      <polyline class="nf" points="835.54 608.77 835.54 613.48 834.97 613.48 834.97 608.77"/>
    </g>
    <g id="em" data-name="LWPOLYLINE">
      <polyline class="nf" points="835.54 613.48 835.54 618.18 834.97 618.18 834.97 613.48"/>
    </g>
    <g id="en" data-name="LWPOLYLINE">
      <polyline class="nf" points="835.54 618.18 835.54 622.88 834.97 622.88 834.97 618.18"/>
    </g>
    <g id="eo" data-name="LWPOLYLINE">
      <polyline class="nf" points="835.54 622.88 835.54 627.58 834.97 627.58 834.97 622.88"/>
    </g>
    <g id="ep" data-name="LWPOLYLINE">
      <polyline class="nf" points="835.54 627.58 835.54 632.28 834.97 632.28 834.97 627.58"/>
    </g>
    <g id="eq" data-name="LWPOLYLINE">
      <line class="nf" x1="834.97" y1="631.88" x2="797.98" y2="631.88"/>
    </g>
    <g id="er" data-name="LWPOLYLINE">
      <polyline class="nf" points="835.54 632.28 835.54 636.98 834.97 636.98 834.97 632.28"/>
    </g>
    <g id="es" data-name="LINE">
      <line class="nf" x1="835.54" y1="636.98" x2="838.38" y2="636.98"/>
    </g>
    <g id="et" data-name="LWPOLYLINE">
      <polyline class="nf" points="839.94 565.49 839.94 493.86 835.54 493.86"/>
    </g>
    <g id="eu" data-name="LWPOLYLINE">
      <polyline class="nf" points="835.54 494.85 838.94 494.85 838.94 565.49"/>
    </g>
    <g id="ev" data-name="LINE">
      <line class="nf" x1="839.94" y1="560.79" x2="876.64" y2="560.79"/>
    </g>
    <g id="ew" data-name="LINE">
      <line class="nf" x1="839.94" y1="556.09" x2="876.64" y2="556.09"/>
    </g>
    <g id="ex" data-name="LINE">
      <line class="nf" x1="839.94" y1="551.38" x2="876.64" y2="551.38"/>
    </g>
    <g id="ey" data-name="LINE">
      <line class="nf" x1="839.94" y1="546.68" x2="876.64" y2="546.68"/>
    </g>
    <g id="ez" data-name="LINE">
      <line class="nf" x1="839.94" y1="541.98" x2="876.64" y2="541.98"/>
    </g>
    <g id="fa" data-name="LINE">
      <line class="nf" x1="839.94" y1="537.28" x2="876.64" y2="537.28"/>
    </g>
    <g id="fb" data-name="LINE">
      <line class="nf" x1="839.94" y1="532.58" x2="876.64" y2="532.58"/>
    </g>
    <g id="fc" data-name="LINE">
      <line class="nf" x1="839.94" y1="527.88" x2="876.64" y2="527.88"/>
    </g>
    <g id="fd" data-name="LINE">
      <line class="nf" x1="838.38" y1="525.04" x2="835.54" y2="525.04"/>
    </g>
    <g id="fe" data-name="LWPOLYLINE">
      <polyline class="nf" points="835.54 495.93 835.54 500.63 834.97 500.63 834.97 495.93"/>
    </g>
    <g id="ff" data-name="LWPOLYLINE">
      <line class="nf" x1="834.97" y1="495.53" x2="797.98" y2="495.53"/>
    </g>
    <g id="fg" data-name="LWPOLYLINE">
      <line class="nf" x1="834.97" y1="500.23" x2="797.98" y2="500.23"/>
    </g>
    <g id="fh" data-name="LWPOLYLINE">
      <line class="nf" x1="834.97" y1="504.93" x2="797.98" y2="504.93"/>
    </g>
    <g id="fi" data-name="LWPOLYLINE">
      <line class="nf" x1="834.97" y1="509.64" x2="797.98" y2="509.64"/>
    </g>
    <g id="fj" data-name="LWPOLYLINE">
      <line class="nf" x1="834.97" y1="514.34" x2="797.98" y2="514.34"/>
    </g>
    <g id="fk" data-name="LWPOLYLINE">
      <line class="nf" x1="834.97" y1="519.04" x2="797.98" y2="519.04"/>
    </g>
    <g id="fl" data-name="LWPOLYLINE">
      <line class="nf" x1="834.97" y1="523.74" x2="797.98" y2="523.74"/>
    </g>
    <g id="fm" data-name="LWPOLYLINE">
      <polyline class="nf" points="835.54 500.63 835.54 505.33 834.97 505.33 834.97 500.63"/>
    </g>
    <g id="fn" data-name="LWPOLYLINE">
      <polyline class="nf" points="835.54 505.33 835.54 510.04 834.97 510.04 834.97 505.33"/>
    </g>
    <g id="fo" data-name="LWPOLYLINE">
      <polyline class="nf" points="835.54 510.04 835.54 514.74 834.97 514.74 834.97 510.04"/>
    </g>
    <g id="fp" data-name="LWPOLYLINE">
      <polyline class="nf" points="835.54 514.74 835.54 519.44 834.97 519.44 834.97 514.74"/>
    </g>
    <g id="fq" data-name="LWPOLYLINE">
      <polyline class="nf" points="835.54 519.44 835.54 524.14 834.97 524.14 834.97 519.44"/>
    </g>
    <g id="fr" data-name="LWPOLYLINE">
      <polyline class="nf" points="835.54 524.14 835.54 528.84 834.97 528.84 834.97 524.14"/>
    </g>
    <g id="fs" data-name="LWPOLYLINE">
      <line class="nf" x1="834.97" y1="528.44" x2="797.98" y2="528.44"/>
    </g>
    <g id="ft" data-name="LWPOLYLINE">
      <polyline class="nf" points="835.54 528.84 835.54 533.54 834.97 533.54 834.97 528.84"/>
    </g>
    <g id="fu" data-name="LINE">
      <line class="nf" x1="835.54" y1="533.54" x2="838.38" y2="533.54"/>
    </g>
    <g id="fv" data-name="LWPOLYLINE">
      <polyline class="nf" points="838.94 525.04 838.38 525.04 838.38 562.66"/>
    </g>
    <g id="fw" data-name="LWPOLYLINE">
      <polyline class="nf" points="838.94 628.48 838.38 628.48 838.38 666.1"/>
    </g>
    <g id="fx" data-name="LWPOLYLINE">
      <g>
        <line class="nf" x1="1010.64" y1="461.2" x2="1010.12" y2="462.05"/>
        <line class="nc" x1="1009.6" y1="462.9" x2="991" y2="492.99"/>
        <polyline class="nf" points="990.74 493.41 990.21 494.26 990.73 495.12"/>
        <line class="ni" x1="991.26" y1="495.98" x2="1009.85" y2="526.67"/>
        <line class="nf" x1="1010.12" y1="527.1" x2="1010.63" y2="527.96"/>
      </g>
    </g>
    <g id="fy" data-name="LWPOLYLINE">
      <g>
        <line class="nf" x1="1010.62" y1="461.2" x2="1011.15" y2="462.05"/>
        <line class="nh" x1="1011.67" y1="462.9" x2="1030.25" y2="492.99"/>
        <polyline class="nf" points="1030.51 493.41 1031.03 494.26 1030.51 495.12"/>
        <line class="na" x1="1029.99" y1="495.98" x2="1011.41" y2="526.67"/>
        <line class="nf" x1="1011.15" y1="527.1" x2="1010.63" y2="527.96"/>
      </g>
    </g>
    <g id="fz" data-name="LINE">
      <line class="mu" x1="1089.24" y1="635.57" x2="1089.24" y2="750.37"/>
    </g>
    <g id="ga" data-name="LINE">
      <line class="mu" x1="1103.42" y1="635.57" x2="1103.42" y2="750.37"/>
    </g>
    <g id="gb" data-name="LINE">
      <line class="mu" x1="1099.16" y1="437.14" x2="1099.16" y2="527.85"/>
    </g>
    <g id="gc" data-name="LINE">
      <line class="mu" x1="1093.49" y1="437.14" x2="1093.49" y2="527.85"/>
    </g>
    <g id="gd" data-name="LINE">
      <line class="mu" x1="889.4" y1="648.32" x2="1090.66" y2="648.32"/>
    </g>
    <g id="ge" data-name="LINE">
      <line class="mu" x1="1102" y1="648.32" x2="1303.26" y2="648.32"/>
    </g>
    <g id="gf" data-name="LINE">
      <line class="mu" x1="1102" y1="549.11" x2="1107.52" y2="549.11"/>
    </g>
    <g id="gg" data-name="LINE">
      <line class="mu" x1="1111.53" y1="549.11" x2="1301.68" y2="549.11"/>
    </g>
    <g id="gh" data-name="LINE">
      <line class="mu" x1="889.4" y1="549.11" x2="1090.66" y2="549.11"/>
    </g>
    <g id="gi" data-name="LINE">
      <line class="mu" x1="1099.16" y1="446.72" x2="1308.22" y2="446.72"/>
    </g>
    <g id="gj" data-name="LINE">
      <line class="mu" x1="889.4" y1="446.72" x2="1093.49" y2="446.72"/>
    </g>
    <g id="gk" data-name="LINE">
      <line class="mu" x1="1102" y1="549.11" x2="1102" y2="557.61"/>
    </g>
    <g id="gl" data-name="LINE">
      <line class="mu" x1="1090.66" y1="549.11" x2="1090.66" y2="557.61"/>
    </g>
    <g id="gm" data-name="LINE">
      <line class="mu" x1="887.98" y1="665.33" x2="887.99" y2="665.33"/>
    </g>
    <g id="gn" data-name="LINE">
      <line class="mu" x1="796.57" y1="331.92" x2="833.42" y2="331.92"/>
    </g>
    <g id="go" data-name="LINE">
      <line class="mu" x1="836.25" y1="331.92" x2="883.73" y2="331.92"/>
    </g>
    <g id="gp" data-name="LINE">
      <line class="mu" x1="889.4" y1="331.92" x2="914.34" y2="331.92"/>
    </g>
    <g id="gq" data-name="LINE">
      <line class="mu" x1="1308.22" y1="447.06" x2="1308.22" y2="527.85"/>
    </g>
    <g id="gr" data-name="LINE">
      <line class="mu" x1="912.93" y1="322.34" x2="912.93" y2="428.64"/>
    </g>
    <g id="gs" data-name="LINE">
      <line class="mu" x1="889.4" y1="447.06" x2="889.4" y2="527.85"/>
    </g>
    <g id="gt" data-name="LWPOLYLINE">
      <polyline class="mu" points="1305.18 703.47 1304.68 702.97 1305.18 702.47 1304.68 701.97 1305.18 701.47 1304.68 700.97 1305.18 700.46 1304.68 699.96 1305.18 699.46 1304.68 698.96 1305.18 698.46 1304.68 697.96 1305.18 697.46 1304.68 696.96 1305.18 696.46 1304.68 695.95 1305.18 695.45 1304.68 694.95 1305.18 694.45 1304.68 693.95 1305.18 693.45 1304.68 692.95 1305.18 692.45 1304.68 691.95 1305.18 691.44 1304.68 690.94 1305.18 690.44 1304.68 689.94 1305.18 689.44 1304.68 688.94 1305.18 688.44 1304.68 687.94 1305.18 687.44 1304.68 686.93 1305.18 686.43 1304.68 685.93 1305.18 685.43 1304.68 684.93 1305.18 684.43 1304.68 683.93 1305.18 683.43 1304.68 682.93 1305.18 682.42 1304.68 681.92 1305.18 681.42 1304.68 680.92"/>
    </g>
    <g id="gu" data-name="LWPOLYLINE">
      <polyline class="mu" points="1305.18 588.38 1304.68 587.88 1305.18 587.38 1304.68 586.88 1305.18 586.38 1304.68 585.88 1305.18 585.38 1304.68 584.88 1305.18 584.38 1304.68 583.87 1305.18 583.37 1304.68 582.87 1305.18 582.37 1304.68 581.87 1305.18 581.37 1304.68 580.87 1305.18 580.37 1304.68 579.87 1305.18 579.36 1304.68 578.86 1305.18 578.36 1304.68 577.86 1305.18 577.36 1304.68 576.86 1305.18 576.36 1304.68 575.86 1305.18 575.36 1304.68 574.85 1305.18 574.35 1304.68 573.85 1305.18 573.35 1304.68 572.85 1305.18 572.35 1304.68 571.85 1305.18 571.35 1304.68 570.85 1305.18 570.34 1304.68 569.84 1305.18 569.34 1304.68 568.84 1305.18 568.34 1304.68 567.84 1305.18 567.34 1304.68 566.84 1305.18 566.34 1304.68 565.83"/>
    </g>
    <g id="gv" data-name="LINE">
      <line class="mu" x1="900.36" y1="651.06" x2="900.32" y2="739.46"/>
    </g>
    <g id="gw" data-name="LINE">
      <line class="mu" x1="899.34" y1="651.06" x2="899.3" y2="739.46"/>
    </g>
    <g id="gx" data-name="LWPOLYLINE">
      <polyline class="mu" points="834.97 699.01 834.97 667.83 833.98 667.83 833.98 701.84"/>
    </g>
    <g id="gy" data-name="LWPOLYLINE">
      <polyline class="mu" points="1298.3 452.73 1298.3 520.76 1308.22 520.76"/>
    </g>
    <g id="gz" data-name="CIRCLE">
      <circle class="mu" cx="1155.91" cy="649.45" r=".49"/>
    </g>
    <g id="ha" data-name="LWPOLYLINE">
      <rect class="mu" x="1130.6" y="650.45" width="25.14" height="1.13"/>
    </g>
    <g id="hb" data-name="CIRCLE">
      <circle class="mu" cx="1206.88" cy="649.45" r=".49"/>
    </g>
    <g id="hc" data-name="CIRCLE">
      <circle class="mu" cx="1257.85" cy="649.45" r=".49"/>
    </g>
    <g id="hd" data-name="LWPOLYLINE">
      <rect class="mu" x="1156.08" y="650.45" width="25.14" height="1.13"/>
    </g>
    <g id="he" data-name="LWPOLYLINE">
      <rect class="mu" x="1181.57" y="650.45" width="25.14" height="1.13"/>
    </g>
    <g id="hf" data-name="LWPOLYLINE">
      <rect class="mu" x="1207.05" y="650.45" width="25.14" height="1.13"/>
    </g>
    <g id="hg" data-name="LWPOLYLINE">
      <rect class="mu" x="1232.53" y="650.45" width="25.14" height="1.13"/>
    </g>
    <g id="hh" data-name="LWPOLYLINE">
      <rect class="mu" x="1258.02" y="650.45" width="25.14" height="1.13"/>
    </g>
    <g id="hi" data-name="LWPOLYLINE">
      <polyline class="mu" points="834.97 590.87 834.97 559.68 833.98 559.68 833.98 593.7"/>
    </g>
    <g id="hj" data-name="LWPOLYLINE">
      <polyline class="mu" points="834.97 487.43 834.97 456.25 833.98 456.25 833.98 490.26"/>
    </g>
    <g id="hk" data-name="LINE">
      <line class="mw" x1="1310.34" y1="702.18" x2="1310.34" y2="682.34"/>
    </g>
    <g id="hl" data-name="LINE">
      <line class="mw" x1="1310.34" y1="587.09" x2="1310.34" y2="567.25"/>
    </g>
    <g id="hm" data-name="LINE">
      <line class="ng" x1="1308.93" y1="682.34" x2="1308.93" y2="702.18"/>
    </g>
    <g id="hn" data-name="LINE">
      <line class="ng" x1="1311.76" y1="682.34" x2="1311.76" y2="702.18"/>
    </g>
    <g id="ho" data-name="LINE">
      <line class="ng" x1="1308.93" y1="567.25" x2="1308.93" y2="587.09"/>
    </g>
    <g id="hp" data-name="LINE">
      <line class="ng" x1="1311.76" y1="567.25" x2="1311.76" y2="587.09"/>
    </g>
    <g id="hq" data-name="LWPOLYLINE">
      <polyline class="mu" points="786.79 305.9 786.79 304.17 793.59 304.2 793.59 305.9"/>
    </g>
    <g id="hr" data-name="LWPOLYLINE">
      <polyline class="mu" points="924.12 305.9 924.12 304.17 917.32 304.2 917.32 305.9"/>
    </g>
    <g id="hs" data-name="LWPOLYLINE">
      <polyline class="mu" points="1318 390.65 1318 388.92 1306.94 388.95 1306.94 390.65"/>
    </g>
    <g id="ht" data-name="LWPOLYLINE">
      <line class="mu" x1="1301.68" y1="750.37" x2="887.98" y2="750.37"/>
    </g>
    <g id="hu" data-name="LWPOLYLINE">
      <line class="mu" x1="1301.68" y1="750.65" x2="887.98" y2="750.65"/>
    </g>
    <g id="hv" data-name="LWPOLYLINE">
      <line class="mu" x1="876.64" y1="750.37" x2="797.98" y2="750.37"/>
    </g>
    <g id="hw" data-name="LWPOLYLINE">
      <line class="mu" x1="876.64" y1="750.65" x2="797.98" y2="750.65"/>
    </g>
    <g id="hx" data-name="LWPOLYLINE">
      <line class="mu" x1="1301.68" y1="627.06" x2="1111.53" y2="627.06"/>
    </g>
    <g id="hy" data-name="LWPOLYLINE">
      <line class="mu" x1="1301.68" y1="627.35" x2="1111.53" y2="627.35"/>
    </g>
    <g id="hz" data-name="LWPOLYLINE">
      <line class="mu" x1="1107.52" y1="627.06" x2="887.98" y2="627.06"/>
    </g>
    <g id="ia" data-name="LWPOLYLINE">
      <line class="mu" x1="1107.52" y1="627.35" x2="887.98" y2="627.35"/>
    </g>
    <g id="ib" data-name="LWPOLYLINE">
      <line class="mu" x1="1310.34" y1="527.85" x2="885.14" y2="527.85"/>
    </g>
    <g id="ic" data-name="LWPOLYLINE">
      <line class="mu" x1="1310.34" y1="528.13" x2="885.14" y2="528.13"/>
    </g>
    <g id="id" data-name="LWPOLYLINE">
      <line class="mu" x1="1307.51" y1="430.06" x2="923.56" y2="430.06"/>
    </g>
    <g id="ie" data-name="LWPOLYLINE">
      <line class="mu" x1="1307.51" y1="430.34" x2="923.56" y2="430.34"/>
    </g>
    <g id="if" data-name="LWPOLYLINE">
      <line class="mu" x1="916.47" y1="428.64" x2="836.25" y2="428.64"/>
    </g>
    <g id="ig" data-name="LWPOLYLINE">
      <line class="mu" x1="916.47" y1="428.92" x2="836.25" y2="428.92"/>
    </g>
    <g id="ih" data-name="LWPOLYLINE">
      <polyline class="mu" points="887.98 739.46 980.11 739.46 980.11 750.37"/>
    </g>
    <g id="ii" data-name="LWPOLYLINE">
      <polyline class="mu" points="1304.68 680.92 1301.68 680.92 1301.68 648.32 1304.68 648.32"/>
    </g>
    <g id="ij" data-name="LWPOLYLINE">
      <polyline class="mu" points="1304.68 703.6 1301.68 703.6 1301.68 754.62"/>
    </g>
    <g id="ik" data-name="LWPOLYLINE">
      <polyline class="mu" points="1314.6 752.64 1314.6 703.6 1311.76 703.6"/>
    </g>
    <g id="il" data-name="LWPOLYLINE">
      <polyline class="mu" points="1308.93 703.6 1304.68 703.6 1304.68 752.64"/>
    </g>
    <g id="im" data-name="LWPOLYLINE">
      <polyline class="mu" points="1314.6 588.51 1314.6 629.9 1317.43 629.9 1317.43 649.74 1314.6 649.74 1314.6 680.92 1311.76 680.92"/>
    </g>
    <g id="in" data-name="LWPOLYLINE">
      <polyline class="mu" points="1308.93 680.92 1304.68 680.92 1304.68 648.32"/>
    </g>
    <g id="io" data-name="LINE">
      <line class="mu" x1="1314.6" y1="588.51" x2="1311.76" y2="588.51"/>
    </g>
    <g id="ip" data-name="LWPOLYLINE">
      <polyline class="mu" points="1308.93 565.83 1304.68 565.83 1304.68 549.11"/>
    </g>
    <g id="iq" data-name="LINE">
      <line class="mu" x1="1301.68" y1="557.61" x2="1111.53" y2="557.61"/>
    </g>
    <g id="ir" data-name="LINE">
      <line class="mu" x1="1111.53" y1="536.35" x2="1111.53" y2="567.54"/>
    </g>
    <g id="is" data-name="LINE">
      <line class="mu" x1="1111.53" y1="567.54" x2="1107.52" y2="567.54"/>
    </g>
    <g id="it" data-name="LWPOLYLINE">
      <polyline class="mu" points="1304.68 588.51 1301.68 588.51 1301.68 631.32"/>
    </g>
    <g id="iu" data-name="LWPOLYLINE">
      <polyline class="mu" points="1308.93 588.51 1304.68 588.51 1304.68 631.32"/>
    </g>
    <g id="iv" data-name="LINE">
      <line class="mu" x1="887.99" y1="648.32" x2="887.98" y2="754.62"/>
    </g>
    <g id="iw" data-name="LINE">
      <line class="mu" x1="1310.34" y1="532.1" x2="1310.34" y2="447.06"/>
    </g>
    <g id="ix" data-name="LINE">
      <line class="mu" x1="887.98" y1="631.32" x2="887.98" y2="549.11"/>
    </g>
    <g id="iy" data-name="LINE">
      <line class="mu" x1="1107.52" y1="567.54" x2="1107.52" y2="536.35"/>
    </g>
    <g id="iz" data-name="LINE">
      <line class="mu" x1="1107.52" y1="557.61" x2="887.98" y2="557.61"/>
    </g>
    <g id="ja" data-name="LWPOLYLINE">
      <polyline class="mu" points="885.14 458.4 1031.88 458.4 1031.88 452.73 1310.34 452.73"/>
    </g>
    <g id="jb" data-name="LINE">
      <line class="mu" x1="797.98" y1="322.34" x2="797.98" y2="490.26"/>
    </g>
    <g id="jc" data-name="LINE">
      <line class="mu" x1="797.98" y1="490.83" x2="797.98" y2="593.7"/>
    </g>
    <g id="jd" data-name="LINE">
      <line class="mu" x1="797.98" y1="594.27" x2="797.98" y2="701.84"/>
    </g>
    <g id="je" data-name="LINE">
      <line class="mu" x1="797.98" y1="702.41" x2="797.98" y2="754.62"/>
    </g>
    <g id="jf" data-name="LWPOLYLINE">
      <polyline class="mu" points="790.19 305.33 787.35 305.33 787.35 695.09"/>
    </g>
    <g id="jg" data-name="LINE">
      <line class="mu" x1="876.64" y1="739.46" x2="797.98" y2="739.46"/>
    </g>
    <g id="jh" data-name="LWPOLYLINE">
      <polyline class="mu" points="920.72 305.33 923.56 305.33 923.56 428.92"/>
    </g>
    <g id="ji" data-name="LINE">
      <line class="mu" x1="916.47" y1="332.97" x2="916.47" y2="428.92"/>
    </g>
    <g id="jj" data-name="LWPOLYLINE">
      <line class="mu" x1="885.14" y1="532.1" x2="885.14" y2="447.06"/>
    </g>
    <g id="jk" data-name="LINE">
      <line class="mu" x1="876.64" y1="437.14" x2="876.64" y2="565.49"/>
    </g>
    <g id="jl" data-name="LINE">
      <line class="mu" x1="797.98" y1="337.93" x2="833.42" y2="337.93"/>
    </g>
    <g id="jm" data-name="LINE">
      <line class="mu" x1="836.25" y1="337.93" x2="916.47" y2="337.93"/>
    </g>
    <g id="jn" data-name="LINE">
      <line class="mu" x1="833.42" y1="432.89" x2="833.42" y2="322.34"/>
    </g>
    <g id="jo" data-name="LINE">
      <line class="mu" x1="836.25" y1="432.89" x2="836.25" y2="322.34"/>
    </g>
    <g id="jp" data-name="LWPOLYLINE">
      <polyline class="mu" points="1314.6 390.09 1317.43 390.09 1317.43 550.53 1314.6 550.53 1314.6 565.83 1311.76 565.83"/>
    </g>
    <g id="jq" data-name="LWPOLYLINE">
      <polyline class="mu" points="1304.68 565.83 1301.68 565.83 1301.68 536.35"/>
    </g>
    <g id="jr" data-name="LWPOLYLINE">
      <polyline class="mu" points="1107.52 631.32 1107.52 627.06 1111.53 627.06 1111.53 631.32"/>
    </g>
    <g id="js" data-name="LINE">
      <line class="mu" x1="795.86" y1="701.84" x2="834.97" y2="701.84"/>
    </g>
    <g id="jt" data-name="LINE">
      <line class="mu" x1="838.94" y1="668.93" x2="879.48" y2="668.93"/>
    </g>
    <g id="ju" data-name="LWPOLYLINE">
      <polyline class="mu" points="838.38 739.46 838.38 668.93 835.54 668.93 835.54 739.46"/>
    </g>
    <g id="jv" data-name="LINE">
      <line class="mu" x1="795.86" y1="593.7" x2="834.97" y2="593.7"/>
    </g>
    <g id="jw" data-name="LINE">
      <line class="mu" x1="838.94" y1="565.49" x2="879.48" y2="565.49"/>
    </g>
    <g id="jx" data-name="LINE">
      <line class="mu" x1="795.86" y1="490.26" x2="834.97" y2="490.26"/>
    </g>
    <g id="jy" data-name="LWPOLYLINE">
      <polyline class="mu" points="1064.73 635.57 1064.73 658.23 1071.81 658.23 1071.81 659.65 1003.78 659.65 1003.78 658.23 1009.45 658.23 1009.45 651.11 887.99 651.05"/>
    </g>
    <g id="jz" data-name="LINE">
      <line class="mu" x1="876.64" y1="669.5" x2="876.64" y2="754.62"/>
    </g>
    <g id="ka" data-name="LINE">
      <line class="mu" x1="876.64" y1="566.06" x2="876.64" y2="668.93"/>
    </g>
    <g id="kb" data-name="LWPOLYLINE">
      <polyline class="mu" points="1310.34 390.09 1307.51 390.09 1307.51 432.89"/>
    </g>
    <g id="kc" data-name="LINE">
      <line class="mu" x1="836.25" y1="337.36" x2="916.47" y2="337.36"/>
    </g>
    <g id="kd" data-name="LINE">
      <line class="mu" x1="797.98" y1="337.36" x2="833.42" y2="337.36"/>
    </g>
    <g id="ke" data-name="LWPOLYLINE">
      <polyline class="mu" points="885.14 457.83 1031.32 457.84 1031.32 452.17 1310.34 452.17"/>
    </g>
    <g id="kf" data-name="LWPOLYLINE">
      <polyline class="mu" points="1064.16 635.57 1064.16 658.8 1071.25 658.8 1071.25 659.08 1004.35 659.08 1004.35 658.8 1010.02 658.8 1010.02 650.54 887.99 650.48"/>
    </g>
    <g id="kg" data-name="LINE">
      <line class="mu" x1="1107.52" y1="557.05" x2="887.98" y2="557.05"/>
    </g>
    <g id="kh" data-name="LINE">
      <line class="mu" x1="1301.68" y1="557.05" x2="1111.53" y2="557.05"/>
    </g>
    <g id="ki" data-name="LINE">
      <line class="my" x1="1311.76" y1="437.14" x2="1311.76" y2="532.1"/>
    </g>
    <g id="kj" data-name="LINE">
      <line class="my" x1="1314.6" y1="437.14" x2="1314.6" y2="532.1"/>
    </g>
    <g id="kk" data-name="LINE">
      <line class="my" x1="1310.94" y1="442.24" x2="1096.44" y2="442.24"/>
    </g>
    <g id="kl" data-name="LINE">
      <line class="my" x1="920.72" y1="322.34" x2="920.72" y2="428.92"/>
    </g>
    <g id="km" data-name="LINE">
      <line class="my" x1="917.89" y1="332.26" x2="917.89" y2="428.92"/>
    </g>
    <g id="kn" data-name="LINE">
      <line class="my" x1="797.98" y1="327.44" x2="833.42" y2="327.44"/>
    </g>
    <g id="ko" data-name="LINE">
      <line class="my" x1="836.25" y1="327.44" x2="886.45" y2="327.44"/>
    </g>
    <g id="kp" data-name="LINE">
      <line class="my" x1="793.02" y1="332.26" x2="793.02" y2="695.09"/>
    </g>
    <g id="kq" data-name="LINE">
      <line class="my" x1="790.19" y1="322.34" x2="790.19" y2="695.09"/>
    </g>
    <g id="kr" data-name="LINE">
      <line class="my" x1="1096.22" y1="442.24" x2="886.68" y2="442.24"/>
    </g>
    <g id="ks" data-name="LINE">
      <line class="my" x1="886.68" y1="327.44" x2="917.07" y2="327.44"/>
    </g>
    <g id="kt" data-name="LINE">
      <line class="my" x1="880.9" y1="648.32" x2="880.9" y2="754.62"/>
    </g>
    <g id="ku" data-name="LINE">
      <line class="my" x1="886.57" y1="754.62" x2="886.57" y2="648.32"/>
    </g>
    <g id="kv" data-name="LWPOLYLINE">
      <polyline class="my" points="1311.76 752.64 1311.76 705.02 1306.09 705.02 1306.09 752.64"/>
    </g>
    <g id="kw" data-name="LWPOLYLINE">
      <polyline class="my" points="1311.76 648.32 1311.76 679.5 1306.09 679.5 1306.09 648.32"/>
    </g>
    <g id="kx" data-name="LWPOLYLINE">
      <polyline class="my" points="1311.76 631.32 1311.66 589.93 1305.99 589.93 1306.09 631.32"/>
    </g>
    <g id="ky" data-name="LWPOLYLINE">
      <polyline class="my" points="1311.76 549.11 1311.76 564.42 1306.09 564.42 1306.09 549.11"/>
    </g>
    <g id="kz" data-name="LINE">
      <line class="my" x1="880.9" y1="549.11" x2="880.9" y2="631.32"/>
    </g>
    <g id="la" data-name="LINE">
      <line class="my" x1="886.57" y1="631.32" x2="886.57" y2="549.11"/>
    </g>
    <g id="lb" data-name="LINE">
      <line class="my" x1="883.73" y1="437.14" x2="883.73" y2="532.1"/>
    </g>
    <g id="lc" data-name="LINE">
      <line class="my" x1="878.06" y1="532.1" x2="878.06" y2="437.14"/>
    </g>
    <g id="ld" data-name="LWPOLYLINE">
      <rect class="mx" x="1308.93" y="702.18" width="2.83" height="1.42"/>
    </g>
    <g id="le" data-name="LWPOLYLINE">
      <rect class="mx" x="1308.93" y="680.92" width="2.83" height="1.42"/>
    </g>
    <g id="lf" data-name="LWPOLYLINE">
      <rect class="mx" x="1308.93" y="587.09" width="2.83" height="1.42"/>
    </g>
    <g id="lg" data-name="LWPOLYLINE">
      <rect class="mx" x="1308.93" y="565.83" width="2.83" height="1.42"/>
    </g>
    <g id="lh" data-name="LWPOLYLINE">
      <line class="mx" x1="834.97" y1="487.91" x2="834.97" y2="487.91"/>
    </g>
    <g id="li" data-name="LWPOLYLINE">
      <line class="mx" x1="834.97" y1="591.35" x2="834.97" y2="591.35"/>
    </g>
    <g id="lj" data-name="LWPOLYLINE">
      <polygon class="mx" points="1111.53 568.24 1111.53 567.54 1107.52 567.54 1107.52 568.81 1110.4 568.81 1110.4 568.24 1111.53 568.24"/>
    </g>
    <g id="lk" data-name="LWPOLYLINE">
      <rect class="mx" x="1110.68" y="568.53" width=".85" height="57.54"/>
    </g>
    <g id="ll" data-name="LWPOLYLINE">
      <polygon class="mx" points="1111.53 626.35 1111.53 627.06 1107.47 627.09 1107.47 625.81 1110.4 625.79 1110.4 626.35 1111.53 626.35"/>
    </g>
    <g id="lm" data-name="LWPOLYLINE">
      <path class="mz" d="M883.73,437.48v-.34h5.67v.34h-2.35c-.2,0-.37.16-.37.37v8.5c0,.2.16.37.37.37h2.35v.34h-5.67v-.34h2.35c.2,0,.37-.16.37-.37v-8.5c0-.2-.16-.37-.37-.37h-2.35Z"/>
    </g>
    <g id="ln" data-name="LWPOLYLINE">
      <path class="mz" d="M1093.49,437.48v-.34h5.67v.34h-2.35c-.2,0-.37.16-.37.37v8.5c0,.2.16.37.37.37h2.35v.34h-5.67v-.34h2.35c.2,0,.37-.16.37-.37v-8.5c0-.2-.16-.37-.37-.37h-2.35Z"/>
    </g>
    <g id="lo" data-name="LWPOLYLINE">
      <path class="mz" d="M1308.22,437.48v-.34h5.67v.34h-2.35c-.2,0-.37.16-.37.37v8.5c0,.2.16.37.37.37h2.35v.34h-5.67v-.34h2.35c.2,0,.37-.16.37-.37v-8.5c0-.2-.16-.37-.37-.37h-2.35Z"/>
    </g>
    <g id="lp" data-name="LWPOLYLINE">
      <path class="mz" d="M790.9,437.48v-.34h5.67v.34h-2.35c-.2,0-.37.16-.37.37v8.5c0,.2.16.37.37.37h2.35v.34h-5.67v-.34h2.35c.2,0,.37-.16.37-.37v-8.5c0-.2-.16-.37-.37-.37h-2.35Z"/>
    </g>
    <g id="lq" data-name="LWPOLYLINE">
      <path class="mz" d="M883.73,322.68v-.34h5.67v.34h-2.35c-.2,0-.37.16-.37.37v8.5c0,.2.16.37.37.37h2.35v.34h-5.67v-.34h2.35c.2,0,.37-.16.37-.37v-8.5c0-.2-.16-.37-.37-.37h-2.35Z"/>
    </g>
    <g id="lr" data-name="LWPOLYLINE">
      <path class="mz" d="M790.9,322.68v-.34h5.67v.34h-2.35c-.2,0-.37.16-.37.37v8.5c0,.2.16.37.37.37h2.35v.34h-5.67v-.34h2.35c.2,0,.37-.16.37-.37v-8.5c0-.2-.16-.37-.37-.37h-2.35Z"/>
    </g>
    <g id="ls" data-name="LWPOLYLINE">
      <path class="mz" d="M914.34,322.68v-.34h5.67v.34h-2.35c-.2,0-.37.16-.37.37v8.5c0,.2.16.37.37.37h2.35v.34h-5.67v-.34h2.35c.2,0,.37-.16.37-.37v-8.5c0-.2-.16-.37-.37-.37h-2.35Z"/>
    </g>
    <g id="lt" data-name="LWPOLYLINE">
      <path class="mz" d="M790.9,532.44v-.34h5.67v.34h-2.35c-.2,0-.37.16-.37.37v8.5c0,.2.16.37.37.37h2.35v.34h-5.67v-.34h2.35c.2,0,.37-.16.37-.37v-8.5c0-.2-.16-.37-.37-.37h-2.35Z"/>
    </g>
    <g id="lu" data-name="LWPOLYLINE">
      <path class="mz" d="M790.9,631.66v-.34h5.67v.34h-2.35c-.2,0-.37.16-.37.37v8.5c0,.2.16.37.37.37h2.35v.34h-5.67v-.34h2.35c.2,0,.37-.16.37-.37v-8.5c0-.2-.16-.37-.37-.37h-2.35Z"/>
    </g>
    <g id="lv" data-name="LWPOLYLINE">
      <polygon class="mz" points="795.29 707.51 795.29 699.01 795.86 699.01 795.86 702.13 834.97 702.13 834.97 699.01 835.54 699.01 835.54 707.51 834.97 707.51 834.97 702.41 795.86 702.41 795.86 707.51 795.29 707.51"/>
    </g>
    <g id="lw" data-name="LWPOLYLINE">
      <polygon class="mz" points="838.38 674.6 838.38 666.1 838.94 666.1 838.94 669.21 879.48 669.21 879.48 666.1 880.05 666.1 880.05 674.6 879.48 674.6 879.48 669.5 838.94 669.5 838.94 674.6 838.38 674.6"/>
    </g>
    <g id="lx" data-name="LWPOLYLINE">
      <polygon class="mz" points="795.29 599.37 795.29 590.87 795.86 590.87 795.86 593.98 834.97 593.98 834.97 590.87 835.54 590.87 835.54 599.37 834.97 599.37 834.97 594.27 795.86 594.27 795.86 599.37 795.29 599.37"/>
    </g>
    <g id="ly" data-name="LWPOLYLINE">
      <polygon class="mz" points="838.38 571.16 838.38 562.66 838.94 562.66 838.94 565.77 879.48 565.77 879.48 562.66 880.05 562.66 880.05 571.16 879.48 571.16 879.48 566.06 838.94 566.06 838.94 571.16 838.38 571.16"/>
    </g>
    <g id="lz" data-name="LWPOLYLINE">
      <polygon class="mz" points="795.29 495.93 795.29 487.43 795.86 487.43 795.86 490.54 834.97 490.54 834.97 487.43 835.54 487.43 835.54 495.93 834.97 495.93 834.97 490.83 795.86 490.83 795.86 495.93 795.29 495.93"/>
    </g>
    <g id="ma" data-name="LWPOLYLINE">
      <polyline class="nj" points="1328.63 754.62 1328.63 699.35 1334.3 699.35 1334.3 754.62"/>
    </g>
    <g id="mb" data-name="LWPOLYLINE">
      <polygon class="nj" points="1102 635.57 1102 648.32 1090.66 648.32 1090.66 635.57 889.4 635.57 889.4 648.32 878.06 648.32 878.06 631.32 1314.6 631.32 1314.6 648.32 1303.26 648.32 1303.26 635.57 1102 635.57"/>
    </g>
    <g id="mc" data-name="LWPOLYLINE">
      <polygon class="nj" points="1102 536.35 1102 549.11 1090.66 549.11 1090.66 536.35 889.4 536.35 889.4 549.11 878.06 549.11 878.06 532.1 1314.6 532.1 1314.6 549.11 1303.26 549.11 1303.26 536.35 1102 536.35"/>
    </g>
    <g id="md" data-name="LWPOLYLINE">
      <polygon class="nj" points="793.02 305.33 793.02 318.09 917.89 318.09 917.89 305.33 920.72 305.33 920.72 322.34 790.19 322.34 790.19 305.33 793.02 305.33"/>
    </g>
    <g id="me" data-name="LWPOLYLINE">
      <polygon class="nj" points="1310.34 432.89 1310.34 390.09 1314.6 390.09 1314.6 437.14 833.42 437.14 833.42 432.89 916.47 432.89 916.47 428.92 923.56 428.92 923.56 432.89 1310.34 432.89"/>
    </g>
    <g id="mf" data-name="LWPOLYLINE">
      <polygon class="nj" points="1314.6 754.62 1334.3 754.62 1334.3 765.96 787.35 765.96 787.35 695.09 794.44 695.09 794.44 754.62 1304.68 754.62 1304.68 752.64 1314.6 752.64 1314.6 754.62"/>
    </g>
    <path class="nd" d="M1334.3,765.96h-546.94v-68.03h-112.89c-39.96-3.38-44.43-7.09-53.08-9.05-33.84-7.64-62.5-11.91-110.85-11.91-78.2,0-278.6-20.29-348.31-20.29-52.96,0-274.11-.71-302.22-1.2"/>
    <path class="nd" d="M2260,797.43c-21.8-1.43-242.14-2.63-262.29-4.04-53.86-3.79-97.72-24.58-255.86-27.44l-407.56-8.68"/>
    <g id="mg" data-name="frame">
      <rect class="nl" x="464.72" y="141.56" width="1190.55" height="841.89"/>
    </g>
  </g>
  <g id="mm" data-name="">
    <path class="nb" d="M1215.12,587.92c.28.38.43.78.43,1.22,0,.49-.12.93-.35,1.31-.23.39-.55.69-.97.91-.41.22-.88.32-1.41.32s-1-.11-1.41-.32-.73-.52-.97-.91c-.23-.39-.35-.83-.35-1.31h.58c0,.39.09.74.28,1.05.18.31.44.55.77.72.33.17.7.26,1.1.26s.79-.08,1.12-.25.58-.39.76-.68c.18-.29.27-.62.27-1s-.09-.68-.27-.97c-.18-.28-.43-.51-.76-.67-.32-.16-.69-.24-1.1-.24h-.35v-.53h.34c.38,0,.73-.07,1.04-.22.31-.15.55-.35.72-.62.17-.26.26-.56.26-.9,0-.51-.18-.93-.55-1.26s-.84-.49-1.42-.49c-.38,0-.72.08-1.02.23-.3.16-.54.38-.7.66-.16.28-.25.61-.25.97h-.58c0-.46.11-.86.32-1.22.22-.36.52-.64.9-.85.38-.2.82-.31,1.32-.31s.94.1,1.32.31.68.49.9.85c.22.36.32.77.32,1.22,0,.37-.13.73-.38,1.09-.26.36-.59.63-1,.81.43.16.79.43,1.07.8Z"/>
    <path class="nb" d="M1052.96,590.54c.17-.16.37-.35.58-.56.72-.68,1.3-1.25,1.73-1.7.44-.46.81-.93,1.12-1.43.31-.5.47-.96.47-1.38s-.08-.77-.24-1.09c-.16-.32-.38-.57-.67-.75-.28-.18-.61-.27-.97-.27-.4,0-.78.14-1.15.41-.36.28-.64.63-.82,1.06l-.54-.23c.22-.52.57-.94,1.03-1.27.46-.33.96-.49,1.48-.49.47,0,.89.11,1.26.34s.66.54.87.94c.21.4.32.85.32,1.36s-.16,1.01-.49,1.55-.72,1.05-1.18,1.54c-.46.48-1.06,1.07-1.79,1.76-.5.47-.89.84-1.16,1.12l-.41-.34c.2-.21.39-.39.56-.56ZM1052.4,591.1h5.16v.5h-5.09l-.07-.5Z"/>
    <path class="nb" d="M1044.64,704h-.58v-8.02l-1.08.74-.31-.42,1.39-.97h.58v8.66Z"/>
    <path class="nb" d="M1139.92,489.84h1.4v.52h-1.4v2.54h-.58v-2.54h-3.95l-.08-.53,4.03-5.59h.58v5.6ZM1139.34,489.84v-4.61l-3.32,4.61h3.32Z"/>
    <g>
      <g>
        <path class="nb" d="M1773.18,1045.62v.55h-7.38v-.55h7.38ZM1771.58,1047.44c.52.36.78.84.78,1.46s-.26,1.09-.78,1.45c-.52.36-1.22.54-2.11.54s-1.58-.18-2.11-.53c-.53-.35-.79-.84-.79-1.46s.26-1.09.78-1.45c.52-.36,1.23-.54,2.11-.54s1.58.18,2.1.53ZM1767.82,1047.83c-.42.27-.62.62-.62,1.06s.21.79.62,1.06c.42.27.97.4,1.66.4s1.23-.13,1.65-.4c.41-.27.62-.62.62-1.06s-.21-.79-.62-1.06c-.42-.27-.96-.41-1.65-.41s-1.24.14-1.66.41ZM1775.38,1051.81v2.44h-6.97v1.71h-.62v-2.24h6.94v-1.36h-6.99v-.55h7.63ZM1775.85,1055.76v.55h-8.06v-.55h8.06ZM1769.81,1044.23v1.69h-.64v-1.69h.64ZM1775.38,1044.35v6.78h-.64v-6.78h.64Z"/>
        <path class="nb" d="M1783.83,1045.2v3.09h-4.76v2.45h-.62v-3h4.75v-1.99h-4.79v-.56h5.42ZM1782.38,1050.34c.89-.06,1.82-.17,2.8-.33l.08.56c-1.01.16-1.96.27-2.86.33s-1.91.09-3.04.09h-.91v-.56h.91c1.12,0,2.12-.03,3.01-.09ZM1786.65,1052.75c.71.37,1.06.88,1.06,1.55s-.35,1.21-1.06,1.58c-.71.37-1.68.56-2.93.56s-2.24-.19-2.95-.56c-.71-.37-1.06-.9-1.06-1.58s.35-1.18,1.06-1.55c.7-.37,1.69-.55,2.95-.55s2.22.18,2.93.55ZM1781.94,1052.93c-.5.13-.9.32-1.18.55-.28.24-.42.51-.42.82,0,.49.3.87.92,1.16s1.43.43,2.44.43,1.83-.14,2.44-.43c.61-.29.91-.68.91-1.16,0-.31-.14-.58-.41-.82-.28-.24-.67-.42-1.17-.55s-1.09-.2-1.76-.2-1.26.07-1.76.2ZM1787.63,1044.42v7.5h-.66v-7.5h.66Z"/>
        <path class="nb" d="M1793.38,1045.28v1.93c0,.56-.12,1.13-.36,1.71-.24.58-.57,1.11-.99,1.58s-.9.84-1.42,1.11l-.39-.5c.49-.23.93-.56,1.34-.99.41-.43.72-.9.94-1.41.22-.51.34-1.01.34-1.48v-1.93h.55ZM1793.12,1052.34v3.5h-.66v-3.5h.66ZM1800.56,1055.6v.56h-8.11v-.56h8.11ZM1793.45,1045.28v1.93c0,.49.11.96.34,1.43.22.47.53.89.92,1.27s.83.67,1.32.89l-.38.49c-.8-.36-1.46-.92-1.96-1.67s-.76-1.55-.76-2.41v-1.93h.52ZM1797.55,1047.66v.56h-2.53v-.56h2.53ZM1797.83,1044.67v8.48h-.63v-8.48h.63ZM1800.16,1044.4v9.07h-.62v-9.07h.62Z"/>
        <path class="nb" d="M1808.43,1045.58v.56h-4.93v6.97h-.64v-7.53h5.57ZM1806.91,1052.82c.79-.05,1.58-.16,2.37-.33l.08.56c-.85.16-1.68.27-2.5.33-.82.06-1.86.09-3.13.09h-.88v-.57h.88c1.33,0,2.38-.03,3.17-.08ZM1807.83,1048.98v.56h-4.54v-.56h4.54ZM1811.61,1049.19v.55h-2.97v-.55h2.97ZM1812.1,1044.4v12.08h-.64v-12.08h.64Z"/>
        <path class="nb" d="M1776.5,1068.81v.56h-10.91v-.56h10.91ZM1775.12,1070.82v3.67h-.64v-3.11h-7.67v-.56h8.32ZM1767.73,1062.68v1.58h6.66v-1.58h.64v4.4h-7.95v-4.4h.64ZM1767.73,1066.53h6.66v-1.72h-6.66v1.72ZM1771.37,1066.84v2.27h-.63v-2.27h.63Z"/>
        <path class="nb" d="M1788.79,1072.27v.57h-10.96v-.57h10.96ZM1787.3,1063.45v.56h-7.35v4.47h-.64v-5.03h7.99ZM1787.45,1068.23v.55h-8.13v-.55h8.13ZM1783.6,1068.44v4.14h-.63v-4.14h.63Z"/>
        <path class="nb" d="M1769.97,1089.3c1.32-.05,2.57-.15,3.75-.3l.04.5c-1.21.19-2.47.31-3.78.37s-2.71.09-4.21.09l-.13-.59c1.57,0,3.01-.03,4.33-.08ZM1773.31,1081.98v.56h-7.38v-.56h7.38ZM1771.09,1083.66c.43.18.76.44.99.78.23.34.35.73.35,1.18s-.12.82-.35,1.15c-.23.33-.57.59-.99.77-.43.18-.92.27-1.48.27s-1.06-.09-1.48-.27c-.42-.18-.75-.44-.98-.77-.23-.33-.35-.72-.35-1.15s.12-.84.35-1.18.56-.59.98-.78c.42-.18.92-.27,1.48-.27s1.05.09,1.48.27ZM1768.01,1084.39c-.41.32-.62.72-.62,1.22s.21.88.62,1.19c.41.31.94.46,1.6.46s1.2-.15,1.6-.46.61-.7.61-1.19-.2-.91-.61-1.23-.94-.47-1.6-.47-1.19.16-1.6.48ZM1769.95,1080.37v1.88h-.64v-1.88h.64ZM1769.96,1087.58v2h-.66v-2h.66ZM1775.25,1080.4v12.08h-.66v-12.08h.66Z"/>
        <path class="nb" d="M1785.05,1081.77v.56h-7.15v-.56h7.15ZM1782.95,1083.31c.43.17.76.42.99.74.23.32.35.69.35,1.12s-.12.8-.35,1.12c-.23.32-.56.56-.99.73s-.93.25-1.5.25-1.05-.08-1.48-.25c-.43-.17-.76-.41-.99-.73-.23-.32-.35-.69-.35-1.12s.12-.8.35-1.12c.23-.32.56-.56.99-.74.42-.17.92-.26,1.49-.26s1.07.09,1.5.26ZM1779.86,1084.02c-.41.29-.62.67-.62,1.14s.21.85.62,1.14c.41.29.95.44,1.61.44s1.19-.15,1.6-.44c.41-.29.62-.67.62-1.14s-.21-.85-.62-1.14c-.41-.29-.95-.44-1.61-.44s-1.19.15-1.6.44ZM1780.35,1087.96v1.54h6.12v-1.54h.64v4.34h-7.41v-4.34h.64ZM1780.35,1091.74h6.12v-1.71h-6.12v1.71ZM1781.79,1080.26v1.79h-.64v-1.79h.64ZM1787.11,1080.4v6.99h-.64v-6.99h.64ZM1789.03,1083.61v.57h-2.24v-.57h2.24Z"/>
        <path class="nb" d="M1793.98,1080.81v.92c0,.72-.15,1.4-.46,2.03-.31.63-.72,1.19-1.23,1.67-.51.48-1.08.84-1.69,1.11l-.35-.53c.57-.21,1.1-.54,1.58-.97.49-.43.88-.93,1.17-1.5.29-.57.44-1.17.44-1.8v-.92h.54ZM1799.85,1087.43v2.63h-6.96v1.97h-.62v-2.49h6.94v-1.55h-6.99v-.56h7.62ZM1800.34,1091.76v.55h-8.06v-.55h8.06ZM1794.07,1080.81v.92c0,.59.15,1.16.45,1.7.3.55.7,1.02,1.19,1.42.49.4,1.02.71,1.58.92l-.34.52c-.62-.24-1.2-.59-1.71-1.04s-.93-.97-1.24-1.58c-.31-.61-.46-1.25-.46-1.95v-.92h.53ZM1799.85,1080.4v6.36h-.64v-6.36h.64Z"/>
        <path class="nb" d="M1776.55,1108.23v.57h-10.96v-.57h10.96ZM1771.28,1099.28v.99c0,.8-.26,1.54-.77,2.21-.51.67-1.14,1.23-1.88,1.68-.74.45-1.47.76-2.18.94l-.28-.55c.61-.12,1.26-.39,1.97-.8.71-.41,1.31-.92,1.81-1.53.5-.61.75-1.26.75-1.95v-.99h.57ZM1771.35,1105.14v3.35h-.63v-3.35h.63ZM1771.36,1099.28v.99c0,.69.25,1.34.75,1.95.5.61,1.11,1.12,1.82,1.53.71.41,1.38.68,1.98.8l-.31.55c-.69-.17-1.41-.48-2.16-.93-.75-.45-1.38-1.02-1.89-1.69-.51-.68-.77-1.41-.77-2.2v-.99h.57Z"/>
        <path class="nb" d="M1781.89,1100.03c.38.33.68.8.89,1.41s.32,1.33.32,2.15-.11,1.54-.32,2.16-.51,1.09-.89,1.42-.83.5-1.34.5-.95-.17-1.33-.5-.68-.8-.89-1.42-.31-1.33-.31-2.16.1-1.54.31-2.15.51-1.08.89-1.41.83-.5,1.33-.5.96.17,1.34.5ZM1779.54,1100.56c-.29.29-.51.71-.67,1.23s-.24,1.13-.24,1.8.08,1.27.24,1.81c.16.53.38.94.67,1.24s.62.44,1.01.44.72-.15,1.02-.44c.29-.29.52-.71.69-1.24.16-.53.25-1.13.25-1.81s-.08-1.27-.25-1.8-.39-.94-.69-1.23c-.29-.29-.63-.44-1.02-.44s-.72.15-1.01.44ZM1785.26,1101.51v.56h-2.62v-.56h2.62ZM1785.26,1105.14v.56h-2.62v-.56h2.62ZM1785.67,1098.72v11.1h-.63v-11.1h.63ZM1788.01,1098.4v12.08h-.63v-12.08h.63Z"/>
        <path class="nb" d="M1791.21,1099.61v3.11h3.25v-3.11h.6v7.74h-4.48v-7.74h.63ZM1791.21,1106.79h3.25v-3.51h-3.25v3.51ZM1797.54,1098.72v11.1h-.63v-11.1h.63ZM1799.91,1103.32v.56h-2.55v-.56h2.55ZM1800.24,1098.4v12.08h-.63v-12.08h.63Z"/>
        <path class="nb" d="M1806.22,1098.81v.92c0,.72-.15,1.4-.46,2.03s-.72,1.19-1.23,1.67c-.51.48-1.08.84-1.69,1.11l-.35-.53c.57-.21,1.1-.54,1.58-.97.49-.43.88-.93,1.17-1.5.29-.57.44-1.17.44-1.8v-.92h.55ZM1812.08,1105.43v2.63h-6.96v1.97h-.62v-2.49h6.94v-1.55h-6.99v-.56h7.62ZM1812.57,1109.76v.55h-8.06v-.55h8.06ZM1806.3,1098.81v.92c0,.59.15,1.16.45,1.7.3.55.7,1.02,1.19,1.42.49.4,1.02.71,1.58.92l-.34.52c-.63-.24-1.2-.59-1.71-1.04-.52-.45-.93-.97-1.24-1.58-.31-.61-.46-1.25-.46-1.95v-.92h.53ZM1812.08,1098.4v6.36h-.64v-6.36h.64Z"/>
      </g>
      <g>
        <path class="nb" d="M1754.69,1055.55h-.67v-9.35l-1.26.87-.36-.49,1.62-1.13h.67v10.11Z"/>
        <path class="nb" d="M1751.59,1072.31c.2-.19.43-.41.68-.65.84-.79,1.51-1.46,2.02-1.99.51-.53.94-1.09,1.31-1.67s.55-1.12.55-1.61-.09-.9-.28-1.27-.45-.67-.78-.88c-.33-.21-.71-.32-1.13-.32-.47,0-.91.16-1.34.48-.42.32-.75.73-.96,1.24l-.63-.27c.26-.61.66-1.1,1.2-1.48.54-.38,1.12-.57,1.72-.57.55,0,1.04.13,1.47.39.43.26.77.63,1.01,1.09.25.47.37.99.37,1.58s-.19,1.18-.57,1.81-.84,1.23-1.38,1.79c-.54.56-1.23,1.25-2.09,2.05-.59.55-1.04.98-1.36,1.3l-.48-.39c.23-.24.45-.46.65-.65ZM1750.94,1072.96h6.02v.59h-5.94l-.08-.59Z"/>
        <path class="nb" d="M1756.62,1087.25c.33.44.5.92.5,1.43,0,.57-.14,1.08-.41,1.53s-.65.8-1.13,1.06-1.03.38-1.64.38-1.17-.13-1.65-.38-.86-.6-1.13-1.06-.41-.96-.41-1.53h.67c0,.46.11.87.32,1.23s.51.64.9.84c.38.2.81.3,1.29.3s.92-.1,1.3-.29.68-.46.89-.79.32-.72.32-1.16-.11-.8-.32-1.13-.5-.59-.88-.78c-.38-.19-.8-.28-1.28-.28h-.41v-.62h.39c.45,0,.85-.09,1.21-.26s.64-.41.84-.72c.2-.31.3-.66.3-1.05,0-.6-.21-1.09-.64-1.47-.43-.38-.98-.57-1.65-.57-.44,0-.83.09-1.19.27-.36.18-.63.44-.82.77-.19.33-.29.71-.29,1.13h-.67c0-.53.13-1.01.38-1.43s.6-.75,1.05-.99c.45-.24.96-.36,1.54-.36s1.09.12,1.54.36c.45.24.8.57,1.05.99.25.42.38.9.38,1.43,0,.43-.15.85-.45,1.27s-.69.73-1.16.94c.5.19.92.5,1.25.94Z"/>
        <path class="nb" d="M1755.8,1105.98h1.64v.6h-1.64v2.97h-.67v-2.97h-4.61l-.1-.62,4.7-6.52h.67v6.54ZM1755.12,1105.98v-5.38l-3.88,5.38h3.88Z"/>
      </g>
    </g>
  </g>
  <g id="mn" data-name="SCALE">
    <g>
      <g id="mo" data-name="MTEXT">
        <path class="nk" d="M281.36,1108.4c-.64-.5-1.13-1.2-1.49-2.1-.36-.9-.54-1.92-.54-3.06s.18-2.15.54-3.04c.36-.9.85-1.6,1.49-2.1.63-.5,1.36-.75,2.17-.75s1.53.25,2.17.75c.63.5,1.13,1.2,1.49,2.1.36.9.54,1.91.54,3.04s-.18,2.16-.54,3.05c-.36.89-.85,1.59-1.49,2.1-.64.51-1.36.76-2.17.76s-1.54-.25-2.17-.75ZM285.02,1107.36c.44-.41.78-.96,1.02-1.67s.36-1.52.36-2.44-.12-1.74-.36-2.45c-.24-.72-.58-1.27-1.02-1.67-.44-.4-.93-.6-1.49-.6s-1.05.2-1.48.6c-.43.4-.77.96-1.02,1.67-.25.71-.37,1.53-.37,2.43s.12,1.75.37,2.46c.25.71.58,1.27,1.02,1.67.43.41.93.61,1.48.61s1.05-.2,1.49-.61Z"/>
      </g>
      <g id="mp" data-name="MTEXT">
        <path class="nk" d="M336.68,1107.21c.19-.17.42-.38.71-.64.93-.85,1.68-1.57,2.24-2.15.57-.58,1.05-1.17,1.44-1.78.39-.6.59-1.16.59-1.67,0-.48-.09-.9-.28-1.27-.19-.37-.45-.66-.78-.86s-.71-.31-1.15-.31c-.47,0-.93.16-1.37.48s-.78.73-1,1.23l-1.2-.51c.3-.71.79-1.28,1.46-1.73.67-.45,1.38-.67,2.11-.67.69,0,1.31.16,1.85.46s.96.74,1.26,1.29.45,1.18.45,1.9-.22,1.41-.67,2.14c-.45.73-.98,1.41-1.6,2.04-.62.63-1.42,1.39-2.42,2.27-.49.45-.96.88-1.39,1.3l-.94-.85c.28-.27.51-.49.7-.66ZM335.99,1107.87h7.22v1.19h-7.05l-.18-1.19Z"/>
      </g>
      <g id="mq" data-name="MTEXT">
        <path class="nk" d="M423.16,1101.84c.55-.25,1.08-.38,1.59-.38.77,0,1.45.16,2.06.49.6.33,1.07.78,1.41,1.35.34.58.5,1.24.5,1.99s-.17,1.43-.5,2.02c-.33.59-.8,1.05-1.4,1.39-.6.34-1.29.5-2.07.5-.6,0-1.16-.12-1.69-.38-.53-.25-.98-.6-1.35-1.05-.37-.45-.62-.96-.74-1.52l1.3-.3c.13.59.42,1.07.89,1.43s1,.55,1.59.55c.5,0,.95-.11,1.35-.34.4-.22.72-.54.94-.94.23-.41.34-.86.34-1.36s-.11-.95-.34-1.34-.54-.69-.94-.91-.85-.33-1.35-.33c-.33,0-.68.09-1.04.26-.36.18-.66.4-.9.68l-.99-.86c.34-.38.79-.7,1.34-.95ZM421.48,1103.47l.37-6.04h5.93v1.18h-4.64l-.32,5.04-1.33-.19Z"/>
      </g>
      <g id="mr" data-name="MTEXT">
        <path class="nk" d="M312,1109.04h-1.35v-10.09l-1.86,1.2-.67-1.07,2.55-1.62h1.33v11.58Z"/>
      </g>
      <g id="ms" data-name="MTEXT">
        <g>
          <path class="nk" d="M561.37,1109.04h-1.35v-10.09l-1.86,1.2-.67-1.07,2.55-1.62h1.33v11.58Z"/>
          <path class="nk" d="M565.83,1108.4c-.64-.5-1.13-1.2-1.49-2.1s-.54-1.92-.54-3.06.18-2.15.54-3.04.85-1.6,1.49-2.1c.63-.5,1.36-.75,2.17-.75s1.53.25,2.17.75,1.13,1.2,1.49,2.1.54,1.91.54,3.04-.18,2.16-.54,3.05-.85,1.59-1.49,2.1c-.64.51-1.36.76-2.17.76s-1.54-.25-2.17-.75ZM569.49,1107.36c.44-.41.78-.96,1.02-1.67s.36-1.52.36-2.44-.12-1.74-.36-2.45c-.24-.72-.58-1.27-1.02-1.67-.44-.4-.93-.6-1.49-.6s-1.05.2-1.48.6c-.43.4-.77.96-1.02,1.67-.25.71-.37,1.53-.37,2.43s.12,1.75.37,2.46.58,1.27,1.02,1.67c.43.41.93.61,1.48.61s1.05-.2,1.49-.61Z"/>
          <path class="nk" d="M583.38,1103.3c-.29-.34-.67-.5-1.13-.5-.35,0-.66.07-.94.22-.27.14-.49.34-.65.6s-.24.55-.24.88v4.58h-1.33v-4.45c0-.54-.14-.98-.43-1.32-.29-.34-.66-.5-1.12-.5-.34,0-.65.09-.94.26-.28.18-.5.42-.66.72-.15.3-.23.63-.23.99v4.31h-1.33v-7.46h1.33v1.31l-.14-.05c.22-.37.52-.68.9-.91.37-.23.75-.35,1.14-.35.46,0,.9.13,1.32.38.42.26.74.59.95.99.25-.41.59-.74,1.04-.99.45-.26.9-.38,1.36-.38.56,0,1.05.13,1.49.38s.78.59,1.02,1.02.37.93.37,1.5v4.56h-1.35v-4.45c0-.54-.15-.98-.44-1.32Z"/>
        </g>
      </g>
      <g id="mt" data-name="LWPOLYLINE">
        <polyline class="mu" points="566.32 1076.38 566.32 1093.39 424.59 1093.39 424.59 1076.38 339.55 1076.38 339.55 1093.39 311.2 1093.39 311.2 1076.38 282.85 1076.38 282.85 1093.39"/>
      </g>
    </g>
  </g>
</svg>